<svg xmlns="http://www.w3.org/2000/svg" xmlns:xlink="http://www.w3.org/1999/xlink" width="505" height="126" viewBox="0 0 505 126">
  <defs>
    <filter id="Elipse_4719" x="189.5" y="0" width="126" height="126" filterUnits="userSpaceOnUse">
      <feOffset dy="1" input="SourceAlpha"/>
      <feGaussianBlur stdDeviation="5.5" result="blur"/>
      <feFlood flood-color="#fff" flood-opacity="0.902"/>
      <feComposite operator="in" in2="blur"/>
      <feComposite in="SourceGraphic"/>
    </filter>
    <clipPath id="clip-path">
      <path id="path7077" d="M0-682.665H70.326v70.326H0Z" transform="translate(0 682.665)"/>
    </clipPath>
    <filter id="Elipse_4719-2" x="393.16" y="25.132" width="64" height="63" filterUnits="userSpaceOnUse">
      <feOffset dy="1" input="SourceAlpha"/>
      <feGaussianBlur stdDeviation="5.5" result="blur-2"/>
      <feFlood flood-color="#fff" flood-opacity="0.902"/>
      <feComposite operator="in" in2="blur-2"/>
      <feComposite in="SourceGraphic"/>
    </filter>
    <filter id="Elipse_4719-3" x="60.367" y="28.132" width="45" height="45" filterUnits="userSpaceOnUse">
      <feOffset dy="1" input="SourceAlpha"/>
      <feGaussianBlur stdDeviation="5.5" result="blur-3"/>
      <feFlood flood-color="#fff" flood-opacity="0.902"/>
      <feComposite operator="in" in2="blur-3"/>
      <feComposite in="SourceGraphic"/>
    </filter>
  </defs>
  <g id="_12" data-name="12" transform="translate(-915.156 -3937.5)">
    <rect id="Rectángulo_376369" data-name="Rectángulo 376369" width="505" height="115" rx="8" transform="translate(915.156 3942)" fill="#222b89"/>
    <g id="Grupo_1072629" data-name="Grupo 1072629" transform="translate(-178.278 -50)">
      <g id="Grupo_1072628" data-name="Grupo 1072628" transform="translate(1299.567 4003)">
        <g id="Grupo_1044235" data-name="Grupo 1044235" transform="translate(0 0)">
          <g transform="matrix(1, 0, 0, 1, -206.13, -15.5)" filter="url(#Elipse_4719)">
            <g id="Elipse_4719-4" data-name="Elipse 4719" transform="translate(206 15.5)" fill="none" stroke="#fff" stroke-width="6">
              <circle cx="46.5" cy="46.5" r="46.5" stroke="none"/>
              <circle cx="46.5" cy="46.5" r="43.5" fill="none"/>
            </g>
          </g>
        </g>
      </g>
      <g id="g7071" transform="translate(1310.544 4014.403)">
        <g id="g7073" transform="translate(0 0)">
          <g id="g7075" clip-path="url(#clip-path)">
            <g id="g7081" transform="translate(1.031 1.087)">
              <path id="path7083" d="M-594.4-33.115V5.574a3.8,3.8,0,0,1-3.8,3.8h-60.662a3.8,3.8,0,0,1-3.8-3.8V-33.115a3.8,3.8,0,0,1,3.8-3.8H-598.2a3.8,3.8,0,0,1,3.8,3.8" transform="translate(662.665 36.919)" fill="#555760"/>
            </g>
            <g id="g7085" transform="translate(61.376 1.087)">
              <path id="path7087" d="M-68.96-33.115V5.574a3.8,3.8,0,0,1-3.8,3.8H-76.88a3.8,3.8,0,0,0,3.8-3.8V-33.115a3.8,3.8,0,0,0-3.8-3.8h4.118a3.8,3.8,0,0,1,3.8,3.8" transform="translate(76.88 36.919)" fill="#36383f"/>
            </g>
            <path id="path7089" d="M49.972-594.053H110v-38.052H49.972Z" transform="translate(-44.824 637.314)" fill="#52deff"/>
            <path id="path7091" d="M590.935-594.053h4.3v-38.052h-4.3Z" transform="translate(-530.058 637.314)" fill="#55baff"/>
            <g id="g7093" transform="translate(9.397 40.634)">
              <path id="path7095" d="M-425.253-229.9a6.644,6.644,0,0,1-2.927,1.95,6.729,6.729,0,0,1-3.851.052c-2.966-.793-5.9-3.38-7.984-7.078a5.274,5.274,0,0,1-2.569.662,5.3,5.3,0,0,1-3.8-1.6,2.827,2.827,0,0,0-.887-.617,2.623,2.623,0,0,0-1.054-.223,2.719,2.719,0,0,0-1.941.839,5.294,5.294,0,0,1-3.8,1.6,5.27,5.27,0,0,1-2.569-.662c-2.993,5.323-7.77,8.343-11.837,7.026a6.651,6.651,0,0,1-2.927-1.95,12.741,12.741,0,0,1-2.694-8.458,21.482,21.482,0,0,1,1.067-6.553c2.184-6.768,7.111-11.41,11.664-11.392h26.1a6.778,6.778,0,0,1,.865.055c4.291.54,8.729,5.009,10.771,11.337,1.934,5.993,1.151,11.9-1.626,15.012" transform="translate(474.092 256.307)" fill="#eef6ff"/>
            </g>
            <g id="g7097" transform="translate(44.366 40.689)">
              <path id="path7099" d="M-134.93-98.715c1.934,5.993,1.151,11.9-1.626,15.012a6.644,6.644,0,0,1-2.927,1.95,6.729,6.729,0,0,1-3.851.052,6.652,6.652,0,0,0,2.919-1.948c2.777-3.117,3.56-9.019,1.626-15.01-2.18-6.756-7.09-11.394-11.637-11.394h4.725c4.291.54,8.729,5.009,10.771,11.337" transform="translate(150.426 110.052)" fill="#dae6ef"/>
            </g>
            <g id="g7101" transform="translate(26.514 53.605)">
              <path id="path7103" d="M-37.8-36.749a2.5,2.5,0,0,1-3.066.475,2.508,2.508,0,0,1-.477-.349,2.512,2.512,0,0,1-.128-3.547,2.492,2.492,0,0,1,.6-.478,2.5,2.5,0,0,1,2.938.35,2.512,2.512,0,0,1,.128,3.548" transform="translate(42.142 40.969)" fill="#555760"/>
            </g>
            <g id="g7105" transform="translate(27.79 53.605)">
              <path id="path7107" d="M-26.694-36.749a2.5,2.5,0,0,1-3.066.475,2.448,2.448,0,0,0,.6-.475,2.513,2.513,0,0,0-.126-3.548,2.577,2.577,0,0,0-.477-.35,2.5,2.5,0,0,1,2.938.35,2.512,2.512,0,0,1,.128,3.548" transform="translate(29.76 40.969)" fill="#36383f"/>
            </g>
            <g id="g7109" transform="translate(38.772 53.605)">
              <path id="path7111" d="M-37.8-36.749a2.5,2.5,0,0,1-3.066.475,2.508,2.508,0,0,1-.477-.349,2.512,2.512,0,0,1-.128-3.547,2.492,2.492,0,0,1,.6-.478,2.5,2.5,0,0,1,2.938.35,2.512,2.512,0,0,1,.128,3.548" transform="translate(42.142 40.969)" fill="#555760"/>
            </g>
            <g id="g7113" transform="translate(40.047 53.605)">
              <path id="path7115" d="M-26.694-36.749a2.5,2.5,0,0,1-3.066.475,2.448,2.448,0,0,0,.6-.475,2.513,2.513,0,0,0-.126-3.548,2.577,2.577,0,0,0-.477-.35,2.5,2.5,0,0,1,2.938.35,2.512,2.512,0,0,1,.128,3.548" transform="translate(29.76 40.969)" fill="#36383f"/>
            </g>
            <g id="g7117" transform="translate(26.448 40.634)">
              <path id="path7119" d="M-151.532,0l-2.747,7.782h-11.909L-168.936,0Z" transform="translate(168.936)" fill="#a8b3ba"/>
            </g>
            <g id="g7121" transform="translate(37.544 40.634)">
              <path id="path7123" d="M-23.919,0l-2.747,7.782h3.56L-20.359,0Z" transform="translate(26.667)" fill="#879299"/>
            </g>
            <g id="g7125" transform="translate(11.124 13.149)">
              <path id="path7127" d="M-151.889-134.511a9.649,9.649,0,0,1-7.706,3.92h-.067a9.678,9.678,0,0,1-9.671-9.685,9.677,9.677,0,0,1,9.671-9.685h.059a9.636,9.636,0,0,1,7.461,3.593l-5.792,5.8Z" transform="translate(169.333 149.96)" fill="#fff148"/>
            </g>
            <g id="g7129" transform="translate(19.776 13.15)">
              <path id="path7131" d="M-76.554-134.5a9.649,9.649,0,0,1-7.706,3.92c1.424-.08,3.813-2.644,3.813-3.931l-4.1-4.1a2.746,2.746,0,0,1,0-3.882l3.739-3.746c0-.955-2.194-3.624-3.464-3.707a9.636,9.636,0,0,1,7.461,3.593l-5.792,5.8Z" transform="translate(85.346 149.946)" fill="#ffcf4a"/>
            </g>
            <g id="g7133" transform="translate(48.54 22.834)">
              <path id="path7135" d="M-59.382-54.655a3.412,3.412,0,0,1-3.409,3.408,3.363,3.363,0,0,1-.854-.109,3.416,3.416,0,0,1-2.522-3.787l.821-5.789h5.11l.82,5.789a3.466,3.466,0,0,1,.034.488" transform="translate(66.201 60.932)" fill="#eef6ff"/>
            </g>
            <g id="g7137" transform="translate(51.096 22.834)">
              <path id="path7139" d="M-37.123-54.655a3.412,3.412,0,0,1-3.409,3.408,3.363,3.363,0,0,1-.854-.109c.894-.385,1.54-1.736,1.54-3.3,0-.161-.007-.324-.021-.489l-.5-5.789h2.386l.82,5.789a3.467,3.467,0,0,1,.034.488" transform="translate(41.387 60.932)" fill="#dae6ef"/>
            </g>
            <g id="g7141" transform="translate(45.275 13.149)">
              <path id="path7143" d="M-116.249-84.328H-129.6l.628-4.43a6.11,6.11,0,0,1,5.2-5.2,6.193,6.193,0,0,1,.849-.059,6.109,6.109,0,0,1,6.046,5.255Z" transform="translate(129.6 94.013)" fill="#ff455c"/>
            </g>
            <g id="g7145" transform="translate(51.102 13.149)">
              <path id="path7147" d="M-65.515-84.328h-3.928l-.389-4.43c-.239-2.731-1.566-4.825-3.207-5.2a6.193,6.193,0,0,1,.849-.059,6.109,6.109,0,0,1,6.046,5.255Z" transform="translate(73.04 94.013)" fill="#e51c5f"/>
            </g>
            <g id="g7149" transform="translate(0 0)">
              <path id="path7151" d="M-109.429-411.58h-7.735A4.841,4.841,0,0,1-122-416.418v-38.741A4.841,4.841,0,0,1-117.164-460h60.633a4.841,4.841,0,0,1,4.833,4.838v8.5a1.03,1.03,0,0,1-1.03,1.03,1.03,1.03,0,0,1-1.03-1.03v-8.5a2.778,2.778,0,0,0-2.772-2.778h-60.633a2.778,2.778,0,0,0-2.772,2.778v38.741a2.778,2.778,0,0,0,2.772,2.778h7.735a1.03,1.03,0,0,1,1.03,1.03A1.03,1.03,0,0,1-109.429-411.58Z" transform="translate(121.997 459.997)"/>
            </g>
            <g id="g7153" transform="translate(56.729 17.073)">
              <path id="path7155" d="M-113.232,21.345h-7.735a1.03,1.03,0,0,1-1.03-1.03,1.03,1.03,0,0,1,1.03-1.03h7.735a2.778,2.778,0,0,0,2.772-2.778V-8.97a1.03,1.03,0,0,1,1.03-1.03,1.03,1.03,0,0,1,1.03,1.03V16.506A4.841,4.841,0,0,1-113.232,21.345Z" transform="translate(121.997 10)"/>
            </g>
            <g id="g7157" transform="translate(17.443 4.127)">
              <path id="path7159" d="M37.736,30.164H26.9a1.03,1.03,0,0,1,0-2.06h9.8V-7.94H-8.97A1.03,1.03,0,0,1-10-8.97,1.03,1.03,0,0,1-8.97-10H37.736a1.03,1.03,0,0,1,1.03,1.03v38.1A1.03,1.03,0,0,1,37.736,30.164Z" transform="translate(10 10)"/>
            </g>
            <g id="g7161" transform="translate(4.118 4.127)">
              <path id="path7163" d="M-103.281-339.715h-10.831a1.03,1.03,0,0,1-1.03-1.03v-38.1a1.03,1.03,0,0,1,1.03-1.03h8.477a1.03,1.03,0,0,1,1.03,1.03,1.03,1.03,0,0,1-1.03,1.03h-7.447v36.043h9.8a1.03,1.03,0,0,1,1.03,1.03A1.03,1.03,0,0,1-103.281-339.715Z" transform="translate(115.142 379.879)"/>
            </g>
            <g id="g7165" transform="translate(8.359 39.604)">
              <path id="path7167" d="M-190.487,20.723c-3.66,0-7.521-2.6-10.281-7.048a6.36,6.36,0,0,1-2.15.375,6.292,6.292,0,0,1-4.537-1.911,1.682,1.682,0,0,0-1.2-.528,1.682,1.682,0,0,0-1.2.528A6.291,6.291,0,0,1-214.4,14.05a6.36,6.36,0,0,1-2.15-.375c-2.76,4.448-6.622,7.048-10.281,7.048a7.408,7.408,0,0,1-2.291-.359,7.65,7.65,0,0,1-3.379-2.246c-3.123-3.506-3.845-9.791-1.838-16.012,2.307-7.148,7.508-12.127,12.648-12.107h10.484a1.03,1.03,0,0,1,1.03,1.03,1.03,1.03,0,0,1-1.03,1.03h-10.488c-4.19-.016-8.681,4.475-10.683,10.679-1.76,5.454-1.191,11.084,1.415,14.009a5.619,5.619,0,0,0,2.475,1.656c3.456,1.118,7.824-1.575,10.622-6.551a1.03,1.03,0,0,1,1.4-.4,4.277,4.277,0,0,0,2.069.532,4.247,4.247,0,0,0,3.063-1.29,3.726,3.726,0,0,1,2.678-1.149,3.725,3.725,0,0,1,2.678,1.149,4.247,4.247,0,0,0,3.063,1.29,4.276,4.276,0,0,0,2.069-.532,1.03,1.03,0,0,1,1.4.4c2.8,4.975,7.166,7.669,10.622,6.551a5.619,5.619,0,0,0,2.475-1.656c2.606-2.925,3.175-8.555,1.415-14.009-2-6.2-6.493-10.7-10.679-10.679h-10.767a1.03,1.03,0,0,1-1.03-1.03,1.03,1.03,0,0,1,1.03-1.03h10.763c5.135-.02,10.338,4.958,12.644,12.107,2.007,6.221,1.286,12.506-1.838,16.013a7.651,7.651,0,0,1-3.379,2.246A7.413,7.413,0,0,1-190.487,20.723Z" transform="translate(235.463 10.001)"/>
            </g>
            <g id="g7169" transform="translate(25.486 52.575)">
              <path id="path7171" d="M-47.357-16.529a3.527,3.527,0,0,1,2.41.949,3.547,3.547,0,0,1,.18,5,3.547,3.547,0,0,1-2.59,1.129,3.523,3.523,0,0,1-2.41-.949,3.547,3.547,0,0,1-.18-5A3.547,3.547,0,0,1-47.357-16.529Zm0,5.02a1.46,1.46,0,0,0,1.081-.471,1.484,1.484,0,0,0-.075-2.092,1.469,1.469,0,0,0-1-.4A1.461,1.461,0,0,0-48.438-14a1.483,1.483,0,0,0,.075,2.092A1.469,1.469,0,0,0-47.358-11.509Z" transform="translate(50.893 16.529)"/>
            </g>
            <g id="g7173" transform="translate(37.743 52.575)">
              <path id="path7175" d="M-47.357-16.529a3.527,3.527,0,0,1,2.41.949,3.547,3.547,0,0,1,.18,5,3.547,3.547,0,0,1-2.59,1.129,3.523,3.523,0,0,1-2.41-.949,3.547,3.547,0,0,1-.18-5A3.547,3.547,0,0,1-47.357-16.529Zm0,5.02a1.46,1.46,0,0,0,1.081-.471,1.484,1.484,0,0,0-.075-2.092,1.469,1.469,0,0,0-1-.4A1.461,1.461,0,0,0-48.438-14a1.483,1.483,0,0,0,.075,2.092A1.469,1.469,0,0,0-47.358-11.509Z" transform="translate(50.893 16.529)"/>
            </g>
            <g id="g7177" transform="translate(19.869 45.671)">
              <path id="path7179" d="M-8.97-1.758A1.03,1.03,0,0,1-10-2.788V-8.97A1.03,1.03,0,0,1-8.97-10,1.03,1.03,0,0,1-7.94-8.97v6.182A1.03,1.03,0,0,1-8.97-1.758Z" transform="translate(10 10)"/>
            </g>
            <g id="g7181" transform="translate(16.783 48.762)">
              <path id="path7183" d="M-62.725-7.94H-68.9a1.03,1.03,0,0,1-1.03-1.03A1.03,1.03,0,0,1-68.9-10h6.174A1.03,1.03,0,0,1-61.7-8.97,1.03,1.03,0,0,1-62.725-7.94Z" transform="translate(69.929 10)"/>
            </g>
            <g id="g7185" transform="translate(49.399 52.883)">
              <path id="path7187"/>
            </g>
            <g id="g7189" transform="translate(49.399 46.701)">
              <path id="path7191"/>
            </g>
            <g id="g7193" transform="translate(46.313 49.792)">
              <path id="path7195"/>
            </g>
            <g id="g7197" transform="translate(52.486 49.792)">
              <path id="path7199"/>
            </g>
            <g id="g7201" transform="translate(25.477 40.291)">
              <path id="path7203" d="M-162.738,5.827h-11.909a1.03,1.03,0,0,1-.971-.687l-2.747-7.782,1.943-.686,2.5,7.1h10.451l2.5-7.1,1.943.686-2.747,7.782A1.03,1.03,0,0,1-162.738,5.827Z" transform="translate(178.365 3.329)"/>
            </g>
            <g id="g7205" transform="translate(10.094 12.118)">
              <path id="path7207" d="M-109.955-101.2a10.657,10.657,0,0,1,8.322,3.977,1.03,1.03,0,0,1-.072,1.376l-5.066,5.073,5.318,5.325a1.03,1.03,0,0,1,.1,1.341,10.75,10.75,0,0,1-8.6,4.338,10.721,10.721,0,0,1-10.7-10.715A10.721,10.721,0,0,1-109.955-101.2Zm6.1,4.587a8.6,8.6,0,0,0-6.1-2.526,8.658,8.658,0,0,0-8.642,8.655,8.658,8.658,0,0,0,8.642,8.655,8.551,8.551,0,0,0,6.386-2.822l-5.387-5.394a1.03,1.03,0,0,1,0-1.456Z" transform="translate(120.657 101.201)"/>
            </g>
            <g id="g7209" transform="translate(20.259 17.786)">
              <path id="path7211"/>
            </g>
            <g id="g7213" transform="translate(47.51 21.803)">
              <path id="path7215" d="M-66.014-10H-60.9a1.03,1.03,0,0,1,1.02.886l.821,5.79A4.445,4.445,0,0,1-60.108.216a4.436,4.436,0,0,1-3.351,1.529A4.436,4.436,0,0,1-66.81.216a4.445,4.445,0,0,1-1.045-3.54l.821-5.79A1.03,1.03,0,0,1-66.014-10ZM-61.8-7.94h-3.321l-.7,4.9a2.386,2.386,0,0,0,.561,1.9,2.377,2.377,0,0,0,1.8.819,2.377,2.377,0,0,0,1.8-.819,2.386,2.386,0,0,0,.561-1.9Z" transform="translate(67.899 10)"/>
            </g>
            <g id="g7217" transform="translate(44.245 12.118)">
              <path id="path7219" d="M-67.094-10a7.175,7.175,0,0,1,7.067,6.142L-59.4.571a1.03,1.03,0,0,1-.242.82,1.03,1.03,0,0,1-.778.355H-73.77a1.03,1.03,0,0,1-.778-.355,1.03,1.03,0,0,1-.242-.82l.628-4.429A7.175,7.175,0,0,1-67.094-10Zm5.489,9.685-.461-3.254A5.1,5.1,0,0,0-67.094-7.94a5.1,5.1,0,0,0-5.027,4.371l-.462,3.254Z" transform="translate(74.8 10)"/>
            </g>
            <g id="g7221" transform="translate(36.935 22.744)">
              <path id="path7223"/>
            </g>
            <g id="g7225" transform="translate(40.832 22.834)">
              <path id="path7227"/>
            </g>
            <g id="g7229" transform="translate(33.18 22.744)">
              <path id="path7231"/>
            </g>
            <g id="g7233" transform="translate(29.495 22.744)">
              <path id="path7235"/>
            </g>
          </g>
        </g>
      </g>
    </g>
    <g id="Grupo_1072852" data-name="Grupo 1072852" transform="translate(8769.023 11653.5)">
      <path id="Trazado_771199" data-name="Trazado 771199" d="M19.42,12.138H11.106L18.813,0H9.1L0,18.206H7.161L0,35.2Z" transform="translate(-7383.72 -7633.694) rotate(-1)" fill="#dc40ed"/>
      <path id="Trazado_771202" data-name="Trazado 771202" d="M1.494,0,0,1.331A3.669,3.669,0,0,0,3.683,3.36c1.129.045,1.79.114,2.244.991s.258,1.709-.127,3.1c-.408,1.48-.916,3.321.078,5.242a3.669,3.669,0,0,0,3.683,2.029c1.129.045,1.79.113,2.244.991s.258,1.709-.126,3.1c-.408,1.48-.916,3.321.078,5.242a3.669,3.669,0,0,0,3.683,2.029c1.13.045,1.791.114,2.245.991l1.494-1.331A3.668,3.668,0,0,0,15.5,23.722c-1.129-.045-1.791-.114-2.245-.991s-.258-1.709.126-3.1c.408-1.48.916-3.321-.078-5.242a3.669,3.669,0,0,0-3.683-2.029c-1.129-.045-1.79-.114-2.244-.991s-.258-1.709.127-3.1c.408-1.48.916-3.321-.078-5.242A3.668,3.668,0,0,0,3.739.991C2.609.946,1.948.877,1.494,0" transform="translate(-7808.444 -7691.548) rotate(90)" fill="#ff06cc"/>
      <ellipse id="Elipse_4727" data-name="Elipse 4727" cx="6.165" cy="5.871" rx="6.165" ry="5.871" transform="translate(-7835.526 -7624.81)" fill="#fff"/>
      <ellipse id="Elipse_4729" data-name="Elipse 4729" cx="2.959" cy="3.107" rx="2.959" ry="3.107" transform="translate(-7465.368 -7629.585)" fill="#fff"/>
      <g id="Grupo_1072486" data-name="Grupo 1072486" transform="translate(-7840.544 -7698.918)">
        <g id="Grupo_1072487" data-name="Grupo 1072487" transform="translate(0 0)">
          <path id="Trazado_818654" data-name="Trazado 818654" d="M18.681,28.61A18.681,18.681,0,1,0,37.362,47.291,18.681,18.681,0,0,0,18.681,28.61m0,30.625A11.944,11.944,0,1,1,30.625,47.291,11.944,11.944,0,0,1,18.681,59.235" transform="translate(105 14.129)" fill="#dc40ed"/>
          <path id="Trazado_818655" data-name="Trazado 818655" d="M162.529,43.9h-2.217a18.262,18.262,0,0,0-2.273-5.488l1.568-1.567a1.731,1.731,0,0,0,0-2.448l-3.483-3.483a1.73,1.73,0,0,0-2.447,0l-1.568,1.568a18.26,18.26,0,0,0-5.488-2.273V27.993a1.731,1.731,0,0,0-1.731-1.731h-4.925a1.731,1.731,0,0,0-1.731,1.731V30.21a18.26,18.26,0,0,0-5.488,2.273l-1.568-1.568a1.731,1.731,0,0,0-2.448,0L125.248,34.4a1.731,1.731,0,0,0,0,2.448l1.568,1.567a18.241,18.241,0,0,0-2.273,5.488h-2.217a1.731,1.731,0,0,0-1.731,1.731v4.926a1.731,1.731,0,0,0,1.731,1.731h2.217a18.255,18.255,0,0,0,2.272,5.488l-1.567,1.567a1.731,1.731,0,0,0,0,2.448l3.483,3.483a1.731,1.731,0,0,0,2.448,0l1.568-1.567a18.26,18.26,0,0,0,5.488,2.273V68.2a1.731,1.731,0,0,0,1.731,1.731h4.925a1.731,1.731,0,0,0,1.731-1.731V65.979a18.26,18.26,0,0,0,5.488-2.273l1.568,1.567a1.73,1.73,0,0,0,2.447,0l3.483-3.483a1.731,1.731,0,0,0,0-2.448l-1.567-1.567a18.276,18.276,0,0,0,2.272-5.488h2.217a1.731,1.731,0,0,0,1.731-1.731V45.632a1.731,1.731,0,0,0-1.731-1.731m-20.1,12.98a8.786,8.786,0,1,1,8.786-8.786,8.786,8.786,0,0,1-8.786,8.786" transform="translate(211.518 -29.262)" fill="#dc40ed"/>
          <rect id="Rectángulo_376303" data-name="Rectángulo 376303" width="11.208" height="2.008" transform="translate(435.984 50.38)" fill="#dc40ed"/>
          <rect id="Rectángulo_376304" data-name="Rectángulo 376304" width="16.9" height="2.007" transform="translate(435.984 54.897)" fill="#dc40ed"/>
          <rect id="Rectángulo_376305" data-name="Rectángulo 376305" width="20.841" height="2.008" transform="translate(435.984 59.413)" fill="#dc40ed"/>
          <rect id="Rectángulo_376306" data-name="Rectángulo 376306" width="7.968" height="2.008" transform="translate(435.984 63.929)" fill="#dc40ed"/>
          <rect id="Rectángulo_376307" data-name="Rectángulo 376307" width="37.439" height="3.905" transform="translate(263.25 62.351)" fill="#dc40ed" stroke="#289df2" stroke-miterlimit="10" stroke-width="1.128"/>
          <rect id="Rectángulo_376308" data-name="Rectángulo 376308" width="23.198" height="1.148" transform="translate(257.553 63.43)" fill="#dc40ed"/>
        </g>
      </g>
      <g id="Grupo_1072488" data-name="Grupo 1072488" transform="translate(-7444.207 -7675.368)">
        <g transform="matrix(1, 0, 0, 1, -409.66, -40.63)" filter="url(#Elipse_4719-2)">
          <g id="Elipse_4719-5" data-name="Elipse 4719" transform="translate(409.66 40.63)" fill="none" stroke="#fff" stroke-width="6">
            <ellipse cx="15.5" cy="15" rx="15.5" ry="15" stroke="none"/>
            <ellipse cx="15.5" cy="15" rx="12.5" ry="12" fill="none"/>
          </g>
        </g>
      </g>
      <g id="Grupo_1072489" data-name="Grupo 1072489" transform="translate(-7777 -7672.368)">
        <g transform="matrix(1, 0, 0, 1, -76.87, -43.63)" filter="url(#Elipse_4719-3)">
          <g id="Elipse_4719-6" data-name="Elipse 4719" transform="translate(76.87 43.63)" fill="none" stroke="#fff" stroke-width="6">
            <circle cx="6" cy="6" r="6" stroke="none"/>
            <circle cx="6" cy="6" r="3" fill="none"/>
          </g>
        </g>
      </g>
    </g>
  </g>
</svg>
