<svg xmlns="http://www.w3.org/2000/svg" width="213.058" height="237" viewBox="0 0 213.058 237">
  <g id="Grupo_1072976" data-name="Grupo 1072976" transform="translate(7511 5938)">
    <g id="Grupo_1072975" data-name="Grupo 1072975">
      <g id="Grupo_1072974" data-name="Grupo 1072974">
        <g id="Grupo_83097" data-name="Grupo 83097" transform="translate(-7525.665 -6051.217)">
          <path id="Trazado_116014" data-name="Trazado 116014" d="M209.834,253.524c-13.443-13.652-31.578-22.767-34.417-35.216-5.391-23.636-14.513-50.174-60.541-51.833s-62.614,14.513-73.948,48.792-23.083,20.871-25.985,56.117,17.495,35.79,35.661,45.2c41.077,21.273,125.613,39.289,159.23,6.157A45.038,45.038,0,0,0,220.2,307.047C230.21,281.728,221.915,265.794,209.834,253.524Z" transform="translate(0 -5.523)" fill="#dc40ed"/>
          <g id="Grupo_83095" data-name="Grupo 83095" transform="translate(17.468 125.217)">
            <g id="Grupo_83093" data-name="Grupo 83093" transform="translate(0 32.046)">
              <path id="Trazado_116015" data-name="Trazado 116015" d="M36.445,173.673h-2.7v-2.7a1.349,1.349,0,0,0-2.7,0v2.7h-2.7a1.349,1.349,0,1,0,0,2.7h2.7v2.7a1.349,1.349,0,0,0,2.7,0v-2.7h2.7a1.349,1.349,0,1,0,0-2.7" transform="translate(-27 -169.625)" fill="#fff"/>
              <path id="Trazado_116016" data-name="Trazado 116016" d="M205.945,180.173h-2.7v-2.7a1.349,1.349,0,1,0-2.7,0v2.7h-2.7a1.349,1.349,0,1,0,0,2.7h2.7v2.7a1.349,1.349,0,0,0,2.7,0v-2.7h2.7a1.349,1.349,0,0,0,0-2.7" transform="translate(-27.026 -186.92)" fill="#fff"/>
              <path id="Trazado_116017" data-name="Trazado 116017" d="M143.445,376.173h-2.7v-2.7a1.349,1.349,0,0,0-2.7,0v2.7h-2.7a1.349,1.349,0,1,0,0,2.7h2.7v2.7a1.349,1.349,0,0,0,2.7,0v-2.7h2.7a1.349,1.349,0,1,0,0-2.7" transform="translate(-37.748 -189.966)" fill="#fff"/>
            </g>
            <g id="Grupo_83094" data-name="Grupo 83094" transform="translate(143.688 -12)">
              <path id="Trazado_116018" data-name="Trazado 116018" d="M168.548,134a4.048,4.048,0,1,0,4.048,4.048A4.048,4.048,0,0,0,168.548,134" transform="translate(-164.5 -134)" fill="#efd860"/>
              <path id="Trazado_116019" data-name="Trazado 116019" d="M233,300a4.5,4.5,0,1,0,4.5,4.5A4.5,4.5,0,0,0,233,300" transform="translate(-170.929 -150.675)" fill="#efd860"/>
            </g>
          </g>
        </g>
        <g id="directo" transform="translate(-7491 -5933.5)">
          <g id="Grupo_1072688" data-name="Grupo 1072688" transform="translate(2.757 4.809)">
            <g id="Grupo_1072670" data-name="Grupo 1072670" transform="translate(88.232 0)">
              <path id="Trazado_818914" data-name="Trazado 818914" d="M71.6,1.744,33,56.889H44.029v56.992H99.174V56.889H110.2Z" transform="translate(-33 -1.744)" fill="#ccd1d9"/>
            </g>
            <g id="Grupo_1072671" data-name="Grupo 1072671" transform="translate(115.804 82.717)">
              <path id="Trazado_818915" data-name="Trazado 818915" d="M65.058,31.744V42.773H43V31.744H65.058Z" transform="translate(-43 -31.744)" fill="#ffeaa7"/>
            </g>
            <g id="Grupo_1072672" data-name="Grupo 1072672" transform="translate(110.289 66.174)">
              <path id="Trazado_818916" data-name="Trazado 818916" d="M56.964,41.129l.579,1.158H46.514L41,31.258a9.963,9.963,0,0,1,8.933-5.514H52.36A46.588,46.588,0,0,0,56.964,41.129Z" transform="translate(-41 -25.744)" fill="#b4dd7f"/>
            </g>
            <g id="Grupo_1072673" data-name="Grupo 1072673" transform="translate(121.318 60.659)">
              <path id="Trazado_818917" data-name="Trazado 818917" d="M67.058,29.258a27.446,27.446,0,0,1-4.577,15.165L61.543,45.8H50.514l-.579-1.158a46.588,46.588,0,0,1-4.6-15.385A45.9,45.9,0,0,1,45,23.744c8.272,0,13.786,1.379,17.233,2.757a15.287,15.287,0,0,1,4.825,2.757Z" transform="translate(-45 -23.744)" fill="#a0d468"/>
            </g>
            <g id="Grupo_1072674" data-name="Grupo 1072674" transform="translate(90.989 93.746)">
              <path id="Trazado_818918" data-name="Trazado 818918" d="M42.272,54.135,58.815,35.744H80.873L97.416,54.135l.083.083a31.892,31.892,0,0,1-23.685,53.215H65.874A31.889,31.889,0,0,1,34,75.558a31.411,31.411,0,0,1,2.123-11.415,31.756,31.756,0,0,1,6.066-9.926Z" transform="translate(-34 -35.744)" fill="#b4dd7f"/>
            </g>
            <g id="Grupo_1072675" data-name="Grupo 1072675" transform="translate(16.543 126.833)">
              <path id="Trazado_818919" data-name="Trazado 818919" d="M7,47.744H51.116V58.773H7Z" transform="translate(-7 -47.744)" fill="#fcd770"/>
            </g>
            <g id="Grupo_1072676" data-name="Grupo 1072676" transform="translate(16.543 115.804)">
              <path id="Trazado_818920" data-name="Trazado 818920" d="M7,43.744H51.116V54.773H7Z" transform="translate(-7 -43.744)" fill="#ffc729"/>
            </g>
            <g id="Grupo_1072677" data-name="Grupo 1072677" transform="translate(60.659 92.423)">
              <path id="Trazado_818921" data-name="Trazado 818921" d="M39.543,69.674V86.218H23V35.264A43.958,43.958,0,0,1,39.543,69.674Z" transform="translate(-23 -35.264)" fill="#fcd770"/>
            </g>
            <g id="Grupo_1072678" data-name="Grupo 1072678" transform="translate(16.543 86.853)">
              <path id="Trazado_818922" data-name="Trazado 818922" d="M17.064,33.658,29.058,51.166,41.052,33.658c.414-.138.8-.248,1.186-.414a43.658,43.658,0,0,1,8.878,5.57V62.195H7V38.814a42.2,42.2,0,0,1,8.878-5.57c.386.165.772.276,1.186.414Z" transform="translate(-7 -33.244)" fill="#fcd770"/>
            </g>
            <g id="Grupo_1072679" data-name="Grupo 1072679" transform="translate(0 92.423)">
              <path id="Trazado_818923" data-name="Trazado 818923" d="M17.543,86.218H1V69.674a43.958,43.958,0,0,1,16.543-34.41V86.218Z" transform="translate(-1 -35.264)" fill="#fcd770"/>
            </g>
            <g id="Grupo_1072680" data-name="Grupo 1072680" transform="translate(16.543 137.862)">
              <path id="Trazado_818924" data-name="Trazado 818924" d="M51.116,57.258V79.316H7V51.744H51.116Z" transform="translate(-7 -51.744)" fill="#969faa"/>
            </g>
            <g id="Grupo_1072681" data-name="Grupo 1072681">
              <path id="Trazado_818925" data-name="Trazado 818925" d="M19.611,28.3a13.742,13.742,0,0,0-7.582,12.3V45.86H9.272a8.245,8.245,0,0,0-6.093,2.675L1.634,40.759A33.324,33.324,0,0,1,1,34.362,32.631,32.631,0,0,1,33.618,1.744H45.585A32.666,32.666,0,0,1,78.2,34.362a33.325,33.325,0,0,1-.634,6.4l-1.544,7.775a8.245,8.245,0,0,0-6.093-2.675H67.174A11.026,11.026,0,0,0,56.145,34.831H31.33A13.8,13.8,0,0,1,19.611,28.3Z" transform="translate(-1 -1.744)" fill="#b27946"/>
            </g>
            <g id="Grupo_1072682" data-name="Grupo 1072682" transform="translate(5.514 143.376)">
              <path id="Trazado_818926" data-name="Trazado 818926" d="M14.029,53.744V64.773H11.272A8.261,8.261,0,0,1,3,56.5V53.744Z" transform="translate(-3 -53.744)" fill="#f0d0b4"/>
            </g>
            <g id="Grupo_1072683" data-name="Grupo 1072683" transform="translate(60.659 143.376)">
              <path id="Trazado_818927" data-name="Trazado 818927" d="M34.029,53.744V56.5a8.261,8.261,0,0,1-8.272,8.272H23V53.744Z" transform="translate(-23 -53.744)" fill="#f0d0b4"/>
            </g>
            <g id="Grupo_1072684" data-name="Grupo 1072684" transform="translate(26.607 87.267)">
              <path id="Trazado_818928" data-name="Trazado 818928" d="M34.638,33.394,22.644,50.9,10.65,33.394a21.8,21.8,0,0,0,6.48.965H28.158A21.8,21.8,0,0,0,34.638,33.394Z" transform="translate(-10.65 -33.394)" fill="#f0d0b4"/>
            </g>
            <g id="Grupo_1072685" data-name="Grupo 1072685" transform="translate(66.174 44.116)">
              <path id="Trazado_818929" data-name="Trazado 818929" d="M27.757,17.744a8.272,8.272,0,0,1,0,16.543H25V17.744Z" transform="translate(-25 -17.744)" fill="#f0d0b4"/>
            </g>
            <g id="Grupo_1072686" data-name="Grupo 1072686" transform="translate(11.029 26.552)">
              <path id="Trazado_818930" data-name="Trazado 818930" d="M60.145,45.481V51A22.048,22.048,0,0,1,45.752,71.675c-.386.165-.772.276-1.186.414a21.8,21.8,0,0,1-6.48.965H27.058a21.8,21.8,0,0,1-6.48-.965c-.414-.138-.8-.248-1.186-.414A22.048,22.048,0,0,1,5,51V23.671a13.742,13.742,0,0,1,7.582-12.3A13.8,13.8,0,0,0,24.3,17.909H49.116A11.026,11.026,0,0,1,60.145,28.938Z" transform="translate(-5 -11.374)" fill="#f0d0b4"/>
            </g>
            <g id="Grupo_1072687" data-name="Grupo 1072687" transform="translate(0 44.116)">
              <path id="Trazado_818931" data-name="Trazado 818931" d="M12.029,17.744V34.287H9.272a8.272,8.272,0,1,1,0-16.543Z" transform="translate(-1 -17.744)" fill="#f0d0b4"/>
            </g>
          </g>
          <g id="Grupo_1072689" data-name="Grupo 1072689" transform="translate(0)">
            <path id="Trazado_818932" data-name="Trazado 818932" d="M55.029,48.766V42.744H49.514v5.514H44V56.53A8.282,8.282,0,0,0,52.272,64.8a2.758,2.758,0,0,1,2.757,2.757v2.757H52.272a2.758,2.758,0,0,1-2.757-2.757V64.8H44v2.757a8.26,8.26,0,0,0,5.514,7.764v6.022h5.514V75.831h5.514V67.559a8.282,8.282,0,0,0-8.272-8.272,2.758,2.758,0,0,1-2.757-2.757V53.773h2.757a2.758,2.758,0,0,1,2.757,2.757v2.757h5.514V56.53A8.26,8.26,0,0,0,55.029,48.766Z" transform="translate(77.318 75.111)"/>
            <circle id="Elipse_9717" data-name="Elipse 9717" cx="2.757" cy="2.757" r="2.757" transform="translate(27.572 51.682)"/>
            <circle id="Elipse_9718" data-name="Elipse 9718" cx="2.757" cy="2.757" r="2.757" transform="translate(49.627 51.682)"/>
            <path id="Trazado_818933" data-name="Trazado 818933" d="M60.411,90.446a24.8,24.8,0,0,0,11.274-20.77V66.918a11.006,11.006,0,0,0,9.035-17.324l1.307-6.543A35.374,35.374,0,0,0,47.344.742H35.373A35.377,35.377,0,0,0,.687,43.055L2,49.595a11.006,11.006,0,0,0,9.033,17.326v2.757a24.8,24.8,0,0,0,11.277,20.77A47.077,47.077,0,0,0,0,130.338v19.3H5.514a11.04,11.04,0,0,0,11.029,11.029h0V171.7H66.171V160.667h0A11.04,11.04,0,0,0,77.2,149.638h5.514v-19.3A47.086,47.086,0,0,0,60.411,90.446ZM41.359,103.4l-6.124-8.936c.2.006.4.03.609.03H46.87c.207,0,.405-.025.609-.03ZM38.6,109.134v7.417H22.058V97.267a41.02,41.02,0,0,1,5.889-3.684ZM22.058,122.066H38.6v5.514H22.058Zm0,11.029H38.6v5.514H22.061Zm22.058,0H60.659v5.514H44.116Zm0-5.514v-5.514H60.659v5.514Zm0-11.029v-7.417L54.77,93.581a41.021,41.021,0,0,1,5.889,3.684v19.284H44.116Zm27.57-55.145V50.378a5.514,5.514,0,0,1,0,11.029ZM47.344,6.262A29.862,29.862,0,0,1,76.621,41.976L75.876,45.7a10.941,10.941,0,0,0-4.191-.838h-.278A13.81,13.81,0,0,0,57.9,33.834H33.087A11.04,11.04,0,0,1,22.058,22.805V9.433A29.652,29.652,0,0,1,35.373,6.262ZM5.514,55.892a5.52,5.52,0,0,1,5.514-5.514V61.407A5.52,5.52,0,0,1,5.514,55.892Zm5.514-13.538v2.509a10.927,10.927,0,0,0-4.188.838l-.747-3.728a29.817,29.817,0,0,1,10.45-29v9.832a16.417,16.417,0,0,0,1.216,6.226,16.448,16.448,0,0,0-6.73,13.323Zm5.514,27.324V42.354a10.969,10.969,0,0,1,4.139-8.616,16.505,16.505,0,0,0,12.4,5.611H57.9a8.282,8.282,0,0,1,8.272,8.272V69.678a19.324,19.324,0,0,1-19.3,19.3H35.844a19.324,19.324,0,0,1-19.3-19.3ZM5.514,130.338a41.474,41.474,0,0,1,11.029-28.052l0,41.838H5.514Zm11.029,24.815a5.52,5.52,0,0,1-5.514-5.514h5.517Zm27.57,11.029,0-8.272a8.282,8.282,0,0,0-8.272-8.272v5.514A2.758,2.758,0,0,1,38.6,157.91l0,8.272H22.061V144.124h38.6v22.058Zm22.061-11.029,0-5.514h5.517A5.522,5.522,0,0,1,66.174,155.153ZM77.2,144.124H66.171l0-41.841A41.484,41.484,0,0,1,77.2,130.335Z" transform="translate(0 1.304)"/>
            <path id="Trazado_818934" data-name="Trazado 818934" d="M29.537,24.744H24.023a5.52,5.52,0,0,1-5.514,5.514H13v5.514h5.506A11.042,11.042,0,0,0,29.537,24.744Z" transform="translate(22.848 43.481)"/>
            <path id="Trazado_818935" data-name="Trazado 818935" d="M105.307,62.711h13.568L74.977,0l-43.9,62.711H44.647v53.234A34.6,34.6,0,0,0,71.015,173h7.927a34.6,34.6,0,0,0,26.365-57.055ZM41.672,57.2l33.3-47.582,33.3,47.579h-8.49v52.556L88.763,97.5V88.358l.463-.695a29.985,29.985,0,0,0,5.051-16.681V69.841l-.808-.808c-.645-.648-6.819-6.322-24.007-6.322H66.705v2.757c0,.932.028,1.867.083,2.8a12.64,12.64,0,0,0-10.819,7l-.618,1.232,5.84,11.682V97.5L50.162,109.749V57.2Zm23.98,27.572L61.58,76.624a7.168,7.168,0,0,1,5.776-2.884h.058a49.815,49.815,0,0,0,3.22,11.029Zm1.053,5.514H83.249V95.8H66.705Zm10-5.514a44.149,44.149,0,0,1-4.392-16.486c9.659.414,14.594,2.873,16.417,4.039a24.514,24.514,0,0,1-4.089,12.283l-.108.163Zm2.239,82.717H71.015a29.125,29.125,0,0,1-21.65-48.607l15.81-17.566h19.6l15.81,17.566a29.125,29.125,0,0,1-21.647,48.607Z" transform="translate(54.613)"/>
          </g>
        </g>
      </g>
    </g>
  </g>
</svg>
