<svg xmlns="http://www.w3.org/2000/svg" width="213.058" height="237" viewBox="0 0 213.058 237">
  <g id="Grupo_1072977" data-name="Grupo 1072977" transform="translate(-1008.156 -5762)">
    <g id="Grupo_83098" data-name="Grupo 83098" transform="translate(993.491 5648.783)">
      <path id="Trazado_116014" data-name="Trazado 116014" d="M209.834,253.524c-13.443-13.652-31.578-22.767-34.417-35.216-5.391-23.636-14.513-50.174-60.541-51.833s-62.614,14.513-73.948,48.792-23.083,20.871-25.985,56.117,17.495,35.79,35.661,45.2c41.077,21.273,125.613,39.289,159.23,6.157A45.038,45.038,0,0,0,220.2,307.047C230.21,281.728,221.915,265.794,209.834,253.524Z" transform="translate(0 -5.523)" fill="#dc40ed"/>
      <g id="Grupo_83095" data-name="Grupo 83095" transform="translate(17.468 125.217)">
        <g id="Grupo_83093" data-name="Grupo 83093" transform="translate(0 32.046)">
          <path id="Trazado_116015" data-name="Trazado 116015" d="M36.445,173.673h-2.7v-2.7a1.349,1.349,0,0,0-2.7,0v2.7h-2.7a1.349,1.349,0,1,0,0,2.7h2.7v2.7a1.349,1.349,0,0,0,2.7,0v-2.7h2.7a1.349,1.349,0,1,0,0-2.7" transform="translate(-27 -169.625)" fill="#fff"/>
          <path id="Trazado_116016" data-name="Trazado 116016" d="M205.945,180.173h-2.7v-2.7a1.349,1.349,0,1,0-2.7,0v2.7h-2.7a1.349,1.349,0,1,0,0,2.7h2.7v2.7a1.349,1.349,0,0,0,2.7,0v-2.7h2.7a1.349,1.349,0,0,0,0-2.7" transform="translate(-27.026 -186.92)" fill="#fff"/>
          <path id="Trazado_116017" data-name="Trazado 116017" d="M143.445,376.173h-2.7v-2.7a1.349,1.349,0,0,0-2.7,0v2.7h-2.7a1.349,1.349,0,1,0,0,2.7h2.7v2.7a1.349,1.349,0,0,0,2.7,0v-2.7h2.7a1.349,1.349,0,1,0,0-2.7" transform="translate(-37.748 -189.966)" fill="#fff"/>
        </g>
        <g id="Grupo_83094" data-name="Grupo 83094" transform="translate(143.688 -12)">
          <path id="Trazado_116018" data-name="Trazado 116018" d="M168.548,134a4.048,4.048,0,1,0,4.048,4.048A4.048,4.048,0,0,0,168.548,134" transform="translate(-164.5 -134)" fill="#efd860"/>
          <path id="Trazado_116019" data-name="Trazado 116019" d="M233,300a4.5,4.5,0,1,0,4.5,4.5A4.5,4.5,0,0,0,233,300" transform="translate(-170.929 -150.675)" fill="#efd860"/>
        </g>
      </g>
    </g>
    <g id="analitica-" transform="translate(1029.156 5782.066)">
      <path id="Trazado_818830" data-name="Trazado 818830" d="M34.144,151.413H23.413A13.413,13.413,0,0,1,10,138V23.413A13.413,13.413,0,0,1,23.413,10H161.568a13.413,13.413,0,0,1,13.413,13.413V138a13.413,13.413,0,0,1-13.413,13.413H34.144Z" transform="translate(-6.647 -6.647)" fill="#fff"/>
      <path id="Trazado_818831" data-name="Trazado 818831" d="M161.568,10H23.413A13.413,13.413,0,0,0,10,23.413v10.73H174.981V23.413A13.413,13.413,0,0,0,161.568,10Z" transform="translate(-6.647 -6.647)" fill="#ff5a5a"/>
      <path id="Trazado_818832" data-name="Trazado 818832" d="M21,82H180.283" transform="translate(-13.961 -54.503)" fill="#231f20"/>
      <rect id="Rectángulo_376416" data-name="Rectángulo 376416" width="21" height="36" transform="translate(18.844 131.844)" fill="#a5dc69"/>
      <rect id="Rectángulo_376417" data-name="Rectángulo 376417" width="22" height="45" transform="translate(93.844 122.844)" fill="#78d2fa"/>
      <rect id="Rectángulo_376418" data-name="Rectángulo 376418" width="21.461" height="73.963" transform="translate(56.335 94.371)" fill="#f5c86e"/>
      <rect id="Rectángulo_376419" data-name="Rectángulo 376419" width="21.461" height="78.97" transform="translate(131.448 89.365)" fill="#ff5a5a"/>
      <circle id="Elipse_9709" data-name="Elipse 9709" cx="8.719" cy="8.719" r="8.719" transform="translate(56.459 48.938)" fill="#f5c86e"/>
      <circle id="Elipse_9710" data-name="Elipse 9710" cx="8.719" cy="8.719" r="8.719" transform="translate(95.592 88.862)" fill="#78d2fa"/>
      <circle id="Elipse_9711" data-name="Elipse 9711" cx="8.719" cy="8.719" r="8.719" transform="translate(133.46 48.938)" fill="#ff5a5a"/>
      <circle id="Elipse_9712" data-name="Elipse 9712" cx="8.719" cy="8.719" r="8.719" transform="translate(20.569 85.653)" fill="#a5dc69"/>
      <path id="Trazado_818833" data-name="Trazado 818833" d="M159.979,147.712A11.722,11.722,0,0,0,171.688,136V16.766A16.785,16.785,0,0,0,154.921,0H16.766A16.785,16.785,0,0,0,0,16.766V136a11.722,11.722,0,0,0,11.709,11.709h3.716v17.269H3.353a3.353,3.353,0,0,0,0,6.707H168.334a3.353,3.353,0,0,0,0-6.707H156.262V147.712ZM16.766,6.707H154.921a10.071,10.071,0,0,1,10.06,10.06v7.377H7.043c-.114,0-.226.006-.337.017V16.766A10.071,10.071,0,0,1,16.766,6.707Zm5.365,158.274V134.8H36.886v30.179Zm37.557,0V97.725H74.443v67.256Zm37.557,0v-38.9H112v38.9Zm37.557,0V128.849a3.353,3.353,0,1,0-6.707,0v36.132h-9.389V122.73a3.353,3.353,0,0,0-3.353-3.353H93.892a3.353,3.353,0,0,0-3.353,3.353v42.251H81.149V94.372A3.353,3.353,0,0,0,77.8,91.019H56.335a3.353,3.353,0,0,0-3.353,3.353v70.609H43.593V131.448a3.353,3.353,0,0,0-3.353-3.353H18.778a3.353,3.353,0,0,0-3.353,3.353v9.557H11.709a5.008,5.008,0,0,1-5-5V30.833c.111.011.223.017.337.017H164.981V136a5.008,5.008,0,0,1-5,5h-3.716V89.365a3.353,3.353,0,0,0-3.353-3.353H131.448a3.353,3.353,0,0,0-3.353,3.353V106.3a3.353,3.353,0,0,0,6.707,0V92.718h14.754v72.263Z"/>
      <path id="Trazado_818834" data-name="Trazado 818834" d="M215.418,42.707H291.18a3.353,3.353,0,0,0,0-6.707H215.418a3.353,3.353,0,0,0,0,6.707Z" transform="translate(-140.954 -23.928)"/>
      <path id="Trazado_818835" data-name="Trazado 818835" d="M97.353,42.707a3.355,3.355,0,1,0-2.371-.983A3.378,3.378,0,0,0,97.353,42.707Z" transform="translate(-62.479 -23.928)"/>
      <path id="Trazado_818836" data-name="Trazado 818836" d="M57.353,42.707a3.355,3.355,0,1,0-2.371-.983A3.378,3.378,0,0,0,57.353,42.707Z" transform="translate(-35.892 -23.928)"/>
      <path id="Trazado_818837" data-name="Trazado 818837" d="M137.353,42.707a3.355,3.355,0,1,0-2.371-.983A3.378,3.378,0,0,0,137.353,42.707Z" transform="translate(-89.066 -23.928)"/>
      <path id="Trazado_818838" data-name="Trazado 818838" d="M385.353,342.64a3.355,3.355,0,1,0,2.371.983A3.366,3.366,0,0,0,385.353,342.64Z" transform="translate(-253.905 -227.744)"/>
      <path id="Trazado_818839" data-name="Trazado 818839" d="M176.3,160.083a12.09,12.09,0,1,0-9.768-4.99l-22.274,22.274a12.043,12.043,0,0,0-11.133-.271l-23.258-23.258a12.072,12.072,0,1,0-20.832.519l-19.8,19.8a12.082,12.082,0,1,0,4.743,4.742l20.038-20.038a12.044,12.044,0,0,0,11.111-.282l23.03,23.03a12.071,12.071,0,1,0,20.845.5l22.871-22.871A11.993,11.993,0,0,0,176.3,160.083Zm0-17.437a5.365,5.365,0,1,1-5.365,5.365A5.372,5.372,0,0,1,176.3,142.646ZM63.408,190.092a5.365,5.365,0,1,1,5.365-5.365A5.372,5.372,0,0,1,63.408,190.092ZM99.3,153.376a5.365,5.365,0,1,1,5.365-5.365A5.371,5.371,0,0,1,99.3,153.376ZM138.433,193.3a5.365,5.365,0,1,1,5.365-5.365A5.372,5.372,0,0,1,138.433,193.3Z" transform="translate(-34.122 -90.355)"/>
      <path id="Trazado_818840" data-name="Trazado 818840" d="M134.613,132.727a3.349,3.349,0,1,0-2.374-.982A3.383,3.383,0,0,0,134.613,132.727Z" transform="translate(-87.245 -83.762)"/>
      <path id="Trazado_818841" data-name="Trazado 818841" d="M49.353,132.728h16.1a3.353,3.353,0,0,0,0-6.707h-16.1a3.353,3.353,0,0,0,0,6.707Z" transform="translate(-30.575 -83.763)"/>
      <path id="Trazado_818842" data-name="Trazado 818842" d="M65.449,180.728a3.353,3.353,0,0,0,0-6.707h-16.1a3.353,3.353,0,0,0,0,6.707Z" transform="translate(-30.575 -115.667)"/>
    </g>
  </g>
</svg>
