<svg xmlns="http://www.w3.org/2000/svg" width="213.058" height="237" viewBox="0 0 213.058 237">
  <g id="Grupo_1072978" data-name="Grupo 1072978" transform="translate(-536.156 -6218)">
    <g id="Grupo_1072645" data-name="Grupo 1072645" transform="translate(521.491 6104.783)">
      <path id="Trazado_116014" data-name="Trazado 116014" d="M209.834,253.524c-13.443-13.652-31.578-22.767-34.417-35.216-5.391-23.636-14.513-50.174-60.541-51.833s-62.614,14.513-73.948,48.792-23.083,20.871-25.985,56.117,17.495,35.79,35.661,45.2c41.077,21.273,125.613,39.289,159.23,6.157A45.038,45.038,0,0,0,220.2,307.047C230.21,281.728,221.915,265.794,209.834,253.524Z" transform="translate(0 -5.523)" fill="#dc40ed"/>
      <g id="Grupo_83095" data-name="Grupo 83095" transform="translate(17.468 125.217)">
        <g id="Grupo_83093" data-name="Grupo 83093" transform="translate(0 32.046)">
          <path id="Trazado_116015" data-name="Trazado 116015" d="M36.445,173.673h-2.7v-2.7a1.349,1.349,0,0,0-2.7,0v2.7h-2.7a1.349,1.349,0,1,0,0,2.7h2.7v2.7a1.349,1.349,0,0,0,2.7,0v-2.7h2.7a1.349,1.349,0,1,0,0-2.7" transform="translate(-27 -169.625)" fill="#fff"/>
          <path id="Trazado_116016" data-name="Trazado 116016" d="M205.945,180.173h-2.7v-2.7a1.349,1.349,0,1,0-2.7,0v2.7h-2.7a1.349,1.349,0,1,0,0,2.7h2.7v2.7a1.349,1.349,0,0,0,2.7,0v-2.7h2.7a1.349,1.349,0,0,0,0-2.7" transform="translate(-27.026 -186.92)" fill="#fff"/>
          <path id="Trazado_116017" data-name="Trazado 116017" d="M143.445,376.173h-2.7v-2.7a1.349,1.349,0,0,0-2.7,0v2.7h-2.7a1.349,1.349,0,1,0,0,2.7h2.7v2.7a1.349,1.349,0,0,0,2.7,0v-2.7h2.7a1.349,1.349,0,1,0,0-2.7" transform="translate(-37.748 -189.966)" fill="#fff"/>
        </g>
        <g id="Grupo_83094" data-name="Grupo 83094" transform="translate(143.688 -12)">
          <path id="Trazado_116018" data-name="Trazado 116018" d="M168.548,134a4.048,4.048,0,1,0,4.048,4.048A4.048,4.048,0,0,0,168.548,134" transform="translate(-164.5 -134)" fill="#efd860"/>
          <path id="Trazado_116019" data-name="Trazado 116019" d="M233,300a4.5,4.5,0,1,0,4.5,4.5A4.5,4.5,0,0,0,233,300" transform="translate(-170.929 -150.675)" fill="#efd860"/>
        </g>
      </g>
    </g>
    <g id="gestion-de-equipos" transform="translate(554.156 6238.995)">
      <g id="Grupo_1072696" data-name="Grupo 1072696" transform="translate(49.04 3.029)">
        <g id="Grupo_1072691" data-name="Grupo 1072691">
          <circle id="Elipse_9719" data-name="Elipse 9719" cx="39.462" cy="39.462" r="39.462" fill="#f7e365"/>
        </g>
        <g id="Grupo_1072692" data-name="Grupo 1072692" transform="translate(7.789 7.789)">
          <path id="Trazado_818936" data-name="Trazado 818936" d="M219.6,30.468a39.464,39.464,0,0,1-55.215,55.215A39.464,39.464,0,1,0,219.6,30.468Z" transform="translate(-164.386 -30.468)" fill="#f3d332"/>
        </g>
        <g id="Grupo_1072695" data-name="Grupo 1072695" transform="translate(15.95 14.597)">
          <g id="Grupo_1072693" data-name="Grupo 1072693">
            <path id="Trazado_818937" data-name="Trazado 818937" d="M228.964,74.892l5.131-5.571a3.493,3.493,0,0,0,.456-4.112l-3.02-5.231a3.493,3.493,0,0,0-3.789-1.661l-7.388,1.658-.236-.136-2.258-7.227a3.493,3.493,0,0,0-3.333-2.451h-6.04a3.492,3.492,0,0,0-3.333,2.451l-2.258,7.227-.236.136-7.388-1.658a3.492,3.492,0,0,0-3.789,1.661l-3.02,5.231a3.493,3.493,0,0,0,.456,4.112l5.131,5.571v.269l-5.131,5.571a3.493,3.493,0,0,0-.456,4.112l3.02,5.231a3.493,3.493,0,0,0,3.789,1.661l7.388-1.658.236.136,2.258,7.227a3.493,3.493,0,0,0,3.333,2.451h6.04a3.492,3.492,0,0,0,3.333-2.451l2.258-7.227.235-.136,7.388,1.658a3.492,3.492,0,0,0,3.789-1.661l3.02-5.231a3.493,3.493,0,0,0-.456-4.112l-5.131-5.571v-.269Zm-17.458,5.722a5.588,5.588,0,1,1,5.588-5.588A5.587,5.587,0,0,1,211.506,80.614Z" transform="translate(-187.994 -50.161)" fill="#62a4fb"/>
          </g>
          <g id="Grupo_1072694" data-name="Grupo 1072694" transform="translate(15.311 8.071)">
            <path id="Trazado_818938" data-name="Trazado 818938" d="M257.941,90.437v-.269l5.131-5.571a3.493,3.493,0,0,0,.456-4.112l-3.02-5.231a3.493,3.493,0,0,0-3.789-1.661l-4.194.941A24.6,24.6,0,0,1,232.282,106.8l1.848,5.915a3.493,3.493,0,0,0,3.333,2.451h6.04a3.492,3.492,0,0,0,3.333-2.451l2.258-7.227.235-.136,7.388,1.658a3.492,3.492,0,0,0,3.789-1.661l3.02-5.231a3.493,3.493,0,0,0-.456-4.112Z" transform="translate(-232.282 -73.507)" fill="#5392f9"/>
          </g>
        </g>
      </g>
      <g id="Grupo_1072712" data-name="Grupo 1072712" transform="translate(38.91 67.357)">
        <g id="Grupo_1072701" data-name="Grupo 1072701" transform="translate(55.882)">
          <g id="Grupo_1072697" data-name="Grupo 1072697" transform="translate(0 27.938)">
            <path id="Trazado_818939" data-name="Trazado 818939" d="M274.2,287.4v33.148h43.3V287.4a12.572,12.572,0,0,0-12.572-12.572H286.77A12.572,12.572,0,0,0,274.2,287.4Z" transform="translate(-274.198 -274.832)" fill="#e175a5"/>
          </g>
          <g id="Grupo_1072698" data-name="Grupo 1072698" transform="translate(0 27.938)">
            <path id="Trazado_818940" data-name="Trazado 818940" d="M297.943,287.4a20.846,20.846,0,0,0-4.2-12.572h-6.97A12.572,12.572,0,0,0,274.2,287.4v33.148h23.745Z" transform="translate(-274.198 -274.831)" fill="#de5791"/>
          </g>
          <g id="Grupo_1072699" data-name="Grupo 1072699" transform="translate(7.683)">
            <circle id="Elipse_9720" data-name="Elipse 9720" cx="13.969" cy="13.969" r="13.969" fill="#fed2a4"/>
          </g>
          <g id="Grupo_1072700" data-name="Grupo 1072700" transform="translate(9.322 1.64)">
            <path id="Trazado_818941" data-name="Trazado 818941" d="M320.061,198.759a13.97,13.97,0,0,1-18.9,18.9,13.97,13.97,0,1,0,18.9-18.9Z" transform="translate(-301.164 -198.759)" fill="#ffbd86"/>
          </g>
        </g>
        <g id="Grupo_1072706" data-name="Grupo 1072706">
          <g id="Grupo_1072702" data-name="Grupo 1072702" transform="translate(0 27.938)">
            <path id="Trazado_818942" data-name="Trazado 818942" d="M112.552,287.4v33.148h43.3V287.4a12.572,12.572,0,0,0-12.572-12.572h-18.16A12.572,12.572,0,0,0,112.552,287.4Z" transform="translate(-112.552 -274.832)" fill="#e175a5"/>
          </g>
          <g id="Grupo_1072703" data-name="Grupo 1072703" transform="translate(19.559 27.938)">
            <path id="Trazado_818943" data-name="Trazado 818943" d="M192.875,320.553V287.4A12.572,12.572,0,0,0,180.3,274.832h-6.97a20.844,20.844,0,0,0-4.2,12.572v33.148Z" transform="translate(-169.13 -274.832)" fill="#de5791"/>
          </g>
          <g id="Grupo_1072704" data-name="Grupo 1072704" transform="translate(7.683)">
            <circle id="Elipse_9721" data-name="Elipse 9721" cx="13.969" cy="13.969" r="13.969" fill="#fed2a4"/>
          </g>
          <g id="Grupo_1072705" data-name="Grupo 1072705" transform="translate(9.322 1.64)">
            <path id="Trazado_818944" data-name="Trazado 818944" d="M158.415,198.759a13.97,13.97,0,0,1-18.9,18.9,13.97,13.97,0,1,0,18.9-18.9Z" transform="translate(-139.518 -198.759)" fill="#ffbd86"/>
          </g>
        </g>
        <g id="Grupo_1072711" data-name="Grupo 1072711" transform="translate(27.941)">
          <g id="Grupo_1072707" data-name="Grupo 1072707" transform="translate(0 27.938)">
            <path id="Trazado_818945" data-name="Trazado 818945" d="M193.375,287.4v33.148h43.3V287.4a12.572,12.572,0,0,0-12.572-12.572h-18.16A12.572,12.572,0,0,0,193.375,287.4Z" transform="translate(-193.375 -274.832)" fill="#62a4fb"/>
          </g>
          <g id="Grupo_1072708" data-name="Grupo 1072708" transform="translate(21.652 27.938)">
            <path id="Trazado_818946" data-name="Trazado 818946" d="M265.087,274.832h-9.08A12.572,12.572,0,0,1,268.579,287.4v33.148h9.08V287.4A12.573,12.573,0,0,0,265.087,274.832Z" transform="translate(-256.007 -274.832)" fill="#5392f9"/>
          </g>
          <g id="Grupo_1072709" data-name="Grupo 1072709" transform="translate(7.683)">
            <circle id="Elipse_9722" data-name="Elipse 9722" cx="13.969" cy="13.969" r="13.969" fill="#fed2a4"/>
          </g>
          <g id="Grupo_1072710" data-name="Grupo 1072710" transform="translate(9.322 1.64)">
            <path id="Trazado_818947" data-name="Trazado 818947" d="M239.238,198.759a13.97,13.97,0,0,1-18.9,18.9,13.97,13.97,0,1,0,18.9-18.9Z" transform="translate(-220.341 -198.759)" fill="#ffbd86"/>
          </g>
        </g>
      </g>
      <g id="Grupo_1072718" data-name="Grupo 1072718" transform="translate(2.593 112.215)">
        <g id="Grupo_1072713" data-name="Grupo 1072713" transform="translate(22.35 12.038)">
          <path id="Trazado_818948" data-name="Trazado 818948" d="M72.152,358.6H84.724v44.7H72.152Z" transform="translate(-72.152 -358.597)" fill="#d3effd"/>
        </g>
        <g id="Grupo_1072714" data-name="Grupo 1072714" transform="translate(34.923)">
          <path id="Trazado_818949" data-name="Trazado 818949" d="M242.961,326.23a8.381,8.381,0,0,0-11.853,0l-26.346,26.346h-24.3a8.381,8.381,0,1,0,0-16.763H153.919l-5.384-4.365a27.375,27.375,0,0,0-34.2-.222l-5.811,4.588v44.7l50.586,3.172A27.936,27.936,0,0,0,169.1,382.5l39.3-12.137a13.97,13.97,0,0,0,5.756-3.469l28.808-28.808A8.382,8.382,0,0,0,242.961,326.23Z" transform="translate(-108.519 -323.775)" fill="#fed2a4"/>
        </g>
        <g id="Grupo_1072715" data-name="Grupo 1072715" transform="translate(85.134)">
          <path id="Trazado_818950" data-name="Trazado 818950" d="M337.993,326.23a8.381,8.381,0,0,0-11.853,0l-26.346,26.346h-5a102.6,102.6,0,0,1-8.4,9.5,93.815,93.815,0,0,1-32.631,21.582l.375.024a27.936,27.936,0,0,0,9.992-1.189l39.3-12.137a13.971,13.971,0,0,0,5.756-3.469l28.808-28.808A8.381,8.381,0,0,0,337.993,326.23Z" transform="translate(-253.763 -323.775)" fill="#ffbd86"/>
        </g>
        <g id="Grupo_1072716" data-name="Grupo 1072716" transform="translate(0 6.45)">
          <path id="Trazado_818951" data-name="Trazado 818951" d="M7.5,342.434H29.85V398.31H7.5Z" transform="translate(-7.5 -342.434)" fill="#62a4fb"/>
        </g>
        <g id="Grupo_1072717" data-name="Grupo 1072717" transform="translate(14.667 6.45)">
          <path id="Trazado_818952" data-name="Trazado 818952" d="M49.928,342.434h7.683V398.31H49.928Z" transform="translate(-49.928 -342.434)" fill="#5392f9"/>
        </g>
      </g>
      <g id="Grupo_1072719" data-name="Grupo 1072719" transform="translate(0 0.435)">
        <circle id="Elipse_9723" data-name="Elipse 9723" cx="2.794" cy="2.794" r="2.794" transform="translate(10.974 126.611)"/>
        <circle id="Elipse_9724" data-name="Elipse 9724" cx="2.794" cy="2.794" r="2.794" transform="translate(10.974 137.787)"/>
        <path id="Trazado_818953" data-name="Trazado 818953" d="M248.7,106.606a8.18,8.18,0,1,0-8.18,8.18A8.19,8.19,0,0,0,248.7,106.606Zm-8.18,2.995a2.995,2.995,0,1,1,2.994-2.995A3,3,0,0,1,240.524,109.6Z" transform="translate(-152.021 -64.55)"/>
        <path id="Trazado_818954" data-name="Trazado 818954" d="M173.791,112.836a10.974,10.974,0,0,0-15.521,0L140.687,130.42v-8.532a2.593,2.593,0,0,0-5.186,0v13.719l-2.816,2.817h-13.91a10.979,10.979,0,0,0-6.028-16.262V107.867a15.1,15.1,0,0,0-3.76-9.979h16.538a9.99,9.99,0,0,1,9.977,9.981v1.919a2.593,2.593,0,1,0,5.186,0v-1.919a15.187,15.187,0,0,0-12.46-14.92,16.542,16.542,0,0,0-5-26.726,42.173,42.173,0,0,0,7.333-23.731,41.692,41.692,0,0,0-12.671-30.08,2.593,2.593,0,1,0-3.621,3.712,36.546,36.546,0,0,1,11.107,26.368,36.957,36.957,0,0,1-7.536,22.336c-.46-.039-.924-.063-1.394-.063a16.56,16.56,0,0,0-13.97,7.684,16.684,16.684,0,0,0-5.719-5.473,6.152,6.152,0,0,0,.577-1.3l1.6-5.124,5.238,1.175a6.058,6.058,0,0,0,6.6-2.895l3.02-5.23A6.059,6.059,0,0,0,113,46.44l-3.637-3.949L113,38.543a6.058,6.058,0,0,0,.794-7.165l-3.02-5.231a6.059,6.059,0,0,0-6.6-2.9l-5.238,1.175L97.33,19.3a6.059,6.059,0,0,0-5.808-4.27h-6.04a6.059,6.059,0,0,0-5.808,4.27l-1.6,5.124-5.238-1.175a6.059,6.059,0,0,0-6.6,2.895l-3.02,5.231a6.059,6.059,0,0,0,.794,7.165l3.637,3.949L64.006,46.44a6.059,6.059,0,0,0-.794,7.165l3.02,5.231a6.059,6.059,0,0,0,6.6,2.895l5.238-1.175,1.6,5.124a6.137,6.137,0,0,0,.577,1.3,16.68,16.68,0,0,0-5.719,5.473,16.56,16.56,0,0,0-13.97-7.684c-.47,0-.934.025-1.394.063A36.871,36.871,0,0,1,88.5,5.621,36.495,36.495,0,0,1,105.1,9.56a2.593,2.593,0,0,0,2.337-4.629A41.628,41.628,0,0,0,88.5.435,42.058,42.058,0,0,0,53.779,66.222a16.543,16.543,0,0,0-5,26.726,15.186,15.186,0,0,0-12.461,14.919V121.66h-8.78v-2.995a2.593,2.593,0,0,0-2.593-2.593H2.593A2.593,2.593,0,0,0,0,118.665v55.876a2.593,2.593,0,0,0,2.593,2.593h22.35a2.593,2.593,0,0,0,2.593-2.593v-2.995h9.915l34,2.134a2.593,2.593,0,1,0,.325-5.176L40.11,166.517V125.509l4.825-3.809A24.779,24.779,0,0,1,75.9,121.9l5.386,4.363a2.592,2.592,0,0,0,1.632.578h26.541a5.789,5.789,0,0,1,0,11.578H79.422a2.592,2.592,0,0,0-1.833.76l-3.667,3.667a2.593,2.593,0,1,0,3.667,3.667l2.907-2.907H133.76a2.594,2.594,0,0,0,1.834-.76L161.936,116.5a5.789,5.789,0,0,1,8.187,8.188L141.316,153.5a11.413,11.413,0,0,1-4.688,2.824l-39.3,12.138a25.22,25.22,0,0,1-9.063,1.079l-4.408-.277a2.593,2.593,0,1,0-.325,5.176l4.408.277q.966.06,1.927.06a30.342,30.342,0,0,0,8.991-1.36l39.3-12.138a16.618,16.618,0,0,0,6.826-4.112l28.808-28.808a10.989,10.989,0,0,0,0-15.522ZM116.443,69.95a11.376,11.376,0,1,1-11.376,11.376A11.389,11.389,0,0,1,116.443,69.95Zm-30.96-5.186a.9.9,0,0,1-.858-.631l-2.258-7.227a2.593,2.593,0,0,0-1.178-1.472l-.234-.135a2.593,2.593,0,0,0-1.866-.286L71.7,56.672a.9.9,0,0,1-.976-.428L67.7,51.013a.9.9,0,0,1,.117-1.059l5.131-5.571a2.593,2.593,0,0,0,.686-1.757v-.27a2.593,2.593,0,0,0-.686-1.757L67.821,35.03A.9.9,0,0,1,67.7,33.97l3.02-5.231a.9.9,0,0,1,.976-.428l7.388,1.658a2.591,2.591,0,0,0,1.866-.286l.234-.135a2.592,2.592,0,0,0,1.178-1.472l2.258-7.227a.9.9,0,0,1,.858-.631h6.04a.9.9,0,0,1,.858.631l2.258,7.227a2.591,2.591,0,0,0,1.176,1.471l.236.136a2.592,2.592,0,0,0,1.866.286l7.388-1.658a.9.9,0,0,1,.976.428l3.02,5.231a.9.9,0,0,1-.118,1.059L104.053,40.6a2.593,2.593,0,0,0-.686,1.757v.269a2.593,2.593,0,0,0,.686,1.757l5.131,5.571a.9.9,0,0,1,.117,1.059l-3.02,5.231a.9.9,0,0,1-.976.428l-7.388-1.658a2.588,2.588,0,0,0-1.863.284l-.239.138a2.592,2.592,0,0,0-1.176,1.471l-2.258,7.227a.9.9,0,0,1-.858.631H85.482ZM88.5,69.95A11.376,11.376,0,1,1,77.126,81.326,11.389,11.389,0,0,1,88.5,69.95Zm-27.941,0A11.376,11.376,0,1,1,49.186,81.326,11.389,11.389,0,0,1,60.562,69.95Zm-38.211,102H5.186v-50.69H22.35Zm5.186-45.1h7.388v39.515H27.536Zm22.924-14a29.89,29.89,0,0,0-8.738,4.787l-.22.174v-9.936a9.99,9.99,0,0,1,9.979-9.979H68.018a15.1,15.1,0,0,0-3.761,9.979v3.586a29.821,29.821,0,0,0-13.8,1.389Zm28.7,5.034a29.98,29.98,0,0,0-9.72-5.248v-4.761a9.99,9.99,0,0,1,9.979-9.979h18.16a9.991,9.991,0,0,1,9.979,9.979v13.792H83.833Z" transform="translate(0 -0.435)"/>
      </g>
    </g>
  </g>
</svg>
