<svg xmlns="http://www.w3.org/2000/svg" width="213.058" height="237" viewBox="0 0 213.058 237">
  <g id="Grupo_1072979" data-name="Grupo 1072979" transform="translate(-853.155 -6218)">
    <g id="Grupo_83100" data-name="Grupo 83100" transform="translate(838.49 6104.783)">
      <path id="Trazado_116014" data-name="Trazado 116014" d="M209.834,253.524c-13.443-13.652-31.578-22.767-34.417-35.216-5.391-23.636-14.513-50.174-60.541-51.833s-62.614,14.513-73.948,48.792-23.083,20.871-25.985,56.117,17.495,35.79,35.661,45.2c41.077,21.273,125.613,39.289,159.23,6.157A45.038,45.038,0,0,0,220.2,307.047C230.21,281.728,221.915,265.794,209.834,253.524Z" transform="translate(0 -5.523)" fill="#dc40ed"/>
      <g id="Grupo_83095" data-name="Grupo 83095" transform="translate(17.468 125.217)">
        <g id="Grupo_83093" data-name="Grupo 83093" transform="translate(0 32.046)">
          <path id="Trazado_116015" data-name="Trazado 116015" d="M36.445,173.673h-2.7v-2.7a1.349,1.349,0,0,0-2.7,0v2.7h-2.7a1.349,1.349,0,1,0,0,2.7h2.7v2.7a1.349,1.349,0,0,0,2.7,0v-2.7h2.7a1.349,1.349,0,1,0,0-2.7" transform="translate(-27 -169.625)" fill="#fff"/>
          <path id="Trazado_116016" data-name="Trazado 116016" d="M205.945,180.173h-2.7v-2.7a1.349,1.349,0,1,0-2.7,0v2.7h-2.7a1.349,1.349,0,1,0,0,2.7h2.7v2.7a1.349,1.349,0,0,0,2.7,0v-2.7h2.7a1.349,1.349,0,0,0,0-2.7" transform="translate(-27.026 -186.92)" fill="#fff"/>
          <path id="Trazado_116017" data-name="Trazado 116017" d="M143.445,376.173h-2.7v-2.7a1.349,1.349,0,0,0-2.7,0v2.7h-2.7a1.349,1.349,0,1,0,0,2.7h2.7v2.7a1.349,1.349,0,0,0,2.7,0v-2.7h2.7a1.349,1.349,0,1,0,0-2.7" transform="translate(-37.748 -189.966)" fill="#fff"/>
        </g>
        <g id="Grupo_83094" data-name="Grupo 83094" transform="translate(143.688 -12)">
          <path id="Trazado_116018" data-name="Trazado 116018" d="M168.548,134a4.048,4.048,0,1,0,4.048,4.048A4.048,4.048,0,0,0,168.548,134" transform="translate(-164.5 -134)" fill="#efd860"/>
          <path id="Trazado_116019" data-name="Trazado 116019" d="M233,300a4.5,4.5,0,1,0,4.5,4.5A4.5,4.5,0,0,0,233,300" transform="translate(-170.929 -150.675)" fill="#efd860"/>
        </g>
      </g>
    </g>
    <g id="Grupo_1072664" data-name="Grupo 1072664">
      <g id="_FILLED_OUTLINE" data-name="/ FILLED_OUTLINE" transform="translate(855.156 6201.988)">
        <circle id="Elipse_9714" data-name="Elipse 9714" cx="26.691" cy="26.691" r="26.691" transform="translate(78.279 18.973)" fill="#ed8f4f"/>
        <path id="Trazado_818843" data-name="Trazado 818843" d="M100.543,159.444l-10.749-4.778-10.749,4.778A11.863,11.863,0,0,0,72,170.284v39.742h35.588V170.284a11.863,11.863,0,0,0-7.045-10.84Z" transform="translate(-35.24 -87.254)" fill="#05a056"/>
        <path id="Trazado_818844" data-name="Trazado 818844" d="M65.794,204.012V200.9A8.9,8.9,0,1,0,48,200.9v3.115a8.9,8.9,0,0,0,5.284,8.13l3.613,1.606,3.613-1.606a8.9,8.9,0,0,0,5.284-8.13Z" transform="translate(-20.137 -110.748)" fill="#fcdcc8"/>
        <path id="Trazado_818845" data-name="Trazado 818845" d="M52.543,255.444l-10.749-4.778-10.749,4.778A11.863,11.863,0,0,0,24,266.284V291.2H59.588V266.284a11.863,11.863,0,0,0-7.045-10.84Z" transform="translate(-5.034 -147.666)" fill="#0cbf6a"/>
        <path id="Trazado_818846" data-name="Trazado 818846" d="M113.794,108.012V104.9A8.9,8.9,0,1,0,96,104.9v3.115a8.9,8.9,0,0,0,5.284,8.13l3.613,1.606,3.613-1.606A8.9,8.9,0,0,0,113.794,108.012Z" transform="translate(-50.343 -50.336)" fill="#fcdcc8"/>
        <path id="Trazado_818847" data-name="Trazado 818847" d="M161.794,204.012V200.9a8.9,8.9,0,0,0-17.794,0v3.115a8.9,8.9,0,0,0,5.284,8.13l3.613,1.606,3.613-1.606A8.9,8.9,0,0,0,161.794,204.012Z" transform="translate(-80.549 -110.748)" fill="#fcdcc8"/>
        <path id="Trazado_818848" data-name="Trazado 818848" d="M148.543,255.444l-10.749-4.778-10.749,4.778A11.863,11.863,0,0,0,120,266.284V291.2h35.588V266.284a11.863,11.863,0,0,0-7.045-10.84Z" transform="translate(-65.446 -147.666)" fill="#04b263"/>
        <path id="Trazado_818849" data-name="Trazado 818849" d="M184,288v53.382h11.863a26.691,26.691,0,0,0,26.691-26.691h0A26.691,26.691,0,0,0,195.863,288Z" transform="translate(-105.721 -171.16)" fill="#ed8f4f"/>
        <circle id="Elipse_9715" data-name="Elipse 9715" cx="26.691" cy="26.691" r="26.691" transform="translate(51.588 116.84)" fill="#f7a46b"/>
        <path id="Trazado_818850" data-name="Trazado 818850" d="M225.794,156.485l17.794-17.794h-8.9V112H216.9v26.691H208Z" transform="translate(-120.824 -60.405)" fill="#ffc542"/>
        <path id="Trazado_818851" data-name="Trazado 818851" d="M352,136h50.416l-2.966,8.9.052.234a121.964,121.964,0,0,1,0,52.915l-.052.234,2.966,8.9H352l2.966-8.9-.052-.234a121.964,121.964,0,0,1,0-52.915l.052-.234Z" transform="translate(-211.442 -75.508)" fill="#ffd168"/>
        <circle id="Elipse_9716" data-name="Elipse 9716" cx="5.931" cy="5.931" r="5.931" transform="translate(158.352 78.286)" fill="#e5b13b"/>
        <rect id="Rectángulo_376420" data-name="Rectángulo 376420" width="17.794" height="5.931" transform="translate(155.387 99.046)" fill="#e5b13b"/>
        <rect id="Rectángulo_376421" data-name="Rectángulo 376421" width="23.725" height="5.931" transform="translate(152.421 110.909)" fill="#e5b13b"/>
        <path id="Trazado_818852" data-name="Trazado 818852" d="M178.4,358.828a5.931,5.931,0,0,1-3.144-.9L154.411,344.9a5.931,5.931,0,0,0-3.144-.9H117.38v2.966a11.863,11.863,0,0,0,11.863,11.863h17.794L125.78,375.362a11.863,11.863,0,0,1-11.8,1.605L75.9,361.286a6.946,6.946,0,0,0-8.858,3.318L64,370.692l40.18,21.147a47.846,47.846,0,0,0,33.889,4.078l29.728-7.432h38.556V358.828Z" transform="translate(-30.206 -206.4)" fill="#fcdcc8"/>
        <path id="Trazado_818853" data-name="Trazado 818853" d="M369.72,62.651A83.137,83.137,0,0,0,333.241,36.22l2.045-5.568a89.072,89.072,0,0,1,39.082,28.314Z" transform="translate(-199.637 -9.213)" fill="#ffe7b1"/>
        <path id="Trazado_818854" data-name="Trazado 818854" d="M113.412,48.331l-3.617-4.7a88.721,88.721,0,0,1,23.52-12.977l2.045,5.568a82.773,82.773,0,0,0-21.949,12.111Z" transform="translate(-59.024 -9.213)" fill="#ffe7b1"/>
        <rect id="Rectángulo_376422" data-name="Rectángulo 376422" width="8.895" height="5.931" rx="2.966" transform="translate(113.867 149.463)" fill="#efc8b4"/>
        <path id="Trazado_818855" data-name="Trazado 818855" d="M193.789,72.849v2.472h-5.931a2.966,2.966,0,0,0-2.1,5.063l17.794,17.794a2.966,2.966,0,0,0,4.194,0l17.794-17.794a2.966,2.966,0,0,0-2.1-5.063h-5.931V72.849a29.657,29.657,0,1,0-23.725,0Zm11.863,19.037L195.017,81.252h1.737a2.966,2.966,0,0,0,2.966-2.966V54.561h11.863V78.286a2.966,2.966,0,0,0,2.966,2.966h1.737Zm0-69.948a23.727,23.727,0,0,1,11.863,44.275V51.6a2.966,2.966,0,0,0-2.966-2.966H196.755a2.966,2.966,0,0,0-2.966,2.966V66.213a23.727,23.727,0,0,1,11.863-44.275Z" transform="translate(-100.681)"/>
        <path id="Trazado_818856" data-name="Trazado 818856" d="M397.489,193.083a125.781,125.781,0,0,0,0-53.059l2.707-8.12a2.966,2.966,0,0,0-2.814-3.9H346.965a2.966,2.966,0,0,0-2.814,3.9l2.707,8.12a125.782,125.782,0,0,0,0,53.059l-2.707,8.12a2.966,2.966,0,0,0,2.814,3.9h50.417a2.966,2.966,0,0,0,2.814-3.9Zm-5.886,1.1,1.665,4.993H351.08l1.665-4.993a2.967,2.967,0,0,0,.082-1.58l-.052-.235a119.778,119.778,0,0,1,0-51.63l.052-.234a2.967,2.967,0,0,0-.082-1.58l-1.665-4.993h42.187l-1.665,4.993a2.967,2.967,0,0,0-.082,1.58l.052.235a119.779,119.779,0,0,1,0,51.63l-.052.234a2.967,2.967,0,0,0,.082,1.58Z" transform="translate(-206.407 -70.473)"/>
        <path id="Trazado_818857" data-name="Trazado 818857" d="M400.9,193.794a8.9,8.9,0,1,0-8.9-8.9,8.9,8.9,0,0,0,8.9,8.9Zm0-11.863a2.966,2.966,0,1,1-2.966,2.966,2.966,2.966,0,0,1,2.966-2.966Z" transform="translate(-236.613 -100.679)"/>
        <rect id="Rectángulo_376423" data-name="Rectángulo 376423" width="17.794" height="5.931" transform="translate(155.387 99.046)"/>
        <rect id="Rectángulo_376424" data-name="Rectángulo 376424" width="23.725" height="5.931" transform="translate(152.421 110.909)"/>
        <path id="Trazado_818858" data-name="Trazado 818858" d="M146.618,194.314l-20.841-13.026a8.888,8.888,0,0,0-4.715-1.352h-2.626a29.648,29.648,0,0,0-26.08-20.671,14.748,14.748,0,0,0-8.054-8.9l-4.975-2.211a11.876,11.876,0,0,0,4.884-9.592v-3.115A11.881,11.881,0,0,0,74.6,123.8a14.837,14.837,0,0,0-8.089-9.023l-4.975-2.211a11.876,11.876,0,0,0,4.884-9.592V99.863a11.863,11.863,0,0,0-23.725,0v3.115a11.876,11.876,0,0,0,4.884,9.592L42.6,114.781a14.837,14.837,0,0,0-8.089,9.023A11.881,11.881,0,0,0,24.9,135.451v3.115a11.876,11.876,0,0,0,4.884,9.592l-4.975,2.211A14.842,14.842,0,0,0,16,163.92v24.913h5.931V163.92a8.9,8.9,0,0,1,5.284-8.13l9.545-4.242L46.3,155.79a8.9,8.9,0,0,1,5.284,8.13v11.992a29.7,29.7,0,0,0-1.214,23l-3.552-1.463a9.95,9.95,0,0,0-12.64,4.735l-3.041,6.087a2.965,2.965,0,0,0,1.272,3.95l40.18,21.147a50.753,50.753,0,0,0,35.99,4.33l29.373-7.343h38.191v-5.931H137.591a2.96,2.96,0,0,0-.72.089l-29.727,7.432a44.834,44.834,0,0,1-31.789-3.825l-37.61-19.795,1.743-3.49a4,4,0,0,1,5.076-1.9l38.081,15.681A14.859,14.859,0,0,0,97.395,216.6L117.848,200.7h4.914v-5.931H99.037a8.907,8.907,0,0,1-8.9-8.9h30.921a2.965,2.965,0,0,1,1.572.451l20.84,13.025a8.89,8.89,0,0,0,4.715,1.352h27.957v-5.931H148.189A2.96,2.96,0,0,1,146.618,194.314Zm-34.482-14.378h-5.567a29.6,29.6,0,0,0-9.109-13.683,23.553,23.553,0,0,1,7.583,4.118A23.882,23.882,0,0,1,112.135,179.936ZM81.893,155.79a8.867,8.867,0,0,1,3.916,3.387H78.277a29.554,29.554,0,0,0-20.758,8.5V163.92a8.9,8.9,0,0,1,5.284-8.13l9.545-4.242Zm-3.613-20.339v3.115a5.936,5.936,0,0,1-3.522,5.42l-2.409,1.07-2.409-1.07a5.936,5.936,0,0,1-3.522-5.42v-3.115a5.931,5.931,0,0,1,11.863,0ZM48.622,99.863a5.931,5.931,0,0,1,11.863,0v3.115a5.936,5.936,0,0,1-3.522,5.42l-2.409,1.07-2.409-1.07a5.936,5.936,0,0,1-3.522-5.42Zm-5.931,38.7a5.936,5.936,0,0,1-3.522,5.42l-2.409,1.07-2.409-1.07a5.936,5.936,0,0,1-3.522-5.42v-3.115a5.931,5.931,0,0,1,11.863,0Zm6.022,11.8-4.975-2.211a11.876,11.876,0,0,0,4.884-9.592v-3.115a11.882,11.882,0,0,0-7.907-11.182,8.894,8.894,0,0,1,4.294-4.067l9.545-4.242L64.1,120.2a8.894,8.894,0,0,1,4.294,4.067,11.882,11.882,0,0,0-7.907,11.182v3.115a11.876,11.876,0,0,0,4.884,9.592l-4.975,2.211a14.805,14.805,0,0,0-5.84,4.661A14.806,14.806,0,0,0,48.713,150.369ZM99.037,200.7h9.151L93.753,211.922a8.915,8.915,0,0,1-8.85,1.2L58.795,202.376a23.728,23.728,0,1,1,41.48-22.44h-13.1a2.966,2.966,0,0,0-2.966,2.966v2.966A14.845,14.845,0,0,0,99.037,200.7Z" transform="translate(0 -45.302)"/>
        <path id="Trazado_818859" data-name="Trazado 818859" d="M369.72,62.651l4.648-3.685a89.072,89.072,0,0,0-39.082-28.314l-2.045,5.568A83.137,83.137,0,0,1,369.72,62.651Z" transform="translate(-199.637 -9.213)"/>
        <path id="Trazado_818860" data-name="Trazado 818860" d="M135.361,36.22l-2.045-5.568a88.721,88.721,0,0,0-23.52,12.977l3.617,4.7A82.773,82.773,0,0,1,135.361,36.22Z" transform="translate(-59.024 -9.213)"/>
      </g>
    </g>
  </g>
</svg>
