<svg xmlns="http://www.w3.org/2000/svg" width="85" height="85" viewBox="0 0 85 85">
  <g id="Grupo_1072658" data-name="Grupo 1072658" transform="translate(7140 5980)">
    <circle id="Elipse_9713" data-name="Elipse 9713" cx="42.5" cy="42.5" r="42.5" transform="translate(-7140 -5980)" fill="#dc40ed"/>
    <g id="analitica-" transform="translate(-7128 -5956.764)">
      <path id="Trazado_818830" data-name="Trazado 818830" d="M18.686,60.873h-3.86A4.825,4.825,0,0,1,10,56.047V14.825A4.825,4.825,0,0,1,14.825,10h49.7a4.825,4.825,0,0,1,4.825,4.825V56.047a4.825,4.825,0,0,1-4.825,4.825H18.686Z" transform="translate(-8.794 -8.794)" fill="#fff"/>
      <path id="Trazado_818831" data-name="Trazado 818831" d="M64.526,10h-49.7A4.825,4.825,0,0,0,10,14.825v3.86H69.351v-3.86A4.825,4.825,0,0,0,64.526,10Z" transform="translate(-8.794 -8.794)" fill="#ff5a5a"/>
      <path id="Trazado_818832" data-name="Trazado 818832" d="M21,82H78.3" transform="translate(-18.47 -72.108)" fill="#231f20"/>
      <rect id="Rectángulo_376416" data-name="Rectángulo 376416" width="7.555" height="12.951" transform="translate(6.779 47.43)" fill="#a5dc69"/>
      <rect id="Rectángulo_376417" data-name="Rectángulo 376417" width="7.914" height="16.189" transform="translate(33.76 44.192)" fill="#78d2fa"/>
      <rect id="Rectángulo_376418" data-name="Rectángulo 376418" width="7.72" height="26.608" transform="translate(20.266 33.95)" fill="#f5c86e"/>
      <rect id="Rectángulo_376419" data-name="Rectángulo 376419" width="7.72" height="28.409" transform="translate(47.288 32.148)" fill="#ff5a5a"/>
      <circle id="Elipse_9709" data-name="Elipse 9709" cx="3.136" cy="3.136" r="3.136" transform="translate(20.311 17.605)" fill="#f5c86e"/>
      <circle id="Elipse_9710" data-name="Elipse 9710" cx="3.136" cy="3.136" r="3.136" transform="translate(34.389 31.968)" fill="#78d2fa"/>
      <circle id="Elipse_9711" data-name="Elipse 9711" cx="3.136" cy="3.136" r="3.136" transform="translate(48.012 17.605)" fill="#ff5a5a"/>
      <circle id="Elipse_9712" data-name="Elipse 9712" cx="3.136" cy="3.136" r="3.136" transform="translate(7.4 30.813)" fill="#a5dc69"/>
      <path id="Trazado_818833" data-name="Trazado 818833" d="M57.552,53.139a4.217,4.217,0,0,0,4.212-4.212V6.032A6.038,6.038,0,0,0,55.732,0H6.032A6.038,6.038,0,0,0,0,6.032V48.926a4.217,4.217,0,0,0,4.212,4.212H5.549v6.212H1.206a1.206,1.206,0,0,0,0,2.413H60.557a1.206,1.206,0,1,0,0-2.413H56.215V53.139ZM6.032,2.413h49.7a3.623,3.623,0,0,1,3.619,3.619V8.686H2.534c-.041,0-.081,0-.121.006V6.032A3.623,3.623,0,0,1,6.032,2.413Zm1.93,56.938V48.494H13.27V59.351Zm13.511,0V35.156H26.78V59.351Zm13.511,0V45.358h5.308V59.351Zm13.511,0v-13a1.206,1.206,0,1,0-2.413,0v13H42.7v-15.2A1.206,1.206,0,0,0,41.5,42.945h-7.72a1.206,1.206,0,0,0-1.206,1.206v15.2H29.193V33.95a1.206,1.206,0,0,0-1.206-1.206h-7.72A1.206,1.206,0,0,0,19.06,33.95v25.4H15.682V47.288a1.206,1.206,0,0,0-1.206-1.206H6.755a1.206,1.206,0,0,0-1.206,1.206v3.438H4.212a1.8,1.8,0,0,1-1.8-1.8V11.092c.04,0,.08.006.121.006H59.351V48.926a1.8,1.8,0,0,1-1.8,1.8H56.215V32.148a1.206,1.206,0,0,0-1.206-1.206h-7.72a1.206,1.206,0,0,0-1.206,1.206V38.24a1.206,1.206,0,1,0,2.413,0V33.355H53.8v26Z"/>
      <path id="Trazado_818834" data-name="Trazado 818834" d="M213.271,38.413h27.255a1.206,1.206,0,0,0,0-2.413H213.271a1.206,1.206,0,1,0,0,2.413Z" transform="translate(-186.483 -31.657)"/>
      <path id="Trazado_818835" data-name="Trazado 818835" d="M95.206,38.413a1.207,1.207,0,1,0-.853-.354A1.215,1.215,0,0,0,95.206,38.413Z" transform="translate(-82.661 -31.657)"/>
      <path id="Trazado_818836" data-name="Trazado 818836" d="M55.206,38.413a1.207,1.207,0,1,0-.853-.354A1.215,1.215,0,0,0,55.206,38.413Z" transform="translate(-47.486 -31.657)"/>
      <path id="Trazado_818837" data-name="Trazado 818837" d="M135.206,38.413a1.207,1.207,0,1,0-.853-.354A1.215,1.215,0,0,0,135.206,38.413Z" transform="translate(-117.835 -31.657)"/>
      <path id="Trazado_818838" data-name="Trazado 818838" d="M383.206,342.64a1.207,1.207,0,1,0,.853.353A1.211,1.211,0,0,0,383.206,342.64Z" transform="translate(-335.919 -301.307)"/>
      <path id="Trazado_818839" data-name="Trazado 818839" d="M96.291,144.625a4.349,4.349,0,1,0-3.514-1.8l-8.013,8.013a4.332,4.332,0,0,0-4-.1l-8.367-8.367a4.343,4.343,0,1,0-7.494.187l-7.124,7.124a4.346,4.346,0,1,0,1.706,1.706l7.209-7.209a4.333,4.333,0,0,0,4-.1l8.285,8.285a4.343,4.343,0,1,0,7.5.18L94.7,144.32A4.315,4.315,0,0,0,96.291,144.625Zm0-6.273a1.93,1.93,0,1,1-1.93,1.93A1.932,1.932,0,0,1,96.291,138.352ZM55.679,155.42a1.93,1.93,0,1,1,1.93-1.93A1.932,1.932,0,0,1,55.679,155.42Zm12.912-13.208a1.93,1.93,0,1,1,1.93-1.93A1.932,1.932,0,0,1,68.591,142.212Zm14.078,14.362a1.93,1.93,0,1,1,1.93-1.93A1.932,1.932,0,0,1,82.668,156.574Z" transform="translate(-45.143 -119.54)"/>
      <path id="Trazado_818840" data-name="Trazado 818840" d="M132.466,128.433a1.2,1.2,0,1,0-.854-.353A1.217,1.217,0,0,0,132.466,128.433Z" transform="translate(-115.426 -110.818)"/>
      <path id="Trazado_818841" data-name="Trazado 818841" d="M47.206,128.434H53a1.206,1.206,0,1,0,0-2.413h-5.79a1.206,1.206,0,1,0,0,2.413Z" transform="translate(-40.451 -110.819)"/>
      <path id="Trazado_818842" data-name="Trazado 818842" d="M53,176.434a1.206,1.206,0,1,0,0-2.413h-5.79a1.206,1.206,0,1,0,0,2.413Z" transform="translate(-40.451 -153.028)"/>
    </g>
  </g>
</svg>
