<svg xmlns="http://www.w3.org/2000/svg" xmlns:xlink="http://www.w3.org/1999/xlink" width="101" height="101" viewBox="0 0 101 101">
  <defs>
    <filter id="Elipse_4719" x="0" y="0" width="101" height="101" filterUnits="userSpaceOnUse">
      <feOffset dy="1" input="SourceAlpha"/>
      <feGaussianBlur stdDeviation="5.5" result="blur"/>
      <feFlood flood-color="#fff" flood-opacity="0.902"/>
      <feComposite operator="in" in2="blur"/>
      <feComposite in="SourceGraphic"/>
    </filter>
  </defs>
  <g id="Grupo_1072745" data-name="Grupo 1072745" transform="translate(-281.656 -8489.5)">
    <g id="Grupo_1072628" data-name="Grupo 1072628" transform="translate(298.289 8505)">
      <g id="Grupo_1044235" data-name="Grupo 1044235" transform="translate(-0.132 0)">
        <g transform="matrix(1, 0, 0, 1, -16.5, -15.5)" filter="url(#Elipse_4719)">
          <g id="Elipse_4719-2" data-name="Elipse 4719" transform="translate(16.5 15.5)" fill="none" stroke="#1425dd" stroke-width="6">
            <circle cx="34" cy="34" r="34" stroke="none"/>
            <circle cx="34" cy="34" r="31" fill="none"/>
          </g>
        </g>
      </g>
    </g>
    <g id="sistema-operativo" transform="translate(300.156 8507)">
      <path id="Trazado_819040" data-name="Trazado 819040" d="M43,8H61V56H43Z" fill="#b7b6b7"/>
      <path id="Trazado_819041" data-name="Trazado 819041" d="M34,56l-1.51-6H21.51L20,56" fill="#484c4f"/>
      <path id="Trazado_819042" data-name="Trazado 819042" d="M6,50H3V18H51V50H12" fill="#4a8cdd"/>
      <path id="Trazado_819043" data-name="Trazado 819043" d="M48,18V45a2,2,0,0,1-2,2H3v3H51V18Z" fill="#356baa"/>
      <path id="Trazado_819044" data-name="Trazado 819044" d="M23.88,41.81a2.57,2.57,0,0,1-.4,2.47A11.84,11.84,0,0,0,27.58,46a2.53,2.53,0,0,1,5,0,11.89,11.89,0,0,0,4.11-1.72,2.56,2.56,0,0,1,.19-3.41,2.5,2.5,0,0,1,3.37-.19A12,12,0,0,0,42,36.54a2.56,2.56,0,0,1,0-5.08,12,12,0,0,0-1.71-4.14,2.5,2.5,0,0,1-3.37-.19,2.56,2.56,0,0,1-.19-3.41A11.89,11.89,0,0,0,32.62,22a2.53,2.53,0,0,1-5,0,11.84,11.84,0,0,0-4.1,1.72,2.57,2.57,0,0,1,.4,2.47" fill="#e2ba4b"/>
      <circle id="Elipse_9737" data-name="Elipse 9737" cx="6" cy="6" r="6" transform="translate(24 28)" fill="#b7b6b7"/>
      <path id="Trazado_819045" data-name="Trazado 819045" d="M24.21,41.1a8.57,8.57,0,0,1-2.16.9A2.07,2.07,0,0,0,18,42a8.57,8.57,0,0,1-2.16-.9,2.06,2.06,0,0,0-2.89-2.89,8.57,8.57,0,0,1-.9-2.16A2.07,2.07,0,0,0,12,32a8.57,8.57,0,0,1,.9-2.16,2.06,2.06,0,0,0,2.89-2.89A8.57,8.57,0,0,1,18,26a2.07,2.07,0,0,0,4.1,0,8.57,8.57,0,0,1,2.16.9,2.06,2.06,0,0,0,2.89,2.89A8.57,8.57,0,0,1,28,32a2.07,2.07,0,0,0,0,4.1,8.57,8.57,0,0,1-.9,2.16,2.06,2.06,0,0,0-2.89,2.89Z" fill="#fad55c"/>
      <circle id="Elipse_9738" data-name="Elipse 9738" cx="3" cy="3" r="3" transform="translate(17 31)" fill="#b7b6b7"/>
      <path id="Trazado_819046" data-name="Trazado 819046" d="M61,7H43a1,1,0,0,0-1,1v9H3a1,1,0,0,0-1,1V50a1,1,0,0,0,1,1H6V49H4V19H50V49H12v2h8.23l-1,4H13v2H41V55H34.78l-1-4H42v5a1,1,0,0,0,1,1H61a1,1,0,0,0,1-1V8A1,1,0,0,0,61,7ZM32.72,55H21.28l1-4H31.7ZM60,55H44V51h7a1,1,0,0,0,1-1V27h6V25H52V21h6V19H52V18a1,1,0,0,0-1-1H44V9H60Z"/>
      <path id="Trazado_819047" data-name="Trazado 819047" d="M8,49h2v2H8Z"/>
      <path id="Trazado_819048" data-name="Trazado 819048" d="M46,13H58v2H46Z"/>
      <path id="Trazado_819049" data-name="Trazado 819049" d="M18.51,25.17A1,1,0,0,0,17.7,25a9.33,9.33,0,0,0-2.42,1A1,1,0,0,0,15,27.51,1.061,1.061,0,0,1,13.51,29a1,1,0,0,0-1.47.28,9.53,9.53,0,0,0-1,2.42,1.011,1.011,0,0,0,.85,1.25,1.06,1.06,0,0,1,0,2.1,1.011,1.011,0,0,0-.85,1.25,9.53,9.53,0,0,0,1,2.42,1,1,0,0,0,1.47.28A1.06,1.06,0,0,1,15,40.49,1,1,0,0,0,15.28,42a9.33,9.33,0,0,0,2.42,1,1,1,0,0,0,1.24-.85,1.07,1.07,0,0,1,2.12,0,.991.991,0,0,0,.99.88,1.07,1.07,0,0,0,.25,0c.25-.07.48-.16.72-.25a1.54,1.54,0,0,1-.33.94,1.006,1.006,0,0,0,.23,1.45A12.94,12.94,0,0,0,27.38,47a1,1,0,0,0,1.2-.88,1.53,1.53,0,0,1,3.05,0,1,1,0,0,0,1,.9h.21a12.81,12.81,0,0,0,4.45-1.87.985.985,0,0,0,.23-1.45,1.56,1.56,0,0,1,.12-2.09,1.5,1.5,0,0,1,2-.11,1,1,0,0,0,1.47-.23A13,13,0,0,0,43,36.75a1,1,0,0,0-.87-1.2,1.56,1.56,0,0,1,0-3.1,1,1,0,0,0,.87-1.2,13,13,0,0,0-1.85-4.48,1,1,0,0,0-1.47-.23,1.5,1.5,0,0,1-2-.12,1.56,1.56,0,0,1-.11-2.08.985.985,0,0,0-.23-1.45A12.81,12.81,0,0,0,32.83,21a1,1,0,0,0-1.2.88,1.53,1.53,0,0,1-3.05,0,1,1,0,0,0-1.2-.88,12.94,12.94,0,0,0-4.46,1.87,1.006,1.006,0,0,0-.23,1.45,1.54,1.54,0,0,1,.33.94c-.24-.09-.47-.18-.72-.25a1,1,0,0,0-1.24.85,1.07,1.07,0,0,1-2.12,0,1,1,0,0,0-.43-.69ZM28.83,35.49a1,1,0,0,0-.71-.44,1.06,1.06,0,0,1,0-2.1A1.056,1.056,0,0,0,29,31.7a9.36,9.36,0,0,0-1-2.29,5,5,0,1,1,0,9.18,9.36,9.36,0,0,0,1-2.29,1,1,0,0,0-.17-.81ZM26.89,23.21a3.52,3.52,0,0,0,6.43,0,10.79,10.79,0,0,1,2.07.87,3.56,3.56,0,0,0,.81,3.75,3.48,3.48,0,0,0,3.73.83,10.5,10.5,0,0,1,.86,2.11,3.56,3.56,0,0,0,0,6.46,10.5,10.5,0,0,1-.86,2.11,3.48,3.48,0,0,0-3.72.82,3.56,3.56,0,0,0-.82,3.76,10.79,10.79,0,0,1-2.07.87,3.52,3.52,0,0,0-6.43,0,10.88,10.88,0,0,1-2.08-.87,3.6,3.6,0,0,0,.1-2.13.962.962,0,0,0,.09-1.3,1.07,1.07,0,0,1,.09-1.41h.06a7,7,0,1,0,0-10.08l-.07-.05a1.07,1.07,0,0,1-.08-1.4.962.962,0,0,0-.09-1.3,3.6,3.6,0,0,0-.1-2.13,10.88,10.88,0,0,1,2.08-.91ZM20,28.81a3.07,3.07,0,0,0,2.67-1.56l.21.09a3.07,3.07,0,0,0,3.78,3.78l.09.21a3.06,3.06,0,0,0,0,5.34l-.09.21a3.07,3.07,0,0,0-3.78,3.78l-.21.09a3.06,3.06,0,0,0-5.34,0l-.21-.09a3.07,3.07,0,0,0-3.78-3.78l-.09-.21a3.06,3.06,0,0,0,0-5.34l.09-.21a3.07,3.07,0,0,0,3.78-3.78l.21-.09A3.07,3.07,0,0,0,20,28.81Z"/>
      <path id="Trazado_819050" data-name="Trazado 819050" d="M12.29,21.29,9.59,24H6v2h4a1,1,0,0,0,.71-.29L13.41,23H17V21H13A1,1,0,0,0,12.29,21.29Z"/>
      <path id="Trazado_819051" data-name="Trazado 819051" d="M19,21h2v2H19Z"/>
      <path id="Trazado_819052" data-name="Trazado 819052" d="M6,44H9.59l2.7,2.71A1,1,0,0,0,13,47h4V45H13.41l-2.7-2.71A1,1,0,0,0,10,42H6Z"/>
      <path id="Trazado_819053" data-name="Trazado 819053" d="M19,45h2v2H19Z"/>
      <path id="Trazado_819054" data-name="Trazado 819054" d="M39,45h2v2H39Z"/>
      <path id="Trazado_819055" data-name="Trazado 819055" d="M39,21h2v2H39Z"/>
      <path id="Trazado_819056" data-name="Trazado 819056" d="M16,34a4,4,0,1,0,4-4A4,4,0,0,0,16,34Zm4-2a2,2,0,1,1-2,2A2,2,0,0,1,20,32Z"/>
    </g>
  </g>
</svg>
