<svg xmlns="http://www.w3.org/2000/svg" xmlns:xlink="http://www.w3.org/1999/xlink" width="251.041" height="180.063" viewBox="0 0 251.041 180.063">
  <defs>
    <filter id="Elipse_4719" x="166.45" y="97.137" width="84.591" height="82.926" filterUnits="userSpaceOnUse">
      <feOffset dy="1" input="SourceAlpha"/>
      <feGaussianBlur stdDeviation="5.5" result="blur"/>
      <feFlood flood-color="#fff" flood-opacity="0.902"/>
      <feComposite operator="in" in2="blur"/>
      <feComposite in="SourceGraphic"/>
    </filter>
    <filter id="Elipse_4719-2" x="20.5" y="0" width="45" height="45" filterUnits="userSpaceOnUse">
      <feOffset dy="1" input="SourceAlpha"/>
      <feGaussianBlur stdDeviation="5.5" result="blur-2"/>
      <feFlood flood-color="#fff" flood-opacity="0.902"/>
      <feComposite operator="in" in2="blur-2"/>
      <feComposite in="SourceGraphic"/>
    </filter>
  </defs>
  <g id="Grupo_1072762" data-name="Grupo 1072762" transform="translate(0 15.5)">
    <g id="Grupo_1072761" data-name="Grupo 1072761">
      <rect id="dispositivos-informaticos-tecnologia-nube-conectados-al-almacenamiento-digital-centro-datos-traves-internet-iot-smart-home-communication-laptop-tablet" width="245" height="118.358" rx="12" transform="translate(0 42.079)" fill="#222b89"/>
      <path id="Trazado_771202" data-name="Trazado 771202" d="M1.494,27.082,0,25.751a3.669,3.669,0,0,1,3.683-2.029c1.129-.045,1.79-.114,2.244-.991s.258-1.709-.127-3.1c-.408-1.479-.916-3.321.078-5.242a3.668,3.668,0,0,1,3.683-2.029c1.129-.045,1.79-.113,2.244-.991s.258-1.709-.126-3.1c-.408-1.479-.916-3.321.078-5.242A3.669,3.669,0,0,1,15.441.991C16.57.946,17.231.878,17.685,0L19.18,1.331A3.668,3.668,0,0,1,15.5,3.361c-1.129.045-1.791.114-2.245.991s-.258,1.709.126,3.1c.408,1.479.916,3.321-.078,5.242a3.669,3.669,0,0,1-3.683,2.029c-1.129.045-1.79.114-2.244.991s-.258,1.709.127,3.1c.408,1.479.916,3.321-.078,5.242a3.668,3.668,0,0,1-3.683,2.029c-1.13.045-1.791.114-2.244.991" transform="translate(217.082 12.301) rotate(90)" fill="#dc40ed"/>
      <ellipse id="Elipse_4729" data-name="Elipse 4729" cx="2.959" cy="3.107" rx="2.959" ry="3.107" transform="translate(139.704 138.484)" fill="#fff"/>
      <g id="Grupo_1072486" data-name="Grupo 1072486" transform="translate(10.639 21.449)">
        <g id="Grupo_1072487" data-name="Grupo 1072487" transform="translate(0)">
          <path id="Trazado_818654" data-name="Trazado 818654" d="M21.027,28.61A21.027,21.027,0,1,0,42.054,49.638,21.027,21.027,0,0,0,21.027,28.61m0,34.471A13.444,13.444,0,1,1,34.471,49.638,13.444,13.444,0,0,1,21.027,63.081" transform="translate(0 -28.61)" fill="#dc40ed"/>
          <rect id="Rectángulo_376303" data-name="Rectángulo 376303" width="7.673" height="1.374" transform="translate(140.119 31.187)" fill="#dc40ed"/>
          <rect id="Rectángulo_376304" data-name="Rectángulo 376304" width="11.57" height="1.374" transform="translate(140.119 34.279)" fill="#dc40ed"/>
          <rect id="Rectángulo_376305" data-name="Rectángulo 376305" width="14.267" height="1.374" transform="translate(140.119 37.371)" fill="#dc40ed"/>
          <rect id="Rectángulo_376306" data-name="Rectángulo 376306" width="5.455" height="1.374" transform="translate(140.119 40.463)" fill="#dc40ed"/>
          <rect id="Rectángulo_376307" data-name="Rectángulo 376307" width="25.631" height="2.673" transform="translate(80.82 39.382)" fill="#dc40ed" stroke="#289df2" stroke-miterlimit="10" stroke-width="1.128"/>
          <rect id="Rectángulo_376308" data-name="Rectángulo 376308" width="15.882" height="0.786" transform="translate(82.265 40.121)" fill="#dc40ed"/>
        </g>
      </g>
      <g id="Grupo_1072488" data-name="Grupo 1072488" transform="translate(182.95 97.137)">
        <g transform="matrix(1, 0, 0, 1, -182.95, -112.64)" filter="url(#Elipse_4719)">
          <g id="Elipse_4719-3" data-name="Elipse 4719" transform="translate(182.95 112.64)" fill="none" stroke="#fff" stroke-width="6">
            <ellipse cx="25.795" cy="24.963" rx="25.795" ry="24.963" stroke="none"/>
            <ellipse cx="25.795" cy="24.963" rx="22.795" ry="21.963" fill="none"/>
          </g>
        </g>
      </g>
      <g id="Grupo_1072489" data-name="Grupo 1072489" transform="translate(37)">
        <g transform="matrix(1, 0, 0, 1, -37, -15.5)" filter="url(#Elipse_4719-2)">
          <circle id="Elipse_4719-4" data-name="Elipse 4719" cx="6" cy="6" r="6" transform="translate(37 15.5)" fill="#dc40ed"/>
        </g>
      </g>
      <path id="Trazado_771199" data-name="Trazado 771199" d="M19.42,12.138H11.106L18.813,0H9.1L0,18.206H7.161L0,35.2Z" transform="translate(198.73 121.057) rotate(-1)" fill="#dc40ed"/>
    </g>
    <g id="cita" transform="translate(59 16)">
      <g id="Grupo_1072667" data-name="Grupo 1072667" transform="translate(1.872 1.873)">
        <path id="Trazado_818861" data-name="Trazado 818861" d="M57.464,19.183c0-4.993-5.21-8.3-8.694-9.608A29.656,29.656,0,0,0,38.715,7.5a25.219,25.219,0,0,0-11.47,3.332L11.159,26.918a25.219,25.219,0,0,0-3.332,11.47A29.654,29.654,0,0,0,9.9,48.443c1.311,3.484,4.615,8.694,9.608,8.694s37.954-32.96,37.954-37.954Z" transform="translate(-7.827 -7.5)" fill="#a29aa5"/>
        <path id="Trazado_818862" data-name="Trazado 818862" d="M61.485,84.244c-1.938-5.881-.411-9.6,6.537-16.549s10.668-8.475,16.549-6.537l1.173.387c.757.249,5.157,1.45,5.157,1.45l6.6,25.695-8.487,8.487-25.695-6.6s-1.063-3.984-1.45-5.157Z" transform="translate(-47.507 -47.179)" fill="#766d78"/>
        <path id="Trazado_818863" data-name="Trazado 818863" d="M349.563,53.379h27.311V80.69H349.563Z" transform="translate(-264.241 -41.924)" fill="#e1dee2"/>
        <path id="Trazado_818864" data-name="Trazado 818864" d="M416.611,54.823,400.525,38.737c-3.692,3.692-3.65,8.77-.884,12.935,0,0-1.167,3.55-.341,4.376l4.387-2s4.858,3.648,12.924.774Z" transform="translate(-300.323 -30.938)" fill="#c38778"/>
        <path id="Trazado_818865" data-name="Trazado 818865" d="M417.822,88.166a6.194,6.194,0,0,1-7.019,1.7,3.788,3.788,0,0,0-4.086.81l-2.461,2.461c.826.826,4.376-.341,4.376-.341,4.165,2.766,9.243,2.808,12.935-.884Z" transform="translate(-305.279 -68.026)" fill="#9d6c6c"/>
        <path id="Trazado_818866" data-name="Trazado 818866" d="M360.613,7.5a24.155,24.155,0,0,0-10.22,2.221c-4.677,2.114-12.071,3.365-17.966,9.26-.607.607-4.641,9.3-4.641,9.3l3.419,1.838,8.224-6.227c6.405-4.85,9.774-1.146,16.188-.023,0,5.646,2.931,10.238-1.521,14.69,12.709-6.957,17.486-15.169,14.561-27.73A11.339,11.339,0,0,0,360.613,7.5Z" transform="translate(-247.901 -7.5)" fill="#766d78"/>
        <path id="Trazado_818867" data-name="Trazado 818867" d="M364.044,58.927C358.475,58,353.157,56.144,348.7,60.6l-7.225,7.225,3.248,1.746,6.475-6.474c4.452-4.452,9.045-1.521,14.69-1.521C365.891,59.769,365.547,59.176,364.044,58.927Z" transform="translate(-258.176 -45.2)" fill="#544f56"/>
        <path id="Trazado_818868" data-name="Trazado 818868" d="M428.266,20.844c0,12.3-3.451,16.62-14.561,27.73l-6.474,6.474L410.9,61.92l4.631-1.013s11.876-10.047,13.843-21.8a24.154,24.154,0,0,0,2.221-10.22A11.339,11.339,0,0,0,428.266,20.844Z" transform="translate(-307.511 -17.512)" fill="#544f56"/>
        <path id="Trazado_818869" data-name="Trazado 818869" d="M163.712,118.444A46.58,46.58,0,0,0,150.45,86.766a44.946,44.946,0,0,0-68.772,55.456c.762,1.415-.9,2.784.005,4.1s4.374,2.586,5.41,3.8a43.974,43.974,0,0,0,31.679,13.262A44.941,44.941,0,0,0,163.712,118.444Z" transform="translate(-59.225 -58.898)" fill="#bfe2e6"/>
        <path id="Trazado_818870" data-name="Trazado 818870" d="M182.8,119.119a44.96,44.96,0,0,1,5.7,49.915H169.361v19.147a44.96,44.96,0,0,1-49.915-5.7c1.8,2.107,3.794,6.543,5.951,8.287s4.479.795,6.938,2.12a45.042,45.042,0,0,0,38.779,1.821c5.338-2.258,12.646-3.021,16.694-7.047s4.837-11.315,7.124-16.638a44.981,44.981,0,0,0-12.129-51.9Z" transform="translate(-91.578 -91.251)" fill="#94ccd4"/>
        <path id="Trazado_818871" data-name="Trazado 818871" d="M270.736,110.552l-5.7,1.52-3.649,13.8c-.864,3.223,4.008,6.716,6.367,4.357l3.9-3.9c1.995-1.995.428-4.078-.924-6.419v-9.352Z" transform="translate(-198.007 -84.823)" fill="#c38778"/>
        <path id="Trazado_818872" data-name="Trazado 818872" d="M293.077,113.661a5.429,5.429,0,0,0,.1,4.259A14.369,14.369,0,0,0,294.3,119.9l2.685-5.586-2.685-3.766Z" transform="translate(-221.57 -84.824)" fill="#9d6c6c"/>
        <path id="Trazado_818873" data-name="Trazado 818873" d="M300.486,17.506a45.375,45.375,0,0,1,11.283-7.784A23.512,23.512,0,0,0,302.476,7.5c-6.4,0-12.819,4.142-22.124,14.94a7.525,7.525,0,0,0-1.576,2.986L276.31,34.75l4.613,1.236,3.642-9.264c7.5-7.5,11.417-10.735,15.921-9.216Z" transform="translate(-209.278 -7.501)" fill="#faf8f8"/>
        <path id="Trazado_818874" data-name="Trazado 818874" d="M314.35,46.471c-4.5-1.518-8.419,1.714-15.921,9.216l-3.642,9.264,3.769,1.01,3.618-7.527,7.989-7.989Q312.342,48.267,314.35,46.471Z" transform="translate(-223.141 -36.467)" fill="#e1dee2"/>
        <path id="Trazado_818875" data-name="Trazado 818875" d="M362.262,178.432l-7.49,1.484c-1.575-2.711-4.485-5.246-6.926-2.805l-3.9,3.9a3.749,3.749,0,0,0-.893,1.4l12.4,2.5,9.3-2.5Z" transform="translate(-259.355 -134.024)" fill="#c38778"/>
        <path id="Trazado_818876" data-name="Trazado 818876" d="M342.421,201.307a3.754,3.754,0,0,0,3.541,4.993h15.67l2.5-4.993Z" transform="translate(-258.725 -152.919)" fill="#9d6c6c"/>
        <path id="Trazado_818877" data-name="Trazado 818877" d="M435.379,118.347a76.76,76.76,0,0,1-8.181,9.389l-2.086,6.33L420,135.079v3.98l9.47,2.5C435.15,136.31,441.176,121.56,435.379,118.347Z" transform="translate(-317.089 -90.672)" fill="#faf8f8"/>
        <path id="Trazado_818878" data-name="Trazado 818878" d="M435.379,100.074c1.886,3.386-.977,15.466-6.662,20.713H420v4.993h9.668a3.714,3.714,0,0,0,2.723-1.172c5.09-5.475,8.789-14.664,8.789-21.321a23.508,23.508,0,0,0-2.221-9.293A35.874,35.874,0,0,1,435.379,100.074Z" transform="translate(-317.089 -72.398)" fill="#e1dee2"/>
        <path id="Trazado_818879" data-name="Trazado 818879" d="M49.147,32.734l-2-2L31.064,46.823l2,2c3.692,3.692,8.271,4.15,12.435,1.383,0,0,3.139,1.579,4.876-.158s.158-4.876.158-4.876C53.3,41,52.839,36.426,49.147,32.734Z" transform="translate(-25.262 -24.935)" fill="#ebae9d"/>
        <path id="Trazado_818880" data-name="Trazado 818880" d="M18.286,28.14a4.161,4.161,0,0,0,1.209-3.248,4.17,4.17,0,0,0,5.725-5.725,4.162,4.162,0,0,0,3.248-1.209c1.471-1.471,1.248-4.656-2.07-7.894a11.375,11.375,0,0,0-16.005,16c3.237,3.319,6.422,3.541,7.894,2.07Z" transform="translate(-7.828 -7.501)" fill="#e592b8"/>
        <path id="Trazado_818881" data-name="Trazado 818881" d="M37.42,26.91a4.175,4.175,0,0,0,0-5.9l-2.47-2.47q-.409-.409-.849-.768a4.168,4.168,0,0,1-3.675,6.606A4.17,4.17,0,0,1,24.7,30.1,4.168,4.168,0,0,1,18.1,33.773q.359.439.768.849l2.47,2.47a4.172,4.172,0,0,0,7.113-3.248,4.17,4.17,0,0,0,5.725-5.725A4.16,4.16,0,0,0,37.42,26.91Z" transform="translate(-15.532 -15.204)" fill="#de5ca3"/>
        <path id="Trazado_818882" data-name="Trazado 818882" d="M30.125,165.809l-1.7-5.157c1.7,5.157-9.34,9.853-12.29,2.705a37.673,37.673,0,0,0,4.615,8.694l34.819.359-7.062-3.531Z" transform="translate(-14.061 -122.414)" fill="#ffcdbe"/>
        <path id="Trazado_818883" data-name="Trazado 818883" d="M36.72,208.881a3.713,3.713,0,0,0,2.723,1.171H55.852c2,2,4.265,3.676,7.143,3.676,4.621,0,6.445-4.082,6.445-7.062l-.718-.359H34.62A27.2,27.2,0,0,0,36.72,208.881Z" transform="translate(-27.931 -156.671)" fill="#ebae9d"/>
        <path id="Trazado_818884" data-name="Trazado 818884" d="M163.684,15.809c7.148,2.95,2.452,13.989-2.705,12.29l5.157,1.7,3.07,18.383,3.531,7.062-.359-34.819a37.681,37.681,0,0,0-8.694-4.614Z" transform="translate(-122.741 -13.734)" fill="#ffcdbe"/>
        <path id="Trazado_818885" data-name="Trazado 818885" d="M210.38,55.524V39.115a3.714,3.714,0,0,0-1.171-2.723,27.2,27.2,0,0,0-2.574-2.1v34.1l.359.718c2.981,0,7.062-1.823,7.062-6.444C214.056,59.789,212.378,57.522,210.38,55.524Z" transform="translate(-156.998 -27.603)" fill="#ebae9d"/>
        <path id="Trazado_818886" data-name="Trazado 818886" d="M155.617,143.271,143.6,155.289a2.5,2.5,0,0,0,0,3.531,4.99,4.99,0,0,0,1.189.88l7.911-7.328,7.328-7.911a4.994,4.994,0,0,0-.879-1.189A2.5,2.5,0,0,0,155.617,143.271Z" transform="translate(-109.152 -108.825)" fill="#a29aa5"/>
        <path id="Trazado_818887" data-name="Trazado 818887" d="M156.431,164.591l8.487-8.487a5,5,0,0,0,.879-5.873L150.558,165.47A5,5,0,0,0,156.431,164.591Z" transform="translate(-114.922 -114.595)" fill="#766d78"/>
        <path id="Trazado_818888" data-name="Trazado 818888" d="M262.858,271.9l9.369-9.369a1.873,1.873,0,0,1,2.648,0l15.378,15.378a1.873,1.873,0,0,1,0,2.648l-9.369,9.369a1.873,1.873,0,0,1-2.648,0l-15.378-15.378A1.873,1.873,0,0,1,262.858,271.9Z" transform="translate(-198.772 -198.445)" fill="#faf8f8"/>
        <path id="Trazado_818889" data-name="Trazado 818889" d="M345.956,290.693a3.745,3.745,0,0,0-2.648,6.393l3.9,3.9c1.995,1.995,5.654,1.7,6.926-2.805l2.5-3.855-2.5-3.635Z" transform="translate(-258.719 -219.988)" fill="#ffcdbe"/>
        <path id="Trazado_818890" data-name="Trazado 818890" d="M297.413,342.98a3.745,3.745,0,0,0-6.393,2.648v8.18l3.9,2.316,3.595-2.316c4.323-.557,4.8-4.931,2.805-6.926Z" transform="translate(-220.315 -258.392)" fill="#ffcdbe"/>
        <path id="Trazado_818891" data-name="Trazado 818891" d="M323.236,339l16.086-16.086a25.219,25.219,0,0,0,3.332-11.47c0-10.588-7.042-19.575-7.042-19.575a3.713,3.713,0,0,0-2.723-1.171H315.731v3.635l12.608,6.352a49.772,49.772,0,0,1-27.332,27.332L294.655,315.4H291.02v17.158a3.714,3.714,0,0,0,1.172,2.723s8.986,7.041,19.574,7.041A25.22,25.22,0,0,0,323.236,339Z" transform="translate(-220.315 -219.988)" fill="#a29aa5"/>
        <path id="Trazado_818892" data-name="Trazado 818892" d="M339.136,295.385s4.545,6.49,4.545,17.078a25.219,25.219,0,0,1-3.332,11.47l-16.086,16.086a25.22,25.22,0,0,1-11.47,3.332c-10.587,0-17.077-4.544-17.077-4.544,5.475,5.09,14.664,8.789,21.321,8.789a25.219,25.219,0,0,0,11.47-3.332l16.086-16.086a25.219,25.219,0,0,0,3.332-11.47C347.926,310.05,344.226,300.86,339.136,295.385Z" transform="translate(-223.839 -223.508)" fill="#766d78"/>
        <path id="Trazado_818893" data-name="Trazado 818893" d="M335.742,307.052l-9.087-1.8v3.855l7.935,1.572v4.993l-4.647,3.282a45.2,45.2,0,0,1-10.661,10.661L316,334.264h-4.993l-1.572-7.935h-3.855l1.8,9.087a3.745,3.745,0,0,0,2.478,2.821l2.076.7A49.772,49.772,0,0,0,339.263,311.6l-.7-2.076A3.746,3.746,0,0,0,335.742,307.052Z" transform="translate(-231.239 -230.912)" fill="#766d78"/>
        <path id="Trazado_818894" data-name="Trazado 818894" d="M400.85,384.006c-5.261-5.261-9.266-8.343-14.662-8.26l-9.542,9.576c0,5.7,3.336,9.987,8.118,14.77Z" transform="translate(-284.563 -283.805)" fill="#faf8f8"/>
        <path id="Trazado_818895" data-name="Trazado 818895" d="M386.189,375.751a21.207,21.207,0,0,0-7.8,1.88,19.949,19.949,0,0,0-1.738,7.7A49.9,49.9,0,0,0,386.189,375.751Z" transform="translate(-284.563 -283.809)" fill="#e1dee2"/>
        <path id="Trazado_818896" data-name="Trazado 818896" d="M337.175,428.1l-6.146,3.012,6.328,2.085A24.835,24.835,0,0,1,337.175,428.1Z" transform="translate(-250.335 -323.089)" fill="#766d78"/>
        <path id="Trazado_818897" data-name="Trazado 818897" d="M335.591,402.836a44.874,44.874,0,0,1-8.276,4.648l.925,4.671h0a49.432,49.432,0,0,0,6.146-3.012,23.908,23.908,0,0,1,1.2-6.308Z" transform="translate(-247.548 -304.132)" fill="#544f56"/>
        <path id="Trazado_818898" data-name="Trazado 818898" d="M433.526,337.03l-2.085-6.328-3.012,6.146a24.814,24.814,0,0,1,5.1.182Z" transform="translate(-323.417 -250.008)" fill="#766d78"/>
        <path id="Trazado_818899" data-name="Trazado 818899" d="M412.484,327.913l-4.671-.925a44.864,44.864,0,0,1-4.647,8.276,23.906,23.906,0,0,1,6.308-1.2,49.379,49.379,0,0,0,3.012-6.146Z" transform="translate(-304.461 -247.221)" fill="#544f56"/>
        <path id="Trazado_818900" data-name="Trazado 818900" d="M419.08,418.753c6.333-6.333,2.694-13.392-1.748-17.834l-.722-.722c-3.692-3.692-8.77-3.65-12.935-.884,0,0-3.55-1.167-4.376-.341s.341,4.376.341,4.376c-2.766,4.165-2.808,9.243.884,12.935l.722.722C405.689,421.447,412.748,425.085,419.08,418.753Z" transform="translate(-300.323 -299.995)" fill="#ffcdbe"/>
        <path id="Trazado_818901" data-name="Trazado 818901" d="M431.886,415.472l-3.745-3.745a11.375,11.375,0,0,1-16.086,16.086l3.745,3.745a11.375,11.375,0,0,0,16.086-16.086Z" transform="translate(-311.131 -310.803)" fill="#ebae9d"/>
        <path id="Trazado_818902" data-name="Trazado 818902" d="M152.333,310.968c-2.428-2.428-5.5-2.611-13.417,1.848l-1.2,4.149,6.055,2.564c-1.319,1.319-1.5,3.816-.831,6.037l7.552,1.381-1.5-2.633c4.924-8.743,4.317-11.541,3.337-13.346Z" transform="translate(-105.286 -233.928)" fill="#ebae9d"/>
        <path id="Trazado_818903" data-name="Trazado 818903" d="M175.518,330.032l3.261,2.015v-2.5c4.924-8.743,4.268-11.055,1.841-13.482.337,2.154-.386,4.647-5.073,13.014A1.027,1.027,0,0,0,175.518,330.032Z" transform="translate(-133.573 -239.028)" fill="#c38778"/>
        <path id="Trazado_818904" data-name="Trazado 818904" d="M142.024,320.716a3.634,3.634,0,0,1-3.769.931l-.538.015v3.362c2.2.682,4.733.51,6.055-.813l8.562-8.561C149.715,314.965,146.716,316.833,142.024,320.716Z" transform="translate(-105.286 -238.61)" fill="#c38778"/>
        <path id="Trazado_818905" data-name="Trazado 818905" d="M45.48,314.5c.492,1.645,2.332,7.529,3.1,9.993-8.119,0-18.3-10-18.3-18.307l10.515-.287.661-4.149-14.883-7.226S7.827,309.116,7.827,316.063a25.219,25.219,0,0,0,3.332,11.47l8.043,8.043s14.391,8.878,19.513,8.878c4.941,0,14.277-10.056,17.938-16.464l-6.881-14.121Z" transform="translate(-7.827 -222.865)" fill="#e592b8"/>
        <path id="Trazado_818906" data-name="Trazado 818906" d="M87.216,340.789l-3.261.482L89.6,352.858a1.871,1.871,0,0,1-.273,2.053,133.634,133.634,0,0,1-9.593,10.009c-3.774,3.462-5.42-2.605-2.864-5.681L83.112,353l-.344-1.1a45.143,45.143,0,0,1-18.3-18.307l9.977,3.09.538-3.377-6.747-2.09a3.745,3.745,0,0,0-3.756.929l-7.35,7.35c-3.076,2.555-.3,9.444,5,14.744l-8.742,8.742,8.043,8.043a25.219,25.219,0,0,0,11.47,3.332c6.947,0,21.538-18.745,21.538-18.745Z" transform="translate(-42.01 -250.266)" fill="#de5ca3"/>
        <path id="Trazado_818907" data-name="Trazado 818907" d="M50.683,420.75c8.259-8.259,4.954-15.068,3.618-16.641l2.075-5.137c-.826-.826-4.376.341-4.376.341-4.165-2.766-9.243-2.808-12.935.884C39.064,400.2,50.432,421,50.683,420.75Z" transform="translate(-31.265 -299.995)" fill="#ebae9d"/>
        <path id="Trazado_818908" data-name="Trazado 818908" d="M82.822,408.305s1.167-3.55.341-4.376L80.7,406.39a3.788,3.788,0,0,0-.81,4.086,6.194,6.194,0,0,1-1.7,7.019l-3.427,3.427,2.7,4.785,4.467-4.467C85.63,417.548,85.588,412.47,82.822,408.305Z" transform="translate(-58.053 -304.952)" fill="#c38778"/>
        <path id="Trazado_818909" data-name="Trazado 818909" d="M25.248,418.753c3.838-3.838,2.15-10.025-.1-13.714a58.386,58.386,0,0,0-6.652-7.716l-7.341,7.341a11.374,11.374,0,0,0,0,16.086C15.214,423.36,20.32,423.681,25.248,418.753Z" transform="translate(-7.828 -299.995)" fill="#c38778"/>
        <path id="Trazado_818910" data-name="Trazado 818910" d="M35.164,428.229c1.29,2.806,2.185,8.128-1.652,11.966-3.5,3.5-7.874,5.74-12.341,3.745a11.374,11.374,0,0,0,16.086,0C41.095,440.1,39.293,434.161,35.164,428.229Z" transform="translate(-17.839 -323.185)" fill="#9d6c6c"/>
      </g>
      <g id="Grupo_1072668" data-name="Grupo 1072668">
        <path id="Trazado_818911" data-name="Trazado 818911" d="M9.619,55.358a5.6,5.6,0,0,0,4.094,1.769H17.92a47.345,47.345,0,0,0-.489,6.789c0,.988.031,1.988.093,2.972a1.873,1.873,0,0,0,1.867,1.756c.039,0,.079,0,.119,0a1.873,1.873,0,0,0,1.752-1.986c-.057-.906-.085-1.827-.085-2.738a43.534,43.534,0,0,1,.535-6.789h7.65c1.917,1.815,4.49,3.676,7.9,3.676,5.066,0,7.945-4.049,8.283-8.125l7.457-7.457c4.076-.338,8.126-3.217,8.126-8.283,0-3.414-1.861-5.987-3.676-7.9v-7.65a43.529,43.529,0,0,1,6.789-.535,1.873,1.873,0,1,0,0-3.745,47.338,47.338,0,0,0-6.789.489V13.385a5.6,5.6,0,0,0-1.769-4.094C49.989,3.994,40.274,0,33.088,0a20.355,20.355,0,0,0-3.534.324,1.872,1.872,0,0,0,.653,3.688,16.6,16.6,0,0,1,2.881-.266A27.919,27.919,0,0,1,42.655,5.78C45.9,7.3,44.78,10.859,44.516,11.572c-.835,2.252-2.43,3.236-3.492,2.887l-1.174-.387a1.873,1.873,0,0,0-1.172,3.557l5.256,1.732.366,2.193A46.69,46.69,0,0,0,21.882,43.973l-2.193-.366-1.732-5.256A1.872,1.872,0,1,0,14.4,39.523l.387,1.174c.349,1.061-.635,2.657-2.887,3.492-.712.264-4.273,1.385-5.791-1.861A27.924,27.924,0,0,1,4.073,32.76a21.493,21.493,0,0,1,1.966-8.315l2.636,2.636a11.662,11.662,0,0,0,8.271,3.72,11.437,11.437,0,0,0,5.659-1.57c1.745.588,4.283.82,6.029-.926s1.514-4.283.926-6.029c2.679-4.728,1.907-9.873-2.151-13.93L22.942,3.88A13.247,13.247,0,0,0,3.258,21.556a26.2,26.2,0,0,0-2.93,11.2c0,7.186,3.994,16.9,9.291,22.6Zm28.353-5.7L49.989,37.644a.625.625,0,0,1,.883,0,3.121,3.121,0,0,1,0,4.414l-8.487,8.487a3.124,3.124,0,0,1-4.414,0,.625.625,0,0,1,0-.883ZM48.028,12.873a9.7,9.7,0,0,0,.679-4.135,27.647,27.647,0,0,1,4.429,3.295,1.844,1.844,0,0,1,.574,1.351V29.794a1.873,1.873,0,0,0,.548,1.324c2.192,2.192,3.128,3.933,3.128,5.819a4.092,4.092,0,0,1-1.891,3.621,7.006,7.006,0,0,0,.036-.708A6.821,6.821,0,0,0,53.52,35a4.357,4.357,0,0,0-3.389-1.264l-2.689-16.1a1.872,1.872,0,0,0-1.261-1.47l-.2-.067a8.3,8.3,0,0,0,2.049-3.218ZM44.944,25.4l1.715,10.272L36,46.331,25.733,44.616A42.941,42.941,0,0,1,44.944,25.4ZM9.762,48.324A9.973,9.973,0,0,0,13.2,47.7a8.389,8.389,0,0,0,3.225-2.029l.06.183a1.873,1.873,0,0,0,1.47,1.261l16.1,2.689c-.007.1-.014.2-.014.3a4.34,4.34,0,0,0,1.28,3.089,6.856,6.856,0,0,0,5.566,1.97,4.092,4.092,0,0,1-3.624,1.9c-1.886,0-3.626-.936-5.819-3.128a1.872,1.872,0,0,0-1.324-.548H13.712a1.845,1.845,0,0,1-1.351-.574,27.744,27.744,0,0,1-3.338-4.5c.235.013.481.019.74.019ZM25.791,22.939c.334.682.734,2.18.195,2.719s-2.037.139-2.71-.191a1.873,1.873,0,0,0-1.878.113,7.216,7.216,0,0,1-7.721.628,6.049,6.049,0,0,0,2.93-3.258,6.048,6.048,0,0,0,6.671-6.671,6.046,6.046,0,0,0,3.258-2.93,7.218,7.218,0,0,1-.628,7.721,1.889,1.889,0,0,0-.118,1.868ZM6.856,6.528a9.513,9.513,0,0,1,13.438,0L22.762,9h0a2.3,2.3,0,0,1-1.792,3.921,1.872,1.872,0,0,0-1.736,2.835,2.3,2.3,0,0,1-3.154,3.154,1.872,1.872,0,0,0-2.835,1.736,2.3,2.3,0,0,1-3.921,1.792h0L6.856,19.966a9.514,9.514,0,0,1,0-13.438Z" transform="translate(-0.328 0)"/>
        <path id="Trazado_818912" data-name="Trazado 818912" d="M312.075,41.9a1.872,1.872,0,1,0,3.515,1.292,31.01,31.01,0,0,0,2.087-10.426,24.651,24.651,0,0,0-2.046-9.275,25.919,25.919,0,0,0,2.046-10.238A13.247,13.247,0,0,0,304.43.009a25.915,25.915,0,0,0-10.24,2.043A24.666,24.666,0,0,0,284.916.009c-7.18,0-14,4.517-23.543,15.59a9.453,9.453,0,0,0-1.968,3.729l-6.113,23.114c-.758,2.831,1.147,5.42,3.239,6.627a5.063,5.063,0,0,0,6.261-.462l3.9-3.9c2.748-2.748,1.086-5.777-.137-7.848l5.506-11.928a42.946,42.946,0,0,1,20.31,19.9l-4.363.864c-1.024-1.417-2.759-3.244-5.042-3.541a4.744,4.744,0,0,0-4.084,1.494l-3.9,3.9a5.618,5.618,0,0,0,3.972,9.59h17.34a43.317,43.317,0,0,1,0,13.579h-17.34a5.621,5.621,0,0,0-2.883.779l-6.927-6.851a3.75,3.75,0,0,0-5.3,0l-9.369,9.369a3.745,3.745,0,0,0,.008,5.3l6.9,6.825a5.612,5.612,0,0,0-.837,2.978v25.338a5.6,5.6,0,0,0,1.77,4.095c5.7,5.3,15.411,9.29,22.6,9.29a26.194,26.194,0,0,0,11.2-2.931,13.264,13.264,0,0,0,17.676-.949h0a13.265,13.265,0,0,0,.949-17.676,26.2,26.2,0,0,0,2.931-11.2c0-7.186-3.994-16.9-9.291-22.6a5.6,5.6,0,0,0-4.094-1.769h-4.207a47.343,47.343,0,0,0,0-13.579h4.207a5.6,5.6,0,0,0,4.095-1.77,31.393,31.393,0,0,0,3.669-4.878,1.872,1.872,0,1,0-3.186-1.968,27.671,27.671,0,0,1-3.226,4.3,1.845,1.845,0,0,1-1.352.575h-7.8V47.827l3.607-.715a1.872,1.872,0,0,0,1.415-1.251l1.947-5.909a67.913,67.913,0,0,0,9.793-11.885,18.127,18.127,0,0,1,.673,4.7,27.68,27.68,0,0,1-1.857,9.134ZM286.309,99.121l2.255,2.255a9.505,9.505,0,0,0,.432,3.592,13.322,13.322,0,0,0-1.674,4.6,12.808,12.808,0,0,1-1.014-10.445Zm4.9-.393-2.271-2.271a12.787,12.787,0,0,1,8.175-.174,13.458,13.458,0,0,1,2.477,1.172,13.272,13.272,0,0,0-4.79,1.7,9.5,9.5,0,0,0-3.591-.432Zm-18.353,3.809-.771-3.891a5.746,5.746,0,0,0,3.313-3.493,5.828,5.828,0,0,0,.233-.949l8.383-8.383c.1-.02.2-.041.294-.066a6.2,6.2,0,0,0,4.014-3.534l4.048.8a42.907,42.907,0,0,1-19.514,19.514ZM264.3,89.118a1.873,1.873,0,0,1,3.2-1.324l3.9,3.9a2.278,2.278,0,0,1,.463,2.248,2.369,2.369,0,0,1-2.1,1.481H264.3Zm14.659-14.659h6.307V79.8a3.152,3.152,0,0,1-1.895,2.331,1.923,1.923,0,0,1-1.835-.574l-3.9-3.9a1.872,1.872,0,0,1,1.324-3.2ZM266.5,67.3l7.18,7.1a5.523,5.523,0,0,0,1.3,5.905l3.9,3.9a6.154,6.154,0,0,0,.789.664L274.7,89.848a5.4,5.4,0,0,0-.653-.8l-3.9-3.9a5.52,5.52,0,0,0-5.789-1.342l-7.224-7.144Zm-1.634,48.509a1.845,1.845,0,0,1-.575-1.352V99.17h4.079l2.2,11.1a1.873,1.873,0,0,0,1.251,1.415l6.33,2.086a1.873,1.873,0,0,0,1.172-3.557l-5.292-1.744-.423-2.137a46.975,46.975,0,0,0,8.467-5.107c-.98,7.888,3.428,13.18,8.518,18.27l2.636,2.636a21.491,21.491,0,0,1-8.315,1.966C278.675,124.1,269.869,120.455,264.87,115.807Zm46.279,5.505a9.514,9.514,0,0,1-13.438,0l-4.467-4.467c-2.843-2.843-3.092-6.9-.648-10.575a1.872,1.872,0,0,0,.219-1.621,13.049,13.049,0,0,1-.506-2.179,13.114,13.114,0,0,1,2.178.507,1.873,1.873,0,0,0,1.621-.219c3.679-2.444,7.731-2.2,10.575.648l4.468,4.467A9.513,9.513,0,0,1,311.149,121.312Zm-5.505-46.279c4.648,5,8.288,13.8,8.288,20.047a21.492,21.492,0,0,1-1.966,8.315l-2.7-2.693c-3.834-3.826-7.188-6.667-10.931-7.959a14.91,14.91,0,0,0-7.182-.628,46.974,46.974,0,0,0,5.01-8.341l2.137.423,1.744,5.292a1.872,1.872,0,1,0,3.557-1.172l-2.086-6.33a1.873,1.873,0,0,0-1.415-1.251l-11.1-2.2v-4.08h15.286A1.845,1.845,0,0,1,305.644,75.033Zm-41.6-32.976-3.9,3.9c-.525.526-1.542-.019-1.74-.134-1.022-.59-1.692-1.674-1.492-2.42l3.169-11.98,4.325,1.159-1.659,3.594a1.873,1.873,0,0,0,.078,1.721c.132.228.265.453.4.677C264.667,41.014,264.667,41.437,264.046,42.057Zm4.863-19.23L266,29.134l-4.96-1.329,1.988-7.518a5.69,5.69,0,0,1,1.185-2.242c10.85-12.592,16.556-14.29,20.706-14.29a18.142,18.142,0,0,1,4.7.671A68.928,68.928,0,0,0,277.432,14.52l-8.115,7.737A1.863,1.863,0,0,0,268.909,22.827Zm12.283,3.146,4.875-4.875a7.058,7.058,0,0,1,1.621-1.245A13.96,13.96,0,0,0,289,22.88c-.737,2.623-.612,4.449.373,5.435s2.812,1.11,5.435.373A14,14,0,0,0,297.831,30a7.066,7.066,0,0,1-1.243,1.618l-4.874,4.874A46.588,46.588,0,0,0,281.193,25.973Zm11.4-4.394a10.583,10.583,0,0,1-1.182-2.37c.87.06,1.838.207,2.95.388,1.013.165,2.116.345,3.279.446.1,1.163.281,2.266.446,3.279.181,1.113.328,2.08.388,2.951a10.586,10.586,0,0,1-2.37-1.182,1.873,1.873,0,0,0-1.621-.219,13.048,13.048,0,0,1-2.179.506,13.094,13.094,0,0,1,.507-2.178,1.871,1.871,0,0,0-.219-1.621Zm.157,31.812h-13.8a1.873,1.873,0,0,1-1.324-3.2l3.9-3.9c.489-.489.8-.448.952-.429.875.114,2.121,1.286,3.03,2.851a1.872,1.872,0,0,0,1.983.9l5.254-1.041V53.39ZM300.5,37.622a1.874,1.874,0,0,0-.454.738L298.3,43.652l-2.137.423a47.154,47.154,0,0,0-2.346-4.393l5.415-5.415c3.81-3.81,3.14-7.921,2.549-11.547a27.809,27.809,0,0,1-.48-4.467,1.872,1.872,0,0,0-1.872-1.873,27.78,27.78,0,0,1-4.467-.48c-3.626-.591-7.737-1.261-11.547,2.549L278,23.865q-1.526-.922-3.131-1.731l5.159-4.919.032-.031c9.664-9.664,16.5-13.429,24.365-13.429a9.5,9.5,0,0,1,9.5,9.5c0,7.869-3.765,14.7-13.429,24.365Z" transform="translate(-190.007 -0.007)"/>
        <path id="Trazado_818913" data-name="Trazado 818913" d="M65.483,325.817h-.051a43.517,43.517,0,0,1-10.225-.939,5.585,5.585,0,0,0-.435-1.268L49.017,311.8c4.306-7.854,4.52-11.4,1.054-14.864-3.271-3.271-7.33-3-14.8,1.063l-11.879-5.767a5.631,5.631,0,0,0-6.011.706C3.287,304.491.328,310.725.328,313.921a26.2,26.2,0,0,0,2.93,11.2,13.247,13.247,0,0,0,18.625,18.625,26.2,26.2,0,0,0,11.2,2.93c3.2,0,9.43-2.958,20.981-17.052a5.567,5.567,0,0,0,.664-1.021,47.136,47.136,0,0,0,9.511.97c.427,0,.861-.006,1.289-.017a1.872,1.872,0,0,0-.049-3.744Zm-19.764-15.79-4.857.718a3.491,3.491,0,0,1,.645-2.595l7.042-7.042C49.049,302.449,48.649,304.687,45.719,310.027Zm-12.142-.6a10.261,10.261,0,0,0,3.543.467,10.4,10.4,0,0,0,.441,3.505c.226.755.726,2.37,1.277,4.142a43.241,43.241,0,0,1-9.386-9.392Zm12.234-10.874L38.861,305.5a3.508,3.508,0,0,1-2.6.641l.77-4.835C42.034,298.582,44.441,298.194,45.811,298.551Zm-38.955,41.6a9.513,9.513,0,0,1,0-13.438l6.013-6.013a53.622,53.622,0,0,1,5.12,6.133c2.925,4.2,5.7,9.924,2.306,13.317A9.513,9.513,0,0,1,6.856,340.153Zm18.554-15.042c2.2,3.313,2.218,6.929.123,9.692-.338-2.705-1.636-6.034-4.47-10.107a51.928,51.928,0,0,0-3.8-4.759A9.575,9.575,0,0,1,21.9,321.6a1.873,1.873,0,0,0,1.621.219,13.054,13.054,0,0,1,2.179-.506,13.106,13.106,0,0,1-.507,2.178,1.87,1.87,0,0,0,.219,1.621Zm25.763,2.144c-7.807,9.526-14.906,15.681-18.084,15.681a21.491,21.491,0,0,1-8.315-1.966l2.636-2.636c3.914-3.914,4.5-9.534,1.6-14.525.736-2.623.611-4.448-.374-5.434s-2.812-1.11-5.434-.374a12.165,12.165,0,0,0-9.24-1.476,1.872,1.872,0,0,0-2.412.2l-5.51,5.51a21.493,21.493,0,0,1-1.966-8.315c0-3.179,6.156-10.277,15.684-18.085a1.875,1.875,0,0,1,2-.234l11.5,5.585-.641,4.021-9.01-2.791a1.871,1.871,0,0,0-1.75.348l-6.074,5.045a1.873,1.873,0,0,0,2.393,2.881l5.294-4.4.365.113a46.978,46.978,0,0,0,16.756,16.758l.117.372-4.394,5.29a1.873,1.873,0,1,0,2.881,2.393l5.045-6.074a1.873,1.873,0,0,0,.346-1.757c-.022-.071-1.768-5.639-2.807-9l4.041-.6L51.4,325.252a1.874,1.874,0,0,1-.232,2Z" transform="translate(-0.328 -218.85)"/>
      </g>
    </g>
  </g>
</svg>
