<svg xmlns="http://www.w3.org/2000/svg" xmlns:xlink="http://www.w3.org/1999/xlink" width="127" height="127" viewBox="0 0 127 127">
  <defs>
    <filter id="Elipse_4723" x="0" y="0" width="127" height="127" filterUnits="userSpaceOnUse">
      <feOffset dy="1" input="SourceAlpha"/>
      <feGaussianBlur stdDeviation="5.5" result="blur"/>
      <feFlood flood-color="#fff" flood-opacity="0.902"/>
      <feComposite operator="in" in2="blur"/>
      <feComposite in="SourceGraphic"/>
    </filter>
  </defs>
  <g id="Grupo_1072770" data-name="Grupo 1072770" transform="translate(-579.5 -1970.5)">
    <g transform="matrix(1, 0, 0, 1, 579.5, 1970.5)" filter="url(#Elipse_4723)">
      <g id="Elipse_4723-2" data-name="Elipse 4723" transform="translate(16.5 15.5)" fill="none" stroke="#fff" stroke-width="6">
        <circle cx="47" cy="47" r="47" stroke="none"/>
        <circle cx="47" cy="47" r="44" fill="none"/>
      </g>
    </g>
    <g id="_23-Training" data-name="23-Training" transform="translate(611 2001)">
      <rect id="Rect치ngulo_376460" data-name="Rect치ngulo 376460" width="38" height="4" transform="translate(23 3)" fill="#64b5f6"/>
      <rect id="Rect치ngulo_376461" data-name="Rect치ngulo 376461" width="5" height="4" transform="translate(56 3)" fill="#42a5f5"/>
      <path id="Trazado_819118" data-name="Trazado 819118" d="M26,7H58V29a2,2,0,0,1-2,2H28a2,2,0,0,1-2-2Z" fill="#eee"/>
      <path id="Trazado_819119" data-name="Trazado 819119" d="M58,7V29a2.006,2.006,0,0,1-2,2H28a2.006,2.006,0,0,1-2-2V28H51a2.006,2.006,0,0,0,2-2V7Z" fill="#e0e0e0"/>
      <path id="Trazado_819120" data-name="Trazado 819120" d="M35,53H29a5,5,0,0,0-5,5v3H40V58A5,5,0,0,0,35,53Z" fill="#ffb74d"/>
      <circle id="Elipse_9749" data-name="Elipse 9749" cx="5" cy="5" r="5" transform="translate(27 43)" fill="#ffccbc"/>
      <path id="Trazado_819121" data-name="Trazado 819121" d="M15,53H9a5,5,0,0,0-5,5v3H20V58A5,5,0,0,0,15,53Z" fill="#ffb74d"/>
      <circle id="Elipse_9750" data-name="Elipse 9750" cx="5" cy="5" r="5" transform="translate(7 43)" fill="#ffccbc"/>
      <path id="Trazado_819122" data-name="Trazado 819122" d="M55,53H49a5,5,0,0,0-5,5v3H60V58A5,5,0,0,0,55,53Z" fill="#ffb74d"/>
      <path id="Trazado_819123" data-name="Trazado 819123" d="M60,58v3H44V58h8a2.1,2.1,0,0,0,1.565-3.513l-.027-.027A5.022,5.022,0,0,0,50,53h5A5,5,0,0,1,60,58Z" fill="#ffa726"/>
      <path id="Trazado_819124" data-name="Trazado 819124" d="M40,58v3H24V58h8a2.1,2.1,0,0,0,1.565-3.513l-.027-.027A5.022,5.022,0,0,0,30,53h5A5,5,0,0,1,40,58Z" fill="#ffa726"/>
      <path id="Trazado_819125" data-name="Trazado 819125" d="M20,58v3H4V58h8a2.1,2.1,0,0,0,1.565-3.513l-.027-.027A5.022,5.022,0,0,0,10,53h5A5,5,0,0,1,20,58Z" fill="#ffa726"/>
      <circle id="Elipse_9751" data-name="Elipse 9751" cx="5" cy="5" r="5" transform="translate(47 43)" fill="#ffccbc"/>
      <path id="Trazado_819126" data-name="Trazado 819126" d="M57,48a5,5,0,0,1-5,5,4.941,4.941,0,0,1-3-1,5,5,0,0,0,3-9,5,5,0,0,1,5,5Z" fill="#ffab91"/>
      <path id="Trazado_819127" data-name="Trazado 819127" d="M37,48a5,5,0,0,1-5,5,4.941,4.941,0,0,1-3-1,5,5,0,0,0,3-9A5,5,0,0,1,37,48Z" fill="#ffab91"/>
      <path id="Trazado_819128" data-name="Trazado 819128" d="M17,48a5,5,0,0,1-5,5,4.941,4.941,0,0,1-3-1,5,5,0,0,0,3-9A5,5,0,0,1,17,48Z" fill="#ffab91"/>
      <circle id="Elipse_9752" data-name="Elipse 9752" cx="5" cy="5" r="5" transform="translate(8 5)" fill="#ffccbc"/>
      <path id="Trazado_819129" data-name="Trazado 819129" d="M3,20v9a2,2,0,0,0,2,2H7v6H19V19h8a2,2,0,0,0,2-2h0a2,2,0,0,0-2-2H8A5,5,0,0,0,3,20Z" fill="#64b5f6"/>
      <path id="Trazado_819130" data-name="Trazado 819130" d="M26.893,15H24a2,2,0,0,1-2,2H18a4,4,0,0,0-4,4v9a4,4,0,0,1-4,4H7v3H19V19h8a2,2,0,0,0,1.973-2.336A2.074,2.074,0,0,0,26.893,15Z" fill="#42a5f5"/>
      <circle id="Elipse_9753" data-name="Elipse 9753" cx="3" cy="3" r="3" transform="translate(39 36)" fill="#64b5f6"/>
      <path id="Trazado_819131" data-name="Trazado 819131" d="M45,39a3,3,0,0,1-3,3,2.962,2.962,0,0,1-2.3-1.08A3,3,0,0,0,42,38a2.959,2.959,0,0,0-.7-1.92A3.267,3.267,0,0,1,42,36a3,3,0,0,1,3,3Z" fill="#42a5f5"/>
      <path id="Trazado_819132" data-name="Trazado 819132" d="M18,10a5,5,0,0,1-5,5,4.941,4.941,0,0,1-3-1,5,5,0,0,0,3-9,5,5,0,0,1,5,5Z" fill="#ffab91"/>
      <path id="Trazado_819133" data-name="Trazado 819133" d="M61,2H23a1,1,0,0,0-1,1V7a1,1,0,0,0,1,1h2v3a1,1,0,0,0,2,0V8H57V29a1,1,0,0,1-1,1H28a1,1,0,0,1-1-1V23a1,1,0,0,0-2,0v6a3,3,0,0,0,3,3H41v4.184a3,3,0,1,0,2,0V32H56a3,3,0,0,0,3-3V8h2a1,1,0,0,0,1-1V3a1,1,0,0,0-1-1ZM42,40a1,1,0,1,1,1-1,1,1,0,0,1-1,1ZM60,6H24V4H60ZM36.322,52.152a6,6,0,1,0-8.644,0A6.007,6.007,0,0,0,23,58v3a1,1,0,0,0,2,0V58a4,4,0,0,1,4-4h6a4,4,0,0,1,4,4v3a1,1,0,0,0,2,0V58a6.007,6.007,0,0,0-4.678-5.848ZM32,44a4,4,0,1,1-4,4,4,4,0,0,1,4-4ZM16.322,52.152a6,6,0,1,0-8.644,0A6.007,6.007,0,0,0,3,58v3a1,1,0,0,0,2,0V58a4,4,0,0,1,4-4h6a4,4,0,0,1,4,4v3a1,1,0,0,0,2,0V58a6.007,6.007,0,0,0-4.678-5.848ZM12,44a4,4,0,1,1-4,4,4,4,0,0,1,4-4Zm44.322,8.152a6,6,0,1,0-8.644,0A6.007,6.007,0,0,0,43,58v3a1,1,0,0,0,2,0V58a4,4,0,0,1,4-4h6a4,4,0,0,1,4,4v3a1,1,0,0,0,2,0V58a6.007,6.007,0,0,0-4.678-5.848ZM52,44a4,4,0,1,1-4,4,4,4,0,0,1,4-4ZM6,32v5a1,1,0,0,0,2,0V23a1,1,0,0,0-2,0v7H5a1,1,0,0,1-1-1V20a4,4,0,0,1,4-4H27a1,1,0,0,1,0,2H19a1,1,0,0,0-1,1V37a1,1,0,0,0,2,0V20h7a3,3,0,0,0,0-6H17.46A6,6,0,1,0,8.54,14H8a6.007,6.007,0,0,0-6,6v9a3,3,0,0,0,3,3ZM9,10a4,4,0,1,1,4,4A4,4,0,0,1,9,10Zm4,20a1,1,0,0,1,1,1v6a1,1,0,0,1-2,0V31a1,1,0,0,1,1-1ZM53,13a1,1,0,0,1-1,1H32a1,1,0,0,1,0-2H52a1,1,0,0,1,1,1Zm0,6a1,1,0,0,1-1,1H42a1,1,0,0,1,0-2H52a1,1,0,0,1,1,1ZM31,19a1,1,0,0,1,1-1h6a1,1,0,0,1,0,2H32a1,1,0,0,1-1-1Zm0,6a1,1,0,0,1,1-1H52a1,1,0,0,1,0,2H32a1,1,0,0,1-1-1Z"/>
    </g>
  </g>
</svg>
