<svg xmlns="http://www.w3.org/2000/svg" xmlns:xlink="http://www.w3.org/1999/xlink" width="127" height="127" viewBox="0 0 127 127">
  <defs>
    <filter id="Elipse_4723" x="0" y="0" width="127" height="127" filterUnits="userSpaceOnUse">
      <feOffset dy="1" input="SourceAlpha"/>
      <feGaussianBlur stdDeviation="5.5" result="blur"/>
      <feFlood flood-color="#fff" flood-opacity="0.902"/>
      <feComposite operator="in" in2="blur"/>
      <feComposite in="SourceGraphic"/>
    </filter>
  </defs>
  <g id="Grupo_1072772" data-name="Grupo 1072772" transform="translate(-891.5 -1970.5)">
    <g transform="matrix(1, 0, 0, 1, 891.5, 1970.5)" filter="url(#Elipse_4723)">
      <g id="Elipse_4723-2" data-name="Elipse 4723" transform="translate(16.5 15.5)" fill="none" stroke="#fff" stroke-width="6">
        <circle cx="47" cy="47" r="47" stroke="none"/>
        <circle cx="47" cy="47" r="44" fill="none"/>
      </g>
    </g>
    <g id="algoritmo-_" data-name="algoritmo-&apos;" transform="translate(915 2004)">
      <path id="Trazado_819134" data-name="Trazado 819134" d="M112.294,69.168H50.582a2.2,2.2,0,0,1-2.2-2.2V27.051a2.2,2.2,0,0,1,2.2-2.2h61.712a2.2,2.2,0,0,1,2.2,2.2V66.964A2.2,2.2,0,0,1,112.294,69.168Zm0,0" transform="translate(-40.764 -20.937)" fill="#bce8f1"/>
      <path id="Trazado_819135" data-name="Trazado 819135" d="M112.477,24.848h-9.095V59.7a2.021,2.021,0,0,1-2.022,2.021H48.379v5.426A2.021,2.021,0,0,0,50.4,69.168h62.077a2.021,2.021,0,0,0,2.021-2.021V26.869A2.021,2.021,0,0,0,112.477,24.848Zm0,0" transform="translate(-40.764 -20.937)" fill="#95dae8"/>
      <path id="Trazado_819136" data-name="Trazado 819136" d="M114.5,34.349V27.028a2.181,2.181,0,0,0-2.18-2.18H50.559a2.18,2.18,0,0,0-2.18,2.18v7.322Zm0,0" transform="translate(-40.764 -20.937)" fill="#f0feff"/>
      <path id="Trazado_819137" data-name="Trazado 819137" d="M406.76,24.848h-8.936v9.5h11.116V27.028A2.181,2.181,0,0,0,406.76,24.848Zm0,0" transform="translate(-335.207 -20.937)" fill="#def4f8"/>
      <path id="Trazado_819138" data-name="Trazado 819138" d="M102.555,57.228H30.949V12.041a4.62,4.62,0,0,1,4.62-4.619H97.935a4.62,4.62,0,0,1,4.619,4.619V57.228ZM37.879,49.576H95.625a1.443,1.443,0,0,0,1.444-1.444V14.351a1.443,1.443,0,0,0-1.444-1.444H37.879a1.443,1.443,0,0,0-1.444,1.444V48.133A1.443,1.443,0,0,0,37.879,49.576Zm0,0" transform="translate(-26.078 -6.254)" fill="#607882"/>
      <path id="Trazado_819139" data-name="Trazado 819139" d="M98.851,8V51.138a1.107,1.107,0,0,1-1.107,1.107h-66.8v5.47h71.606V12.528A4.621,4.621,0,0,0,98.851,8Zm0,0" transform="translate(-26.078 -6.741)" fill="#495959"/>
      <path id="Trazado_819140" data-name="Trazado 819140" d="M79.063,317.427H14.033a6.611,6.611,0,0,1-6.611-6.611V310a.758.758,0,0,1,.759-.759H84.915a.759.759,0,0,1,.759.759v.815A6.611,6.611,0,0,1,79.063,317.427Zm0,0" transform="translate(-6.254 -260.568)" fill="#607882"/>
      <path id="Trazado_819141" data-name="Trazado 819141" d="M93.345,309.242H86.278a6.542,6.542,0,0,1-6.509,5.9H17.418a6.523,6.523,0,0,0,4.968,2.288H87.555a6.541,6.541,0,0,0,6.541-6.541v-.893A.751.751,0,0,0,93.345,309.242Zm0,0" transform="translate(-14.676 -260.568)" fill="#495959"/>
      <g id="Grupo_1072771" data-name="Grupo 1072771" transform="translate(19.24 16.627)">
        <path id="Trazado_819142" data-name="Trazado 819142" d="M123.6,107.566h-.974c-.249,0-.385-.09-.385-.4,0-.279.151-.355.544-.43l.279-.06c.838-.181.6-1.042,1.246-1.042.242,0,.438.106.438.513v4.289c0,.392-.151.664-.574.664s-.574-.272-.574-.664Zm0,0" transform="translate(-122.238 -105.633)" fill="#607882"/>
        <path id="Trazado_819143" data-name="Trazado 819143" d="M155.672,105.633c1.223,0,2.015.884,2.015,2.665,0,1.336-.423,2.8-2.015,2.8s-2.016-1.465-2.016-2.8C153.656,106.516,154.449,105.633,155.672,105.633Zm0,4.56c.581,0,.913-.476.913-1.827,0-1.133-.249-1.827-.913-1.827s-.914.695-.914,1.827C154.759,109.717,155.091,110.193,155.672,110.193Zm0,0" transform="translate(-148.711 -105.633)" fill="#607882"/>
        <path id="Trazado_819144" data-name="Trazado 819144" d="M194.621,105.633c1.224,0,2.016.884,2.016,2.665,0,1.336-.423,2.8-2.016,2.8s-2.015-1.465-2.015-2.8C192.605,106.516,193.4,105.633,194.621,105.633Zm0,4.56c.582,0,.914-.476.914-1.827,0-1.133-.249-1.827-.914-1.827s-.913.695-.913,1.827C193.708,109.717,194.04,110.193,194.621,110.193Zm0,0" transform="translate(-181.53 -105.633)" fill="#607882"/>
        <path id="Trazado_819145" data-name="Trazado 819145" d="M230.613,107.566h-.974c-.25,0-.385-.09-.385-.4,0-.279.151-.355.543-.43l.28-.06c.838-.181.6-1.042,1.246-1.042.242,0,.438.106.438.513v4.289c0,.392-.151.664-.574.664s-.574-.272-.574-.664Zm0,0" transform="translate(-212.41 -105.633)" fill="#607882"/>
        <path id="Trazado_819146" data-name="Trazado 819146" d="M262.687,105.633c1.223,0,2.015.884,2.015,2.665,0,1.336-.422,2.8-2.015,2.8s-2.015-1.465-2.015-2.8C260.672,106.516,261.464,105.633,262.687,105.633Zm0,4.56c.582,0,.914-.476.914-1.827,0-1.133-.249-1.827-.914-1.827s-.914.695-.914,1.827C261.774,109.717,262.106,110.193,262.687,110.193Zm0,0" transform="translate(-238.883 -105.633)" fill="#607882"/>
        <path id="Trazado_819147" data-name="Trazado 819147" d="M298.675,107.566H297.7c-.249,0-.385-.09-.385-.4,0-.279.151-.355.544-.43l.28-.06c.837-.181.6-1.042,1.246-1.042.241,0,.438.106.438.513v4.289c0,.392-.151.664-.574.664s-.574-.272-.574-.664Zm0,0" transform="translate(-269.759 -105.633)" fill="#607882"/>
        <path id="Trazado_819148" data-name="Trazado 819148" d="M330.75,105.633c1.223,0,2.015.884,2.015,2.665,0,1.336-.423,2.8-2.015,2.8s-2.016-1.465-2.016-2.8C328.734,106.516,329.527,105.633,330.75,105.633Zm0,4.56c.581,0,.914-.476.914-1.827,0-1.133-.25-1.827-.914-1.827s-.914.695-.914,1.827C329.837,109.717,330.169,110.193,330.75,110.193Zm0,0" transform="translate(-296.232 -105.633)" fill="#607882"/>
        <path id="Trazado_819149" data-name="Trazado 819149" d="M369.7,105.633c1.224,0,2.016.884,2.016,2.665,0,1.336-.423,2.8-2.016,2.8s-2.015-1.465-2.015-2.8C367.684,106.516,368.476,105.633,369.7,105.633Zm0,4.56c.582,0,.914-.476.914-1.827,0-1.133-.249-1.827-.914-1.827s-.913.695-.913,1.827C368.786,109.717,369.118,110.193,369.7,110.193Zm0,0" transform="translate(-329.051 -105.633)" fill="#607882"/>
        <path id="Trazado_819150" data-name="Trazado 819150" d="M126.555,158.246c1.223,0,2.015.884,2.015,2.665,0,1.337-.422,2.8-2.015,2.8s-2.016-1.465-2.016-2.8C124.539,159.13,125.332,158.246,126.555,158.246Zm0,4.56c.581,0,.914-.476.914-1.827,0-1.133-.25-1.827-.914-1.827s-.914.695-.914,1.827C125.641,162.33,125.973,162.806,126.555,162.806Zm0,0" transform="translate(-124.177 -149.965)" fill="#607882"/>
        <path id="Trazado_819151" data-name="Trazado 819151" d="M162.546,160.179h-.974c-.249,0-.385-.09-.385-.4,0-.28.151-.355.544-.43l.279-.061c.838-.181.6-1.042,1.246-1.042.242,0,.438.106.438.513v4.289c0,.392-.151.664-.574.664s-.574-.272-.574-.664Zm0,0" transform="translate(-155.057 -149.965)" fill="#607882"/>
        <path id="Trazado_819152" data-name="Trazado 819152" d="M194.621,158.246c1.224,0,2.016.884,2.016,2.665,0,1.337-.423,2.8-2.016,2.8s-2.015-1.465-2.015-2.8C192.605,159.13,193.4,158.246,194.621,158.246Zm0,4.56c.582,0,.914-.476.914-1.827,0-1.133-.249-1.827-.914-1.827s-.913.695-.913,1.827C193.708,162.33,194.04,162.806,194.621,162.806Zm0,0" transform="translate(-181.53 -149.965)" fill="#607882"/>
        <path id="Trazado_819153" data-name="Trazado 819153" d="M230.613,160.179h-.974c-.25,0-.385-.09-.385-.4,0-.28.151-.355.543-.43l.28-.061c.838-.181.6-1.042,1.246-1.042.242,0,.438.106.438.513v4.289c0,.392-.151.664-.574.664s-.574-.272-.574-.664Zm0,0" transform="translate(-212.41 -149.965)" fill="#607882"/>
        <path id="Trazado_819154" data-name="Trazado 819154" d="M262.687,158.246c1.223,0,2.015.884,2.015,2.665,0,1.337-.422,2.8-2.015,2.8s-2.015-1.465-2.015-2.8C260.672,159.13,261.464,158.246,262.687,158.246Zm0,4.56c.582,0,.914-.476.914-1.827,0-1.133-.249-1.827-.914-1.827s-.914.695-.914,1.827C261.774,162.33,262.106,162.806,262.687,162.806Zm0,0" transform="translate(-238.883 -149.965)" fill="#607882"/>
        <path id="Trazado_819155" data-name="Trazado 819155" d="M301.633,158.246c1.223,0,2.015.884,2.015,2.665,0,1.337-.422,2.8-2.015,2.8s-2.016-1.465-2.016-2.8C299.617,159.13,300.41,158.246,301.633,158.246Zm0,4.56c.581,0,.914-.476.914-1.827,0-1.133-.249-1.827-.914-1.827s-.914.695-.914,1.827C300.72,162.33,301.052,162.806,301.633,162.806Zm0,0" transform="translate(-271.698 -149.965)" fill="#607882"/>
        <path id="Trazado_819156" data-name="Trazado 819156" d="M340.582,158.246c1.223,0,2.015.884,2.015,2.665,0,1.337-.422,2.8-2.015,2.8s-2.016-1.465-2.016-2.8C338.566,159.13,339.36,158.246,340.582,158.246Zm0,4.56c.581,0,.914-.476.914-1.827,0-1.133-.249-1.827-.914-1.827s-.914.695-.914,1.827C339.669,162.33,340,162.806,340.582,162.806Zm0,0" transform="translate(-304.517 -149.965)" fill="#607882"/>
        <path id="Trazado_819157" data-name="Trazado 819157" d="M376.574,160.179H375.6c-.249,0-.385-.09-.385-.4,0-.28.151-.355.544-.43l.279-.061c.838-.181.6-1.042,1.246-1.042.242,0,.438.106.438.513v4.289c0,.392-.151.664-.574.664s-.574-.272-.574-.664Zm0,0" transform="translate(-335.397 -149.965)" fill="#607882"/>
        <path id="Trazado_819158" data-name="Trazado 819158" d="M123.6,212.792h-.974c-.249,0-.385-.09-.385-.4,0-.28.151-.355.544-.43l.279-.061c.838-.181.6-1.042,1.246-1.042.242,0,.438.106.438.513v4.288c0,.393-.151.665-.574.665s-.574-.272-.574-.665Zm0,0" transform="translate(-122.238 -194.297)" fill="#607882"/>
        <path id="Trazado_819159" data-name="Trazado 819159" d="M155.672,210.859c1.223,0,2.015.884,2.015,2.665,0,1.337-.423,2.8-2.015,2.8s-2.016-1.465-2.016-2.8C153.656,211.743,154.449,210.859,155.672,210.859Zm0,4.56c.581,0,.913-.475.913-1.827,0-1.133-.249-1.827-.913-1.827s-.914.695-.914,1.827C154.759,214.944,155.091,215.419,155.672,215.419Zm0,0" transform="translate(-148.711 -194.297)" fill="#607882"/>
        <path id="Trazado_819160" data-name="Trazado 819160" d="M191.663,212.792h-.974c-.25,0-.385-.09-.385-.4,0-.28.151-.355.544-.43l.279-.061c.838-.181.6-1.042,1.246-1.042.242,0,.438.106.438.513v4.288c0,.393-.151.665-.574.665s-.574-.272-.574-.665Zm0,0" transform="translate(-179.591 -194.297)" fill="#607882"/>
        <path id="Trazado_819161" data-name="Trazado 819161" d="M223.738,210.859c1.223,0,2.016.884,2.016,2.665,0,1.337-.423,2.8-2.016,2.8s-2.015-1.465-2.015-2.8C221.723,211.743,222.515,210.859,223.738,210.859Zm0,4.56c.582,0,.914-.475.914-1.827,0-1.133-.249-1.827-.914-1.827s-.914.695-.914,1.827C222.824,214.944,223.157,215.419,223.738,215.419Zm0,0" transform="translate(-206.064 -194.297)" fill="#607882"/>
        <path id="Trazado_819162" data-name="Trazado 819162" d="M262.687,210.859c1.223,0,2.015.884,2.015,2.665,0,1.337-.422,2.8-2.015,2.8s-2.015-1.465-2.015-2.8C260.672,211.743,261.464,210.859,262.687,210.859Zm0,4.56c.582,0,.914-.475.914-1.827,0-1.133-.249-1.827-.914-1.827s-.914.695-.914,1.827C261.774,214.944,262.106,215.419,262.687,215.419Zm0,0" transform="translate(-238.883 -194.297)" fill="#607882"/>
        <path id="Trazado_819163" data-name="Trazado 819163" d="M298.675,212.792H297.7c-.249,0-.385-.09-.385-.4,0-.28.151-.355.544-.43l.28-.061c.837-.181.6-1.042,1.246-1.042.241,0,.438.106.438.513v4.288c0,.393-.151.665-.574.665s-.574-.272-.574-.665Zm0,0" transform="translate(-269.759 -194.297)" fill="#607882"/>
        <path id="Trazado_819164" data-name="Trazado 819164" d="M330.75,210.859c1.223,0,2.015.884,2.015,2.665,0,1.337-.423,2.8-2.015,2.8s-2.016-1.465-2.016-2.8C328.734,211.743,329.527,210.859,330.75,210.859Zm0,4.56c.581,0,.914-.475.914-1.827,0-1.133-.25-1.827-.914-1.827s-.914.695-.914,1.827C329.837,214.944,330.169,215.419,330.75,215.419Zm0,0" transform="translate(-296.232 -194.297)" fill="#607882"/>
        <path id="Trazado_819165" data-name="Trazado 819165" d="M369.7,210.859c1.224,0,2.016.884,2.016,2.665,0,1.337-.423,2.8-2.016,2.8s-2.015-1.465-2.015-2.8C367.684,211.743,368.476,210.859,369.7,210.859Zm0,4.56c.582,0,.914-.475.914-1.827,0-1.133-.249-1.827-.914-1.827s-.913.695-.913,1.827C368.786,214.944,369.118,215.419,369.7,215.419Zm0,0" transform="translate(-329.051 -194.297)" fill="#607882"/>
      </g>
      <path id="Trazado_819166" data-name="Trazado 819166" d="M118.74,73.856a2.615,2.615,0,0,0,2.612-2.612V37.463a2.615,2.615,0,0,0-2.612-2.612H60.995a2.615,2.615,0,0,0-2.612,2.612V71.245a2.614,2.614,0,0,0,2.612,2.612ZM60.719,71.245v-27.3h41.017a1.168,1.168,0,0,0,0-2.336H60.719V37.463a.276.276,0,0,1,.275-.275H118.74a.276.276,0,0,1,.275.275v4.147H107.294a1.168,1.168,0,0,0,0,2.336h11.722v27.3a.276.276,0,0,1-.275.276H60.995A.276.276,0,0,1,60.719,71.245Zm0,0" transform="translate(-49.193 -29.366)"/>
      <path id="Trazado_819167" data-name="Trazado 819167" d="M78.669,47.506H77.645V5.787A5.794,5.794,0,0,0,71.857,0H9.491A5.756,5.756,0,0,0,4.57,2.74,1.168,1.168,0,1,0,6.555,3.972,3.434,3.434,0,0,1,9.491,2.336H71.857a3.456,3.456,0,0,1,3.452,3.451V47.506H74.97a1.168,1.168,0,0,0,0,2.336h3.282v.476a5.379,5.379,0,0,1-5.373,5.373H7.709a5.379,5.379,0,0,1-5.373-5.373v-.474l67.269.231h0a1.168,1.168,0,0,0,0-2.336L6.04,47.52V8.62a1.168,1.168,0,0,0-2.336,0V47.512L1.92,47.506A1.921,1.921,0,0,0,0,49.426v.892a7.718,7.718,0,0,0,7.709,7.709H72.879a7.718,7.718,0,0,0,7.709-7.709v-.892A1.921,1.921,0,0,0,78.669,47.506Zm0,0"/>
      <path id="Trazado_819168" data-name="Trazado 819168" d="M122.623,107.566h.974v2.869c0,.392.151.664.574.664s.574-.272.574-.664v-4.289c0-.408-.2-.513-.438-.513-.641,0-.408.861-1.246,1.042l-.279.06c-.393.076-.544.151-.544.43C122.238,107.475,122.374,107.566,122.623,107.566Zm0,0" transform="translate(-102.998 -89.006)"/>
      <path id="Trazado_819169" data-name="Trazado 819169" d="M155.672,111.1c1.592,0,2.015-1.465,2.015-2.8,0-1.781-.793-2.665-2.015-2.665s-2.016.884-2.016,2.665C153.656,109.634,154.079,111.1,155.672,111.1Zm0-4.56c.664,0,.913.694.913,1.827,0,1.351-.332,1.827-.913,1.827s-.914-.476-.914-1.827C154.759,107.233,155.008,106.539,155.672,106.539Zm0,0" transform="translate(-129.471 -89.006)"/>
      <path id="Trazado_819170" data-name="Trazado 819170" d="M194.621,111.1c1.593,0,2.016-1.465,2.016-2.8,0-1.781-.793-2.665-2.016-2.665s-2.015.884-2.015,2.665C192.605,109.634,193.028,111.1,194.621,111.1Zm0-4.56c.665,0,.914.694.914,1.827,0,1.351-.332,1.827-.914,1.827s-.913-.476-.913-1.827C193.708,107.233,193.957,106.539,194.621,106.539Zm0,0" transform="translate(-162.29 -89.006)"/>
      <path id="Trazado_819171" data-name="Trazado 819171" d="M229.639,107.566h.974v2.869c0,.392.151.664.574.664s.574-.272.574-.664v-4.289c0-.408-.2-.513-.438-.513-.642,0-.408.861-1.246,1.042l-.279.06c-.393.076-.544.151-.544.43C229.254,107.475,229.39,107.566,229.639,107.566Zm0,0" transform="translate(-193.17 -89.006)"/>
      <path id="Trazado_819172" data-name="Trazado 819172" d="M262.687,111.1c1.593,0,2.015-1.465,2.015-2.8,0-1.781-.793-2.665-2.015-2.665s-2.015.884-2.015,2.665C260.672,109.634,261.094,111.1,262.687,111.1Zm0-4.56c.665,0,.914.694.914,1.827,0,1.351-.332,1.827-.914,1.827s-.914-.476-.914-1.827C261.774,107.233,262.023,106.539,262.687,106.539Zm0,0" transform="translate(-219.642 -89.006)"/>
      <path id="Trazado_819173" data-name="Trazado 819173" d="M297.7,107.566h.974v2.869c0,.392.151.664.574.664s.574-.272.574-.664v-4.289c0-.408-.2-.513-.438-.513-.642,0-.408.861-1.246,1.042l-.28.06c-.392.076-.544.151-.544.43C297.316,107.475,297.452,107.566,297.7,107.566Zm0,0" transform="translate(-250.519 -89.006)"/>
      <path id="Trazado_819174" data-name="Trazado 819174" d="M330.75,111.1c1.592,0,2.015-1.465,2.015-2.8,0-1.781-.793-2.665-2.015-2.665s-2.016.884-2.016,2.665C328.734,109.634,329.157,111.1,330.75,111.1Zm0-4.56c.664,0,.914.694.914,1.827,0,1.351-.333,1.827-.914,1.827s-.914-.476-.914-1.827C329.837,107.233,330.086,106.539,330.75,106.539Zm0,0" transform="translate(-276.992 -89.006)"/>
      <path id="Trazado_819175" data-name="Trazado 819175" d="M369.7,111.1c1.593,0,2.016-1.465,2.016-2.8,0-1.781-.793-2.665-2.016-2.665s-2.015.884-2.015,2.665C367.684,109.634,368.107,111.1,369.7,111.1Zm0-4.56c.665,0,.914.694.914,1.827,0,1.351-.332,1.827-.914,1.827s-.913-.476-.913-1.827C368.786,107.233,369.035,106.539,369.7,106.539Zm0,0" transform="translate(-309.81 -89.006)"/>
      <path id="Trazado_819176" data-name="Trazado 819176" d="M124.539,160.911c0,1.336.423,2.8,2.016,2.8s2.015-1.465,2.015-2.8c0-1.782-.793-2.665-2.015-2.665S124.539,159.13,124.539,160.911Zm2.93.068c0,1.351-.333,1.827-.914,1.827s-.914-.475-.914-1.827c0-1.133.249-1.827.914-1.827S127.469,159.847,127.469,160.979Zm0,0" transform="translate(-104.937 -133.338)"/>
      <path id="Trazado_819177" data-name="Trazado 819177" d="M163.12,163.712c.423,0,.574-.272.574-.664v-4.289c0-.408-.2-.513-.438-.513-.641,0-.408.861-1.246,1.042l-.279.061c-.392.076-.544.151-.544.43,0,.309.136.4.385.4h.974v2.869C162.546,163.44,162.7,163.712,163.12,163.712Zm0,0" transform="translate(-135.817 -133.338)"/>
      <path id="Trazado_819178" data-name="Trazado 819178" d="M194.621,163.712c1.593,0,2.016-1.465,2.016-2.8,0-1.782-.793-2.665-2.016-2.665s-2.015.884-2.015,2.665C192.605,162.247,193.028,163.712,194.621,163.712Zm0-4.56c.665,0,.914.694.914,1.827,0,1.351-.332,1.827-.914,1.827s-.913-.476-.913-1.827C193.708,159.847,193.957,159.152,194.621,159.152Zm0,0" transform="translate(-162.29 -133.338)"/>
      <path id="Trazado_819179" data-name="Trazado 819179" d="M229.639,160.179h.974v2.869c0,.392.151.664.574.664s.574-.272.574-.664v-4.289c0-.408-.2-.513-.438-.513-.642,0-.408.861-1.246,1.042l-.279.061c-.393.076-.544.151-.544.43C229.254,160.088,229.39,160.179,229.639,160.179Zm0,0" transform="translate(-193.17 -133.338)"/>
      <path id="Trazado_819180" data-name="Trazado 819180" d="M262.687,163.712c1.593,0,2.015-1.465,2.015-2.8,0-1.782-.793-2.665-2.015-2.665s-2.015.884-2.015,2.665C260.672,162.247,261.094,163.712,262.687,163.712Zm0-4.56c.665,0,.914.694.914,1.827,0,1.351-.332,1.827-.914,1.827s-.914-.476-.914-1.827C261.774,159.847,262.023,159.152,262.687,159.152Zm0,0" transform="translate(-219.642 -133.338)"/>
      <path id="Trazado_819181" data-name="Trazado 819181" d="M299.617,160.911c0,1.336.423,2.8,2.016,2.8s2.015-1.465,2.015-2.8c0-1.782-.793-2.665-2.015-2.665S299.617,159.13,299.617,160.911Zm2.93.068c0,1.351-.333,1.827-.914,1.827s-.914-.475-.914-1.827c0-1.133.249-1.827.914-1.827S302.547,159.847,302.547,160.979Zm0,0" transform="translate(-252.458 -133.338)"/>
      <path id="Trazado_819182" data-name="Trazado 819182" d="M338.566,160.911c0,1.336.423,2.8,2.016,2.8s2.015-1.465,2.015-2.8c0-1.782-.793-2.665-2.015-2.665S338.566,159.13,338.566,160.911Zm2.93.068c0,1.351-.333,1.827-.914,1.827s-.914-.475-.914-1.827c0-1.133.249-1.827.914-1.827S341.5,159.847,341.5,160.979Zm0,0" transform="translate(-285.276 -133.338)"/>
      <path id="Trazado_819183" data-name="Trazado 819183" d="M377.147,163.712c.423,0,.574-.272.574-.664v-4.289c0-.408-.2-.513-.438-.513-.642,0-.408.861-1.246,1.042l-.279.061c-.393.076-.544.151-.544.43,0,.309.136.4.385.4h.974v2.869C376.574,163.44,376.725,163.712,377.147,163.712Zm0,0" transform="translate(-316.156 -133.338)"/>
      <path id="Trazado_819184" data-name="Trazado 819184" d="M122.623,212.792h.974v2.869c0,.393.151.665.574.665s.574-.272.574-.665v-4.288c0-.408-.2-.513-.438-.513-.641,0-.408.861-1.246,1.042l-.279.061c-.393.076-.544.151-.544.43C122.238,212.7,122.374,212.792,122.623,212.792Zm0,0" transform="translate(-102.998 -177.67)"/>
      <path id="Trazado_819185" data-name="Trazado 819185" d="M155.672,216.325c1.592,0,2.015-1.465,2.015-2.8,0-1.781-.793-2.665-2.015-2.665s-2.016.884-2.016,2.665C153.656,214.861,154.079,216.325,155.672,216.325Zm0-4.56c.664,0,.913.695.913,1.827,0,1.351-.332,1.827-.913,1.827s-.914-.476-.914-1.827C154.759,212.46,155.008,211.765,155.672,211.765Zm0,0" transform="translate(-129.471 -177.67)"/>
      <path id="Trazado_819186" data-name="Trazado 819186" d="M190.69,212.792h.974v2.869c0,.393.151.665.574.665s.574-.272.574-.665v-4.288c0-.408-.2-.513-.438-.513-.641,0-.408.861-1.246,1.042l-.279.061c-.392.076-.544.151-.544.43C190.3,212.7,190.441,212.792,190.69,212.792Zm0,0" transform="translate(-160.351 -177.67)"/>
      <path id="Trazado_819187" data-name="Trazado 819187" d="M223.738,216.325c1.593,0,2.016-1.465,2.016-2.8,0-1.781-.793-2.665-2.016-2.665s-2.015.884-2.015,2.665C221.723,214.861,222.145,216.325,223.738,216.325Zm0-4.56c.665,0,.914.695.914,1.827,0,1.351-.332,1.827-.914,1.827s-.914-.476-.914-1.827C222.824,212.46,223.074,211.765,223.738,211.765Zm0,0" transform="translate(-186.824 -177.67)"/>
      <path id="Trazado_819188" data-name="Trazado 819188" d="M262.687,216.325c1.593,0,2.015-1.465,2.015-2.8,0-1.781-.793-2.665-2.015-2.665s-2.015.884-2.015,2.665C260.672,214.861,261.094,216.325,262.687,216.325Zm0-4.56c.665,0,.914.695.914,1.827,0,1.351-.332,1.827-.914,1.827s-.914-.476-.914-1.827C261.774,212.46,262.023,211.765,262.687,211.765Zm0,0" transform="translate(-219.642 -177.67)"/>
      <path id="Trazado_819189" data-name="Trazado 819189" d="M297.7,212.792h.974v2.869c0,.393.151.665.574.665s.574-.272.574-.665v-4.288c0-.408-.2-.513-.438-.513-.642,0-.408.861-1.246,1.042l-.28.061c-.392.076-.544.151-.544.43C297.316,212.7,297.452,212.792,297.7,212.792Zm0,0" transform="translate(-250.519 -177.67)"/>
      <path id="Trazado_819190" data-name="Trazado 819190" d="M330.75,216.325c1.592,0,2.015-1.465,2.015-2.8,0-1.781-.793-2.665-2.015-2.665s-2.016.884-2.016,2.665C328.734,214.861,329.157,216.325,330.75,216.325Zm0-4.56c.664,0,.914.695.914,1.827,0,1.351-.333,1.827-.914,1.827s-.914-.476-.914-1.827C329.837,212.46,330.086,211.765,330.75,211.765Zm0,0" transform="translate(-276.992 -177.67)"/>
      <path id="Trazado_819191" data-name="Trazado 819191" d="M369.7,216.325c1.593,0,2.016-1.465,2.016-2.8,0-1.781-.793-2.665-2.016-2.665s-2.015.884-2.015,2.665C367.684,214.861,368.107,216.325,369.7,216.325Zm0-4.56c.665,0,.914.695.914,1.827,0,1.351-.332,1.827-.914,1.827s-.913-.476-.913-1.827C368.786,212.46,369.035,211.765,369.7,211.765Zm0,0" transform="translate(-309.81 -177.67)"/>
    </g>
  </g>
</svg>
