<svg xmlns="http://www.w3.org/2000/svg" xmlns:xlink="http://www.w3.org/1999/xlink" width="127" height="127" viewBox="0 0 127 127">
  <defs>
    <filter id="Elipse_4723" x="0" y="0" width="127" height="127" filterUnits="userSpaceOnUse">
      <feOffset dy="1" input="SourceAlpha"/>
      <feGaussianBlur stdDeviation="5.5" result="blur"/>
      <feFlood flood-color="#fff" flood-opacity="0.902"/>
      <feComposite operator="in" in2="blur"/>
      <feComposite in="SourceGraphic"/>
    </filter>
  </defs>
  <g id="Grupo_1072788" data-name="Grupo 1072788" transform="translate(-1201.5 -1970.5)">
    <g transform="matrix(1, 0, 0, 1, 1201.5, 1970.5)" filter="url(#Elipse_4723)">
      <g id="Elipse_4723-2" data-name="Elipse 4723" transform="translate(16.5 15.5)" fill="none" stroke="#fff" stroke-width="6">
        <circle cx="47" cy="47" r="47" stroke="none"/>
        <circle cx="47" cy="47" r="44" fill="none"/>
      </g>
    </g>
    <g id="codigo-binario_1_" data-name="codigo-binario (1)" transform="translate(1195.5 1994)">
      <path id="Trazado_819217" data-name="Trazado 819217" d="M95.185,83.783H45.456A2.456,2.456,0,0,1,43,81.327V9.956A2.456,2.456,0,0,1,45.456,7.5h49.73a2.456,2.456,0,0,1,2.456,2.456V81.327A2.456,2.456,0,0,1,95.185,83.783Z" transform="translate(-6.349 -6.349)" fill="#eaf6ff"/>
      <path id="Trazado_819218" data-name="Trazado 819218" d="M357.6,7.5H353a2.456,2.456,0,0,1,2.456,2.456V81.327A2.456,2.456,0,0,1,353,83.783h4.6a2.456,2.456,0,0,0,2.456-2.456V9.956A2.456,2.456,0,0,0,357.6,7.5Z" transform="translate(-268.768 -6.349)" fill="#d8ecfe"/>
      <path id="Trazado_819219" data-name="Trazado 819219" d="M97.641,16.709H43V9.956A2.456,2.456,0,0,1,45.456,7.5h49.73a2.456,2.456,0,0,1,2.456,2.456Z" transform="translate(-6.349 -6.349)" fill="#2abcc8"/>
      <path id="Trazado_819220" data-name="Trazado 819220" d="M357.6,7.5H353a2.456,2.456,0,0,1,2.456,2.456v6.753h4.6V9.956A2.456,2.456,0,0,0,357.6,7.5Z" transform="translate(-268.768 -6.349)" fill="#0cacba"/>
      <path id="Trazado_819221" data-name="Trazado 819221" d="M82.635,12.412h0a2.3,2.3,0,0,1-2.3-2.3V7.5h4.6v2.609A2.3,2.3,0,0,1,82.635,12.412Z" transform="translate(-37.952 -6.349)" fill="#fe7ab6"/>
      <path id="Trazado_819222" data-name="Trazado 819222" d="M137.969,12.412h0a2.3,2.3,0,0,1-2.3-2.3V7.5h4.6v2.609A2.3,2.3,0,0,1,137.969,12.412Z" transform="translate(-84.793 -6.349)" fill="#fdb441"/>
      <path id="Trazado_819223" data-name="Trazado 819223" d="M193.3,12.412h0a2.3,2.3,0,0,1-2.3-2.3V7.5h4.6v2.609A2.3,2.3,0,0,1,193.3,12.412Z" transform="translate(-131.633 -6.349)" fill="#edf9d9"/>
      <path id="Trazado_819224" data-name="Trazado 819224" d="M268.46,244.406h-31A2.456,2.456,0,0,1,235,241.951V206.956a2.456,2.456,0,0,1,2.456-2.456h31a2.456,2.456,0,0,1,2.456,2.456v34.995A2.456,2.456,0,0,1,268.46,244.406Z" transform="translate(-168.879 -173.112)" fill="#d8ecfe"/>
      <path id="Trazado_819225" data-name="Trazado 819225" d="M427.6,204.5H423a2.456,2.456,0,0,1,2.456,2.456v34.995A2.456,2.456,0,0,1,423,244.406h4.6a2.456,2.456,0,0,0,2.456-2.456V206.956A2.456,2.456,0,0,0,427.6,204.5Z" transform="translate(-328.024 -173.112)" fill="#c4e2ff"/>
      <path id="Trazado_819226" data-name="Trazado 819226" d="M265.634,394.109h0a2.609,2.609,0,0,1,2.609-2.609h20.874a2.609,2.609,0,0,1,2.609,2.609h0a2.609,2.609,0,0,1-2.609,2.609H268.243A2.609,2.609,0,0,1,265.634,394.109Z" transform="translate(-194.812 -331.41)" fill="#fdb441"/>
      <path id="Trazado_819227" data-name="Trazado 819227" d="M393.239,391.5h-4.6a2.609,2.609,0,0,1,2.609,2.609h0a2.609,2.609,0,0,1-2.609,2.609h4.6a2.609,2.609,0,0,0,2.609-2.609h0A2.609,2.609,0,0,0,393.239,391.5Z" transform="translate(-298.933 -331.41)" fill="#fe9738"/>
      <path id="Trazado_819228" data-name="Trazado 819228" d="M270.916,213.4H235v-6.446a2.456,2.456,0,0,1,2.456-2.456h31a2.456,2.456,0,0,1,2.456,2.456Z" transform="translate(-168.879 -173.112)" fill="#2abcc8"/>
      <path id="Trazado_819229" data-name="Trazado 819229" d="M427.6,204.5H423a2.456,2.456,0,0,1,2.456,2.456V213.4h4.6v-6.446A2.456,2.456,0,0,0,427.6,204.5Z" transform="translate(-328.024 -173.112)" fill="#0cacba"/>
      <path id="Trazado_819230" data-name="Trazado 819230" d="M99.039,282.759H85.31a.81.81,0,0,1-.81-.81V257.476a.81.81,0,0,1,.81-.81H99.039a.81.81,0,0,1,.81.81v24.472A.81.81,0,0,1,99.039,282.759Z" transform="translate(-41.479 -217.271)" fill="#fe7ab6"/>
      <path id="Trazado_819231" data-name="Trazado 819231" d="M153.827,256.667h-4.6a.81.81,0,0,1,.81.81V281.95a.81.81,0,0,1-.81.81h4.6a.81.81,0,0,0,.81-.81V257.477A.81.81,0,0,0,153.827,256.667Z" transform="translate(-96.267 -217.272)" fill="#fe5ca7"/>
      <g id="Grupo_1072787" data-name="Grupo 1072787" transform="translate(35.5 0)">
        <path id="Trazado_819232" data-name="Trazado 819232" d="M91.292,32.207a1.151,1.151,0,0,1-1.151-1.151V3.607a1.306,1.306,0,0,0-1.3-1.3H39.107a1.306,1.306,0,0,0-1.3,1.3V18.3a1.151,1.151,0,1,1-2.3,0V3.607A3.611,3.611,0,0,1,39.107,0h49.73a3.611,3.611,0,0,1,3.607,3.607V31.055A1.151,1.151,0,0,1,91.292,32.207Z" transform="translate(-35.5 0)"/>
        <path id="Trazado_819233" data-name="Trazado 819233" d="M88.837,205.139H39.107a3.611,3.611,0,0,1-3.607-3.607V150.651a1.151,1.151,0,1,1,2.3,0v50.881a1.306,1.306,0,0,0,1.3,1.3h49.73a1.306,1.306,0,0,0,1.3-1.3V198.2a1.151,1.151,0,1,1,2.3,0v3.334A3.611,3.611,0,0,1,88.837,205.139Z" transform="translate(-35.5 -126.554)"/>
        <path id="Línea_435" data-name="Línea 435" d="M47.551-5.2h-53.9A1.151,1.151,0,0,1-7.5-6.349,1.151,1.151,0,0,1-6.349-7.5h53.9A1.151,1.151,0,0,1,48.7-6.349,1.151,1.151,0,0,1,47.551-5.2Z" transform="translate(7.96 16.709)"/>
        <path id="Trazado_819234" data-name="Trazado 819234" d="M76.286,7.214A3.457,3.457,0,0,1,72.833,3.76V1.151A1.151,1.151,0,0,1,73.984,0h4.6A1.151,1.151,0,0,1,79.74,1.151V3.76A3.457,3.457,0,0,1,76.286,7.214ZM75.135,2.3V3.76a1.151,1.151,0,0,0,2.3,0V2.3Z" transform="translate(-67.103 0)"/>
        <path id="Trazado_819235" data-name="Trazado 819235" d="M131.62,7.214a3.457,3.457,0,0,1-3.453-3.453V1.151A1.151,1.151,0,0,1,129.318,0h4.6a1.151,1.151,0,0,1,1.151,1.151V3.76A3.457,3.457,0,0,1,131.62,7.214ZM130.469,2.3V3.76a1.151,1.151,0,1,0,2.3,0V2.3Z" transform="translate(-113.944 0)"/>
        <path id="Trazado_819236" data-name="Trazado 819236" d="M186.953,7.214A3.457,3.457,0,0,1,183.5,3.76V1.151A1.151,1.151,0,0,1,184.651,0h4.6a1.151,1.151,0,0,1,1.151,1.151V3.76A3.457,3.457,0,0,1,186.953,7.214ZM185.8,2.3V3.76a1.151,1.151,0,0,0,2.3,0V2.3Z" transform="translate(-160.784 0)"/>
        <g id="Grupo_1072784" data-name="Grupo 1072784" transform="translate(38.832 44.682)">
          <path id="Línea_436" data-name="Línea 436" d="M1.1-5.2H-6.349A1.151,1.151,0,0,1-7.5-6.349,1.151,1.151,0,0,1-6.349-7.5H1.1A1.151,1.151,0,0,1,2.246-6.349,1.151,1.151,0,0,1,1.1-5.2Z" transform="translate(7.5 7.5)"/>
          <path id="Línea_437" data-name="Línea 437" d="M12.07-5.2H-6.349A1.151,1.151,0,0,1-7.5-6.349,1.151,1.151,0,0,1-6.349-7.5H12.07a1.151,1.151,0,0,1,1.151,1.151A1.151,1.151,0,0,1,12.07-5.2Z" transform="translate(7.5 11.525)"/>
          <path id="Línea_438" data-name="Línea 438" d="M9.537-5.2H-6.349A1.151,1.151,0,0,1-7.5-6.349,1.151,1.151,0,0,1-6.349-7.5H9.537a1.151,1.151,0,0,1,1.151,1.151A1.151,1.151,0,0,1,9.537-5.2Z" transform="translate(7.5 15.55)"/>
        </g>
        <path id="Trazado_819237" data-name="Trazado 819237" d="M262.111,239.209H246.967a1.151,1.151,0,1,1,0-2.3h15.144a1.306,1.306,0,0,0,1.3-1.3V200.607a1.306,1.306,0,0,0-1.3-1.3h-31a1.306,1.306,0,0,0-1.3,1.3V235.6a1.306,1.306,0,0,0,1.3,1.3h10.386a1.151,1.151,0,1,1,0,2.3H231.107A3.611,3.611,0,0,1,227.5,235.6V200.607A3.611,3.611,0,0,1,231.107,197h31a3.611,3.611,0,0,1,3.607,3.607V235.6A3.611,3.611,0,0,1,262.111,239.209Z" transform="translate(-198.031 -166.763)"/>
        <path id="Trazado_819238" data-name="Trazado 819238" d="M261.894,384h20.874a3.76,3.76,0,1,1,0,7.521H261.894a3.76,3.76,0,1,1,0-7.521Zm20.874,5.219a1.458,1.458,0,1,0,0-2.916H261.894a1.458,1.458,0,0,0,0,2.916Z" transform="translate(-223.963 -325.061)"/>
        <path id="Línea_439" data-name="Línea 439" d="M28.765-5.2H-6.349A1.151,1.151,0,0,1-7.5-6.349,1.151,1.151,0,0,1-6.349-7.5H28.765a1.151,1.151,0,0,1,1.151,1.151A1.151,1.151,0,0,1,28.765-5.2Z" transform="translate(37.498 46.639)"/>
        <path id="Trazado_819239" data-name="Trazado 819239" d="M92.69,277.561H78.961A1.963,1.963,0,0,1,77,275.6V251.127a1.963,1.963,0,0,1,1.961-1.961H92.69a1.963,1.963,0,0,1,1.961,1.961V275.6A1.964,1.964,0,0,1,92.69,277.561Zm-13.387-2.3H92.349V251.468H79.3Z" transform="translate(-70.63 -210.922)"/>
        <g id="Grupo_1072785" data-name="Grupo 1072785" transform="translate(10.72 43.309)">
          <path id="Línea_440" data-name="Línea 440" d="M-2.563-5.2H-6.349A1.151,1.151,0,0,1-7.5-6.349,1.151,1.151,0,0,1-6.349-7.5h3.786A1.151,1.151,0,0,1-1.412-6.349,1.151,1.151,0,0,1-2.563-5.2Z" transform="translate(7.5 7.5)"/>
          <path id="Línea_441" data-name="Línea 441" d="M-2.563-5.2H-6.349A1.151,1.151,0,0,1-7.5-6.349,1.151,1.151,0,0,1-6.349-7.5h3.786A1.151,1.151,0,0,1-1.412-6.349,1.151,1.151,0,0,1-2.563-5.2Z" transform="translate(7.5 22.439)"/>
          <path id="Línea_442" data-name="Línea 442" d="M.044-5.2H-6.349A1.151,1.151,0,0,1-7.5-6.349,1.151,1.151,0,0,1-6.349-7.5H.044A1.151,1.151,0,0,1,1.2-6.349,1.151,1.151,0,0,1,.044-5.2Z" transform="translate(7.5 11.235)"/>
          <path id="Línea_443" data-name="Línea 443" d="M.044-5.2H-6.349A1.151,1.151,0,0,1-7.5-6.349,1.151,1.151,0,0,1-6.349-7.5H.044A1.151,1.151,0,0,1,1.2-6.349,1.151,1.151,0,0,1,.044-5.2Z" transform="translate(7.5 14.97)"/>
        </g>
        <g id="Grupo_1072786" data-name="Grupo 1072786" transform="translate(7.06 17.574)">
          <path id="Trazado_819240" data-name="Trazado 819240" d="M85.26,124.056a3.765,3.765,0,0,1-3.76-3.76V118.76a3.76,3.76,0,1,1,7.521,0V120.3A3.765,3.765,0,0,1,85.26,124.056Zm0-6.753A1.46,1.46,0,0,0,83.8,118.76V120.3a1.458,1.458,0,0,0,2.916,0V118.76A1.46,1.46,0,0,0,85.26,117.3Z" transform="translate(-81.5 -114.923)"/>
          <path id="Línea_444" data-name="Línea 444" d="M-6.349,1.556A1.151,1.151,0,0,1-7.5.4V-6.349A1.151,1.151,0,0,1-6.349-7.5,1.151,1.151,0,0,1-5.2-6.349V.4A1.151,1.151,0,0,1-6.349,1.556Z" transform="translate(17.63 7.5)"/>
          <path id="Trazado_819241" data-name="Trazado 819241" d="M183.26,124.056a3.765,3.765,0,0,1-3.76-3.76V118.76a3.76,3.76,0,0,1,7.521,0V120.3A3.765,3.765,0,0,1,183.26,124.056Zm0-6.753a1.46,1.46,0,0,0-1.458,1.458V120.3a1.458,1.458,0,1,0,2.916,0V118.76A1.46,1.46,0,0,0,183.26,117.3Z" transform="translate(-164.458 -114.923)"/>
          <path id="Línea_445" data-name="Línea 445" d="M-6.349,1.556A1.151,1.151,0,0,1-7.5.4V-6.349A1.151,1.151,0,0,1-6.349-7.5,1.151,1.151,0,0,1-5.2-6.349V.4A1.151,1.151,0,0,1-6.349,1.556Z" transform="translate(32.672 7.5)"/>
          <path id="Trazado_819242" data-name="Trazado 819242" d="M281.26,124.056a3.765,3.765,0,0,1-3.76-3.76V118.76a3.76,3.76,0,0,1,7.521,0V120.3A3.765,3.765,0,0,1,281.26,124.056Zm0-6.753a1.46,1.46,0,0,0-1.458,1.458V120.3a1.458,1.458,0,1,0,2.916,0V118.76A1.46,1.46,0,0,0,281.26,117.3Z" transform="translate(-247.417 -114.923)"/>
          <path id="Línea_446" data-name="Línea 446" d="M-6.349,1.556A1.151,1.151,0,0,1-7.5.4V-6.349A1.151,1.151,0,0,1-6.349-7.5,1.151,1.151,0,0,1-5.2-6.349V.4A1.151,1.151,0,0,1-6.349,1.556Z" transform="translate(47.713 7.5)"/>
        </g>
      </g>
    </g>
  </g>
</svg>
