<svg xmlns="http://www.w3.org/2000/svg" width="85" height="85" viewBox="0 0 85 85">
  <g id="Grupo_1072889" data-name="Grupo 1072889" transform="translate(-180 -4034)">
    <circle id="Elipse_9758" data-name="Elipse 9758" cx="42.5" cy="42.5" r="42.5" transform="translate(180 4034)" fill="#222b89"/>
    <g id="XMLID_424_" transform="translate(197 4050.865)">
      <path id="XMLID_436_" d="M99.423,98.292h4.2v4.2h-4.2Z" transform="translate(-89.473 -88.333)" fill="#fff"/>
      <path id="XMLID_456_" d="M12.216.135A12.074,12.074,0,1,0,24.289,12.209,12.087,12.087,0,0,0,12.216.135Zm5.068,17.029H7.076V6.956H17.284Z" transform="translate(-0.128)" fill="#fff"/>
      <path id="XMLID_458_" d="M376.731,103.244l-1.6,2.567h3.2Z" transform="translate(-337.585 -92.79)" fill="#fff"/>
      <path id="XMLID_472_" d="M282.577,24.282A12.074,12.074,0,1,0,270.5,12.209,12.087,12.087,0,0,0,282.577,24.282Zm-7.016-8.259,7.016-11.239,7.016,11.239Z" transform="translate(-243.431 0)" fill="#fff"/>
      <path id="XMLID_477_" d="M282.577,270.367a12.074,12.074,0,1,0,12.074,12.074A12.087,12.087,0,0,0,282.577,270.367Zm5.186,15.2-2.123,2.123-3.091-3.091-3.091,3.091-2.123-2.123,3.091-3.091-3.091-3.091,2.123-2.123,3.091,3.091,3.091-3.091,2.123,2.123-3.091,3.091Z" transform="translate(-243.431 -243.187)" fill="#fff"/>
      <circle id="XMLID_478_" cx="2.428" cy="2.428" r="2.428" transform="translate(9.684 36.826)" fill="#fff"/>
      <path id="XMLID_486_" d="M12.074,270.367a12.074,12.074,0,1,0,12.074,12.074,12.087,12.087,0,0,0-12.074-12.074Zm.039,17.5a5.43,5.43,0,1,1,5.43-5.43,5.437,5.437,0,0,1-5.43,5.43Z" transform="translate(0 -243.187)" fill="#fff"/>
    </g>
  </g>
</svg>
