<svg xmlns="http://www.w3.org/2000/svg" xmlns:xlink="http://www.w3.org/1999/xlink" width="85" height="85" viewBox="0 0 85 85">
  <defs>
    <clipPath id="clip-path">
      <path id="path7596" d="M0-682.665H72.723v72.723H0Z" transform="translate(0 682.665)"/>
    </clipPath>
  </defs>
  <g id="Grupo_1072951" data-name="Grupo 1072951" transform="translate(-180 -4762)">
    <circle id="Elipse_9759" data-name="Elipse 9759" cx="42.5" cy="42.5" r="42.5" transform="translate(180 4762)" fill="#222b89"/>
    <g id="g7590" transform="translate(186 5450.665)">
      <g id="g7592" transform="translate(0 -682.665)">
        <g id="g7594" clip-path="url(#clip-path)">
          <g id="g7600" transform="translate(1.065 22.223)">
            <path id="path7602" d="M-515.685-355.962h0a9.105,9.105,0,0,0,8.967-10.686l-3.887-22.045a11.749,11.749,0,0,0-11.571-9.709h-39.394a11.749,11.749,0,0,0-11.571,9.709l-3.887,22.045a9.105,9.105,0,0,0,8.967,10.686,8.376,8.376,0,0,0,8.249-6.921l.519-2.946a4.706,4.706,0,0,1,4.635-3.889h25.571a4.707,4.707,0,0,1,4.635,3.889l.519,2.946a8.376,8.376,0,0,0,8.249,6.921" transform="translate(577.17 398.403)" fill="#7293df"/>
          </g>
          <g id="g7604" transform="translate(1.065 22.223)">
            <path id="path7606" d="M-130.832,0A11.749,11.749,0,0,0-142.4,9.709l-3.887,22.045a9.105,9.105,0,0,0,8.967,10.686,8.376,8.376,0,0,0,8.249-6.921l.519-2.945a4.707,4.707,0,0,1,4.635-3.889h1.365c-7-6.433-8.262-20-6.788-28.685Z" transform="translate(146.431)" fill="#4677d5"/>
          </g>
          <g id="g7608" transform="translate(10.325 29.184)">
            <path id="path7610" d="M-114.984-57.493a6.855,6.855,0,0,0-6.855-6.855,6.855,6.855,0,0,0-6.855,6.855,6.855,6.855,0,0,0,6.855,6.855,6.855,6.855,0,0,0,6.855-6.855" transform="translate(128.693 64.348)" fill="#ff98c4"/>
          </g>
          <g id="g7612" transform="translate(14.076 21.615)">
            <path id="path7614" d="M-52.056,0h-6.207V12.531a3.1,3.1,0,0,0,3.1,3.1,3.1,3.1,0,0,0,3.1-3.1Z" transform="translate(58.263)" fill="#efedff"/>
          </g>
          <g id="g7616" transform="translate(47.685 37.618)">
            <path id="path7618" d="M-56.634-28.317a3.376,3.376,0,0,1-3.376,3.376,3.376,3.376,0,0,1-3.376-3.376,3.376,3.376,0,0,1,3.376-3.376,3.376,3.376,0,0,1,3.376,3.376" transform="translate(63.387 31.693)" fill="#ff98c4"/>
          </g>
          <g id="g7620" transform="translate(53.837 27.799)">
            <path id="path7622" d="M-56.634-28.318a3.376,3.376,0,0,1-3.376,3.376,3.376,3.376,0,0,1-3.376-3.376,3.376,3.376,0,0,1,3.376-3.376,3.376,3.376,0,0,1,3.376,3.376" transform="translate(63.387 31.695)" fill="#f8ea69"/>
          </g>
          <g id="g7624" transform="translate(31.069 36.497)">
            <path id="path7626" d="M-73.534,0h-6.95A1.818,1.818,0,0,0-82.3,1.818V4.14a1.818,1.818,0,0,0,1.818,1.818h6.95A1.818,1.818,0,0,0-71.716,4.14V1.818A1.818,1.818,0,0,0-73.534,0" transform="translate(82.301)" fill="#f8ea69"/>
          </g>
          <g id="g7628" transform="translate(14.076 21.615)">
            <path id="path7630" d="M0-58.283a12.556,12.556,0,0,0,3.1.388,12.556,12.556,0,0,0,3.1-.388v-6.949H0Z" transform="translate(0 65.232)" fill="#d4d4ff"/>
          </g>
          <g id="g7632" transform="translate(8.864 8.058)">
            <path id="path7634" d="M-139.5-69.748a8.316,8.316,0,0,1-8.316,8.316,8.316,8.316,0,0,1-8.316-8.316,8.316,8.316,0,0,1,8.316-8.316,8.316,8.316,0,0,1,8.316,8.316" transform="translate(156.128 78.064)" fill="#ffbcd6"/>
          </g>
          <g id="g7636" transform="translate(8.864 8.613)">
            <path id="path7638" d="M-131.22-98.065c-9.922,2.166-13.934-7.416-10.315-11.692a8.317,8.317,0,0,0-5.33,7.761,8.316,8.316,0,0,0,8.316,8.316,8.313,8.313,0,0,0,7.329-4.385" transform="translate(146.865 109.757)" fill="#ff98c4"/>
          </g>
          <g id="g7640" transform="translate(46.619 36.553)">
            <path id="path7642" d="M-68.945-41.693A4.447,4.447,0,0,1-64.5-37.252a4.447,4.447,0,0,1-4.441,4.442,4.447,4.447,0,0,1-4.441-4.442A4.447,4.447,0,0,1-68.945-41.693Zm0,6.753a2.314,2.314,0,0,0,2.311-2.311,2.314,2.314,0,0,0-2.311-2.311,2.314,2.314,0,0,0-2.311,2.311A2.314,2.314,0,0,0-68.945-34.941Z" transform="translate(73.386 41.693)"/>
          </g>
          <g id="g7644" transform="translate(52.772 26.734)">
            <path id="path7646" d="M-68.945-32.811a4.446,4.446,0,0,1-4.441-4.441,4.447,4.447,0,0,1,4.441-4.442A4.447,4.447,0,0,1-64.5-37.253,4.447,4.447,0,0,1-68.945-32.811Zm0-6.753a2.314,2.314,0,0,0-2.311,2.311,2.313,2.313,0,0,0,2.311,2.311,2.314,2.314,0,0,0,2.311-2.311A2.314,2.314,0,0,0-68.945-39.564Z" transform="translate(73.386 41.695)"/>
          </g>
          <g id="g7648" transform="translate(30.003 35.431)">
            <path id="path7650" d="M-89.418-10h6.95a2.886,2.886,0,0,1,2.883,2.883v2.322a2.886,2.886,0,0,1-2.883,2.883h-6.95A2.886,2.886,0,0,1-92.3-4.795V-7.117A2.886,2.886,0,0,1-89.418-10Zm6.95,5.957a.753.753,0,0,0,.753-.752V-7.117a.753.753,0,0,0-.753-.753h-6.95a.753.753,0,0,0-.752.753v2.322a.753.753,0,0,0,.752.752Z" transform="translate(92.301 10)"/>
          </g>
          <g id="g7652" transform="translate(7.798 6.993)">
            <path id="path7654" d="M-156.746-88.064a9.392,9.392,0,0,1,9.381,9.381,9.392,9.392,0,0,1-9.381,9.381,9.392,9.392,0,0,1-9.381-9.381A9.392,9.392,0,0,1-156.746-88.064Zm0,16.632a7.259,7.259,0,0,0,7.251-7.251,7.259,7.259,0,0,0-7.251-7.251A7.259,7.259,0,0,0-164-78.683,7.259,7.259,0,0,0-156.746-71.432Z" transform="translate(166.128 88.064)"/>
          </g>
          <g id="g7656" transform="translate(22.024 21.158)">
            <path id="path7658" d="M-276.149-7.869h-31.86a1.065,1.065,0,0,1-1.065-1.065A1.065,1.065,0,0,1-308.009-10h31.86a1.065,1.065,0,0,1,1.065,1.065A1.065,1.065,0,0,1-276.149-7.869Z" transform="translate(309.074 10)"/>
          </g>
          <g id="g7660" transform="translate(4.775 21.885)">
            <path id="path7662" d="M47.773-347.48a9.427,9.427,0,0,1-9.3-7.8l-.519-2.945a3.636,3.636,0,0,0-3.586-3.009H8.8a3.636,3.636,0,0,0-3.586,3.009l-.519,2.945a9.428,9.428,0,0,1-9.3,7.8,10.182,10.182,0,0,1-4.84-1.221,1.065,1.065,0,0,1-.429-1.444,1.065,1.065,0,0,1,1.444-.429,7.936,7.936,0,0,0,3.825.963,7.3,7.3,0,0,0,7.2-6.041l.519-2.945a5.764,5.764,0,0,1,5.684-4.77H34.369a5.763,5.763,0,0,1,5.684,4.77l.519,2.945a7.3,7.3,0,0,0,7.2,6.041,8.021,8.021,0,0,0,6.159-2.872,8.021,8.021,0,0,0,1.759-6.564L51.8-381.092a10.725,10.725,0,0,0-6.817-8.168,1.065,1.065,0,0,1-.629-1.369,1.065,1.065,0,0,1,1.369-.629,12.863,12.863,0,0,1,8.176,9.8l3.887,22.045a10.147,10.147,0,0,1-2.225,8.3A10.147,10.147,0,0,1,47.773-347.48Z" transform="translate(10.002 391.324)"/>
          </g>
          <g id="g7664" transform="translate(-0.002 22.014)">
            <path id="path7666" d="M-112.9,29.057a1.065,1.065,0,0,1-.93-.544,10.043,10.043,0,0,1-1.142-6.737L-111.086-.27a12.746,12.746,0,0,1,7.819-9.655,1.065,1.065,0,0,1,1.387.588,1.065,1.065,0,0,1-.588,1.387A10.628,10.628,0,0,0-108.988.1l-3.887,22.045a7.935,7.935,0,0,0,.9,5.324,1.065,1.065,0,0,1-.407,1.451A1.06,1.06,0,0,1-112.9,29.057Z" transform="translate(115.132 10.003)"/>
          </g>
          <g id="g7668" transform="translate(13.011 23.024)">
            <path id="path7670" d="M-5.831,5.29A4.173,4.173,0,0,1-10,1.121V-8.935A1.065,1.065,0,0,1-8.935-10,1.065,1.065,0,0,1-7.869-8.935V1.121A2.04,2.04,0,0,0-5.831,3.159,2.04,2.04,0,0,0-3.793,1.121V-8.935A1.065,1.065,0,0,1-2.728-10,1.065,1.065,0,0,1-1.663-8.935V1.121A4.173,4.173,0,0,1-5.831,5.29Z" transform="translate(10 10)"/>
          </g>
          <g id="g7672" transform="translate(9.26 28.862)">
            <path id="path7674" d="M-37.295,5.095a7.929,7.929,0,0,1-7.92-7.92,7.889,7.889,0,0,1,4.334-7.061,1.065,1.065,0,0,1,1.433.466,1.065,1.065,0,0,1-.466,1.433,5.768,5.768,0,0,0-3.169,5.162,5.8,5.8,0,0,0,5.789,5.789,5.8,5.8,0,0,0,5.789-5.789,5.768,5.768,0,0,0-3.169-5.162,1.065,1.065,0,0,1-.466-1.433,1.065,1.065,0,0,1,1.433-.466,7.889,7.889,0,0,1,4.334,7.061A7.929,7.929,0,0,1-37.295,5.095Z" transform="translate(45.215 10.002)"/>
          </g>
          <g id="g7676" transform="translate(26.426 26.585)">
            <path id="path7678" d="M-8.935-6.165A1.065,1.065,0,0,1-10-7.23v-1.7A1.065,1.065,0,0,1-8.935-10,1.065,1.065,0,0,1-7.869-8.935v1.7A1.065,1.065,0,0,1-8.935-6.165Z" transform="translate(10 10)"/>
          </g>
          <g id="g7680" transform="translate(44.166 26.585)">
            <path id="path7682" d="M-8.935-6.165A1.065,1.065,0,0,1-10-7.23v-1.7A1.065,1.065,0,0,1-8.935-10,1.065,1.065,0,0,1-7.869-8.935v1.7A1.065,1.065,0,0,1-8.935-6.165Z" transform="translate(10 10)"/>
          </g>
          <g id="g7684" transform="translate(32.958 28.239)">
            <path id="path7686" d="M-6.6-6.8A4.167,4.167,0,0,1-9.738-8.235a1.065,1.065,0,0,1,.1-1.5,1.065,1.065,0,0,1,1.5.1,2.037,2.037,0,0,0,1.535.7,2.037,2.037,0,0,0,1.535-.7,1.065,1.065,0,0,1,1.5-.1,1.065,1.065,0,0,1,.1,1.5A4.167,4.167,0,0,1-6.6-6.8Z" transform="translate(10 10)"/>
          </g>
        </g>
      </g>
      <g id="g7688" transform="translate(0 -682.665)">
        <g id="g7690" clip-path="url(#clip-path)">
          <g id="g7696" transform="translate(80.018 1.065)">
            <path id="path7698" d="M-416.256-142.417a26.476,26.476,0,0,1,3.167-3.447,2.9,2.9,0,0,1,4.7,1.175c14.659,41.457-5.853,55.6-26.266,55.6-20.338,0-40.775-14.035-26.424-55.144a2.855,2.855,0,0,1,4.758-1.039,32.716,32.716,0,0,1,3.281,3.891,1.134,1.134,0,0,0,1.929-.108c2.053-3.777,6.943-8.978,10.053-14.754a6.019,6.019,0,0,1,8.841-1.991c5.657,4.14,11.93,11.3,14.209,15.669a1.04,1.04,0,0,0,1.753.153" transform="translate(465.885 159.397)" fill="#f8ea69"/>
          </g>
        </g>
      </g>
    </g>
  </g>
</svg>
