<svg xmlns="http://www.w3.org/2000/svg" width="213.058" height="237" viewBox="0 0 213.058 237">
  <g id="Grupo_1072973" data-name="Grupo 1072973" transform="translate(-379.099 -5754)">
    <g id="Grupo_1072643" data-name="Grupo 1072643" transform="translate(157.943 7.446)">
      <g id="Grupo_83096" data-name="Grupo 83096" transform="translate(206.49 5633.336)">
        <path id="Trazado_116014" data-name="Trazado 116014" d="M209.834,253.524c-13.443-13.652-31.578-22.767-34.417-35.216-5.391-23.636-14.513-50.174-60.541-51.833s-62.614,14.513-73.948,48.792-23.083,20.871-25.985,56.117,17.495,35.79,35.661,45.2c41.077,21.273,125.613,39.289,159.23,6.157A45.038,45.038,0,0,0,220.2,307.047C230.21,281.728,221.915,265.794,209.834,253.524Z" transform="translate(0 -5.523)" fill="#dc40ed"/>
        <g id="Grupo_83095" data-name="Grupo 83095" transform="translate(17.468 125.217)">
          <g id="Grupo_83093" data-name="Grupo 83093" transform="translate(0 32.046)">
            <path id="Trazado_116015" data-name="Trazado 116015" d="M36.445,173.673h-2.7v-2.7a1.349,1.349,0,0,0-2.7,0v2.7h-2.7a1.349,1.349,0,1,0,0,2.7h2.7v2.7a1.349,1.349,0,0,0,2.7,0v-2.7h2.7a1.349,1.349,0,1,0,0-2.7" transform="translate(-27 -169.625)" fill="#fff"/>
            <path id="Trazado_116016" data-name="Trazado 116016" d="M205.945,180.173h-2.7v-2.7a1.349,1.349,0,1,0-2.7,0v2.7h-2.7a1.349,1.349,0,1,0,0,2.7h2.7v2.7a1.349,1.349,0,0,0,2.7,0v-2.7h2.7a1.349,1.349,0,0,0,0-2.7" transform="translate(-27.026 -186.92)" fill="#fff"/>
            <path id="Trazado_116017" data-name="Trazado 116017" d="M143.445,376.173h-2.7v-2.7a1.349,1.349,0,0,0-2.7,0v2.7h-2.7a1.349,1.349,0,1,0,0,2.7h2.7v2.7a1.349,1.349,0,0,0,2.7,0v-2.7h2.7a1.349,1.349,0,1,0,0-2.7" transform="translate(-37.748 -189.966)" fill="#fff"/>
          </g>
          <g id="Grupo_83094" data-name="Grupo 83094" transform="translate(143.688 -12)">
            <path id="Trazado_116018" data-name="Trazado 116018" d="M168.548,134a4.048,4.048,0,1,0,4.048,4.048A4.048,4.048,0,0,0,168.548,134" transform="translate(-164.5 -134)" fill="#efd860"/>
            <path id="Trazado_116019" data-name="Trazado 116019" d="M233,300a4.5,4.5,0,1,0,4.5,4.5A4.5,4.5,0,0,0,233,300" transform="translate(-170.929 -150.675)" fill="#efd860"/>
          </g>
        </g>
      </g>
    </g>
    <g id="cita" transform="translate(400.799 5776.5)">
      <g id="Grupo_1072667" data-name="Grupo 1072667" transform="translate(2.806 2.478)">
        <path id="Trazado_818861" data-name="Trazado 818861" d="M73.511,22.96c0-6.608-6.894-10.98-11.5-12.715A39.244,39.244,0,0,0,48.7,7.5c-7.91,0-15.178,4.409-15.178,4.409L12.236,33.2S7.827,40.463,7.827,48.374a39.241,39.241,0,0,0,2.745,13.306c1.734,4.61,6.107,11.5,12.715,11.5S73.511,29.567,73.511,22.96Z" transform="translate(-7.827 -7.5)" fill="#a29aa5"/>
        <path id="Trazado_818862" data-name="Trazado 818862" d="M61.735,91.958c-2.564-7.782-.544-12.7,8.651-21.9s14.117-11.215,21.9-8.651l1.553.512c1,.33,6.824,1.918,6.824,1.918l8.735,34-11.23,11.23-34-8.735s-1.407-5.272-1.918-6.824Z" transform="translate(-43.238 -42.911)" fill="#766d78"/>
        <path id="Trazado_818863" data-name="Trazado 818863" d="M349.563,53.379H385.7v36.14h-36.14Z" transform="translate(-236.657 -38.221)" fill="#e1dee2"/>
        <path id="Trazado_818864" data-name="Trazado 818864" d="M422.74,60.024,401.454,38.737c-4.885,4.885-4.83,11.605-1.17,17.116,0,0-1.544,4.7-.451,5.791L405.638,59s6.429,4.828,17.1,1.025Z" transform="translate(-268.857 -28.417)" fill="#c38778"/>
        <path id="Trazado_818865" data-name="Trazado 818865" d="M422.208,88.166c-3.362,3.362-6.8,3.233-9.288,2.249a5.013,5.013,0,0,0-5.407,1.071l-3.256,3.256c1.093,1.093,5.791-.451,5.791-.451,5.511,3.661,12.231,3.716,17.117-1.17Z" transform="translate(-273.28 -61.515)" fill="#9d6c6c"/>
        <path id="Trazado_818866" data-name="Trazado 818866" d="M371.226,7.5A31.964,31.964,0,0,0,357.7,10.439c-6.189,2.8-15.974,4.453-23.774,12.254-.8.8-6.142,12.31-6.142,12.31l4.524,2.432,10.883-8.24c8.476-6.417,12.934-1.517,21.421-.031,0,7.471,3.878,13.548-2.013,19.439C379.418,39.4,385.74,28.53,381.869,11.908A15,15,0,0,0,371.226,7.5Z" transform="translate(-222.074 -7.5)" fill="#766d78"/>
        <path id="Trazado_818867" data-name="Trazado 818867" d="M371.339,59.309c-7.37-1.222-14.407-3.683-20.3,2.209l-9.561,9.561,4.3,2.31,8.568-8.568c5.891-5.891,11.969-2.013,19.439-2.013C373.783,60.424,373.327,59.639,371.339,59.309Z" transform="translate(-231.244 -41.145)" fill="#544f56"/>
        <path id="Trazado_818868" data-name="Trazado 818868" d="M435.067,20.844c0,16.281-4.567,21.993-19.269,36.695l-8.568,8.568L412.09,75.2l6.129-1.341s15.716-13.295,18.318-28.848a31.963,31.963,0,0,0,2.939-13.524A15.006,15.006,0,0,0,435.067,20.844Z" transform="translate(-275.272 -16.435)" fill="#544f56"/>
        <path id="Trazado_818869" data-name="Trazado 818869" d="M191.963,132.166c0-14.74-6.581-30.951-17.55-41.92a59.477,59.477,0,0,0-91.006,73.385c1.009,1.872-1.189,3.684.007,5.429s5.788,3.423,7.159,5.027a58.19,58.19,0,0,0,41.92,17.55,59.47,59.47,0,0,0,59.47-59.47Z" transform="translate(-53.695 -53.368)" fill="#bfe2e6"/>
        <path id="Trazado_818870" data-name="Trazado 818870" d="M203.286,119.119a59.495,59.495,0,0,1,7.549,66.052H185.5v25.337a59.5,59.5,0,0,1-66.052-7.549c2.383,2.789,5.021,8.659,7.875,10.966s5.927,1.052,9.181,2.806a59.6,59.6,0,0,0,51.316,2.409c7.064-2.988,16.734-4,22.091-9.325s6.4-14.973,9.427-22.017a59.523,59.523,0,0,0-16.05-68.679Z" transform="translate(-82.568 -82.241)" fill="#94ccd4"/>
        <path id="Trazado_818871" data-name="Trazado 818871" d="M273.79,110.552l-7.538,2.011-4.829,18.257c-1.143,4.265,5.3,8.887,8.425,5.765l5.164-5.164c2.639-2.639.566-5.4-1.222-8.494V110.552Z" transform="translate(-177.548 -76.505)" fill="#c38778"/>
        <path id="Trazado_818872" data-name="Trazado 818872" d="M293.2,114.666a7.185,7.185,0,0,0,.138,5.636,19.008,19.008,0,0,0,1.479,2.626l3.554-7.392-3.554-4.983Z" transform="translate(-198.576 -76.505)" fill="#9d6c6c"/>
        <path id="Trazado_818873" data-name="Trazado 818873" d="M308.3,20.74c5.436-4.855,10.267-8.191,14.931-10.3a31.114,31.114,0,0,0-12.3-2.939c-8.468,0-16.964,5.48-29.276,19.77a9.958,9.958,0,0,0-2.086,3.951L276.31,43.559l6.1,1.636,4.82-12.259c9.927-9.927,15.109-14.205,21.069-12.2Z" transform="translate(-187.606 -7.501)" fill="#faf8f8"/>
        <path id="Trazado_818874" data-name="Trazado 818874" d="M320.675,46.59c-5.96-2.009-11.141,2.269-21.068,12.2l-4.82,12.259,4.987,1.336,4.788-9.961,10.572-10.572q2.882-2.882,5.54-5.258Z" transform="translate(-199.979 -33.351)" fill="#e1dee2"/>
        <path id="Trazado_818875" data-name="Trazado 818875" d="M368.472,179.178l-9.912,1.963c-2.085-3.587-5.935-6.942-9.165-3.712l-5.164,5.164a4.96,4.96,0,0,0-1.181,1.852l16.412,3.3,12.313-3.3Z" transform="translate(-232.297 -120.413)" fill="#c38778"/>
        <path id="Trazado_818876" data-name="Trazado 818876" d="M342.489,201.307a4.968,4.968,0,0,0,4.686,6.608H367.91l3.3-6.608Z" transform="translate(-231.734 -137.275)" fill="#9d6c6c"/>
        <path id="Trazado_818877" data-name="Trazado 818877" d="M440.352,118.347a101.579,101.579,0,0,1-10.826,12.424l-2.76,8.377L420,140.489v5.267l12.531,3.3C440.05,142.117,448.023,122.6,440.352,118.347Z" transform="translate(-283.82 -81.724)" fill="#faf8f8"/>
        <path id="Trazado_818878" data-name="Trazado 818878" d="M440.352,102.039c2.5,4.481-1.293,20.466-8.816,27.409H420v6.608H432.79a4.915,4.915,0,0,0,3.6-1.551c6.735-7.245,11.63-19.405,11.63-28.214a31.108,31.108,0,0,0-2.939-12.3A47.476,47.476,0,0,1,440.352,102.039Z" transform="translate(-283.82 -65.417)" fill="#e1dee2"/>
        <path id="Trazado_818879" data-name="Trazado 818879" d="M54.994,33.38l-2.643-2.643L31.064,52.024l2.643,2.643c4.885,4.885,10.944,5.491,16.456,1.83,0,0,4.154,2.089,6.452-.209s.209-6.452.209-6.452C60.485,44.325,59.879,38.266,54.994,33.38Z" transform="translate(-23.387 -23.06)" fill="#ebae9d"/>
        <path id="Trazado_818880" data-name="Trazado 818880" d="M21.667,34.813a5.507,5.507,0,0,0,1.6-4.3,5.518,5.518,0,0,0,7.576-7.576,5.507,5.507,0,0,0,4.3-1.6c1.947-1.947,1.652-6.161-2.74-10.446a15.052,15.052,0,0,0-21.18,21.179c4.284,4.392,8.5,4.686,10.446,2.74Z" transform="translate(-7.828 -7.501)" fill="#e592b8"/>
        <path id="Trazado_818881" data-name="Trazado 818881" d="M43.667,29.866a5.525,5.525,0,0,0,0-7.813L40.4,18.784q-.542-.542-1.123-1.016a5.515,5.515,0,0,1-4.863,8.741,5.518,5.518,0,0,1-7.576,7.576A5.515,5.515,0,0,1,18.1,38.947q.475.58,1.016,1.123l3.269,3.269a5.52,5.52,0,0,0,9.413-4.3,5.518,5.518,0,0,0,7.576-7.576A5.505,5.505,0,0,0,43.667,29.866Z" transform="translate(-14.703 -14.376)" fill="#de5ca3"/>
        <path id="Trazado_818882" data-name="Trazado 818882" d="M34.648,167.476,32.4,160.652c2.249,6.824-12.36,13.038-16.263,3.58a49.852,49.852,0,0,0,6.107,11.5l46.076.475-9.345-4.672Z" transform="translate(-13.391 -110.052)" fill="#ffcdbe"/>
        <path id="Trazado_818883" data-name="Trazado 818883" d="M37.4,209.713a4.914,4.914,0,0,0,3.6,1.55H62.716c2.644,2.644,5.644,4.865,9.452,4.865,6.115,0,8.528-5.4,8.528-9.345l-.95-.475H34.62A35.993,35.993,0,0,0,37.4,209.713Z" transform="translate(-25.768 -140.623)" fill="#ebae9d"/>
        <path id="Trazado_818884" data-name="Trazado 818884" d="M164.559,15.809c9.458,3.9,3.245,18.512-3.58,16.263l6.824,2.249,4.062,24.326,4.672,9.345-.475-46.076a49.863,49.863,0,0,0-11.5-6.106Z" transform="translate(-110.379 -13.064)" fill="#ffcdbe"/>
        <path id="Trazado_818885" data-name="Trazado 818885" d="M211.591,62.388V40.674a4.915,4.915,0,0,0-1.55-3.6,36,36,0,0,0-3.406-2.779V79.418l.475.95c3.944,0,9.345-2.412,9.345-8.528C216.455,68.032,214.235,65.032,211.591,62.388Z" transform="translate(-140.951 -25.44)" fill="#ebae9d"/>
        <path id="Trazado_818886" data-name="Trazado 818886" d="M159.738,143.508l-15.9,15.9a3.3,3.3,0,0,0,0,4.672,6.6,6.6,0,0,0,1.573,1.164l10.468-9.7,9.7-10.468a6.609,6.609,0,0,0-1.164-1.573A3.3,3.3,0,0,0,159.738,143.508Z" transform="translate(-98.252 -97.924)" fill="#a29aa5"/>
        <path id="Trazado_818887" data-name="Trazado 818887" d="M158.33,169.233,169.56,158a6.609,6.609,0,0,0,1.164-7.772L150.558,170.4A6.609,6.609,0,0,0,158.33,169.233Z" transform="translate(-103.401 -103.074)" fill="#766d78"/>
        <path id="Trazado_818888" data-name="Trazado 818888" d="M263.035,275.105l12.4-12.4a2.478,2.478,0,0,1,3.5,0l20.35,20.35a2.478,2.478,0,0,1,0,3.5l-12.4,12.4a2.478,2.478,0,0,1-3.5,0l-20.35-20.35A2.478,2.478,0,0,1,263.035,275.105Z" transform="translate(-178.231 -177.903)" fill="#faf8f8"/>
        <path id="Trazado_818889" data-name="Trazado 818889" d="M347.169,290.693a4.956,4.956,0,0,0-3.5,8.46l5.164,5.164c2.64,2.639,7.482,2.244,9.165-3.712l3.3-5.1-3.3-4.81Z" transform="translate(-231.729 -197.129)" fill="#ffcdbe"/>
        <path id="Trazado_818890" data-name="Trazado 818890" d="M299.48,343.337a4.956,4.956,0,0,0-8.46,3.5v10.824l5.155,3.065,4.757-3.065c5.72-.737,6.352-6.525,3.712-9.165Z" transform="translate(-197.456 -231.402)" fill="#ffcdbe"/>
        <path id="Trazado_818891" data-name="Trazado 818891" d="M333.652,354.611l21.287-21.287s4.409-7.268,4.409-15.178c0-14.01-9.319-25.9-9.319-25.9a4.914,4.914,0,0,0-3.6-1.55H323.72v4.81l16.684,8.406a65.864,65.864,0,0,1-36.168,36.168l-8.406-16.684h-4.81V346.1a4.915,4.915,0,0,0,1.552,3.6s11.892,9.317,25.9,9.317C326.384,359.02,333.652,354.611,333.652,354.611Z" transform="translate(-197.456 -197.129)" fill="#a29aa5"/>
        <path id="Trazado_818892" data-name="Trazado 818892" d="M353.174,295.385s6.015,8.589,6.015,22.6c0,7.911-4.409,15.178-4.409,15.178l-21.287,21.287s-7.268,4.409-15.178,4.409c-14.01,0-22.6-6.013-22.6-6.013,7.245,6.735,19.405,11.63,28.214,11.63,7.91,0,15.178-4.409,15.178-4.409L360.4,338.779s4.409-7.268,4.409-15.178C364.8,314.791,359.909,302.63,353.174,295.385Z" transform="translate(-200.601 -200.271)" fill="#766d78"/>
        <path id="Trazado_818893" data-name="Trazado 818893" d="M345.494,307.633l-12.025-2.381v5.1l10.5,2.08v6.608l-6.15,4.344a59.814,59.814,0,0,1-14.108,14.108l-4.344,6.15H312.76l-2.08-10.5h-5.1l2.381,12.025a4.956,4.956,0,0,0,3.278,3.733l2.746.926a65.863,65.863,0,0,0,36.168-36.168l-.926-2.747A4.957,4.957,0,0,0,345.494,307.633Z" transform="translate(-207.205 -206.878)" fill="#766d78"/>
        <path id="Trazado_818894" data-name="Trazado 818894" d="M408.676,386.677c-6.962-6.962-12.262-11.04-19.4-10.931l-12.627,12.672c0,7.548,4.414,13.216,10.743,19.545Z" transform="translate(-254.792 -254.081)" fill="#faf8f8"/>
        <path id="Trazado_818895" data-name="Trazado 818895" d="M389.274,375.751a28.064,28.064,0,0,0-10.327,2.487,26.4,26.4,0,0,0-2.3,10.185A66.036,66.036,0,0,0,389.274,375.751Z" transform="translate(-254.793 -254.085)" fill="#e1dee2"/>
        <path id="Trazado_818896" data-name="Trazado 818896" d="M339.162,428.1l-8.133,3.985,8.374,2.759A32.861,32.861,0,0,1,339.162,428.1Z" transform="translate(-224.247 -289.139)" fill="#766d78"/>
        <path id="Trazado_818897" data-name="Trazado 818897" d="M338.266,402.836a59.39,59.39,0,0,1-10.951,6.15l1.224,6.181h0a65.4,65.4,0,0,0,8.133-3.985,31.638,31.638,0,0,1,1.592-8.347Z" transform="translate(-221.76 -272.221)" fill="#544f56"/>
        <path id="Trazado_818898" data-name="Trazado 818898" d="M435.174,339.076l-2.759-8.374-3.985,8.133a32.834,32.834,0,0,1,6.745.241Z" transform="translate(-289.467 -223.92)" fill="#766d78"/>
        <path id="Trazado_818899" data-name="Trazado 818899" d="M415.5,328.212l-6.181-1.224a59.382,59.382,0,0,1-6.15,10.951,31.631,31.631,0,0,1,8.347-1.591,65.355,65.355,0,0,0,3.985-8.133Z" transform="translate(-272.55 -221.433)" fill="#544f56"/>
        <path id="Trazado_818900" data-name="Trazado 818900" d="M426.009,425.681c8.38-8.38,3.566-17.721-2.313-23.6l-.956-.956c-4.885-4.885-11.605-4.83-17.116-1.17,0,0-4.7-1.544-5.791-.451s.451,5.791.451,5.791c-3.661,5.511-3.716,12.231,1.17,17.116l.956.956C408.287,429.246,417.629,434.061,426.009,425.681Z" transform="translate(-268.857 -268.529)" fill="#ffcdbe"/>
        <path id="Trazado_818901" data-name="Trazado 818901" d="M438.3,416.683l-4.956-4.956a15.052,15.052,0,0,1-21.287,21.287l4.956,4.956A15.052,15.052,0,1,0,438.3,416.683Z" transform="translate(-278.503 -278.175)" fill="#ebae9d"/>
        <path id="Trazado_818902" data-name="Trazado 818902" d="M157.058,311.517c-3.213-3.212-7.278-3.455-17.755,2.446l-1.587,5.49,8.013,3.393c-1.745,1.745-1.979,5.05-1.1,7.988l9.994,1.828-1.981-3.484c6.515-11.57,5.713-15.272,4.416-17.661Z" transform="translate(-94.802 -209.57)" fill="#ebae9d"/>
        <path id="Trazado_818903" data-name="Trazado 818903" d="M175.551,334.547l4.315,2.667v-3.3c6.515-11.57,5.648-14.629,2.436-17.841.446,2.85-.51,6.15-6.714,17.222A1.359,1.359,0,0,0,175.551,334.547Z" transform="translate(-120.046 -214.121)" fill="#c38778"/>
        <path id="Trazado_818904" data-name="Trazado 818904" d="M143.416,322.4c-1.986,1.644-3.455,1.707-4.988,1.232l-.712.02v4.45c2.914.9,6.263.675,8.013-1.075l11.33-11.329C153.594,314.788,149.626,317.26,143.416,322.4Z" transform="translate(-94.802 -213.748)" fill="#c38778"/>
        <path id="Trazado_818905" data-name="Trazado 818905" d="M57.654,320.961c.652,2.177,3.086,9.963,4.108,13.224-10.744,0-24.223-13.232-24.223-24.226l13.915-.38.875-5.49-19.695-9.562s-24.806,19.306-24.806,28.5c0,7.911,4.409,15.178,4.409,15.178l10.643,10.643S41.923,360.6,48.7,360.6c6.539,0,18.893-13.307,23.737-21.787l-9.105-18.686Z" transform="translate(-7.827 -199.696)" fill="#e592b8"/>
        <path id="Trazado_818906" data-name="Trazado 818906" d="M98.153,343.939l-4.315.637,7.471,15.334a2.476,2.476,0,0,1-.361,2.716,176.863,176.863,0,0,1-12.695,13.245c-4.994,4.582-7.172-3.447-3.791-7.518l8.26-8.26-.456-1.454a59.737,59.737,0,0,1-24.223-24.226l13.2,4.089.712-4.469-8.928-2.766a4.956,4.956,0,0,0-4.971,1.23l-9.726,9.726c-4.071,3.382-.394,12.5,6.619,19.51L53.385,373.3l10.643,10.643s7.268,4.409,15.178,4.409c9.193,0,28.5-24.806,28.5-24.806Z" transform="translate(-38.333 -224.15)" fill="#de5ca3"/>
        <path id="Trazado_818907" data-name="Trazado 818907" d="M54.439,428.324c10.929-10.929,6.556-19.94,4.787-22.021l2.745-6.8c-1.093-1.093-5.791.451-5.791.451-5.511-3.661-12.231-3.716-17.116,1.17C39.064,401.126,54.107,428.656,54.439,428.324Z" transform="translate(-28.744 -268.529)" fill="#ebae9d"/>
        <path id="Trazado_818908" data-name="Trazado 818908" d="M85.427,409.72s1.544-4.7.451-5.791l-3.256,3.256a5.013,5.013,0,0,0-1.071,5.407c.984,2.493,1.113,5.927-2.249,9.288l-4.535,4.535,3.579,6.332,5.912-5.912C89.143,421.951,89.087,415.231,85.427,409.72Z" transform="translate(-52.65 -272.953)" fill="#c38778"/>
        <path id="Trazado_818909" data-name="Trazado 818909" d="M30.88,425.681c5.078-5.078,2.846-13.266-.126-18.147a77.257,77.257,0,0,0-8.8-10.211l-9.715,9.715a15.052,15.052,0,0,0,0,21.287C17.6,431.778,24.359,432.2,30.88,425.681Z" transform="translate(-7.828 -268.53)" fill="#c38778"/>
        <path id="Trazado_818910" data-name="Trazado 818910" d="M39.688,428.229c1.707,3.713,2.892,10.756-2.187,15.835-4.632,4.632-10.419,7.6-16.331,4.956a15.052,15.052,0,0,0,21.287,0C47.536,443.941,45.151,436.079,39.688,428.229Z" transform="translate(-16.762 -289.225)" fill="#9d6c6c"/>
      </g>
      <g id="Grupo_1072668" data-name="Grupo 1072668" transform="translate(0.328 0)">
        <path id="Trazado_818911" data-name="Trazado 818911" d="M12.622,73.254A7.412,7.412,0,0,0,18.039,75.6h5.568a62.652,62.652,0,0,0-.648,8.984c0,1.308.041,2.631.123,3.932a2.478,2.478,0,0,0,2.471,2.324c.052,0,.1,0,.157,0A2.478,2.478,0,0,0,28.029,88.2c-.075-1.2-.113-2.418-.113-3.623a57.608,57.608,0,0,1,.708-8.984H38.747c2.537,2.4,5.942,4.865,10.46,4.865,6.7,0,10.514-5.358,10.961-10.752l9.868-9.868c5.394-.447,10.753-4.257,10.753-10.961,0-4.518-2.463-7.923-4.865-10.46V28.3a57.6,57.6,0,0,1,8.984-.708,2.478,2.478,0,0,0,0-4.956,62.642,62.642,0,0,0-8.984.648V17.712a7.41,7.41,0,0,0-2.341-5.417C66.044,5.286,53.188,0,43.679,0A26.935,26.935,0,0,0,39,.428a2.478,2.478,0,0,0,.864,4.88,21.962,21.962,0,0,1,3.813-.352,36.945,36.945,0,0,1,12.66,2.693c4.295,2.01,2.812,6.721,2.463,7.664-1.1,2.98-3.216,4.282-4.62,3.82l-1.553-.512a2.478,2.478,0,0,0-1.552,4.707l6.955,2.292.485,2.9A61.785,61.785,0,0,0,28.85,58.189l-2.9-.485-2.292-6.955A2.478,2.478,0,1,0,18.949,52.3l.512,1.553c.462,1.4-.84,3.516-3.82,4.62-.942.349-5.654,1.832-7.664-2.463a36.952,36.952,0,0,1-2.693-12.66,28.441,28.441,0,0,1,2.6-11l3.489,3.489A15.432,15.432,0,0,0,22.319,40.76a15.134,15.134,0,0,0,7.489-2.077c2.31.778,5.667,1.085,7.978-1.225s2-5.667,1.225-7.978c3.545-6.257,2.524-13.065-2.846-18.434L30.253,5.135A17.529,17.529,0,0,0,4.206,28.524,34.663,34.663,0,0,0,.328,43.352c0,9.509,5.285,22.365,12.294,29.9Zm37.519-7.538,15.9-15.9a.827.827,0,0,1,1.168,0,4.13,4.13,0,0,1,0,5.841l-11.23,11.23a4.135,4.135,0,0,1-5.841,0,.827.827,0,0,1,0-1.168ZM63.449,17.035a12.838,12.838,0,0,0,.9-5.471,36.586,36.586,0,0,1,5.861,4.36,2.441,2.441,0,0,1,.76,1.788V39.426a2.478,2.478,0,0,0,.726,1.752c2.9,2.9,4.139,5.2,4.139,7.7a5.414,5.414,0,0,1-2.5,4.792,9.272,9.272,0,0,0,.048-.937,9.026,9.026,0,0,0-2.661-6.424,5.766,5.766,0,0,0-4.484-1.672l-3.559-21.31a2.477,2.477,0,0,0-1.668-1.945l-.268-.088a10.982,10.982,0,0,0,2.711-4.259ZM59.368,33.618l2.27,13.593-14.1,14.1L33.946,59.04A56.823,56.823,0,0,1,59.368,33.618ZM12.812,63.947a13.2,13.2,0,0,0,4.55-.827,11.1,11.1,0,0,0,4.267-2.685l.08.242a2.478,2.478,0,0,0,1.945,1.668L44.963,65.9c-.009.131-.019.263-.019.4a5.743,5.743,0,0,0,1.693,4.088A9.072,9.072,0,0,0,54,73a5.415,5.415,0,0,1-4.8,2.508c-2.5,0-4.8-1.238-7.7-4.139a2.477,2.477,0,0,0-1.752-.726H18.039a2.441,2.441,0,0,1-1.788-.76,36.713,36.713,0,0,1-4.418-5.957c.311.017.637.025.979.025ZM34.023,30.355c.442.9.971,2.885.258,3.6s-2.7.184-3.586-.252a2.479,2.479,0,0,0-2.485.15c-3.44,2.286-6.97,2.548-10.217.831a8,8,0,0,0,3.877-4.312A8,8,0,0,0,30.7,21.543a8,8,0,0,0,4.312-3.877c1.717,3.248,1.454,6.777-.831,10.217a2.5,2.5,0,0,0-.156,2.472ZM8.966,8.639a12.588,12.588,0,0,1,17.782,0l3.267,3.267v0A3.042,3.042,0,0,1,27.646,17.1a2.478,2.478,0,0,0-2.3,3.751,3.04,3.04,0,0,1-4.174,4.174,2.478,2.478,0,0,0-3.751,2.3,3.044,3.044,0,0,1-5.189,2.371h0L8.966,26.421a12.589,12.589,0,0,1,0-17.783Z" transform="translate(-0.328 0)"/>
        <path id="Trazado_818912" data-name="Trazado 818912" d="M331.134,55.447a2.478,2.478,0,1,0,4.651,1.709,41.036,41.036,0,0,0,2.761-13.8,32.62,32.62,0,0,0-2.707-12.274,34.3,34.3,0,0,0,2.707-13.548A17.529,17.529,0,0,0,321.017.009a34.293,34.293,0,0,0-13.55,2.7A32.641,32.641,0,0,0,295.2.009c-9.5,0-18.527,5.977-31.154,20.631a12.509,12.509,0,0,0-2.6,4.934l-8.09,30.586c-1,3.746,1.518,7.172,4.286,8.77,2.956,1.706,6.207,1.467,8.285-.611l5.164-5.164c3.636-3.636,1.437-7.645-.181-10.385l7.286-15.785a56.83,56.83,0,0,1,26.876,26.329l-5.774,1.143c-1.355-1.875-3.651-4.293-6.673-4.686a6.277,6.277,0,0,0-5.4,1.977l-5.164,5.164a7.434,7.434,0,0,0,5.256,12.69h22.946a57.318,57.318,0,0,1,0,17.969H287.3A7.438,7.438,0,0,0,283.49,94.6l-9.167-9.066a4.963,4.963,0,0,0-7.009,0l-12.4,12.4a4.956,4.956,0,0,0,.01,7.018l9.133,9.032a7.427,7.427,0,0,0-1.108,3.94v33.529a7.412,7.412,0,0,0,2.342,5.419c7.538,7.008,20.394,12.293,29.9,12.293a34.662,34.662,0,0,0,14.827-3.878,17.552,17.552,0,0,0,23.391-1.256h0a17.554,17.554,0,0,0,1.256-23.39,34.663,34.663,0,0,0,3.878-14.827c0-9.509-5.286-22.364-12.295-29.9a7.411,7.411,0,0,0-5.417-2.341h-5.567a62.648,62.648,0,0,0,0-17.969h5.567a7.413,7.413,0,0,0,5.418-2.342,41.551,41.551,0,0,0,4.856-6.455,2.478,2.478,0,1,0-4.216-2.6,36.626,36.626,0,0,1-4.269,5.685,2.441,2.441,0,0,1-1.789.761H310.519V63.286l4.773-.946a2.477,2.477,0,0,0,1.872-1.655l2.577-7.819A89.87,89.87,0,0,0,332.7,37.139a23.986,23.986,0,0,1,.89,6.22,36.626,36.626,0,0,1-2.457,12.088Zm-34.1,75.717,2.984,2.984a12.578,12.578,0,0,0,.572,4.753,17.627,17.627,0,0,0-2.215,6.085c-2.32-4.2-2.887-8.456-1.342-13.822Zm6.488-.521-3-3c4.185-1.274,7.618-1.335,10.818-.23a17.812,17.812,0,0,1,3.278,1.552,17.563,17.563,0,0,0-6.339,2.256,12.571,12.571,0,0,0-4.753-.572Zm-24.287,5.04-1.02-5.149a7.6,7.6,0,0,0,4.384-4.622,7.712,7.712,0,0,0,.309-1.255l11.093-11.093c.13-.026.26-.054.389-.088a8.2,8.2,0,0,0,5.311-4.677l5.357,1.061a56.779,56.779,0,0,1-25.823,25.823Zm-11.333-17.757a2.478,2.478,0,0,1,4.23-1.752l5.164,5.164a3.015,3.015,0,0,1,.613,2.975,3.135,3.135,0,0,1-2.774,1.96h-7.232Zm19.4-19.4h8.347V105.6c-.545,1.712-1.428,2.8-2.507,3.085a2.545,2.545,0,0,1-2.428-.76l-5.164-5.164a2.478,2.478,0,0,1,1.752-4.23ZM270.83,89.052l9.5,9.4a7.308,7.308,0,0,0,1.718,7.815l5.164,5.164a8.145,8.145,0,0,0,1.044.879l-6.586,6.586a7.157,7.157,0,0,0-.865-1.058l-5.164-5.164a7.305,7.305,0,0,0-7.661-1.776l-9.559-9.454Zm-2.162,64.192a2.441,2.441,0,0,1-.76-1.789V131.229h5.4l2.908,14.685a2.478,2.478,0,0,0,1.655,1.872l8.377,2.76a2.478,2.478,0,0,0,1.551-4.707l-7-2.308-.56-2.828a62.159,62.159,0,0,0,11.2-6.758c-1.3,10.439,4.536,17.441,11.271,24.176l3.489,3.489a28.439,28.439,0,0,1-11,2.6C286.936,164.212,275.283,159.395,268.668,153.245Zm61.241,7.285a12.589,12.589,0,0,1-17.783,0l-5.912-5.912c-3.763-3.763-4.092-9.125-.858-13.993a2.477,2.477,0,0,0,.29-2.145,17.277,17.277,0,0,1-.67-2.883,17.352,17.352,0,0,1,2.882.671,2.479,2.479,0,0,0,2.145-.29c4.869-3.234,10.23-2.905,13.993.857l5.912,5.912A12.589,12.589,0,0,1,329.909,160.529Zm-7.285-61.241c6.15,6.615,10.968,18.268,10.968,26.528a28.441,28.441,0,0,1-2.6,11l-3.567-3.564c-5.074-5.064-9.512-8.822-14.465-10.532a19.73,19.73,0,0,0-9.5-.831,62.159,62.159,0,0,0,6.629-11.037l2.828.56,2.308,7a2.478,2.478,0,1,0,4.707-1.551l-2.76-8.377a2.478,2.478,0,0,0-1.872-1.655l-14.685-2.908v-5.4h20.227A2.442,2.442,0,0,1,322.624,99.288ZM267.577,55.651l-5.164,5.164c-.7.7-2.04-.025-2.3-.177-1.353-.781-2.239-2.215-1.975-3.2l4.193-15.854,5.723,1.534-2.2,4.756a2.478,2.478,0,0,0,.1,2.277c.174.3.351.6.526.9C268.4,54.271,268.4,54.83,267.577,55.651ZM274.013,30.2l-3.852,8.346L263.6,36.791l2.631-9.949a7.528,7.528,0,0,1,1.568-2.967C282.154,7.212,289.7,4.965,295.2,4.965a24.007,24.007,0,0,1,6.215.888c-4.972,3.064-10.2,7.436-16.12,13.358L274.553,29.449A2.465,2.465,0,0,0,274.013,30.2Zm16.254,4.163,6.451-6.451a9.339,9.339,0,0,1,2.145-1.647,18.465,18.465,0,0,0,1.732,4.006c-.975,3.471-.81,5.888.494,7.192s3.721,1.469,7.192.494a18.523,18.523,0,0,0,4,1.736,9.348,9.348,0,0,1-1.645,2.142l-6.45,6.45A61.651,61.651,0,0,0,290.268,34.366Zm15.089-5.814a14,14,0,0,1-1.564-3.137c1.152.08,2.432.274,3.9.514,1.34.218,2.8.456,4.339.591.134,1.539.372,3,.591,4.339.24,1.473.434,2.753.513,3.9A14.01,14.01,0,0,1,310,33.2a2.479,2.479,0,0,0-2.145-.29,17.266,17.266,0,0,1-2.884.67,17.338,17.338,0,0,1,.671-2.882,2.476,2.476,0,0,0-.29-2.145Zm.207,42.1H287.306a2.478,2.478,0,0,1-1.752-4.23l5.164-5.164c.647-.647,1.062-.593,1.26-.567,1.158.151,2.807,1.7,4.01,3.772a2.478,2.478,0,0,0,2.624,1.185l6.952-1.377v6.38ZM315.82,49.782a2.48,2.48,0,0,0-.6.977l-2.308,7-2.828.56a62.392,62.392,0,0,0-3.1-5.814l7.165-7.165c5.042-5.042,4.156-10.481,3.374-15.28a36.794,36.794,0,0,1-.635-5.911,2.478,2.478,0,0,0-2.478-2.478,36.76,36.76,0,0,1-5.911-.635c-4.8-.782-10.238-1.668-15.28,3.374l-7.166,7.166q-2.02-1.22-4.143-2.291l6.827-6.509.042-.041C301.563,9.947,310.6,4.965,321.017,4.965a12.574,12.574,0,0,1,12.574,12.574c0,10.414-4.982,19.454-17.771,32.243Z" transform="translate(-169.602 -0.006)"/>
        <path id="Trazado_818913" data-name="Trazado 818913" d="M86.547,336.856h-.068a57.585,57.585,0,0,1-13.53-1.242,7.39,7.39,0,0,0-.576-1.678L64.758,318.31c5.7-10.393,5.981-15.083,1.4-19.669-4.328-4.328-9.7-3.973-19.583,1.406l-15.719-7.632a7.451,7.451,0,0,0-7.954.934C4.244,308.636.328,316.885.328,321.114a34.665,34.665,0,0,0,3.878,14.827,17.53,17.53,0,0,0,24.647,24.647,34.665,34.665,0,0,0,14.827,3.878c4.229,0,12.478-3.915,27.764-22.565a7.366,7.366,0,0,0,.879-1.351,62.369,62.369,0,0,0,12.586,1.284c.566,0,1.139-.008,1.705-.023a2.478,2.478,0,0,0-.065-4.955ZM60.393,315.961l-6.427.95a4.62,4.62,0,0,1,.854-3.433l9.319-9.319C64.8,305.934,64.271,308.9,60.393,315.961Zm-16.068-.8a13.58,13.58,0,0,0,4.689.618,13.762,13.762,0,0,0,.583,4.638c.3,1,.96,3.137,1.69,5.481a57.221,57.221,0,0,1-12.42-12.428Zm16.189-14.39-9.2,9.2a4.643,4.643,0,0,1-3.436.848l1.02-6.4C55.518,300.816,58.7,300.3,60.515,300.775ZM8.966,355.827a12.588,12.588,0,0,1,0-17.782l7.957-7.956A70.957,70.957,0,0,1,23.7,338.2c3.871,5.561,7.542,13.133,3.051,17.623A12.589,12.589,0,0,1,8.966,355.827Zm24.552-19.9c2.912,4.385,2.935,9.169.163,12.825-.448-3.58-2.164-7.985-5.915-13.374a68.722,68.722,0,0,0-5.024-6.3,12.67,12.67,0,0,1,6.13,2.2,2.479,2.479,0,0,0,2.145.29,17.269,17.269,0,0,1,2.884-.67,17.342,17.342,0,0,1-.671,2.882,2.475,2.475,0,0,0,.29,2.145ZM67.61,338.76c-10.331,12.605-19.725,20.75-23.93,20.75a28.439,28.439,0,0,1-11-2.6l3.489-3.489c5.18-5.18,5.96-12.617,2.115-19.221.974-3.471.809-5.887-.494-7.19s-3.721-1.469-7.19-.495a16.1,16.1,0,0,0-12.227-1.953,2.478,2.478,0,0,0-3.191.265l-7.292,7.292a28.442,28.442,0,0,1-2.6-11c0-4.206,8.146-13.6,20.754-23.932a2.482,2.482,0,0,1,2.649-.309l15.222,7.391-.848,5.321-11.923-3.693a2.476,2.476,0,0,0-2.316.461l-8.038,6.677a2.478,2.478,0,0,0,3.166,3.813l7-5.818.483.15A62.167,62.167,0,0,0,53.612,333.35l.154.493-5.815,7a2.478,2.478,0,1,0,3.812,3.166l6.677-8.038a2.479,2.479,0,0,0,.458-2.325c-.029-.094-2.34-7.462-3.714-11.906l5.347-.79,7.385,15.157a2.48,2.48,0,0,1-.308,2.652Z" transform="translate(-0.328 -195.307)"/>
      </g>
    </g>
  </g>
</svg>
