<svg xmlns="http://www.w3.org/2000/svg" xmlns:xlink="http://www.w3.org/1999/xlink" width="294.844" height="175.937" viewBox="0 0 294.844 175.937">
  <defs>
    <filter id="Elipse_4719" x="203.5" y="76" width="64" height="63" filterUnits="userSpaceOnUse">
      <feOffset dy="1" input="SourceAlpha"/>
      <feGaussianBlur stdDeviation="5.5" result="blur"/>
      <feFlood flood-color="#fff" flood-opacity="0.902"/>
      <feComposite operator="in" in2="blur"/>
      <feComposite in="SourceGraphic"/>
    </filter>
    <filter id="Elipse_4719-2" x="20.5" y="0" width="45" height="45" filterUnits="userSpaceOnUse">
      <feOffset dy="1" input="SourceAlpha"/>
      <feGaussianBlur stdDeviation="5.5" result="blur-2"/>
      <feFlood flood-color="#fff" flood-opacity="0.902"/>
      <feComposite operator="in" in2="blur-2"/>
      <feComposite in="SourceGraphic"/>
    </filter>
  </defs>
  <g id="_2" data-name="2" transform="translate(-180.156 -825.5)">
    <g id="Grupo_1072490" data-name="Grupo 1072490" transform="translate(0 -5)">
      <g id="Grupo_1072477" data-name="Grupo 1072477" transform="translate(180.156 854.952)">
        <rect id="dispositivos-informaticos-tecnologia-nube-conectados-al-almacenamiento-digital-centro-datos-traves-internet-iot-smart-home-communication-laptop-tablet-phone-home-devices-with-online" width="294.844" height="118.358" rx="12" transform="translate(0 33.127)" fill="#f3bcf9"/>
        <path id="Trazado_771199" data-name="Trazado 771199" d="M19.42,12.138H11.106L18.813,0H9.1L0,18.206H7.161L0,35.2Z" transform="translate(274.812 86.123) rotate(-1)" fill="#dc40ed"/>
        <path id="Trazado_771202" data-name="Trazado 771202" d="M1.494,0,0,1.331A3.669,3.669,0,0,0,3.683,3.36c1.129.045,1.79.114,2.244.991s.258,1.709-.127,3.1c-.408,1.48-.916,3.321.078,5.242a3.669,3.669,0,0,0,3.683,2.029c1.129.045,1.79.113,2.244.991s.258,1.709-.126,3.1c-.408,1.48-.916,3.321.078,5.242a3.669,3.669,0,0,0,3.683,2.029c1.13.045,1.791.114,2.245.991l1.494-1.331A3.668,3.668,0,0,0,15.5,23.722c-1.129-.045-1.791-.114-2.245-.991s-.258-1.709.126-3.1c.408-1.48.916-3.321-.078-5.242a3.669,3.669,0,0,0-3.683-2.029c-1.129-.045-1.79-.114-2.244-.991s-.258-1.709.127-3.1c.408-1.48.916-3.321-.078-5.242A3.668,3.668,0,0,0,3.739.991C2.609.946,1.948.877,1.494,0" transform="translate(31.556 0) rotate(90)" fill="#ff06cc"/>
        <ellipse id="Elipse_4727" data-name="Elipse 4727" cx="6.165" cy="5.871" rx="6.165" ry="5.871" transform="translate(4.474 95.007)" fill="#fff"/>
        <ellipse id="Elipse_4729" data-name="Elipse 4729" cx="2.959" cy="3.107" rx="2.959" ry="3.107" transform="translate(230.462 82.892)" fill="#fff"/>
      </g>
      <g id="Grupo_1072486" data-name="Grupo 1072486" transform="translate(192.125 849.529)">
        <g id="Grupo_1072487" data-name="Grupo 1072487" transform="translate(0 0)">
          <path id="Trazado_818654" data-name="Trazado 818654" d="M18.681,28.61A18.681,18.681,0,1,0,37.362,47.291,18.681,18.681,0,0,0,18.681,28.61m0,30.625A11.944,11.944,0,1,1,30.625,47.291,11.944,11.944,0,0,1,18.681,59.235" transform="translate(0 24.338)" fill="#dc40ed"/>
          <path id="Trazado_818655" data-name="Trazado 818655" d="M162.529,43.9h-2.217a18.262,18.262,0,0,0-2.273-5.488l1.568-1.567a1.731,1.731,0,0,0,0-2.448l-3.483-3.483a1.73,1.73,0,0,0-2.447,0l-1.568,1.568a18.26,18.26,0,0,0-5.488-2.273V27.993a1.731,1.731,0,0,0-1.731-1.731h-4.925a1.731,1.731,0,0,0-1.731,1.731V30.21a18.26,18.26,0,0,0-5.488,2.273l-1.568-1.568a1.731,1.731,0,0,0-2.448,0L125.248,34.4a1.731,1.731,0,0,0,0,2.448l1.568,1.567a18.241,18.241,0,0,0-2.273,5.488h-2.217a1.731,1.731,0,0,0-1.731,1.731v4.926a1.731,1.731,0,0,0,1.731,1.731h2.217a18.255,18.255,0,0,0,2.272,5.488l-1.567,1.567a1.731,1.731,0,0,0,0,2.448l3.483,3.483a1.731,1.731,0,0,0,2.448,0l1.568-1.567a18.26,18.26,0,0,0,5.488,2.273V68.2a1.731,1.731,0,0,0,1.731,1.731h4.925a1.731,1.731,0,0,0,1.731-1.731V65.979a18.26,18.26,0,0,0,5.488-2.273l1.568,1.567a1.73,1.73,0,0,0,2.447,0l3.483-3.483a1.731,1.731,0,0,0,0-2.448l-1.567-1.567a18.276,18.276,0,0,0,2.272-5.488h2.217a1.731,1.731,0,0,0,1.731-1.731V45.632a1.731,1.731,0,0,0-1.731-1.731m-20.1,12.98a8.786,8.786,0,1,1,8.786-8.786,8.786,8.786,0,0,1-8.786,8.786" transform="translate(92.05 -26.262)" fill="#dc40ed"/>
          <rect id="Rectángulo_376303" data-name="Rectángulo 376303" width="11.208" height="2.008" transform="translate(254.516 50.38)" fill="#dc40ed"/>
          <rect id="Rectángulo_376304" data-name="Rectángulo 376304" width="16.9" height="2.007" transform="translate(254.516 54.897)" fill="#dc40ed"/>
          <rect id="Rectángulo_376305" data-name="Rectángulo 376305" width="20.841" height="2.008" transform="translate(254.516 59.413)" fill="#dc40ed"/>
          <rect id="Rectángulo_376306" data-name="Rectángulo 376306" width="7.968" height="2.008" transform="translate(254.516 63.929)" fill="#dc40ed"/>
          <rect id="Rectángulo_376307" data-name="Rectángulo 376307" width="37.439" height="3.905" transform="translate(149.342 62.351)" fill="#dc40ed" stroke="#289df2" stroke-miterlimit="10" stroke-width="1.128"/>
          <rect id="Rectángulo_376308" data-name="Rectángulo 376308" width="23.198" height="1.148" transform="translate(149.77 63.43)" fill="#dc40ed"/>
        </g>
      </g>
      <g id="Grupo_1072488" data-name="Grupo 1072488" transform="translate(400.485 921.976)">
        <g transform="matrix(1, 0, 0, 1, -220.33, -91.48)" filter="url(#Elipse_4719)">
          <g id="Elipse_4719-3" data-name="Elipse 4719" transform="translate(220 91.5)" fill="none" stroke="#fff" stroke-width="6">
            <ellipse cx="15.5" cy="15" rx="15.5" ry="15" stroke="none"/>
            <ellipse cx="15.5" cy="15" rx="12.5" ry="12" fill="none"/>
          </g>
        </g>
      </g>
      <g id="Grupo_1072489" data-name="Grupo 1072489" transform="translate(217.56 846)">
        <g transform="matrix(1, 0, 0, 1, -37.4, -15.5)" filter="url(#Elipse_4719-2)">
          <g id="Elipse_4719-4" data-name="Elipse 4719" transform="translate(37 15.5)" fill="none" stroke="#fff" stroke-width="6">
            <circle cx="6" cy="6" r="6" stroke="none"/>
            <circle cx="6" cy="6" r="3" fill="none"/>
          </g>
        </g>
      </g>
    </g>
    <g id="jugador-contra-jugador" transform="translate(260.156 846)">
      <g id="Grupo_1072849" data-name="Grupo 1072849" transform="translate(3.142 3.142)">
        <g id="Grupo_1072831" data-name="Grupo 1072831">
          <path id="Trazado_819235" data-name="Trazado 819235" d="M2,2H70.538V74.822H2Z" transform="translate(-2 -2)" fill="#e6e9ed"/>
        </g>
        <g id="Grupo_1072832" data-name="Grupo 1072832" transform="translate(59.971 55.687)">
          <path id="Trazado_819236" data-name="Trazado 819236" d="M30,28H98.538v72.822H30Z" transform="translate(-30 -28)" fill="#e6e9ed"/>
        </g>
        <g id="Grupo_1072833" data-name="Grupo 1072833" transform="translate(17.135 8.567)">
          <path id="Trazado_819237" data-name="Trazado 819237" d="M44.269,17.437a15.815,15.815,0,0,1-6.254,12.594l-.193.15H37.8a2.929,2.929,0,0,0,.043-.621V22.535A2.171,2.171,0,0,0,36.387,20.5a22.124,22.124,0,0,1-8.674-5.355l-.578-.578-.578.578A22.124,22.124,0,0,1,17.882,20.5a2.171,2.171,0,0,0-1.456,2.035V29.56a2.93,2.93,0,0,0,.043.621h-.021l-.193-.15A15.825,15.825,0,0,1,10,17.437,11.421,11.421,0,0,1,21.437,6H32.832A11.421,11.421,0,0,1,44.269,17.437Z" transform="translate(-10 -6)" fill="#b27946"/>
        </g>
        <g id="Grupo_1072834" data-name="Grupo 1072834" transform="translate(12.851 47.12)">
          <path id="Trazado_819238" data-name="Trazado 819238" d="M50.836,35.823V49.7H8V35.823a10.738,10.738,0,0,1,8.653-10.559L22.993,24l.236.45a6.914,6.914,0,0,0,12.38,0l.236-.45,6.34,1.264a10.738,10.738,0,0,1,8.653,10.559Z" transform="translate(-8 -24)" fill="#ff826e"/>
        </g>
        <g id="Grupo_1072835" data-name="Grupo 1072835" transform="translate(77.106 64.255)">
          <path id="Trazado_819239" data-name="Trazado 819239" d="M44.254,56.031A15.815,15.815,0,0,1,38,43.437,11.421,11.421,0,0,1,49.437,32H67.986a4.3,4.3,0,0,1,4.284,4.284,12.731,12.731,0,0,1-3.77,9.081,13.139,13.139,0,0,1-2.656,2.056,12.742,12.742,0,0,1-6.425,1.713h-.557a6.573,6.573,0,0,1-3-.707,5.2,5.2,0,0,1-2.87-4.648.729.729,0,0,1,.021-.214h-.021l-4.519,1.821a6.4,6.4,0,0,0-4.048,5.954V55.56a2.93,2.93,0,0,0,.043.621h-.021Z" transform="translate(-38 -32)" fill="#b27946"/>
        </g>
        <g id="Grupo_1072836" data-name="Grupo 1072836" transform="translate(65.69 102.807)">
          <path id="Trazado_819240" data-name="Trazado 819240" d="M82.639,61.823V75.7H32.67A11.426,11.426,0,0,0,44.086,64.286V53.234a10.8,10.8,0,0,1,4.369-1.97L54.8,50l.236.45a6.914,6.914,0,0,0,12.38,0l.236-.45,6.34,1.264a10.738,10.738,0,0,1,8.653,10.559Z" transform="translate(-32.67 -50)" fill="#5cd6b3"/>
        </g>
        <g id="Grupo_1072837" data-name="Grupo 1072837" transform="translate(27.844 41.423)">
          <path id="Trazado_819241" data-name="Trazado 819241" d="M16.114,21.34l5.312,1.414a10.636,10.636,0,0,0,5.312-1.414l1.114,5.7-.236.45a6.914,6.914,0,0,1-12.38,0L15,27.037Z" transform="translate(-15 -21.34)" fill="#f0d0b4"/>
        </g>
        <g id="Grupo_1072838" data-name="Grupo 1072838" transform="translate(23.56 17.135)">
          <path id="Trazado_819242" data-name="Trazado 819242" d="M34.418,17.968v7.025a2.929,2.929,0,0,1-.043.621A10.681,10.681,0,0,1,23.709,35.7L18.4,34.288a10.493,10.493,0,0,1-5.355-8.674A2.93,2.93,0,0,1,13,24.993V17.968a2.171,2.171,0,0,1,1.456-2.035,22.124,22.124,0,0,0,8.674-5.355L23.709,10l.578.578a22.124,22.124,0,0,0,8.674,5.355A2.171,2.171,0,0,1,34.418,17.968Z" transform="translate(-13 -10)" fill="#f0d0b4"/>
        </g>
        <g id="Grupo_1072839" data-name="Grupo 1072839" transform="translate(87.815 97.11)">
          <path id="Trazado_819243" data-name="Trazado 819243" d="M44.114,47.34a10.686,10.686,0,0,0,10.623,0l1.114,5.7-.236.45a6.914,6.914,0,0,1-12.38,0L43,53.037Z" transform="translate(-43 -47.34)" fill="#f0d0b4"/>
        </g>
        <g id="Grupo_1072840" data-name="Grupo 1072840" transform="translate(83.531 75.821)">
          <path id="Trazado_819244" data-name="Trazado 819244" d="M49.567,37.614a5.2,5.2,0,0,0,2.87,4.648,6.573,6.573,0,0,0,3,.707h.557a12.742,12.742,0,0,0,6.425-1.713v8.139a10.756,10.756,0,0,1-3.127,7.582,10.7,10.7,0,0,1-18.248-6.961A2.929,2.929,0,0,1,41,49.394V45.175a6.4,6.4,0,0,1,4.048-5.954L49.567,37.4h.021A.729.729,0,0,0,49.567,37.614Z" transform="translate(-41 -37.4)" fill="#f0d0b4"/>
        </g>
        <g id="Grupo_1072841" data-name="Grupo 1072841" transform="translate(51.404 4.284)">
          <path id="Trazado_819245" data-name="Trazado 819245" d="M90.255,4h-51.4A12.861,12.861,0,0,0,26,16.851v18.57A11.408,11.408,0,0,0,37.416,46.836a11.2,11.2,0,0,0,5.7-1.542,11.33,11.33,0,0,0,3.448-3.02,9.951,9.951,0,0,1,7.989-4.005h20a9.951,9.951,0,0,1,7.989,4.005,11.427,11.427,0,0,0,20.561-6.854V16.851A12.861,12.861,0,0,0,90.255,4Z" transform="translate(-26 -4)" fill="#aab2bd"/>
        </g>
        <g id="Grupo_1072842" data-name="Grupo 1072842" transform="translate(0 85.673)">
          <path id="Trazado_819246" data-name="Trazado 819246" d="M66.255,42h-51.4A12.861,12.861,0,0,0,2,54.851v18.57A11.408,11.408,0,0,0,13.416,84.836a11.2,11.2,0,0,0,5.7-1.542,11.33,11.33,0,0,0,3.448-3.02,9.951,9.951,0,0,1,7.989-4.005h20a9.951,9.951,0,0,1,7.989,4.005,11.427,11.427,0,0,0,20.561-6.854V54.851A12.861,12.861,0,0,0,66.255,42Z" transform="translate(-2 -42)" fill="#aab2bd"/>
        </g>
        <g id="Grupo_1072843" data-name="Grupo 1072843" transform="translate(59.971 12.851)">
          <path id="Trazado_819247" data-name="Trazado 819247" d="M47.135,14.425v4.284a2.148,2.148,0,0,1-2.142,2.142H42.851v2.142a2.148,2.148,0,0,1-2.142,2.142H36.425a2.148,2.148,0,0,1-2.142-2.142V20.851H32.142A2.148,2.148,0,0,1,30,18.709V14.425a2.148,2.148,0,0,1,2.142-2.142h2.142V10.142A2.148,2.148,0,0,1,36.425,8h4.284a2.148,2.148,0,0,1,2.142,2.142v2.142h2.142A2.148,2.148,0,0,1,47.135,14.425Z" transform="translate(-30 -8)" fill="#ff826e"/>
        </g>
        <g id="Grupo_1072844" data-name="Grupo 1072844" transform="translate(85.673 12.851)">
          <path id="Trazado_819248" data-name="Trazado 819248" d="M42,8h8.567v8.567H42Z" transform="translate(-42 -8)" fill="#fcd770"/>
        </g>
        <g id="Grupo_1072845" data-name="Grupo 1072845" transform="translate(85.673 4.284)">
          <path id="Trazado_819249" data-name="Trazado 819249" d="M42,4h8.567v8.567H42Z" transform="translate(-42 -4)" fill="#fcd770"/>
        </g>
        <g id="Grupo_1072846" data-name="Grupo 1072846" transform="translate(34.269 94.24)">
          <path id="Trazado_819250" data-name="Trazado 819250" d="M18,46h8.567v8.567H18Z" transform="translate(-18 -46)" fill="#fcd770"/>
        </g>
        <g id="Grupo_1072847" data-name="Grupo 1072847" transform="translate(34.269 85.673)">
          <path id="Trazado_819251" data-name="Trazado 819251" d="M18,42h8.567v8.567H18Z" transform="translate(-18 -42)" fill="#fcd770"/>
        </g>
        <g id="Grupo_1072848" data-name="Grupo 1072848" transform="translate(8.567 94.24)">
          <path id="Trazado_819252" data-name="Trazado 819252" d="M23.135,52.425v4.284a2.148,2.148,0,0,1-2.142,2.142H18.851v2.142a2.148,2.148,0,0,1-2.142,2.142H12.425a2.148,2.148,0,0,1-2.142-2.142V58.851H8.142A2.148,2.148,0,0,1,6,56.709V52.425a2.148,2.148,0,0,1,2.142-2.142h2.142V48.142A2.148,2.148,0,0,1,12.425,46h4.284a2.148,2.148,0,0,1,2.142,2.142v2.142h2.142A2.148,2.148,0,0,1,23.135,52.425Z" transform="translate(-6 -46)" fill="#ff826e"/>
        </g>
      </g>
      <g id="Grupo_1072850" data-name="Grupo 1072850" transform="translate(1 1)">
        <path id="Trazado_819253" data-name="Trazado 819253" d="M22.135,49.284A4.288,4.288,0,0,0,17.851,45H13.567a4.288,4.288,0,0,0-4.284,4.284A4.288,4.288,0,0,0,5,53.567v4.284a4.288,4.288,0,0,0,4.284,4.284,4.288,4.288,0,0,0,4.284,4.284h4.284a4.288,4.288,0,0,0,4.284-4.284,4.288,4.288,0,0,0,4.284-4.284V53.567A4.288,4.288,0,0,0,22.135,49.284Zm0,8.567H17.851v4.284H13.567V57.851H9.284V53.567h4.284V49.284h4.284v4.284l4.284,0Z" transform="translate(3.567 49.24)"/>
        <path id="Trazado_819254" data-name="Trazado 819254" d="M17,53h4.284v4.284H17Z" transform="translate(17.269 58.375)"/>
        <path id="Trazado_819255" data-name="Trazado 819255" d="M21,53h4.284v4.284H21Z" transform="translate(21.836 58.375)"/>
        <path id="Trazado_819256" data-name="Trazado 819256" d="M27,53h4.284v4.284H27Z" transform="translate(28.687 58.375)"/>
        <path id="Trazado_819257" data-name="Trazado 819257" d="M31,53h4.284v4.284H31Z" transform="translate(33.255 58.375)"/>
        <ellipse id="Elipse_9763" data-name="Elipse 9763" cx="2" cy="2.5" rx="2" ry="2.5" transform="translate(60 94)"/>
        <circle id="Elipse_9764" data-name="Elipse 9764" cx="2" cy="2" r="2" transform="translate(60 103)"/>
        <circle id="Elipse_9765" data-name="Elipse 9765" cx="2" cy="2" r="2" transform="translate(56 99)"/>
        <ellipse id="Elipse_9766" data-name="Elipse 9766" cx="2.5" cy="2" rx="2.5" ry="2" transform="translate(64 99)"/>
        <path id="Trazado_819258" data-name="Trazado 819258" d="M46.135,11.284A4.288,4.288,0,0,0,41.851,7H37.567a4.288,4.288,0,0,0-4.284,4.284A4.288,4.288,0,0,0,29,15.567v4.284a4.288,4.288,0,0,0,4.284,4.284,4.288,4.288,0,0,0,4.284,4.284h4.284a4.288,4.288,0,0,0,4.284-4.284,4.288,4.288,0,0,0,4.284-4.284V15.567A4.288,4.288,0,0,0,46.135,11.284Zm0,8.567H41.851v4.284H37.567V19.851H33.284V15.567h4.284V11.284h4.284v4.284l4.284,0Z" transform="translate(30.971 5.851)"/>
        <path id="Trazado_819259" data-name="Trazado 819259" d="M76.818,46.978A7.9,7.9,0,0,1,83.1,43.836h19.992a7.9,7.9,0,0,1,6.284,3.14,13.563,13.563,0,0,0,24.415-8.137V20.276A15.012,15.012,0,0,0,118.8,5.284H73.822V1H1V78.106H60.971v8.567H15.993A15.012,15.012,0,0,0,1,101.666v18.563a13.564,13.564,0,0,0,24.415,8.139,7.9,7.9,0,0,1,6.284-3.142H51.691a7.9,7.9,0,0,1,6.284,3.14,13.618,13.618,0,0,0,10.85,5.427h64.968V56.687H73.822v-6.82A13.5,13.5,0,0,0,76.818,46.978Zm52.691-26.7V38.84A9.281,9.281,0,0,1,112.8,44.406a12.2,12.2,0,0,0-9.709-4.853H83.1a12.2,12.2,0,0,0-9.709,4.856A9.282,9.282,0,0,1,56.687,38.84V20.276A10.721,10.721,0,0,1,67.4,9.567H86.673V26.7H99.524V9.567H118.8a10.721,10.721,0,0,1,10.709,10.709ZM47.334,24.183a20.111,20.111,0,0,1-7.822-4.836l-2.1-2.1-2.1,2.1a20.1,20.1,0,0,1-7.82,4.834,4.279,4.279,0,0,0-2.932,4.065v2.219a13.738,13.738,0,0,1-2.142-7.325,9.291,9.291,0,0,1,9.289-9.289H43.115A9.287,9.287,0,0,1,52.4,23.142a13.731,13.731,0,0,1-2.142,7.323V28.246a4.276,4.276,0,0,0-2.928-4.063Zm9.353,49.639H18.135V62.089a8.627,8.627,0,0,1,6.94-8.46l4.811-.962a9.057,9.057,0,0,0,15.055,0l4.811.962a8.626,8.626,0,0,1,6.937,8.46Zm-15.1-23.909a4.747,4.747,0,0,1-8.353,0l.454-2.347a12.76,12.76,0,0,0,7.443,0Zm-4.177-6.076a8.576,8.576,0,0,1-8.567-8.567V28.246a24.4,24.4,0,0,0,8.567-4.988,24.429,24.429,0,0,0,8.567,4.988v7.023A8.576,8.576,0,0,1,37.411,43.836Zm53.546-25.7H95.24v4.284H90.957Zm4.284-4.284H90.957V9.567H95.24ZM5.284,5.284H67.4A15.013,15.013,0,0,0,53.55,14.538c-.163-.2-.289-.416-.463-.6a13.607,13.607,0,0,0-9.972-4.367H31.707A13.575,13.575,0,0,0,18.135,23.14a18.048,18.048,0,0,0,6.554,13.84,12.844,12.844,0,0,0,5.031,8.559l-.563,2.9-4.924.985a12.913,12.913,0,0,0-10.381,12.66V73.822H5.284Zm34.269,94.24h4.284v4.284H39.553Zm4.284-4.284H39.553V90.957h4.284ZM61.4,125.8a12.2,12.2,0,0,0-9.709-4.853H31.7A12.2,12.2,0,0,0,21.99,125.8a9.282,9.282,0,0,1-16.706-5.569V101.666A10.721,10.721,0,0,1,15.993,90.957H35.269v17.135H48.12V90.957H67.4a10.721,10.721,0,0,1,10.709,10.709v18.563A9.281,9.281,0,0,1,61.4,125.8Zm20.99-5.567v-9.842a8.65,8.65,0,0,1,2.654-1.071l4.811-.962a9.059,9.059,0,0,0,15.057,0l4.811.962a8.626,8.626,0,0,1,6.937,8.46v11.733H78.69a13.494,13.494,0,0,0,3.7-9.281Zm2.18-34.008a13.755,13.755,0,0,1-2.18-7.394,9.291,9.291,0,0,1,9.289-9.289h18.555a2.143,2.143,0,0,1,2.142,2.142,10.721,10.721,0,0,1-10.709,10.709H101.1a4.528,4.528,0,0,1-2.028-.48,3.055,3.055,0,0,1,0-5.466l1.409-.7-1.917-3.832-1.409.7a7.283,7.283,0,0,0-3.834,4.813l-3.405,1.362a8.506,8.506,0,0,0-5.346,7.434Zm4.245.518a4.257,4.257,0,0,1,2.692-3.975l2.129-.85a7.283,7.283,0,0,0,3.519,3.827,8.84,8.84,0,0,0,3.945.932h.565a14.9,14.9,0,0,0,4.284-.632v4.913a8.567,8.567,0,1,1-17.135,0Zm8.567,17.068a12.786,12.786,0,0,0,3.72-.555l.454,2.347a4.745,4.745,0,0,1-8.351,0l.454-2.347A12.811,12.811,0,0,0,97.382,103.807Zm32.127-42.836v68.538h-8.567V117.776a12.917,12.917,0,0,0-10.381-12.66l-4.924-.985-.563-2.9a12.831,12.831,0,0,0,5.16-10.272V83.966a14.979,14.979,0,0,0,6.425-12.285,6.433,6.433,0,0,0-6.425-6.425H91.678A13.575,13.575,0,0,0,78.106,78.827a18.048,18.048,0,0,0,6.554,13.84,12.844,12.844,0,0,0,5.031,8.559l-.563,2.9-4.922.985a12.627,12.627,0,0,0-1.816.523v-3.973A15.012,15.012,0,0,0,67.4,86.673H65.255V78.106h8.567V60.971ZM69.538,73.822H60.971V62.089A12.917,12.917,0,0,0,50.59,49.429l-4.924-.985-.563-2.9a12.835,12.835,0,0,0,5.031-8.559,17.839,17.839,0,0,0,2.27-2.225V38.84A13.58,13.58,0,0,0,65.968,52.4a13.408,13.408,0,0,0,3.57-.5Z" transform="translate(-1 -1)"/>
        <path id="Trazado_819260" data-name="Trazado 819260" d="M41,15h4.284v4.284H41Z" transform="translate(44.673 14.986)"/>
        <path id="Trazado_819261" data-name="Trazado 819261" d="M45,15h4.284v4.284H45Z" transform="translate(49.24 14.986)"/>
        <path id="Trazado_819262" data-name="Trazado 819262" d="M51,15h4.284v4.284H51Z" transform="translate(56.091 14.986)"/>
        <path id="Trazado_819263" data-name="Trazado 819263" d="M55,15h4.284v4.284H55Z" transform="translate(60.658 14.986)"/>
        <ellipse id="Elipse_9767" data-name="Elipse 9767" cx="2.5" cy="2" rx="2.5" ry="2" transform="translate(111 13)"/>
        <circle id="Elipse_9768" data-name="Elipse 9768" cx="2.5" cy="2.5" r="2.5" transform="translate(111 21)"/>
        <circle id="Elipse_9769" data-name="Elipse 9769" cx="2" cy="2" r="2" transform="translate(107 17)"/>
        <circle id="Elipse_9770" data-name="Elipse 9770" cx="2" cy="2" r="2" transform="translate(116 17)"/>
      </g>
    </g>
  </g>
</svg>
