<svg xmlns="http://www.w3.org/2000/svg" width="85" height="93" viewBox="0 0 85 93">
  <g id="Grupo_1072659" data-name="Grupo 1072659" transform="translate(7140 5980)">
    <circle id="Elipse_9713" data-name="Elipse 9713" cx="42.5" cy="42.5" r="42.5" transform="translate(-7140 -5980)" fill="#dc40ed"/>
    <g id="cita" transform="translate(-7134.7 -5960.838)">
      <g id="Grupo_1072667" data-name="Grupo 1072667" transform="translate(1.409 1.082)">
        <path id="Trazado_818861" data-name="Trazado 818861" d="M36.5,14.248c0-2.884-3.009-4.793-5.021-5.55a17.13,17.13,0,0,0-5.808-1.2,14.567,14.567,0,0,0-6.625,1.924L9.751,18.716a14.567,14.567,0,0,0-1.924,6.625,17.128,17.128,0,0,0,1.2,5.808c.757,2.012,2.666,5.021,5.55,5.021S36.5,17.132,36.5,14.248Z" transform="translate(-7.827 -7.5)" fill="#a29aa5"/>
        <path id="Trazado_818862" data-name="Trazado 818862" d="M61.157,74.165c-1.119-3.4-.238-5.545,3.776-9.559s6.162-4.9,9.559-3.776l.678.223c.437.144,2.979.837,2.979.837l3.813,14.842-4.9,4.9L62.218,77.822s-.614-2.3-.837-2.979Z" transform="translate(-53.084 -52.756)" fill="#766d78"/>
        <path id="Trazado_818863" data-name="Trazado 818863" d="M349.563,53.379h15.775V69.154H349.563Z" transform="translate(-300.28 -46.763)" fill="#e1dee2"/>
        <path id="Trazado_818864" data-name="Trazado 818864" d="M408.6,48.029l-9.292-9.292a5.7,5.7,0,0,0-.51,7.471s-.674,2.051-.2,2.528l2.534-1.155s2.806,2.107,7.465.447Z" transform="translate(-341.433 -34.232)" fill="#c38778"/>
        <path id="Trazado_818865" data-name="Trazado 818865" d="M412.092,88.166a3.578,3.578,0,0,1-4.054.982,2.188,2.188,0,0,0-2.36.468l-1.421,1.421c.477.477,2.528-.2,2.528-.2a5.7,5.7,0,0,0,7.471-.511Z" transform="translate(-347.086 -76.533)" fill="#9d6c6c"/>
        <path id="Trazado_818866" data-name="Trazado 818866" d="M346.747,7.5a13.952,13.952,0,0,0-5.9,1.283c-2.7,1.221-6.972,1.944-10.377,5.349-.35.35-2.681,5.373-2.681,5.373l1.975,1.061,4.75-3.6c3.7-2.8,5.646-.662,9.35-.013,0,3.261,1.693,5.913-.879,8.485,7.341-4.018,10.1-8.762,8.411-16.017A6.549,6.549,0,0,0,346.747,7.5Z" transform="translate(-281.643 -7.5)" fill="#766d78"/>
        <path id="Trazado_818867" data-name="Trazado 818867" d="M354.513,58.428c-3.217-.533-6.289-1.608-8.86.964l-4.174,4.174,1.876,1.008,3.74-3.74c2.572-2.572,5.224-.879,8.485-.879C355.58,58.914,355.381,58.572,354.513,58.428Z" transform="translate(-293.362 -50.499)" fill="#544f56"/>
        <path id="Trazado_818868" data-name="Trazado 818868" d="M419.381,20.844c0,7.107-1.993,9.6-8.411,16.017l-3.74,3.74,2.121,3.969,2.675-.585s6.86-5.8,8-12.592a13.952,13.952,0,0,0,1.283-5.9A6.55,6.55,0,0,0,419.381,20.844Z" transform="translate(-349.632 -18.92)" fill="#544f56"/>
        <path id="Trazado_818869" data-name="Trazado 818869" d="M126.8,100.516a26.905,26.905,0,0,0-7.66-18.3,25.961,25.961,0,0,0-39.724,32.032c.44.817-.519,1.608,0,2.37s2.526,1.494,3.125,2.194a25.4,25.4,0,0,0,18.3,7.66A25.958,25.958,0,0,0,126.8,100.516Z" transform="translate(-66.448 -66.121)" fill="#bfe2e6"/>
        <path id="Trazado_818870" data-name="Trazado 818870" d="M156.042,119.119a25.969,25.969,0,0,1,3.295,28.832H148.277V159.01a25.969,25.969,0,0,1-28.831-3.3c1.04,1.217,2.191,3.779,3.437,4.786s2.587.459,4.008,1.225a26.017,26.017,0,0,0,22.4,1.052c3.083-1.3,7.3-1.745,9.643-4.07s2.794-6.536,4.115-9.61a25.981,25.981,0,0,0-7.006-29.978Z" transform="translate(-103.349 -103.022)" fill="#94ccd4"/>
        <path id="Trazado_818871" data-name="Trazado 818871" d="M266.746,110.552l-3.29.878-2.108,7.969c-.5,1.862,2.315,3.879,3.678,2.517l2.254-2.254c1.152-1.152.247-2.356-.533-3.708v-5.4Z" transform="translate(-224.736 -95.691)" fill="#c38778"/>
        <path id="Trazado_818872" data-name="Trazado 818872" d="M292.915,112.348a3.136,3.136,0,0,0,.06,2.46,8.3,8.3,0,0,0,.645,1.146l1.551-3.227-1.551-2.175Z" transform="translate(-251.612 -95.691)" fill="#9d6c6c"/>
        <path id="Trazado_818873" data-name="Trazado 818873" d="M290.275,13.28a26.209,26.209,0,0,1,6.517-4.5A13.581,13.581,0,0,0,291.424,7.5c-3.7,0-7.4,2.392-12.779,8.63a4.347,4.347,0,0,0-.911,1.725L276.31,23.24l2.664.714,2.1-5.351c4.333-4.333,6.595-6.2,9.2-5.323Z" transform="translate(-237.591 -7.501)" fill="#faf8f8"/>
        <path id="Trazado_818874" data-name="Trazado 818874" d="M306.087,46.317c-2.6-.877-4.863.99-9.2,5.323l-2.1,5.351,2.177.583,2.09-4.348,4.615-4.615q1.258-1.258,2.418-2.3Z" transform="translate(-253.404 -40.538)" fill="#e1dee2"/>
        <path id="Trazado_818875" data-name="Trazado 818875" d="M354.147,177.458l-4.326.857c-.91-1.566-2.591-3.03-4-1.62l-2.254,2.254a2.165,2.165,0,0,0-.516.809l7.164,1.442,5.375-1.442Z" transform="translate(-294.707 -151.807)" fill="#c38778"/>
        <path id="Trazado_818876" data-name="Trazado 818876" d="M342.332,201.307a2.168,2.168,0,0,0,2.045,2.884h9.051l1.442-2.884Z" transform="translate(-293.988 -173.357)" fill="#9d6c6c"/>
        <path id="Trazado_818877" data-name="Trazado 818877" d="M428.881,118.347a44.338,44.338,0,0,1-4.725,5.423l-1.2,3.657-2.955.585v2.3l5.47,1.442C428.749,128.722,432.23,120.2,428.881,118.347Z" transform="translate(-360.556 -102.361)" fill="#faf8f8"/>
        <path id="Trazado_818878" data-name="Trazado 818878" d="M428.881,97.505c1.089,1.956-.565,8.933-3.848,11.964H420v2.884h5.584a2.145,2.145,0,0,0,1.573-.677,20.4,20.4,0,0,0,5.076-12.315,13.578,13.578,0,0,0-1.283-5.368A20.72,20.72,0,0,1,428.881,97.505Z" transform="translate(-360.556 -81.52)" fill="#e1dee2"/>
        <path id="Trazado_818879" data-name="Trazado 818879" d="M41.509,31.891l-1.154-1.154-9.292,9.292,1.154,1.154a5.358,5.358,0,0,0,7.183.8s1.813.912,2.816-.091.091-2.816.091-2.816A5.358,5.358,0,0,0,41.509,31.891Z" transform="translate(-27.713 -27.386)" fill="#ebae9d"/>
        <path id="Trazado_818880" data-name="Trazado 818880" d="M13.869,19.423a2.4,2.4,0,0,0,.7-1.876,2.409,2.409,0,0,0,3.307-3.307,2.4,2.4,0,0,0,1.876-.7c.85-.85.721-2.689-1.2-4.559a6.57,6.57,0,0,0-9.245,9.245c1.87,1.917,3.71,2.046,4.559,1.2Z" transform="translate(-7.828 -7.501)" fill="#e592b8"/>
        <path id="Trazado_818881" data-name="Trazado 818881" d="M29.258,23.049a2.412,2.412,0,0,0,0-3.41l-1.427-1.427q-.236-.236-.49-.443a2.407,2.407,0,0,1-2.123,3.815,2.409,2.409,0,0,1-3.307,3.307A2.407,2.407,0,0,1,18.1,27.013q.207.253.443.49l1.427,1.427a2.41,2.41,0,0,0,4.109-1.876,2.409,2.409,0,0,0,3.307-3.307A2.4,2.4,0,0,0,29.258,23.049Z" transform="translate(-16.615 -16.287)" fill="#de5ca3"/>
        <path id="Trazado_818882" data-name="Trazado 818882" d="M24.216,163.631l-.982-2.979c.982,2.979-5.395,5.691-7.1,1.563a21.76,21.76,0,0,0,2.666,5.021l20.112.207L34.835,165.4Z" transform="translate(-14.938 -138.565)" fill="#ffcdbe"/>
        <path id="Trazado_818883" data-name="Trazado 818883" d="M35.833,207.794a2.145,2.145,0,0,0,1.573.677h9.478a5.937,5.937,0,0,0,4.126,2.123,3.821,3.821,0,0,0,3.722-4.079l-.415-.207H34.62A15.711,15.711,0,0,0,35.833,207.794Z" transform="translate(-30.756 -177.636)" fill="#ebae9d"/>
        <path id="Trazado_818884" data-name="Trazado 818884" d="M162.542,15.809c4.129,1.7,1.416,8.08-1.563,7.1l2.979.982,1.773,10.618,2.039,4.079-.207-20.112a21.765,21.765,0,0,0-5.021-2.665Z" transform="translate(-138.892 -14.611)" fill="#ffcdbe"/>
        <path id="Trazado_818885" data-name="Trazado 818885" d="M208.8,46.556V37.078a2.145,2.145,0,0,0-.677-1.573,15.716,15.716,0,0,0-1.487-1.213v19.7l.207.415a3.821,3.821,0,0,0,4.079-3.722A5.937,5.937,0,0,0,208.8,46.556Z" transform="translate(-177.964 -30.428)" fill="#ebae9d"/>
        <path id="Trazado_818886" data-name="Trazado 818886" d="M150.232,142.963l-6.941,6.941a1.442,1.442,0,0,0,0,2.039,2.882,2.882,0,0,0,.687.508l4.569-4.233,4.233-4.569a2.885,2.885,0,0,0-.508-.687A1.442,1.442,0,0,0,150.232,142.963Z" transform="translate(-123.394 -123.066)" fill="#a29aa5"/>
        <path id="Trazado_818887" data-name="Trazado 818887" d="M153.95,158.525l4.9-4.9a2.885,2.885,0,0,0,.508-3.392l-8.8,8.8A2.885,2.885,0,0,0,153.95,158.525Z" transform="translate(-129.974 -129.647)" fill="#766d78"/>
        <path id="Trazado_818888" data-name="Trazado 818888" d="M262.626,267.71l5.412-5.412a1.082,1.082,0,0,1,1.53,0l8.883,8.883a1.082,1.082,0,0,1,0,1.53l-5.412,5.412a1.082,1.082,0,0,1-1.53,0l-8.883-8.883A1.082,1.082,0,0,1,262.626,267.71Z" transform="translate(-225.61 -225.282)" fill="#faf8f8"/>
        <path id="Trazado_818889" data-name="Trazado 818889" d="M344.371,290.693a2.163,2.163,0,0,0-1.53,3.693l2.254,2.254c1.152,1.152,3.266.98,4-1.62l1.442-2.227-1.442-2.1Z" transform="translate(-293.982 -249.853)" fill="#ffcdbe"/>
        <path id="Trazado_818890" data-name="Trazado 818890" d="M294.713,342.514a2.163,2.163,0,0,0-3.693,1.53v4.725l2.25,1.338,2.076-1.338a2.366,2.366,0,0,0,1.62-4Z" transform="translate(-250.18 -293.654)" fill="#ffcdbe"/>
        <path id="Trazado_818891" data-name="Trazado 818891" d="M309.629,318.593l9.292-9.292a14.567,14.567,0,0,0,1.924-6.625c0-6.116-4.068-11.306-4.068-11.306a2.145,2.145,0,0,0-1.573-.677h-9.911v2.1l7.282,3.669a28.749,28.749,0,0,1-15.787,15.787l-3.669-7.283h-2.1v9.911a2.145,2.145,0,0,0,.677,1.573s5.191,4.067,11.306,4.067A14.567,14.567,0,0,0,309.629,318.593Z" transform="translate(-250.18 -249.853)" fill="#a29aa5"/>
        <path id="Trazado_818892" data-name="Trazado 818892" d="M320.8,295.385a18.348,18.348,0,0,1,2.625,9.864,14.567,14.567,0,0,1-1.924,6.625l-9.291,9.292a14.568,14.568,0,0,1-6.625,1.924,18.349,18.349,0,0,1-9.864-2.625,20.4,20.4,0,0,0,12.315,5.076,14.567,14.567,0,0,0,6.625-1.924l9.292-9.292a14.566,14.566,0,0,0,1.924-6.625A20.406,20.406,0,0,0,320.8,295.385Z" transform="translate(-254.199 -253.868)" fill="#766d78"/>
        <path id="Trazado_818893" data-name="Trazado 818893" d="M323,306.291l-5.249-1.039v2.227l4.583.908v2.884l-2.684,1.9a26.109,26.109,0,0,1-6.158,6.158l-1.9,2.685h-2.884l-.908-4.584h-2.227l1.039,5.249a2.163,2.163,0,0,0,1.431,1.63l1.2.4a28.749,28.749,0,0,0,15.787-15.787l-.4-1.2A2.164,2.164,0,0,0,323,306.291Z" transform="translate(-262.639 -262.312)" fill="#766d78"/>
        <path id="Trazado_818894" data-name="Trazado 818894" d="M390.627,380.517c-3.039-3.039-5.352-4.819-8.469-4.771l-5.512,5.531c0,3.295,1.927,5.769,4.689,8.531Z" transform="translate(-323.457 -322.639)" fill="#faf8f8"/>
        <path id="Trazado_818895" data-name="Trazado 818895" d="M382.158,375.751a12.25,12.25,0,0,0-4.508,1.086,11.522,11.522,0,0,0-1,4.445A28.823,28.823,0,0,0,382.158,375.751Z" transform="translate(-323.458 -322.644)" fill="#e1dee2"/>
        <path id="Trazado_818896" data-name="Trazado 818896" d="M334.579,428.1l-3.55,1.74,3.655,1.2A14.344,14.344,0,0,1,334.579,428.1Z" transform="translate(-284.419 -367.445)" fill="#766d78"/>
        <path id="Trazado_818897" data-name="Trazado 818897" d="M332.1,402.836a25.925,25.925,0,0,1-4.78,2.685l.534,2.7h0a28.547,28.547,0,0,0,3.55-1.74,13.808,13.808,0,0,1,.695-3.644Z" transform="translate(-281.241 -345.823)" fill="#544f56"/>
        <path id="Trazado_818898" data-name="Trazado 818898" d="M431.373,334.357l-1.2-3.655-1.74,3.55a14.335,14.335,0,0,1,2.944.105Z" transform="translate(-367.773 -284.092)" fill="#766d78"/>
        <path id="Trazado_818899" data-name="Trazado 818899" d="M408.547,327.522l-2.7-.534a25.919,25.919,0,0,1-2.684,4.78,13.806,13.806,0,0,1,3.643-.695,28.523,28.523,0,0,0,1.74-3.55Z" transform="translate(-346.152 -280.914)" fill="#544f56"/>
        <path id="Trazado_818900" data-name="Trazado 818900" d="M410.029,409.7c3.658-3.658,1.556-7.735-1.009-10.3l-.417-.417a5.7,5.7,0,0,0-7.471-.51s-2.051-.674-2.528-.2.2,2.528.2,2.528a5.7,5.7,0,0,0,.51,7.471l.417.417C402.293,411.257,406.371,413.359,410.029,409.7Z" transform="translate(-341.433 -341.105)" fill="#ffcdbe"/>
        <path id="Trazado_818901" data-name="Trazado 818901" d="M423.51,413.89l-2.163-2.163a6.57,6.57,0,0,1-9.292,9.292l2.163,2.163a6.57,6.57,0,0,0,9.292-9.292Z" transform="translate(-353.76 -353.432)" fill="#ebae9d"/>
        <path id="Trazado_818902" data-name="Trazado 818902" d="M146.159,310.252c-1.4-1.4-3.177-1.508-7.75,1.067l-.693,2.4,3.5,1.481a3.633,3.633,0,0,0-.48,3.487l4.362.8-.865-1.521C147.075,312.911,146.725,311.295,146.159,310.252Z" transform="translate(-118.984 -265.752)" fill="#ebae9d"/>
        <path id="Trazado_818903" data-name="Trazado 818903" d="M175.475,324.134l1.883,1.164v-1.442c2.844-5.05,2.465-6.385,1.063-7.788.195,1.244-.223,2.684-2.93,7.517A.593.593,0,0,0,175.475,324.134Z" transform="translate(-151.247 -271.568)" fill="#c38778"/>
        <path id="Trazado_818904" data-name="Trazado 818904" d="M140.2,318.518a2.1,2.1,0,0,1-2.177.538l-.311.009v1.942a3.627,3.627,0,0,0,3.5-.469l4.945-4.945C144.647,315.2,142.914,316.275,140.2,318.518Z" transform="translate(-118.984 -271.092)" fill="#c38778"/>
        <path id="Trazado_818905" data-name="Trazado 818905" d="M29.576,306.065c.284.95,1.347,4.349,1.793,5.772-4.69,0-10.573-5.776-10.573-10.574l6.074-.166.382-2.4-8.6-4.174s-10.828,8.427-10.828,12.44a14.567,14.567,0,0,0,1.924,6.625l4.646,4.646s8.313,5.128,11.271,5.128c2.854,0,8.247-5.808,10.361-9.51L32.055,305.7Z" transform="translate(-7.827 -253.134)" fill="#e592b8"/>
        <path id="Trazado_818906" data-name="Trazado 818906" d="M72.926,336.674l-1.883.278,3.261,6.693a1.081,1.081,0,0,1-.158,1.186,77.2,77.2,0,0,1-5.541,5.781c-2.18,2-3.131-1.5-1.655-3.282l3.605-3.605-.2-.635a26.075,26.075,0,0,1-10.573-10.574l5.763,1.785.311-1.951-3.9-1.207a2.163,2.163,0,0,0-2.17.537l-4.245,4.245c-1.777,1.476-.172,5.455,2.889,8.516l-5.049,5.049,4.646,4.646a14.567,14.567,0,0,0,6.625,1.924c4.013,0,12.441-10.828,12.441-10.828Z" transform="translate(-46.815 -284.386)" fill="#de5ca3"/>
        <path id="Trazado_818907" data-name="Trazado 818907" d="M45.775,410.854c4.77-4.77,2.862-8.7,2.09-9.612l1.2-2.967c-.477-.477-2.528.2-2.528.2a5.7,5.7,0,0,0-7.471.51S45.63,411,45.775,410.854Z" transform="translate(-34.559 -341.105)" fill="#ebae9d"/>
        <path id="Trazado_818908" data-name="Trazado 818908" d="M79.419,406.457s.674-2.051.2-2.528l-1.421,1.421a2.188,2.188,0,0,0-.468,2.36,3.577,3.577,0,0,1-.982,4.054l-1.98,1.98,1.562,2.764,2.58-2.58A5.7,5.7,0,0,0,79.419,406.457Z" transform="translate(-65.113 -346.759)" fill="#c38778"/>
        <path id="Trazado_818909" data-name="Trazado 818909" d="M17.89,409.7c2.217-2.217,1.242-5.791-.055-7.921a33.722,33.722,0,0,0-3.842-4.457l-4.24,4.24a6.57,6.57,0,0,0,0,9.292C12.094,412.362,15.044,412.548,17.89,409.7Z" transform="translate(-7.828 -341.105)" fill="#c38778"/>
        <path id="Trazado_818910" data-name="Trazado 818910" d="M29.254,428.229c.745,1.621,1.262,4.7-.954,6.912-2.022,2.022-4.548,3.315-7.128,2.163a6.57,6.57,0,0,0,9.292,0C32.679,435.087,31.638,431.655,29.254,428.229Z" transform="translate(-19.247 -367.554)" fill="#9d6c6c"/>
      </g>
      <g id="Grupo_1072668" data-name="Grupo 1072668" transform="translate(0.328 0)">
        <path id="Trazado_818911" data-name="Trazado 818911" d="M5.694,31.975A3.235,3.235,0,0,0,8.059,33h2.43a27.347,27.347,0,0,0-.283,3.922c0,.571.018,1.148.054,1.716a1.082,1.082,0,0,0,1.079,1.014l.069,0A1.082,1.082,0,0,0,12.419,38.5c-.033-.523-.049-1.055-.049-1.581A25.146,25.146,0,0,1,12.679,33H17.1a6.658,6.658,0,0,0,4.566,2.123,4.837,4.837,0,0,0,4.784-4.693l4.307-4.308a4.837,4.837,0,0,0,4.693-4.784,6.657,6.657,0,0,0-2.123-4.566V12.351a25.143,25.143,0,0,1,3.922-.309,1.082,1.082,0,0,0,0-2.163,27.343,27.343,0,0,0-3.922.283V7.731A3.235,3.235,0,0,0,32.3,5.366,21.617,21.617,0,0,0,19.251,0a11.757,11.757,0,0,0-2.041.187,1.082,1.082,0,0,0,.377,2.13,9.586,9.586,0,0,1,1.664-.154,16.126,16.126,0,0,1,5.526,1.176c1.875.877,1.228,2.934,1.075,3.345-.482,1.3-1.4,1.869-2.017,1.668l-.678-.223a1.082,1.082,0,0,0-.677,2.054l3.036,1,.212,1.267A26.969,26.969,0,0,0,12.778,25.4l-1.267-.212-1-3.036a1.082,1.082,0,1,0-2.054.677l.224.678c.2.613-.367,1.535-1.668,2.017-.411.152-2.468.8-3.345-1.075a16.13,16.13,0,0,1-1.176-5.526,12.414,12.414,0,0,1,1.135-4.8l1.523,1.523a6.736,6.736,0,0,0,4.778,2.149,6.606,6.606,0,0,0,3.269-.907,3.35,3.35,0,0,0,3.482-.535,3.35,3.35,0,0,0,.535-3.482A6.389,6.389,0,0,0,15.97,4.822l-2.58-2.58a7.651,7.651,0,0,0-11.37,10.21A15.13,15.13,0,0,0,.328,18.923,21.614,21.614,0,0,0,5.694,31.975Zm16.377-3.29,6.942-6.941a.361.361,0,0,1,.51,0,1.8,1.8,0,0,1,0,2.549l-4.9,4.9a1.8,1.8,0,0,1-2.549,0,.361.361,0,0,1,0-.51ZM27.88,7.436a5.6,5.6,0,0,0,.392-2.388,15.97,15.97,0,0,1,2.558,1.9,1.065,1.065,0,0,1,.332.781v9.478a1.082,1.082,0,0,0,.317.765c1.266,1.266,1.807,2.272,1.807,3.361a2.363,2.363,0,0,1-1.092,2.092,4.047,4.047,0,0,0,.021-.409,3.94,3.94,0,0,0-1.161-2.8,2.517,2.517,0,0,0-1.957-.73l-1.553-9.3a1.081,1.081,0,0,0-.728-.849L26.7,9.295A4.794,4.794,0,0,0,27.88,7.436ZM26.1,14.674l.991,5.933-6.154,6.154L15,25.771A24.8,24.8,0,0,1,26.1,14.674ZM5.777,27.913a5.761,5.761,0,0,0,1.986-.361A4.845,4.845,0,0,0,9.626,26.38l.035.106a1.082,1.082,0,0,0,.849.728l9.3,1.553c0,.057-.008.115-.008.173a2.507,2.507,0,0,0,.739,1.784,3.96,3.96,0,0,0,3.215,1.138,2.364,2.364,0,0,1-2.093,1.095c-1.09,0-2.095-.54-3.361-1.807a1.081,1.081,0,0,0-.765-.317H8.059a1.066,1.066,0,0,1-.78-.332A16.025,16.025,0,0,1,5.35,27.9c.136.007.278.011.427.011ZM15.036,13.25c.193.394.424,1.259.113,1.571s-1.176.08-1.565-.11a1.082,1.082,0,0,0-1.084.065,4.168,4.168,0,0,1-4.46.363,3.494,3.494,0,0,0,1.692-1.882A3.493,3.493,0,0,0,13.584,9.4a3.492,3.492,0,0,0,1.882-1.692,4.169,4.169,0,0,1-.363,4.46,1.091,1.091,0,0,0-.068,1.079ZM4.1,3.771a5.5,5.5,0,0,1,7.762,0L13.286,5.2h0a1.328,1.328,0,0,1-1.035,2.265,1.082,1.082,0,0,0-1,1.637,1.327,1.327,0,0,1-1.822,1.822,1.082,1.082,0,0,0-1.637,1,1.329,1.329,0,0,1-2.265,1.035h0L4.1,11.533a5.5,5.5,0,0,1,0-7.762Z" transform="translate(-0.328 0)"/>
        <path id="Trazado_818912" data-name="Trazado 818912" d="M287.174,24.208a1.081,1.081,0,1,0,2.03.746,17.911,17.911,0,0,0,1.205-6.022,14.238,14.238,0,0,0-1.182-5.357,14.971,14.971,0,0,0,1.182-5.914A7.651,7.651,0,0,0,282.758.009a14.969,14.969,0,0,0-5.915,1.18,14.248,14.248,0,0,0-5.356-1.18c-4.147,0-8.087,2.609-13.6,9.005a5.46,5.46,0,0,0-1.137,2.154l-3.531,13.351a3.554,3.554,0,0,0,1.871,3.828,2.924,2.924,0,0,0,3.616-.267l2.254-2.254c1.587-1.587.627-3.337-.079-4.533l3.18-6.89A24.806,24.806,0,0,1,275.794,25.9l-2.52.5a4.626,4.626,0,0,0-2.913-2.045,2.74,2.74,0,0,0-2.359.863l-2.254,2.254a3.245,3.245,0,0,0,2.294,5.539h10.016a25.018,25.018,0,0,1,0,7.843H268.043a3.247,3.247,0,0,0-1.665.45l-4-3.957a2.166,2.166,0,0,0-3.059,0l-5.412,5.412a2.163,2.163,0,0,0,0,3.063L257.9,49.76a3.242,3.242,0,0,0-.484,1.72V66.115a3.235,3.235,0,0,0,1.022,2.365,21.616,21.616,0,0,0,13.052,5.366,15.13,15.13,0,0,0,6.472-1.693,7.661,7.661,0,0,0,10.21-.548h0a7.662,7.662,0,0,0,.548-10.21,15.13,15.13,0,0,0,1.693-6.472,21.615,21.615,0,0,0-5.367-13.052,3.235,3.235,0,0,0-2.365-1.022h-2.43a27.346,27.346,0,0,0,0-7.843h2.43a3.236,3.236,0,0,0,2.365-1.022,18.136,18.136,0,0,0,2.12-2.818,1.082,1.082,0,1,0-1.84-1.137,15.988,15.988,0,0,1-1.864,2.481,1.066,1.066,0,0,1-.781.332h-4.5V27.629l2.084-.413a1.081,1.081,0,0,0,.817-.723l1.125-3.413a39.227,39.227,0,0,0,5.656-6.865,10.471,10.471,0,0,1,.389,2.715,15.988,15.988,0,0,1-1.072,5.276Zm-14.883,33.05,1.3,1.3a5.49,5.49,0,0,0,.25,2.075,7.694,7.694,0,0,0-.967,2.656,7.4,7.4,0,0,1-.586-6.033Zm2.832-.227-1.312-1.312a7.386,7.386,0,0,1,4.722-.1,7.777,7.777,0,0,1,1.431.677,7.666,7.666,0,0,0-2.767.985,5.487,5.487,0,0,0-2.075-.25Zm-10.6,2.2-.445-2.247a3.319,3.319,0,0,0,1.914-2.018,3.365,3.365,0,0,0,.135-.548l4.842-4.842c.057-.012.113-.024.17-.038a3.579,3.579,0,0,0,2.318-2.041l2.338.463A24.784,24.784,0,0,1,264.523,59.23Zm-4.947-7.751a1.082,1.082,0,0,1,1.846-.765l2.254,2.254a1.316,1.316,0,0,1,.268,1.3,1.369,1.369,0,0,1-1.211.855h-3.157Zm8.467-8.467h3.643V46.1a1.821,1.821,0,0,1-1.094,1.346,1.111,1.111,0,0,1-1.06-.332l-2.254-2.254a1.082,1.082,0,0,1,.765-1.846Zm-7.191-4.136,4.147,4.1a3.19,3.19,0,0,0,.75,3.411L268,48.642a3.556,3.556,0,0,0,.456.384L265.583,51.9a3.125,3.125,0,0,0-.377-.462l-2.254-2.254a3.189,3.189,0,0,0-3.344-.775l-4.173-4.127Zm-.944,28.02a1.065,1.065,0,0,1-.332-.781V57.286h2.356l1.27,6.41a1.082,1.082,0,0,0,.723.817l3.656,1.2a1.082,1.082,0,0,0,.677-2.054L265.2,62.656l-.245-1.235a27.132,27.132,0,0,0,4.891-2.95c-.566,4.556,1.98,7.613,4.92,10.553l1.523,1.523a12.413,12.413,0,0,1-4.8,1.136A19.5,19.5,0,0,1,259.908,66.9Zm26.731,3.18a5.5,5.5,0,0,1-7.762,0l-2.58-2.58a4.629,4.629,0,0,1-.375-6.108,1.081,1.081,0,0,0,.127-.936,7.541,7.541,0,0,1-.292-1.259,7.574,7.574,0,0,1,1.258.293,1.082,1.082,0,0,0,.936-.126,4.629,4.629,0,0,1,6.108.374l2.581,2.58A5.5,5.5,0,0,1,286.639,70.075Zm-3.18-26.731a19.5,19.5,0,0,1,4.787,11.579,12.414,12.414,0,0,1-1.136,4.8l-1.557-1.556c-2.215-2.21-4.152-3.851-6.314-4.6a8.612,8.612,0,0,0-4.148-.363,27.133,27.133,0,0,0,2.894-4.818l1.234.244,1.007,3.057a1.082,1.082,0,1,0,2.054-.677l-1.2-3.657a1.082,1.082,0,0,0-.817-.723l-6.41-1.27V43.012h8.829A1.066,1.066,0,0,1,283.459,43.344ZM259.432,24.3l-2.254,2.254c-.3.3-.891-.011-1.005-.077-.591-.341-.977-.967-.862-1.4l1.83-6.92,2.5.669-.958,2.076a1.082,1.082,0,0,0,.045.994c.076.132.153.262.23.391C259.79,23.694,259.79,23.938,259.432,24.3Zm2.809-11.108-1.682,3.643-2.865-.768,1.148-4.343a3.286,3.286,0,0,1,.684-1.3c6.267-7.273,9.563-8.254,11.96-8.254a10.479,10.479,0,0,1,2.713.388,39.814,39.814,0,0,0-7.036,5.831l-4.687,4.469A1.076,1.076,0,0,0,262.241,13.189Zm7.095,1.817,2.816-2.816a4.076,4.076,0,0,1,.936-.719,8.061,8.061,0,0,0,.756,1.748c-.425,1.515-.353,2.57.216,3.139s1.624.641,3.139.216a8.085,8.085,0,0,0,1.748.758,4.08,4.08,0,0,1-.718.935l-2.815,2.815A26.91,26.91,0,0,0,269.336,15.006Zm6.586-2.538a6.113,6.113,0,0,1-.683-1.369c.5.035,1.061.119,1.7.224.585.1,1.222.2,1.894.258.059.672.163,1.309.258,1.894.1.643.189,1.2.224,1.7a6.116,6.116,0,0,1-1.369-.683,1.082,1.082,0,0,0-.936-.127,7.537,7.537,0,0,1-1.259.292,7.571,7.571,0,0,1,.293-1.258,1.081,1.081,0,0,0-.126-.936Zm.09,18.375h-7.97A1.082,1.082,0,0,1,267.278,29l2.254-2.254c.283-.282.464-.259.55-.248.505.066,1.225.743,1.75,1.647a1.082,1.082,0,0,0,1.145.517l3.035-.6v2.785Zm4.477-9.108a1.083,1.083,0,0,0-.262.426l-1.007,3.057-1.234.244a27.239,27.239,0,0,0-1.355-2.538l3.128-3.128c2.2-2.2,1.814-4.575,1.473-6.67a16.06,16.06,0,0,1-.277-2.58,1.082,1.082,0,0,0-1.082-1.082,16.047,16.047,0,0,1-2.58-.277c-2.095-.341-4.469-.728-6.67,1.473l-3.128,3.128q-.882-.533-1.808-1l2.98-2.841.018-.018c5.582-5.582,9.528-7.757,14.074-7.757a5.488,5.488,0,0,1,5.488,5.488c0,4.545-2.175,8.491-7.757,14.074Z" transform="translate(-216.666 -0.008)"/>
        <path id="Trazado_818913" data-name="Trazado 818913" d="M37.962,311.395h-.03a25.134,25.134,0,0,1-5.906-.542,3.225,3.225,0,0,0-.252-.732L28.452,303.3c2.487-4.537,2.611-6.584.609-8.585-1.889-1.889-4.234-1.734-8.548.614L13.652,292a3.252,3.252,0,0,0-3.472.408C2.037,299.077.328,302.677.328,304.523A15.131,15.131,0,0,0,2.021,311a7.652,7.652,0,0,0,10.758,10.758,15.131,15.131,0,0,0,6.472,1.693c1.846,0,5.447-1.709,12.119-9.849a3.214,3.214,0,0,0,.384-.59,27.223,27.223,0,0,0,5.494.56c.247,0,.5,0,.744-.01a1.082,1.082,0,0,0-.029-2.163Zm-11.416-9.12-2.805.414a2.017,2.017,0,0,1,.373-1.5l4.068-4.068C28.47,297.9,28.239,299.19,26.546,302.274Zm-7.014-.348a5.927,5.927,0,0,0,2.047.27,6.007,6.007,0,0,0,.255,2.025c.131.436.419,1.369.738,2.392a24.976,24.976,0,0,1-5.421-5.425Zm7.067-6.281-4.014,4.014a2.027,2.027,0,0,1-1.5.37l.445-2.793C24.418,295.663,25.808,295.439,26.6,295.645ZM4.1,319.675a5.5,5.5,0,0,1,0-7.762l3.473-3.473a30.97,30.97,0,0,1,2.957,3.542c1.689,2.427,3.292,5.732,1.332,7.692A5.5,5.5,0,0,1,4.1,319.675Zm10.717-8.688a4.675,4.675,0,0,1,.071,5.6,13.471,13.471,0,0,0-2.582-5.838A30,30,0,0,0,10.111,308a5.53,5.53,0,0,1,2.676.96,1.082,1.082,0,0,0,.936.126,7.539,7.539,0,0,1,1.259-.292,7.57,7.57,0,0,1-.293,1.258,1.08,1.08,0,0,0,.126.936ZM29.7,312.225c-4.51,5.5-8.61,9.057-10.446,9.057a12.413,12.413,0,0,1-4.8-1.136l1.523-1.523a6.707,6.707,0,0,0,.923-8.39c.425-1.515.353-2.569-.216-3.138s-1.624-.641-3.139-.216a7.027,7.027,0,0,0-5.337-.852,1.081,1.081,0,0,0-1.393.116l-3.183,3.183a12.414,12.414,0,0,1-1.135-4.8c0-1.836,3.556-5.936,9.059-10.446a1.083,1.083,0,0,1,1.156-.135l6.644,3.226-.37,2.323-5.2-1.612a1.081,1.081,0,0,0-1.011.2l-3.509,2.914a1.082,1.082,0,0,0,1.382,1.664l3.058-2.54.211.065a27.135,27.135,0,0,0,9.679,9.68l.067.215-2.538,3.056a1.082,1.082,0,1,0,1.664,1.382l2.914-3.509a1.082,1.082,0,0,0,.2-1.015c-.013-.041-1.021-3.257-1.621-5.2l2.334-.345,3.224,6.616a1.082,1.082,0,0,1-.134,1.158Z" transform="translate(-0.328 -249.609)"/>
      </g>
    </g>
  </g>
</svg>
