<svg xmlns="http://www.w3.org/2000/svg" width="85" height="85" viewBox="0 0 85 85">
  <g id="Grupo_1072662" data-name="Grupo 1072662" transform="translate(7140 5980)">
    <circle id="Elipse_9713" data-name="Elipse 9713" cx="42.5" cy="42.5" r="42.5" transform="translate(-7140 -5980)" fill="#dc40ed"/>
    <g id="directo" transform="translate(-7129 -5957.246)">
      <g id="Grupo_1072688" data-name="Grupo 1072688" transform="translate(0.992 1.73)">
        <g id="Grupo_1072670" data-name="Grupo 1072670" transform="translate(31.746 0)">
          <path id="Trazado_818914" data-name="Trazado 818914" d="M46.889,1.744,33,21.585h3.968V42.091H56.81V21.585h3.968Z" transform="translate(-33 -1.744)" fill="#ccd1d9"/>
        </g>
        <g id="Grupo_1072671" data-name="Grupo 1072671" transform="translate(41.667 29.762)">
          <path id="Trazado_818915" data-name="Trazado 818915" d="M50.937,31.744v3.968H43V31.744h7.937Z" transform="translate(-43 -31.744)" fill="#ffeaa7"/>
        </g>
        <g id="Grupo_1072672" data-name="Grupo 1072672" transform="translate(39.683 23.81)">
          <path id="Trazado_818916" data-name="Trazado 818916" d="M46.744,31.28l.208.417H42.984L41,27.728a3.585,3.585,0,0,1,3.214-1.984h.873A16.763,16.763,0,0,0,46.744,31.28Z" transform="translate(-41 -25.744)" fill="#b4dd7f"/>
        </g>
        <g id="Grupo_1072673" data-name="Grupo 1072673" transform="translate(43.651 21.825)">
          <path id="Trazado_818917" data-name="Trazado 818917" d="M52.937,25.728a9.875,9.875,0,0,1-1.647,5.456l-.337.5H46.984l-.208-.417a16.762,16.762,0,0,1-1.657-5.536A16.514,16.514,0,0,1,45,23.744a16.7,16.7,0,0,1,6.2.992A5.5,5.5,0,0,1,52.937,25.728Z" transform="translate(-45 -23.744)" fill="#a0d468"/>
        </g>
        <g id="Grupo_1072674" data-name="Grupo 1072674" transform="translate(32.738 33.73)">
          <path id="Trazado_818918" data-name="Trazado 818918" d="M36.976,42.361l5.952-6.617h7.937l5.952,6.617.03.03a11.475,11.475,0,0,1-8.522,19.147H45.468A11.474,11.474,0,0,1,34,50.069a11.3,11.3,0,0,1,.764-4.107,11.426,11.426,0,0,1,2.183-3.571Z" transform="translate(-34 -35.744)" fill="#b4dd7f"/>
        </g>
        <g id="Grupo_1072675" data-name="Grupo 1072675" transform="translate(5.952 45.635)">
          <path id="Trazado_818919" data-name="Trazado 818919" d="M7,47.744H22.873v3.968H7Z" transform="translate(-7 -47.744)" fill="#fcd770"/>
        </g>
        <g id="Grupo_1072676" data-name="Grupo 1072676" transform="translate(5.952 41.667)">
          <path id="Trazado_818920" data-name="Trazado 818920" d="M7,43.744H22.873v3.968H7Z" transform="translate(-7 -43.744)" fill="#ffc729"/>
        </g>
        <g id="Grupo_1072677" data-name="Grupo 1072677" transform="translate(21.825 33.254)">
          <path id="Trazado_818921" data-name="Trazado 818921" d="M28.952,47.645V53.6H23V35.264A15.816,15.816,0,0,1,28.952,47.645Z" transform="translate(-23 -35.264)" fill="#fcd770"/>
        </g>
        <g id="Grupo_1072678" data-name="Grupo 1072678" transform="translate(5.952 31.25)">
          <path id="Trazado_818922" data-name="Trazado 818922" d="M10.621,33.393l4.315,6.3,4.315-6.3c.149-.05.288-.089.427-.149a15.708,15.708,0,0,1,3.194,2v8.413H7V35.248a15.184,15.184,0,0,1,3.194-2c.139.06.278.1.427.149Z" transform="translate(-7 -33.244)" fill="#fcd770"/>
        </g>
        <g id="Grupo_1072679" data-name="Grupo 1072679" transform="translate(0 33.254)">
          <path id="Trazado_818923" data-name="Trazado 818923" d="M6.952,53.6H1V47.645A15.816,15.816,0,0,1,6.952,35.264V53.6Z" transform="translate(-1 -35.264)" fill="#fcd770"/>
        </g>
        <g id="Grupo_1072680" data-name="Grupo 1072680" transform="translate(5.952 49.603)">
          <path id="Trazado_818924" data-name="Trazado 818924" d="M22.873,53.728v7.937H7V51.744H22.873Z" transform="translate(-7 -51.744)" fill="#969faa"/>
        </g>
        <g id="Grupo_1072681" data-name="Grupo 1072681">
          <path id="Trazado_818925" data-name="Trazado 818925" d="M7.7,11.3a4.944,4.944,0,0,0-2.728,4.425v1.895H3.976a2.966,2.966,0,0,0-2.192.962l-.556-2.8A11.99,11.99,0,0,1,1,13.48,11.741,11.741,0,0,1,12.736,1.744h4.306A11.753,11.753,0,0,1,28.778,13.48a11.991,11.991,0,0,1-.228,2.3l-.556,2.8a2.966,2.966,0,0,0-2.192-.962H24.81a3.967,3.967,0,0,0-3.968-3.968H11.913A4.964,4.964,0,0,1,7.7,11.3Z" transform="translate(-1 -1.744)" fill="#b27946"/>
        </g>
        <g id="Grupo_1072682" data-name="Grupo 1072682" transform="translate(1.984 51.587)">
          <path id="Trazado_818926" data-name="Trazado 818926" d="M6.968,53.744v3.968H5.976A2.972,2.972,0,0,1,3,54.736v-.992Z" transform="translate(-3 -53.744)" fill="#f0d0b4"/>
        </g>
        <g id="Grupo_1072683" data-name="Grupo 1072683" transform="translate(21.825 51.587)">
          <path id="Trazado_818927" data-name="Trazado 818927" d="M26.968,53.744v.992a2.972,2.972,0,0,1-2.976,2.976H23V53.744Z" transform="translate(-23 -53.744)" fill="#f0d0b4"/>
        </g>
        <g id="Grupo_1072684" data-name="Grupo 1072684" transform="translate(9.573 31.399)">
          <path id="Trazado_818928" data-name="Trazado 818928" d="M19.281,33.394l-4.315,6.3-4.315-6.3a7.845,7.845,0,0,0,2.331.347H16.95A7.845,7.845,0,0,0,19.281,33.394Z" transform="translate(-10.65 -33.394)" fill="#f0d0b4"/>
        </g>
        <g id="Grupo_1072685" data-name="Grupo 1072685" transform="translate(23.81 15.873)">
          <path id="Trazado_818929" data-name="Trazado 818929" d="M25.992,17.744a2.976,2.976,0,0,1,0,5.952H25V17.744Z" transform="translate(-25 -17.744)" fill="#f0d0b4"/>
        </g>
        <g id="Grupo_1072686" data-name="Grupo 1072686" transform="translate(3.968 9.554)">
          <path id="Trazado_818930" data-name="Trazado 818930" d="M24.841,23.646V25.63a7.933,7.933,0,0,1-5.179,7.44c-.139.06-.278.1-.427.149a7.845,7.845,0,0,1-2.331.347H12.937a7.845,7.845,0,0,1-2.331-.347c-.149-.05-.288-.089-.427-.149A7.933,7.933,0,0,1,5,25.63V15.8a4.944,4.944,0,0,1,2.728-4.425,4.964,4.964,0,0,0,4.216,2.351h8.929a3.967,3.967,0,0,1,3.968,3.968Z" transform="translate(-5 -11.374)" fill="#f0d0b4"/>
        </g>
        <g id="Grupo_1072687" data-name="Grupo 1072687" transform="translate(0 15.873)">
          <path id="Trazado_818931" data-name="Trazado 818931" d="M4.968,17.744V23.7H3.976a2.976,2.976,0,1,1,0-5.952Z" transform="translate(-1 -17.744)" fill="#f0d0b4"/>
        </g>
      </g>
      <g id="Grupo_1072689" data-name="Grupo 1072689" transform="translate(0)">
        <path id="Trazado_818932" data-name="Trazado 818932" d="M47.968,44.911V42.744H45.984v1.984H44V47.7a2.98,2.98,0,0,0,2.976,2.976.992.992,0,0,1,.992.992v.992h-.992a.992.992,0,0,1-.992-.992v-.992H44v.992a2.972,2.972,0,0,0,1.984,2.794v2.167h1.984V54.649h1.984V51.673A2.98,2.98,0,0,0,46.976,48.7a.992.992,0,0,1-.992-.992v-.992h.992a.992.992,0,0,1,.992.992V48.7h1.984V47.7A2.972,2.972,0,0,0,47.968,44.911Z" transform="translate(-0.349 -0.339)"/>
        <circle id="Elipse_9717" data-name="Elipse 9717" cx="0.992" cy="0.992" r="0.992" transform="translate(9.921 18.595)"/>
        <circle id="Elipse_9718" data-name="Elipse 9718" cx="0.992" cy="0.992" r="0.992" transform="translate(17.856 18.595)"/>
        <path id="Trazado_818933" data-name="Trazado 818933" d="M21.736,33.018a8.922,8.922,0,0,0,4.057-7.473v-.992a3.96,3.96,0,0,0,3.251-6.233l.47-2.354A12.728,12.728,0,0,0,17.035.742H12.727A12.729,12.729,0,0,0,.247,15.966l.471,2.353a3.96,3.96,0,0,0,3.25,6.234v.992a8.923,8.923,0,0,0,4.058,7.473A16.939,16.939,0,0,0,0,47.371v6.944H1.984a3.972,3.972,0,0,0,3.968,3.968h0v3.968H23.809V58.284h0a3.972,3.972,0,0,0,3.968-3.968h1.984V47.371A16.942,16.942,0,0,0,21.736,33.018Zm-6.855,4.661-2.2-3.215c.073,0,.145.011.219.011h3.967c.074,0,.146-.009.219-.011Zm-.992,2.063v2.669H7.937V35.472a14.759,14.759,0,0,1,2.119-1.325ZM7.937,44.395h5.952v1.984H7.937Zm0,3.968h5.952v1.984H7.938Zm7.937,0h5.952v1.984H15.873Zm0-1.984V44.395h5.952v1.984Zm0-3.968V39.742l3.833-5.6a14.76,14.76,0,0,1,2.119,1.325V42.41H15.873Zm9.92-19.841V18.6a1.984,1.984,0,0,1,0,3.968ZM17.035,2.728a10.745,10.745,0,0,1,10.534,12.85l-.268,1.34a3.937,3.937,0,0,0-1.508-.3h-.1a4.969,4.969,0,0,0-4.86-3.968H11.9A3.972,3.972,0,0,1,7.937,8.68V3.869a10.669,10.669,0,0,1,4.791-1.141ZM1.984,20.585A1.986,1.986,0,0,1,3.968,18.6v3.968A1.986,1.986,0,0,1,1.984,20.585Zm1.984-4.871v.9a3.932,3.932,0,0,0-1.507.3l-.269-1.341A10.728,10.728,0,0,1,5.952,5.143V8.681a5.907,5.907,0,0,0,.438,2.24,5.918,5.918,0,0,0-2.422,4.794Zm1.984,9.831V15.714a3.947,3.947,0,0,1,1.489-3.1A5.939,5.939,0,0,0,11.9,14.633h8.928a2.98,2.98,0,0,1,2.976,2.976v7.937a6.953,6.953,0,0,1-6.944,6.944H12.9a6.953,6.953,0,0,1-6.944-6.944ZM1.984,47.371A14.923,14.923,0,0,1,5.952,37.278V52.331H1.984ZM5.952,56.3a1.986,1.986,0,0,1-1.984-1.984H5.953Zm9.92,3.968V57.292A2.98,2.98,0,0,0,12.9,54.315V56.3a.992.992,0,0,1,.992.992v2.976H7.938V52.331H21.825v7.937ZM23.81,56.3V54.315h1.985A1.987,1.987,0,0,1,23.81,56.3Zm3.968-3.968H23.809V37.277A14.926,14.926,0,0,1,27.778,47.37Z" transform="translate(0 -0.006)"/>
        <path id="Trazado_818934" data-name="Trazado 818934" d="M18.951,24.744H16.967a1.986,1.986,0,0,1-1.984,1.984H13v1.984h1.981A3.973,3.973,0,0,0,18.951,24.744Z" transform="translate(-0.103 -0.196)"/>
        <path id="Trazado_818935" data-name="Trazado 818935" d="M57.786,22.564h4.882L46.874,0,31.079,22.564h4.882V41.717a12.451,12.451,0,0,0,9.487,20.529H48.3a12.451,12.451,0,0,0,9.486-20.529Zm-22.9-1.984L46.874,3.459,58.857,20.578H55.8v18.91l-3.968-4.409V31.792l.167-.25a10.789,10.789,0,0,0,1.817-6v-.411l-.291-.291c-.232-.233-2.453-2.275-8.638-2.275H43.9v.992c0,.335.01.672.03,1.006a4.548,4.548,0,0,0-3.893,2.518l-.222.443,2.1,4.2v3.353l-3.968,4.409V20.579ZM43.518,30.5l-1.465-2.931a2.579,2.579,0,0,1,2.078-1.038h.021A17.924,17.924,0,0,0,45.311,30.5Zm.379,1.984H49.85v1.984H43.9Zm3.6-1.984a15.885,15.885,0,0,1-1.58-5.932,11.956,11.956,0,0,1,5.907,1.453,8.82,8.82,0,0,1-1.471,4.42l-.039.059ZM48.3,60.262H45.448a10.479,10.479,0,0,1-7.79-17.489l5.688-6.32H50.4l5.689,6.32A10.479,10.479,0,0,1,48.3,60.262Z" transform="translate(-0.247)"/>
      </g>
    </g>
  </g>
</svg>
