<svg xmlns="http://www.w3.org/2000/svg" width="85" height="85" viewBox="0 0 85 85">
  <g id="Grupo_1072660" data-name="Grupo 1072660" transform="translate(7140 5980)">
    <circle id="Elipse_9713" data-name="Elipse 9713" cx="42.5" cy="42.5" r="42.5" transform="translate(-7140 -5980)" fill="#dc40ed"/>
    <g id="gestion-de-equipos" transform="translate(-7129.438 -5960.2)">
      <g id="Grupo_1072696" data-name="Grupo 1072696" transform="translate(17.975 1.386)">
        <g id="Grupo_1072691" data-name="Grupo 1072691">
          <circle id="Elipse_9719" data-name="Elipse 9719" cx="14.464" cy="14.464" r="14.464" fill="#f7e365"/>
        </g>
        <g id="Grupo_1072692" data-name="Grupo 1072692" transform="translate(2.855 2.855)">
          <path id="Trazado_818936" data-name="Trazado 818936" d="M184.624,30.468a14.465,14.465,0,0,1-20.238,20.238,14.464,14.464,0,1,0,20.238-20.238Z" transform="translate(-164.386 -30.468)" fill="#f3d332"/>
        </g>
        <g id="Grupo_1072695" data-name="Grupo 1072695" transform="translate(5.846 5.35)">
          <g id="Grupo_1072693" data-name="Grupo 1072693">
            <path id="Trazado_818937" data-name="Trazado 818937" d="M203.01,59.226l1.881-2.042a1.28,1.28,0,0,0,.167-1.507l-1.107-1.917a1.28,1.28,0,0,0-1.389-.609l-2.708.608-.086-.05-.828-2.649a1.28,1.28,0,0,0-1.222-.9H195.5a1.28,1.28,0,0,0-1.222.9l-.828,2.649-.086.05-2.708-.608a1.28,1.28,0,0,0-1.389.609l-1.107,1.917a1.28,1.28,0,0,0,.167,1.507l1.881,2.042v.1l-1.881,2.042a1.28,1.28,0,0,0-.167,1.507l1.107,1.917a1.28,1.28,0,0,0,1.389.609l2.708-.608.086.05.828,2.649a1.28,1.28,0,0,0,1.222.9h2.214a1.28,1.28,0,0,0,1.222-.9l.828-2.649.086-.05,2.708.608a1.28,1.28,0,0,0,1.389-.609l1.107-1.917a1.28,1.28,0,0,0-.167-1.507l-1.881-2.042v-.1Zm-6.4,2.1a2.048,2.048,0,1,1,2.048-2.048A2.048,2.048,0,0,1,196.612,61.323Z" transform="translate(-187.994 -50.161)" fill="#62a4fb"/>
          </g>
          <g id="Grupo_1072694" data-name="Grupo 1072694" transform="translate(5.612 2.958)">
            <path id="Trazado_818938" data-name="Trazado 818938" d="M241.687,79.712v-.1l1.881-2.042a1.28,1.28,0,0,0,.167-1.507l-1.107-1.917a1.28,1.28,0,0,0-1.389-.609l-1.537.345a9.017,9.017,0,0,1-7.419,11.827l.678,2.168a1.28,1.28,0,0,0,1.222.9H236.4a1.28,1.28,0,0,0,1.222-.9l.828-2.649.086-.05,2.708.608a1.28,1.28,0,0,0,1.389-.609l1.107-1.917a1.28,1.28,0,0,0-.167-1.507Z" transform="translate(-232.282 -73.507)" fill="#5392f9"/>
          </g>
        </g>
      </g>
      <g id="Grupo_1072712" data-name="Grupo 1072712" transform="translate(14.261 24.963)">
        <g id="Grupo_1072701" data-name="Grupo 1072701" transform="translate(20.482)">
          <g id="Grupo_1072697" data-name="Grupo 1072697" transform="translate(0 10.24)">
            <path id="Trazado_818939" data-name="Trazado 818939" d="M274.2,279.44v12.15H290.07V279.44a4.608,4.608,0,0,0-4.608-4.608h-6.656A4.608,4.608,0,0,0,274.2,279.44Z" transform="translate(-274.198 -274.832)" fill="#e175a5"/>
          </g>
          <g id="Grupo_1072698" data-name="Grupo 1072698" transform="translate(0 10.24)">
            <path id="Trazado_818940" data-name="Trazado 818940" d="M282.9,279.439a7.64,7.64,0,0,0-1.54-4.608h-2.555a4.608,4.608,0,0,0-4.608,4.608v12.15h8.7Z" transform="translate(-274.198 -274.831)" fill="#de5791"/>
          </g>
          <g id="Grupo_1072699" data-name="Grupo 1072699" transform="translate(2.816)">
            <circle id="Elipse_9720" data-name="Elipse 9720" cx="5.12" cy="5.12" r="5.12" fill="#fed2a4"/>
          </g>
          <g id="Grupo_1072700" data-name="Grupo 1072700" transform="translate(3.417 0.601)">
            <path id="Trazado_818941" data-name="Trazado 818941" d="M308.09,198.759a5.12,5.12,0,0,1-6.926,6.926,5.12,5.12,0,1,0,6.926-6.926Z" transform="translate(-301.164 -198.759)" fill="#ffbd86"/>
          </g>
        </g>
        <g id="Grupo_1072706" data-name="Grupo 1072706">
          <g id="Grupo_1072702" data-name="Grupo 1072702" transform="translate(0 10.24)">
            <path id="Trazado_818942" data-name="Trazado 818942" d="M112.552,279.44v12.15h15.872V279.44a4.608,4.608,0,0,0-4.608-4.608H117.16A4.608,4.608,0,0,0,112.552,279.44Z" transform="translate(-112.552 -274.832)" fill="#e175a5"/>
          </g>
          <g id="Grupo_1072703" data-name="Grupo 1072703" transform="translate(7.169 10.24)">
            <path id="Trazado_818943" data-name="Trazado 818943" d="M177.833,291.59V279.44a4.608,4.608,0,0,0-4.608-4.608H170.67a7.64,7.64,0,0,0-1.54,4.608v12.15Z" transform="translate(-169.13 -274.832)" fill="#de5791"/>
          </g>
          <g id="Grupo_1072704" data-name="Grupo 1072704" transform="translate(2.816)">
            <circle id="Elipse_9721" data-name="Elipse 9721" cx="5.12" cy="5.12" r="5.12" fill="#fed2a4"/>
          </g>
          <g id="Grupo_1072705" data-name="Grupo 1072705" transform="translate(3.417 0.601)">
            <path id="Trazado_818944" data-name="Trazado 818944" d="M146.444,198.759a5.12,5.12,0,0,1-6.926,6.926,5.12,5.12,0,1,0,6.926-6.926Z" transform="translate(-139.518 -198.759)" fill="#ffbd86"/>
          </g>
        </g>
        <g id="Grupo_1072711" data-name="Grupo 1072711" transform="translate(10.241)">
          <g id="Grupo_1072707" data-name="Grupo 1072707" transform="translate(0 10.24)">
            <path id="Trazado_818945" data-name="Trazado 818945" d="M193.375,279.44v12.15h15.872V279.44a4.608,4.608,0,0,0-4.608-4.608h-6.656A4.608,4.608,0,0,0,193.375,279.44Z" transform="translate(-193.375 -274.832)" fill="#62a4fb"/>
          </g>
          <g id="Grupo_1072708" data-name="Grupo 1072708" transform="translate(7.936 10.24)">
            <path id="Trazado_818946" data-name="Trazado 818946" d="M259.335,274.832h-3.328a4.608,4.608,0,0,1,4.608,4.608v12.15h3.328V279.44A4.608,4.608,0,0,0,259.335,274.832Z" transform="translate(-256.007 -274.832)" fill="#5392f9"/>
          </g>
          <g id="Grupo_1072709" data-name="Grupo 1072709" transform="translate(2.816)">
            <circle id="Elipse_9722" data-name="Elipse 9722" cx="5.12" cy="5.12" r="5.12" fill="#fed2a4"/>
          </g>
          <g id="Grupo_1072710" data-name="Grupo 1072710" transform="translate(3.417 0.601)">
            <path id="Trazado_818947" data-name="Trazado 818947" d="M227.267,198.759a5.12,5.12,0,0,1-6.926,6.926,5.12,5.12,0,1,0,6.926-6.926Z" transform="translate(-220.341 -198.759)" fill="#ffbd86"/>
          </g>
        </g>
      </g>
      <g id="Grupo_1072718" data-name="Grupo 1072718" transform="translate(0.95 41.405)">
        <g id="Grupo_1072713" data-name="Grupo 1072713" transform="translate(8.192 4.412)">
          <path id="Trazado_818948" data-name="Trazado 818948" d="M72.152,358.6H76.76v16.384H72.152Z" transform="translate(-72.152 -358.597)" fill="#d3effd"/>
        </g>
        <g id="Grupo_1072714" data-name="Grupo 1072714" transform="translate(12.8)">
          <path id="Trazado_818949" data-name="Trazado 818949" d="M157.8,324.675a3.072,3.072,0,0,0-4.344,0l-9.657,9.657h-8.907a3.072,3.072,0,0,0,0-6.144h-9.728l-1.973-1.6a10.034,10.034,0,0,0-12.537-.081l-2.13,1.682v16.384l18.541,1.163a10.239,10.239,0,0,0,3.662-.436l14.4-4.448a5.121,5.121,0,0,0,2.11-1.272L157.8,329.019A3.072,3.072,0,0,0,157.8,324.675Z" transform="translate(-108.519 -323.775)" fill="#fed2a4"/>
        </g>
        <g id="Grupo_1072715" data-name="Grupo 1072715" transform="translate(31.204)">
          <path id="Trazado_818950" data-name="Trazado 818950" d="M284.636,324.675a3.072,3.072,0,0,0-4.344,0l-9.657,9.657H268.8a37.606,37.606,0,0,1-3.079,3.484,34.386,34.386,0,0,1-11.96,7.91l.137.009a10.239,10.239,0,0,0,3.662-.436l14.4-4.448a5.121,5.121,0,0,0,2.11-1.272l10.559-10.559A3.072,3.072,0,0,0,284.636,324.675Z" transform="translate(-253.763 -323.775)" fill="#ffbd86"/>
        </g>
        <g id="Grupo_1072716" data-name="Grupo 1072716" transform="translate(0 2.364)">
          <path id="Trazado_818951" data-name="Trazado 818951" d="M7.5,342.434h8.192v20.48H7.5Z" transform="translate(-7.5 -342.434)" fill="#62a4fb"/>
        </g>
        <g id="Grupo_1072717" data-name="Grupo 1072717" transform="translate(5.376 2.364)">
          <path id="Trazado_818952" data-name="Trazado 818952" d="M49.928,342.434h2.816v20.48H49.928Z" transform="translate(-49.928 -342.434)" fill="#5392f9"/>
        </g>
      </g>
      <g id="Grupo_1072719" data-name="Grupo 1072719" transform="translate(0 0.435)">
        <circle id="Elipse_9723" data-name="Elipse 9723" cx="1.024" cy="1.024" r="1.024" transform="translate(4.022 46.406)"/>
        <circle id="Elipse_9724" data-name="Elipse 9724" cx="1.024" cy="1.024" r="1.024" transform="translate(4.022 50.502)"/>
        <path id="Trazado_818953" data-name="Trazado 818953" d="M238.34,101.424a3,3,0,1,0-3,3A3,3,0,0,0,238.34,101.424Zm-3,1.1a1.1,1.1,0,1,1,1.1-1.1A1.1,1.1,0,0,1,235.341,102.522Z" transform="translate(-202.903 -86.01)"/>
        <path id="Trazado_818954" data-name="Trazado 818954" d="M63.7,41.633a4.022,4.022,0,0,0-5.689,0l-6.444,6.445V44.95a.95.95,0,0,0-1.9,0v5.028l-1.032,1.032h-5.1a4.024,4.024,0,0,0-2.21-5.961V39.812a5.534,5.534,0,0,0-1.378-3.658h6.062a3.662,3.662,0,0,1,3.657,3.658v.7a.95.95,0,1,0,1.9,0v-.7A5.567,5.567,0,0,0,47,34.344a6.063,6.063,0,0,0-1.834-9.8,15.458,15.458,0,0,0,2.688-8.7A15.281,15.281,0,0,0,43.208,4.825a.95.95,0,1,0-1.327,1.361,13.4,13.4,0,0,1,4.071,9.664,13.546,13.546,0,0,1-2.762,8.187c-.169-.014-.339-.023-.511-.023a6.07,6.07,0,0,0-5.12,2.816,6.115,6.115,0,0,0-2.1-2.006,2.255,2.255,0,0,0,.212-.475l.587-1.878,1.92.431a2.22,2.22,0,0,0,2.42-1.061l1.107-1.917a2.221,2.221,0,0,0-.291-2.626L40.084,15.85,41.417,14.4a2.221,2.221,0,0,0,.291-2.626L40.6,9.859A2.221,2.221,0,0,0,38.181,8.8l-1.92.431-.587-1.878a2.221,2.221,0,0,0-2.129-1.565H31.331A2.221,2.221,0,0,0,29.2,7.351l-.587,1.878L26.7,8.8a2.221,2.221,0,0,0-2.42,1.061l-1.107,1.917A2.221,2.221,0,0,0,23.46,14.4l1.333,1.447L23.46,17.3a2.221,2.221,0,0,0-.291,2.626l1.107,1.917A2.221,2.221,0,0,0,26.7,22.9l1.92-.431.587,1.878a2.249,2.249,0,0,0,.212.475,6.114,6.114,0,0,0-2.1,2.006,6.07,6.07,0,0,0-5.12-2.816c-.172,0-.342.009-.511.023a13.514,13.514,0,0,1,10.752-21.7A13.376,13.376,0,0,1,38.522,3.78a.95.95,0,0,0,.857-1.7A15.258,15.258,0,0,0,32.438.435,15.415,15.415,0,0,0,19.712,24.548a6.063,6.063,0,0,0-1.834,9.8,5.566,5.566,0,0,0-4.567,5.468v5.055H10.093v-1.1a.95.95,0,0,0-.95-.95H.95a.95.95,0,0,0-.95.95v20.48a.95.95,0,0,0,.95.95H9.142a.95.95,0,0,0,.95-.95v-1.1h3.634l12.463.782a.95.95,0,1,0,.119-1.9L14.7,61.308V46.278l1.769-1.4a9.082,9.082,0,0,1,11.348.075l1.974,1.6a.95.95,0,0,0,.6.212h9.728a2.122,2.122,0,0,1,0,4.244H29.11a.95.95,0,0,0-.672.278l-1.344,1.344a.95.95,0,1,0,1.344,1.344L29.5,52.912H49.026a.951.951,0,0,0,.672-.278l9.655-9.657a2.122,2.122,0,0,1,3,3L51.8,56.537a4.183,4.183,0,0,1-1.718,1.035L35.672,62.021a9.244,9.244,0,0,1-3.322.4l-1.616-.1a.95.95,0,1,0-.119,1.9l1.616.1q.354.022.706.022a11.121,11.121,0,0,0,3.3-.5l14.4-4.449a6.091,6.091,0,0,0,2.5-1.507L63.7,47.322a4.028,4.028,0,0,0,0-5.689ZM42.679,25.914a4.17,4.17,0,1,1-4.17,4.17,4.174,4.174,0,0,1,4.17-4.17Zm-11.348-1.9a.328.328,0,0,1-.315-.231l-.828-2.649a.95.95,0,0,0-.432-.54l-.086-.05a.95.95,0,0,0-.684-.1l-2.708.608a.329.329,0,0,1-.358-.157l-1.107-1.917a.328.328,0,0,1,.043-.388l1.881-2.042a.95.95,0,0,0,.251-.644v-.1a.95.95,0,0,0-.251-.644l-1.881-2.042a.328.328,0,0,1-.043-.388l1.107-1.917a.329.329,0,0,1,.358-.157l2.708.608a.95.95,0,0,0,.684-.1l.086-.05a.95.95,0,0,0,.432-.54l.828-2.649a.328.328,0,0,1,.315-.231h2.214a.328.328,0,0,1,.315.231l.828,2.649a.95.95,0,0,0,.431.539l.087.05a.95.95,0,0,0,.684.1l2.708-.608a.328.328,0,0,1,.358.157l1.107,1.917a.328.328,0,0,1-.043.388l-1.881,2.042a.95.95,0,0,0-.251.644v.1a.95.95,0,0,0,.251.644l1.881,2.042a.329.329,0,0,1,.043.388L38.955,20.89a.329.329,0,0,1-.358.157l-2.708-.608a.949.949,0,0,0-.683.1l-.087.05a.95.95,0,0,0-.431.539l-.828,2.649a.328.328,0,0,1-.315.231H31.332Zm1.107,1.9a4.17,4.17,0,1,1-4.17,4.17,4.174,4.174,0,0,1,4.17-4.17Zm-10.241,0a4.17,4.17,0,1,1-4.17,4.17,4.174,4.174,0,0,1,4.17-4.17ZM8.192,63.3H1.9V44.72H8.192Zm1.9-16.531H12.8V61.251H10.093Zm8.4-5.133a10.956,10.956,0,0,0-3.2,1.755l-.081.064V39.812a3.662,3.662,0,0,1,3.658-3.658H24.93a5.534,5.534,0,0,0-1.378,3.658v1.314a10.93,10.93,0,0,0-5.057.509ZM29.015,43.48a10.989,10.989,0,0,0-3.563-1.924V39.812a3.662,3.662,0,0,1,3.658-3.658h6.656a3.662,3.662,0,0,1,3.658,3.658v5.055h-8.7Z" transform="translate(0 -0.435)"/>
      </g>
    </g>
  </g>
</svg>
