<svg xmlns="http://www.w3.org/2000/svg" width="85" height="88.777" viewBox="0 0 85 88.777">
  <g id="Grupo_1072661" data-name="Grupo 1072661" transform="translate(7140 5980)">
    <circle id="Elipse_9713" data-name="Elipse 9713" cx="42.5" cy="42.5" r="42.5" transform="translate(-7140 -5980)" fill="#dc40ed"/>
    <g id="Grupo_1072666" data-name="Grupo 1072666" transform="translate(-8001.156 -12174.873)">
      <g id="_FILLED_OUTLINE" data-name="/ FILLED_OUTLINE" transform="translate(871.156 6218)">
        <circle id="Elipse_9714" data-name="Elipse 9714" cx="9.85" cy="9.85" r="9.85" transform="translate(22.982 1.093)" fill="#ed8f4f"/>
        <path id="Trazado_818843" data-name="Trazado 818843" d="M82.533,156.43l-3.967-1.763L74.6,156.43a4.378,4.378,0,0,0-2.6,4V175.1H85.133V160.43a4.378,4.378,0,0,0-2.6-4Z" transform="translate(-64.339 -135.698)" fill="#05a056"/>
        <path id="Trazado_818844" data-name="Trazado 818844" d="M54.566,196.433v-1.15a3.283,3.283,0,1,0-6.566,0v1.15a3.283,3.283,0,0,0,1.95,3l1.333.593,1.333-.593A3.283,3.283,0,0,0,54.566,196.433Z" transform="translate(-43.622 -167.925)" fill="#fcdcc8"/>
        <path id="Trazado_818845" data-name="Trazado 818845" d="M34.533,252.43l-3.967-1.763L26.6,252.43a4.378,4.378,0,0,0-2.6,4v9.194H37.133V256.43a4.378,4.378,0,0,0-2.6-4Z" transform="translate(-22.906 -218.566)" fill="#0cbf6a"/>
        <path id="Trazado_818846" data-name="Trazado 818846" d="M102.566,100.433v-1.15a3.283,3.283,0,1,0-6.566,0v1.15a3.283,3.283,0,0,0,1.95,3l1.333.593,1.333-.593A3.283,3.283,0,0,0,102.566,100.433Z" transform="translate(-85.056 -85.058)" fill="#fcdcc8"/>
        <path id="Trazado_818847" data-name="Trazado 818847" d="M150.566,196.433v-1.15a3.283,3.283,0,1,0-6.566,0v1.15a3.283,3.283,0,0,0,1.95,3l1.333.593,1.333-.593A3.283,3.283,0,0,0,150.566,196.433Z" transform="translate(-126.49 -167.925)" fill="#fcdcc8"/>
        <path id="Trazado_818848" data-name="Trazado 818848" d="M130.533,252.43l-3.967-1.763L122.6,252.43a4.378,4.378,0,0,0-2.6,4v9.194h13.133V256.43a4.378,4.378,0,0,0-2.6-4Z" transform="translate(-105.773 -218.566)" fill="#04b263"/>
        <path id="Trazado_818849" data-name="Trazado 818849" d="M184,288v19.7h4.378a9.85,9.85,0,0,0,9.85-9.85h0a9.85,9.85,0,0,0-9.85-9.85Z" transform="translate(-161.018 -250.792)" fill="#ed8f4f"/>
        <circle id="Elipse_9715" data-name="Elipse 9715" cx="9.85" cy="9.85" r="9.85" transform="translate(13.133 37.208)" fill="#f7a46b"/>
        <path id="Trazado_818850" data-name="Trazado 818850" d="M214.566,128.416l6.566-6.566H217.85V112h-6.566v9.85H208Z" transform="translate(-181.734 -98.869)" fill="#ffc542"/>
        <path id="Trazado_818851" data-name="Trazado 818851" d="M352,136h18.6l-1.094,3.283.019.086a45.008,45.008,0,0,1,0,19.527l-.019.086,1.094,3.283H352l1.094-3.283-.019-.086a45.007,45.007,0,0,1,0-19.527l.019-.086Z" transform="translate(-306.035 -119.586)" fill="#ffd168"/>
        <circle id="Elipse_9716" data-name="Elipse 9716" cx="2.189" cy="2.189" r="2.189" transform="translate(52.531 22.981)" fill="#e5b13b"/>
        <rect id="Rectángulo_376420" data-name="Rectángulo 376420" width="6.566" height="2.189" transform="translate(51.437 30.642)" fill="#e5b13b"/>
        <rect id="Rectángulo_376421" data-name="Rectángulo 376421" width="8.755" height="2.189" transform="translate(50.343 35.019)" fill="#e5b13b"/>
        <path id="Trazado_818852" data-name="Trazado 818852" d="M106.214,349.472a2.189,2.189,0,0,1-1.16-.333l-7.691-4.807A2.189,2.189,0,0,0,96.2,344H83.7v1.094a4.378,4.378,0,0,0,4.378,4.378h6.566l-7.844,6.1a4.378,4.378,0,0,1-4.354.592l-14.053-5.786a2.563,2.563,0,0,0-3.269,1.224L64,353.85l14.827,7.8a17.656,17.656,0,0,0,12.506,1.5l10.97-2.743h14.228V349.472Z" transform="translate(-57.434 -299.131)" fill="#fcdcc8"/>
        <path id="Trazado_818853" data-name="Trazado 818853" d="M346.7,42.461a30.68,30.68,0,0,0-13.461-9.754L334,30.652A32.869,32.869,0,0,1,348.418,41.1Z" transform="translate(-289.842 -28.649)" fill="#ffe7b1"/>
        <path id="Trazado_818854" data-name="Trazado 818854" d="M111.13,37.176l-1.335-1.735a32.74,32.74,0,0,1,8.679-4.789l.755,2.055a30.545,30.545,0,0,0-8.1,4.469Z" transform="translate(-96.964 -28.649)" fill="#ffe7b1"/>
        <rect id="Rectángulo_376422" data-name="Rectángulo 376422" width="3.283" height="2.189" rx="1.094" transform="translate(36.115 49.247)" fill="#efc8b4"/>
        <path id="Trazado_818855" data-name="Trazado 818855" d="M182.56,36.986V37.9h-2.189a1.094,1.094,0,0,0-.774,1.868l6.566,6.566a1.1,1.1,0,0,0,1.548,0l6.566-6.566A1.094,1.094,0,0,0,193.5,37.9h-2.189v-.912a10.944,10.944,0,1,0-8.755,0Zm4.378,7.025-3.924-3.924h.641a1.094,1.094,0,0,0,1.094-1.094V30.237h4.378v8.755a1.094,1.094,0,0,0,1.094,1.094h.641Zm0-25.812a8.756,8.756,0,0,1,4.378,16.338V29.143a1.094,1.094,0,0,0-1.094-1.094h-6.566a1.094,1.094,0,0,0-1.094,1.094v5.394A8.756,8.756,0,0,1,186.937,18.2Z" transform="translate(-154.105 -16.012)"/>
        <path id="Trazado_818856" data-name="Trazado 818856" d="M363.738,152.017a46.417,46.417,0,0,0,0-19.58l1-3A1.094,1.094,0,0,0,363.7,128h-18.6a1.094,1.094,0,0,0-1.038,1.441l1,3a46.416,46.416,0,0,0,0,19.58l-1,3a1.094,1.094,0,0,0,1.038,1.441h18.6a1.094,1.094,0,0,0,1.038-1.441Zm-2.172.406.614,1.843H346.612l.614-1.843a1.1,1.1,0,0,0,.03-.583l-.019-.087a44.2,44.2,0,0,1,0-19.053l.019-.086a1.1,1.1,0,0,0-.03-.583l-.614-1.843H362.18l-.614,1.843a1.1,1.1,0,0,0-.03.583l.019.087a44.2,44.2,0,0,1,0,19.053l-.019.086A1.1,1.1,0,0,0,361.566,152.423Z" transform="translate(-299.129 -112.68)"/>
        <path id="Trazado_818857" data-name="Trazado 818857" d="M395.283,182.566A3.283,3.283,0,1,0,392,179.283,3.283,3.283,0,0,0,395.283,182.566Zm0-4.378a1.094,1.094,0,1,1-1.094,1.094A1.094,1.094,0,0,1,395.283,178.189Z" transform="translate(-340.563 -154.114)"/>
        <rect id="Rectángulo_376423" data-name="Rectángulo 376423" width="6.566" height="2.189" transform="translate(51.437 30.642)"/>
        <rect id="Rectángulo_376424" data-name="Rectángulo 376424" width="8.755" height="2.189" transform="translate(50.343 35.019)"/>
        <path id="Trazado_818858" data-name="Trazado 818858" d="M64.2,127.232l-7.691-4.807a3.28,3.28,0,0,0-1.74-.5H53.8a10.941,10.941,0,0,0-9.624-7.628,5.442,5.442,0,0,0-2.972-3.283l-1.836-.816a4.383,4.383,0,0,0,1.8-3.54v-1.15a4.384,4.384,0,0,0-3.548-4.3,5.475,5.475,0,0,0-2.985-3.33L32.8,97.067a4.383,4.383,0,0,0,1.8-3.54v-1.15a4.378,4.378,0,0,0-8.755,0v1.15a4.383,4.383,0,0,0,1.8,3.54l-1.836.816a5.475,5.475,0,0,0-2.985,3.33,4.384,4.384,0,0,0-3.548,4.3v1.15a4.383,4.383,0,0,0,1.8,3.54l-1.836.816a5.477,5.477,0,0,0-3.25,5v9.194h2.189v-9.194a3.286,3.286,0,0,1,1.95-3l3.522-1.565,3.522,1.565a3.286,3.286,0,0,1,1.95,3v4.425a10.961,10.961,0,0,0-.448,8.486l-1.311-.54a3.672,3.672,0,0,0-4.664,1.747l-1.122,2.246a1.094,1.094,0,0,0,.469,1.458l14.827,7.8a18.729,18.729,0,0,0,13.281,1.6L61,140.531H75.1v-2.189H60.87a1.092,1.092,0,0,0-.266.033l-10.97,2.742A16.545,16.545,0,0,1,37.9,139.706l-13.879-7.3.643-1.288a1.474,1.474,0,0,1,1.873-.7L40.594,136.2a5.483,5.483,0,0,0,5.443-.741l7.548-5.871H55.4V127.4H46.643a3.287,3.287,0,0,1-3.283-3.283H54.77a1.094,1.094,0,0,1,.58.166l7.69,4.807a3.281,3.281,0,0,0,1.74.5H75.1V127.4H64.781A1.092,1.092,0,0,1,64.2,127.232Zm-12.725-5.306H49.422a10.923,10.923,0,0,0-3.361-5.049,8.692,8.692,0,0,1,2.8,1.52A8.813,8.813,0,0,1,51.476,121.926Zm-11.16-8.911a3.272,3.272,0,0,1,1.445,1.25H38.982a10.906,10.906,0,0,0-7.66,3.138v-1.387a3.286,3.286,0,0,1,1.95-3l3.522-1.565Zm-1.333-7.505v1.15a2.191,2.191,0,0,1-1.3,2l-.889.4-.889-.4a2.191,2.191,0,0,1-1.3-2v-1.15a2.189,2.189,0,1,1,4.378,0ZM28.038,92.378a2.189,2.189,0,0,1,4.378,0v1.15a2.191,2.191,0,0,1-1.3,2l-.889.4-.889-.4a2.191,2.191,0,0,1-1.3-2ZM25.85,106.66a2.191,2.191,0,0,1-1.3,2l-.889.4-.889-.4a2.191,2.191,0,0,1-1.3-2v-1.15a2.189,2.189,0,0,1,4.378,0Zm2.222,4.356-1.836-.816a4.383,4.383,0,0,0,1.8-3.54v-1.15a4.385,4.385,0,0,0-2.918-4.126,3.282,3.282,0,0,1,1.585-1.5l3.522-1.565,3.522,1.565a3.282,3.282,0,0,1,1.585,1.5,4.385,4.385,0,0,0-2.918,4.126v1.15a4.383,4.383,0,0,0,1.8,3.54l-1.836.816a5.464,5.464,0,0,0-2.155,1.72A5.464,5.464,0,0,0,28.072,111.016Zm18.571,18.572h3.377l-5.327,4.143a3.29,3.29,0,0,1-3.266.444l-9.635-3.967A8.756,8.756,0,1,1,47.1,121.926H42.265a1.094,1.094,0,0,0-1.094,1.094v1.094A5.478,5.478,0,0,0,46.643,129.587Z" transform="translate(-16 -78.152)"/>
        <path id="Trazado_818859" data-name="Trazado 818859" d="M346.7,42.461l1.715-1.36A32.869,32.869,0,0,0,334,30.652l-.755,2.055A30.68,30.68,0,0,1,346.7,42.461Z" transform="translate(-289.842 -28.65)"/>
        <path id="Trazado_818860" data-name="Trazado 818860" d="M119.229,32.707l-.755-2.055a32.74,32.74,0,0,0-8.679,4.789l1.335,1.735a30.545,30.545,0,0,1,8.1-4.469Z" transform="translate(-96.964 -28.649)"/>
      </g>
    </g>
  </g>
</svg>
