<svg xmlns="http://www.w3.org/2000/svg" xmlns:xlink="http://www.w3.org/1999/xlink" width="101" height="101" viewBox="0 0 101 101">
  <defs>
    <filter id="Elipse_4719" x="0" y="0" width="101" height="101" filterUnits="userSpaceOnUse">
      <feOffset dy="1" input="SourceAlpha"/>
      <feGaussianBlur stdDeviation="5.5" result="blur"/>
      <feFlood flood-color="#fff" flood-opacity="0.902"/>
      <feComposite operator="in" in2="blur"/>
      <feComposite in="SourceGraphic"/>
    </filter>
    <clipPath id="clip-path">
      <path id="path7077" d="M0-682.665H53.651v53.651H0Z" transform="translate(0 682.665)"/>
    </clipPath>
  </defs>
  <g id="Grupo_1072746" data-name="Grupo 1072746" transform="translate(-596.656 -8489.5)">
    <g id="Grupo_1072744" data-name="Grupo 1072744" transform="translate(613.289 8505)">
      <g id="Grupo_1044235" data-name="Grupo 1044235" transform="translate(-0.132 0)">
        <g transform="matrix(1, 0, 0, 1, -16.5, -15.5)" filter="url(#Elipse_4719)">
          <g id="Elipse_4719-2" data-name="Elipse 4719" transform="translate(16.5 15.5)" fill="none" stroke="#1425dd" stroke-width="6">
            <circle cx="34" cy="34" r="34" stroke="none"/>
            <circle cx="34" cy="34" r="31" fill="none"/>
          </g>
        </g>
      </g>
    </g>
    <g id="g7071" transform="translate(620.157 9194.665)">
      <g id="g7073" transform="translate(0 -682.665)">
        <g id="g7075" clip-path="url(#clip-path)">
          <g id="g7081" transform="translate(0.786 0.829)">
            <path id="path7083" d="M-610.586-34.017V-4.5a2.9,2.9,0,0,1-2.9,2.9h-46.279a2.9,2.9,0,0,1-2.9-2.9V-34.017a2.9,2.9,0,0,1,2.9-2.9h46.279a2.9,2.9,0,0,1,2.9,2.9" transform="translate(662.665 36.919)" fill="#555760"/>
          </g>
          <g id="g7085" transform="translate(46.824 0.829)">
            <path id="path7087" d="M-70.838-34.017V-4.5a2.9,2.9,0,0,1-2.9,2.9H-76.88a2.9,2.9,0,0,0,2.9-2.9V-34.017a2.9,2.9,0,0,0-2.9-2.9h3.142a2.9,2.9,0,0,1,2.9,2.9" transform="translate(76.88 36.919)" fill="#36383f"/>
          </g>
          <path id="path7089" d="M49.972-603.075h45.8v-29.03h-45.8Z" transform="translate(-46.045 636.079)" fill="#52deff"/>
          <path id="path7091" d="M590.934-603.075h3.283v-29.03h-3.283Z" transform="translate(-544.492 636.079)" fill="#55baff"/>
          <g id="g7093" transform="translate(7.169 30.999)">
            <path id="path7095" d="M-436.833-236.163a5.069,5.069,0,0,1-2.233,1.488,5.133,5.133,0,0,1-2.938.04c-2.262-.6-4.5-2.579-6.091-5.4a4.024,4.024,0,0,1-1.96.505,4.043,4.043,0,0,1-2.9-1.221,2.156,2.156,0,0,0-.677-.471,2,2,0,0,0-.8-.17,2.074,2.074,0,0,0-1.481.64,4.039,4.039,0,0,1-2.9,1.221,4.02,4.02,0,0,1-1.96-.505c-2.283,4.061-5.928,6.365-9.031,5.36a5.075,5.075,0,0,1-2.233-1.488,9.72,9.72,0,0,1-2.055-6.453,16.389,16.389,0,0,1,.814-5c1.666-5.163,5.425-8.7,8.9-8.691h19.91a5.178,5.178,0,0,1,.66.042c3.274.412,6.659,3.822,8.217,8.649,1.475,4.572.878,9.075-1.241,11.452" transform="translate(474.092 256.307)" fill="#eef6ff"/>
          </g>
          <g id="g7097" transform="translate(33.846 31.041)">
            <path id="path7099" d="M-138.6-101.4c1.475,4.572.878,9.075-1.241,11.452a5.069,5.069,0,0,1-2.233,1.488,5.133,5.133,0,0,1-2.938.04,5.074,5.074,0,0,0,2.227-1.486c2.119-2.378,2.716-6.88,1.241-11.451-1.663-5.154-5.409-8.692-8.878-8.692h3.6c3.274.412,6.659,3.822,8.217,8.649" transform="translate(150.426 110.052)" fill="#dae6ef"/>
          </g>
          <g id="g7101" transform="translate(20.228 40.895)">
            <path id="path7103" d="M-38.83-37.75a1.911,1.911,0,0,1-2.339.363,1.913,1.913,0,0,1-.364-.266,1.916,1.916,0,0,1-.1-2.706,1.9,1.9,0,0,1,.461-.365,1.911,1.911,0,0,1,2.241.267,1.917,1.917,0,0,1,.1,2.707" transform="translate(42.142 40.969)" fill="#555760"/>
          </g>
          <g id="g7105" transform="translate(21.201 40.895)">
            <path id="path7107" d="M-27.421-37.75a1.911,1.911,0,0,1-2.339.363,1.867,1.867,0,0,0,.46-.363,1.917,1.917,0,0,0-.1-2.707,1.966,1.966,0,0,0-.364-.267,1.911,1.911,0,0,1,2.241.267,1.917,1.917,0,0,1,.1,2.707" transform="translate(29.76 40.969)" fill="#36383f"/>
          </g>
          <g id="g7109" transform="translate(29.579 40.895)">
            <path id="path7111" d="M-38.83-37.75a1.911,1.911,0,0,1-2.339.363,1.913,1.913,0,0,1-.364-.266,1.916,1.916,0,0,1-.1-2.706,1.9,1.9,0,0,1,.461-.365,1.911,1.911,0,0,1,2.241.267,1.917,1.917,0,0,1,.1,2.707" transform="translate(42.142 40.969)" fill="#555760"/>
          </g>
          <g id="g7113" transform="translate(30.552 40.895)">
            <path id="path7115" d="M-27.421-37.75a1.911,1.911,0,0,1-2.339.363,1.867,1.867,0,0,0,.46-.363,1.917,1.917,0,0,0-.1-2.707,1.966,1.966,0,0,0-.364-.267,1.911,1.911,0,0,1,2.241.267,1.917,1.917,0,0,1,.1,2.707" transform="translate(29.76 40.969)" fill="#36383f"/>
          </g>
          <g id="g7117" transform="translate(20.177 30.999)">
            <path id="path7119" d="M-155.659,0l-2.1,5.937h-9.085L-168.936,0Z" transform="translate(168.936)" fill="#a8b3ba"/>
          </g>
          <g id="g7121" transform="translate(28.642 30.999)">
            <path id="path7123" d="M-24.571,0l-2.1,5.937h2.716L-21.855,0Z" transform="translate(26.667)" fill="#879299"/>
          </g>
          <g id="g7125" transform="translate(8.487 10.031)">
            <path id="path7127" d="M-156.025-138.174a7.361,7.361,0,0,1-5.879,2.991h-.051a7.383,7.383,0,0,1-7.378-7.389,7.383,7.383,0,0,1,7.378-7.389h.045a7.351,7.351,0,0,1,5.692,2.741l-4.419,4.425Z" transform="translate(169.333 149.96)" fill="#fff148"/>
          </g>
          <g id="g7129" transform="translate(15.087 10.032)">
            <path id="path7131" d="M-78.639-138.162a7.362,7.362,0,0,1-5.879,2.991,4.359,4.359,0,0,0,2.909-3l-3.125-3.129a2.1,2.1,0,0,1,0-2.961l2.852-2.858c0-.728-1.673-2.764-2.643-2.828a7.351,7.351,0,0,1,5.692,2.741l-4.419,4.425Z" transform="translate(85.346 149.946)" fill="#ffcf4a"/>
          </g>
          <g id="g7133" transform="translate(37.031 17.42)">
            <path id="path7135" d="M-61-56.143a2.6,2.6,0,0,1-2.6,2.6,2.566,2.566,0,0,1-.652-.083,2.606,2.606,0,0,1-1.924-2.889l.627-4.417h3.9l.626,4.417a2.644,2.644,0,0,1,.026.372" transform="translate(66.201 60.932)" fill="#eef6ff"/>
          </g>
          <g id="g7137" transform="translate(38.981 17.42)">
            <path id="path7139" d="M-38.134-56.143a2.6,2.6,0,0,1-2.6,2.6,2.566,2.566,0,0,1-.652-.083,2.717,2.717,0,0,0,1.175-2.516c0-.123-.005-.247-.016-.373l-.378-4.417h1.82l.626,4.417a2.646,2.646,0,0,1,.026.372" transform="translate(41.387 60.932)" fill="#dae6ef"/>
          </g>
          <g id="g7141" transform="translate(34.54 10.031)">
            <path id="path7143" d="M-119.414-86.625H-129.6l.479-3.379a4.661,4.661,0,0,1,3.966-3.964,4.721,4.721,0,0,1,.648-.045A4.661,4.661,0,0,1-119.894-90Z" transform="translate(129.6 94.013)" fill="#ff455c"/>
          </g>
          <g id="g7145" transform="translate(38.985 10.031)">
            <path id="path7147" d="M-67.3-86.625h-3l-.3-3.379c-.182-2.083-1.195-3.681-2.447-3.964a4.721,4.721,0,0,1,.648-.045A4.661,4.661,0,0,1-67.779-90Z" transform="translate(73.04 94.013)" fill="#e51c5f"/>
          </g>
          <g id="g7149" transform="translate(0 0)">
            <path id="path7151" d="M-112.409-423.06h-5.9A3.693,3.693,0,0,1-122-426.751v-29.555A3.693,3.693,0,0,1-118.31-460h46.256a3.693,3.693,0,0,1,3.687,3.691v6.487a.786.786,0,0,1-.786.786.786.786,0,0,1-.786-.786v-6.487a2.12,2.12,0,0,0-2.115-2.119H-118.31a2.12,2.12,0,0,0-2.115,2.119v29.555a2.12,2.12,0,0,0,2.115,2.119h5.9a.786.786,0,0,1,.786.786A.786.786,0,0,1-112.409-423.06Z" transform="translate(121.997 459.998)"/>
          </g>
          <g id="g7153" transform="translate(43.278 13.025)">
            <path id="path7155" d="M-115.31,13.913h-5.9a.786.786,0,0,1-.786-.786.786.786,0,0,1,.786-.786h5.9a2.12,2.12,0,0,0,2.115-2.119V-9.214a.786.786,0,0,1,.786-.786.786.786,0,0,1,.786.786V10.222A3.693,3.693,0,0,1-115.31,13.913Z" transform="translate(121.997 10)"/>
          </g>
          <g id="g7157" transform="translate(13.307 3.148)">
            <path id="path7159" d="M26.418,20.641H18.154a.786.786,0,0,1,0-1.572h7.477v-27.5H-9.214A.786.786,0,0,1-10-9.214.786.786,0,0,1-9.214-10H26.418a.786.786,0,0,1,.786.786V19.855A.786.786,0,0,1,26.418,20.641Z" transform="translate(10 10)"/>
          </g>
          <g id="g7161" transform="translate(3.141 3.148)">
            <path id="path7163" d="M-106.093-349.238h-8.263a.786.786,0,0,1-.786-.786v-29.069a.786.786,0,0,1,.786-.786h6.467a.786.786,0,0,1,.786.786.786.786,0,0,1-.786.786h-5.681v27.5h7.477a.786.786,0,0,1,.786.786A.786.786,0,0,1-106.093-349.238Z" transform="translate(115.142 379.879)"/>
          </g>
          <g id="g7165" transform="translate(6.377 30.214)">
            <path id="path7167" d="M-201.151,13.438c-2.792,0-5.738-1.983-7.843-5.377a4.852,4.852,0,0,1-1.64.286A4.8,4.8,0,0,1-214.1,6.89a1.283,1.283,0,0,0-.918-.4,1.283,1.283,0,0,0-.919.4,4.8,4.8,0,0,1-3.461,1.458,4.852,4.852,0,0,1-1.64-.286c-2.105,3.394-5.052,5.376-7.844,5.377a5.652,5.652,0,0,1-1.748-.274,5.837,5.837,0,0,1-2.578-1.713c-2.383-2.675-2.933-7.47-1.4-12.216,1.76-5.453,5.728-9.251,9.649-9.236h8a.786.786,0,0,1,.786.786.786.786,0,0,1-.786.786h-8c-3.2-.012-6.623,3.414-8.15,8.147-1.342,4.161-.908,8.456,1.08,10.688a4.287,4.287,0,0,0,1.888,1.264c2.636.853,5.969-1.2,8.1-5a.786.786,0,0,1,1.066-.3,3.263,3.263,0,0,0,1.578.406,3.24,3.24,0,0,0,2.337-.984,2.843,2.843,0,0,1,2.043-.876,2.842,2.842,0,0,1,2.043.876,3.24,3.24,0,0,0,2.337.984,3.262,3.262,0,0,0,1.578-.406.786.786,0,0,1,1.066.3c2.135,3.8,5.467,5.851,8.1,5A4.287,4.287,0,0,0-198,10.406c1.988-2.232,2.422-6.527,1.08-10.688-1.527-4.733-4.954-8.159-8.147-8.147h-8.214a.786.786,0,0,1-.786-.786A.786.786,0,0,1-213.28-10h8.211c3.918-.015,7.886,3.783,9.646,9.236,1.531,4.746.981,9.541-1.4,12.216a5.837,5.837,0,0,1-2.578,1.714A5.655,5.655,0,0,1-201.151,13.438Z" transform="translate(235.463 10.001)"/>
          </g>
          <g id="g7169" transform="translate(19.443 40.109)">
            <path id="path7171" d="M-48.2-16.529a2.691,2.691,0,0,1,1.838.724,2.706,2.706,0,0,1,.137,3.816,2.706,2.706,0,0,1-1.976.861,2.688,2.688,0,0,1-1.838-.724,2.706,2.706,0,0,1-.137-3.816A2.706,2.706,0,0,1-48.2-16.529Zm0,3.83a1.114,1.114,0,0,0,.825-.359,1.132,1.132,0,0,0-.057-1.6,1.121,1.121,0,0,0-.767-.3,1.114,1.114,0,0,0-.825.359,1.132,1.132,0,0,0,.057,1.6A1.121,1.121,0,0,0-48.2-12.7Z" transform="translate(50.893 16.529)"/>
          </g>
          <g id="g7173" transform="translate(28.794 40.109)">
            <path id="path7175" d="M-48.2-16.529a2.691,2.691,0,0,1,1.838.724,2.706,2.706,0,0,1,.137,3.816,2.706,2.706,0,0,1-1.976.861,2.688,2.688,0,0,1-1.838-.724,2.706,2.706,0,0,1-.137-3.816A2.706,2.706,0,0,1-48.2-16.529Zm0,3.83a1.114,1.114,0,0,0,.825-.359,1.132,1.132,0,0,0-.057-1.6,1.121,1.121,0,0,0-.767-.3,1.114,1.114,0,0,0-.825.359,1.132,1.132,0,0,0,.057,1.6A1.121,1.121,0,0,0-48.2-12.7Z" transform="translate(50.893 16.529)"/>
          </g>
          <g id="g7177" transform="translate(15.158 34.842)">
            <path id="path7179" d="M-9.214-3.712A.786.786,0,0,1-10-4.5V-9.214A.786.786,0,0,1-9.214-10a.786.786,0,0,1,.786.786V-4.5A.786.786,0,0,1-9.214-3.712Z" transform="translate(10 10)"/>
          </g>
          <g id="g7181" transform="translate(12.803 37.2)">
            <path id="path7183" d="M-64.433-8.428h-4.71a.786.786,0,0,1-.786-.786A.786.786,0,0,1-69.143-10h4.71a.786.786,0,0,1,.786.786A.786.786,0,0,1-64.433-8.428Z" transform="translate(69.929 10)"/>
          </g>
          <g id="g7185" transform="translate(37.687 40.344)">
            <path id="path7187"/>
          </g>
          <g id="g7189" transform="translate(37.687 35.628)">
            <path id="path7191"/>
          </g>
          <g id="g7193" transform="translate(35.332 37.986)">
            <path id="path7195"/>
          </g>
          <g id="g7197" transform="translate(40.042 37.986)">
            <path id="path7199"/>
          </g>
          <g id="g7201" transform="translate(19.436 30.738)">
            <path id="path7203" d="M-166.443,3.656h-9.085a.786.786,0,0,1-.741-.524l-2.1-5.937,1.482-.523,1.911,5.413H-167l1.911-5.413,1.482.523-2.1,5.937A.786.786,0,0,1-166.443,3.656Z" transform="translate(178.365 3.329)"/>
          </g>
          <g id="g7205" transform="translate(7.701 9.245)">
            <path id="path7207" d="M-112.493-101.2a8.131,8.131,0,0,1,6.348,3.034.786.786,0,0,1-.055,1.049l-3.865,3.87,4.057,4.063a.786.786,0,0,1,.075,1.023,8.2,8.2,0,0,1-6.562,3.31,8.179,8.179,0,0,1-8.164-8.174A8.179,8.179,0,0,1-112.493-101.2Zm4.656,3.5a6.559,6.559,0,0,0-4.656-1.927,6.605,6.605,0,0,0-6.593,6.6,6.605,6.605,0,0,0,6.593,6.6,6.524,6.524,0,0,0,4.872-2.153l-4.11-4.115a.786.786,0,0,1,0-1.111Z" transform="translate(120.657 101.201)"/>
          </g>
          <g id="g7209" transform="translate(15.455 13.569)">
            <path id="path7211"/>
          </g>
          <g id="g7213" transform="translate(36.245 16.634)">
            <path id="path7215" d="M-66.461-10h3.9a.786.786,0,0,1,.778.676l.627,4.417a3.391,3.391,0,0,1-.8,2.7A3.384,3.384,0,0,1-64.512-1.04a3.384,3.384,0,0,1-2.557-1.166,3.391,3.391,0,0,1-.8-2.7l.626-4.417A.786.786,0,0,1-66.461-10Zm3.216,1.572h-2.533l-.531,3.742a1.82,1.82,0,0,0,.428,1.45,1.813,1.813,0,0,0,1.37.625,1.813,1.813,0,0,0,1.37-.625,1.82,1.82,0,0,0,.428-1.45Z" transform="translate(67.899 10)"/>
          </g>
          <g id="g7217" transform="translate(33.754 9.245)">
            <path id="path7219" d="M-68.921-10A5.474,5.474,0,0,1-63.53-5.314l.479,3.379a.786.786,0,0,1-.185.626.786.786,0,0,1-.593.271H-74.014a.786.786,0,0,1-.593-.271.786.786,0,0,1-.185-.626l.479-3.379A5.473,5.473,0,0,1-68.921-10Zm4.187,7.389-.352-2.482a3.894,3.894,0,0,0-3.835-3.334,3.894,3.894,0,0,0-3.835,3.334l-.352,2.482Z" transform="translate(74.8 10)"/>
          </g>
          <g id="g7221" transform="translate(28.178 17.351)">
            <path id="path7223"/>
          </g>
          <g id="g7225" transform="translate(31.151 17.42)">
            <path id="path7227"/>
          </g>
          <g id="g7229" transform="translate(25.313 17.351)">
            <path id="path7231"/>
          </g>
          <g id="g7233" transform="translate(22.501 17.351)">
            <path id="path7235"/>
          </g>
        </g>
      </g>
    </g>
  </g>
</svg>
