<svg xmlns="http://www.w3.org/2000/svg" xmlns:xlink="http://www.w3.org/1999/xlink" width="101" height="101" viewBox="0 0 101 101">
  <defs>
    <filter id="Elipse_4719" x="0" y="0" width="101" height="101" filterUnits="userSpaceOnUse">
      <feOffset dy="1" input="SourceAlpha"/>
      <feGaussianBlur stdDeviation="5.5" result="blur"/>
      <feFlood flood-color="#fff" flood-opacity="0.902"/>
      <feComposite operator="in" in2="blur"/>
      <feComposite in="SourceGraphic"/>
    </filter>
  </defs>
  <g id="Grupo_1072748" data-name="Grupo 1072748" transform="translate(-596.656 -8489.5)">
    <g id="Grupo_1072744" data-name="Grupo 1072744" transform="translate(613.289 8505)">
      <g id="Grupo_1044235" data-name="Grupo 1044235" transform="translate(-0.132 0)">
        <g transform="matrix(1, 0, 0, 1, -16.5, -15.5)" filter="url(#Elipse_4719)">
          <g id="Elipse_4719-2" data-name="Elipse 4719" transform="translate(16.5 15.5)" fill="none" stroke="#1425dd" stroke-width="6">
            <circle cx="34" cy="34" r="34" stroke="none"/>
            <circle cx="34" cy="34" r="31" fill="none"/>
          </g>
        </g>
      </g>
    </g>
    <g id="gafas-de-realidad-virtual" transform="translate(603.869 8509)">
      <g id="Grupo_1072750" data-name="Grupo 1072750" transform="translate(16.162 0.874)">
        <path id="Trazado_819094" data-name="Trazado 819094" d="M382.352,347.117h-1.525a1.828,1.828,0,0,1,0-3.655h1.525a.838.838,0,0,0,.837-.836V331.867a1.828,1.828,0,0,1,3.655,0v10.759A4.5,4.5,0,0,1,382.352,347.117Z" transform="translate(-337.52 -292.48)" fill="#818181"/>
        <path id="Trazado_819095" data-name="Trazado 819095" d="M71.939,46.911H27.958a1.827,1.827,0,0,1-1.791-1.464l-2.983-14.7a19.39,19.39,0,0,1,19-23.247H57.71a19.39,19.39,0,0,1,19,23.246l-2.983,14.7a1.827,1.827,0,0,1-1.791,1.464ZM29.452,43.256H70.445l2.686-13.234A15.735,15.735,0,0,0,57.71,11.157H42.186A15.735,15.735,0,0,0,26.766,30.021Z" transform="translate(-22.792 -7.502)" fill="#818181"/>
        <g id="Grupo_1072749" data-name="Grupo 1072749" transform="translate(0)">
          <path id="Trazado_819096" data-name="Trazado 819096" d="M335.387,70.989h1.972l2.686-13.234a15.735,15.735,0,0,0-15.42-18.865h-1.972a15.735,15.735,0,0,1,15.42,18.865Z" transform="translate(-287.735 -35.235)" fill="#595959"/>
          <path id="Trazado_819097" data-name="Trazado 819097" d="M28.14,45.447l-2.983-14.7a19.39,19.39,0,0,1,19-23.247H42.187a19.39,19.39,0,0,0-19,23.246l2.983,14.7a1.828,1.828,0,0,0,1.791,1.464h1.972a1.827,1.827,0,0,1-1.791-1.464Z" transform="translate(-22.793 -7.502)" fill="#595959"/>
        </g>
        <path id="Trazado_819098" data-name="Trazado 819098" d="M109.478,80.572H103.1A16.539,16.539,0,0,0,86.556,97.111v14.338h39.462V97.111A16.539,16.539,0,0,0,109.478,80.572Z" transform="translate(-79.131 -72.063)" fill="#e29375"/>
        <path id="Trazado_819099" data-name="Trazado 819099" d="M113.237,81a16.549,16.549,0,0,0-12.779,16.111v15.1h-13.9v-15.1a16.539,16.539,0,0,1,16.539-16.539h6.383A16.6,16.6,0,0,1,113.237,81Z" transform="translate(-79.13 -72.063)" fill="#da8059"/>
        <path id="Trazado_819100" data-name="Trazado 819100" d="M160.747,254.179v14.5a14.459,14.459,0,1,1-28.918.182V254.179c0-.04,0,.036,0,0C131.829,254.175,143.018,259.872,160.747,254.179Z" transform="translate(-119.132 -225.443)" fill="#ffeee6"/>
        <path id="Trazado_819101" data-name="Trazado 819101" d="M150.6,267.353a14.3,14.3,0,0,1-4.2.662,14.459,14.459,0,0,1-14.568-14.46V238.877s3.108-3.695,8.644-1.112v15.79A14.464,14.464,0,0,0,150.6,267.353Z" transform="translate(-119.132 -210.141)" fill="#ffdfcf"/>
        <path id="Trazado_819102" data-name="Trazado 819102" d="M116.441,273.976H82.611a3.707,3.707,0,1,1,0-7.414h33.829a3.707,3.707,0,0,1,0,7.414Z" transform="translate(-72.37 -236.395)" fill="#818181"/>
        <path id="Trazado_819103" data-name="Trazado 819103" d="M120.148,286.4a3.706,3.706,0,0,1-3.707,3.707H82.611a3.707,3.707,0,0,1-3.353-5.289,3.707,3.707,0,0,0,3.353,2.124H116.44a3.708,3.708,0,0,0,3.353-2.124A3.675,3.675,0,0,1,120.148,286.4Z" transform="translate(-72.37 -252.523)" fill="#595959"/>
        <path id="Trazado_819104" data-name="Trazado 819104" d="M380.164,283.072h6.3a6.305,6.305,0,1,0,0-12.611h-6.3Z" transform="translate(-338.549 -239.84)" fill="#fe646f"/>
        <path id="Trazado_819105" data-name="Trazado 819105" d="M36.176,283.072h-6.3a6.305,6.305,0,1,1,0-12.611h6.3Z" transform="translate(-23.479 -239.84)" fill="#fe646f"/>
        <path id="Trazado_819106" data-name="Trazado 819106" d="M392.768,305.467a6.305,6.305,0,0,1-6.305,6.305h-6.3v-5.046h6.3a6.3,6.3,0,0,0,5.779-3.782A6.268,6.268,0,0,1,392.768,305.467Z" transform="translate(-338.547 -268.541)" fill="#fd4755"/>
        <path id="Trazado_819107" data-name="Trazado 819107" d="M36.178,306.725v5.046h-6.3a6.306,6.306,0,0,1-5.779-8.828,6.3,6.3,0,0,0,5.779,3.782h6.3Z" transform="translate(-23.481 -268.54)" fill="#fd4755"/>
        <path id="Trazado_819108" data-name="Trazado 819108" d="M227.289,80.569h6.687V100.8h-6.687Z" transform="translate(-203.476 -72.061)" fill="#818181"/>
        <path id="Trazado_819109" data-name="Trazado 819109" d="M227.289,80.569h2.436V100.8h-2.436Z" transform="translate(-203.476 -72.061)" fill="#595959"/>
        <path id="Trazado_819110" data-name="Trazado 819110" d="M143.2,245.045H119.076a4.392,4.392,0,0,1-4.392-4.392v-7.414a4.392,4.392,0,0,1,4.392-4.392H143.2a4.392,4.392,0,0,1,4.392,4.392v7.414A4.392,4.392,0,0,1,143.2,245.045Z" transform="translate(-103.983 -203.072)" fill="#aedeff"/>
        <path id="Trazado_819111" data-name="Trazado 819111" d="M125.328,245.04h-6.253a4.392,4.392,0,0,1-4.392-4.392v-7.414a4.392,4.392,0,0,1,4.392-4.392h6.253a4.392,4.392,0,0,0-4.392,4.392v7.414a4.392,4.392,0,0,0,4.392,4.392Z" transform="translate(-103.983 -203.068)" fill="#89c8fd"/>
      </g>
      <g id="Grupo_1072751" data-name="Grupo 1072751" transform="translate(15.288 0)">
        <path id="Trazado_819112" data-name="Trazado 819112" d="M70.938,24.294A20.264,20.264,0,0,0,51.08,0H35.555A20.264,20.264,0,0,0,15.7,24.295l1.724,8.492a7.177,7.177,0,0,0,5.137,12.192H28A15.332,15.332,0,0,0,43.317,59.62h.117a15.457,15.457,0,0,0,15.19-14.641h2.332v6H59.468a2.7,2.7,0,0,0,0,5.4h1.525a5.372,5.372,0,0,0,5.365-5.365V44.607a7.143,7.143,0,0,0,1.482-.693.873.873,0,0,0-.917-1.487,5.417,5.417,0,0,1-2.846.805H58.65v-.655a5.257,5.257,0,0,0,2-4.123V32.368h3.431a5.434,5.434,0,0,1,4.848,7.885.873.873,0,1,0,1.557.791,7.179,7.179,0,0,0-1.269-8.257ZM64.612,44.958v6.06a3.623,3.623,0,0,1-3.619,3.619H59.468a.954.954,0,0,1,0-1.908h1.525a1.712,1.712,0,0,0,1.71-1.71V44.979h1.374c.179,0,.357-.007.534-.02ZM21.219,8.545a18.448,18.448,0,0,1,14.336-6.8H51.08a18.517,18.517,0,0,1,18.147,22.2l-1.551,7.639a7.086,7.086,0,0,0-1.8-.738l1.479-7.281A16.609,16.609,0,0,0,51.08,3.655H35.555A16.609,16.609,0,0,0,19.279,23.567l1.478,7.281a7.089,7.089,0,0,0-1.8.738l-1.551-7.639a18.448,18.448,0,0,1,3.811-15.4ZM64.078,30.621h-.157v-4.7A17.431,17.431,0,0,0,46.509,8.509H40.126a17.426,17.426,0,0,0-11.224,4.1.873.873,0,1,0,1.127,1.335A15.676,15.676,0,0,1,39.1,10.289V25.775H31.254a5.271,5.271,0,0,0-5.247,4.846H24.461v-4.7a15.516,15.516,0,0,1,3.278-9.591.873.873,0,0,0-1.38-1.07,17.247,17.247,0,0,0-3.644,10.661v4.7h-.157l-.064,0-1.5-7.4A14.862,14.862,0,0,1,35.555,5.4H51.08A14.862,14.862,0,0,1,65.645,23.219l-1.5,7.4Zm-23.23-4.846V10.255h4.94v15.52ZM17.125,37.8a5.433,5.433,0,0,1,5.433-5.432h3.431v6.087a5.256,5.256,0,0,0,2,4.123v.654H22.558A5.439,5.439,0,0,1,17.125,37.8Zm26.3,20.074h-.1A13.586,13.586,0,0,1,29.732,44.287v-.175s0,0,0-.007v-.611a5.248,5.248,0,0,0,1.521.225H55.381a5.246,5.246,0,0,0,1.522-.225v.611A13.714,13.714,0,0,1,43.422,57.873ZM58.9,38.454a3.522,3.522,0,0,1-3.518,3.518H31.254a3.522,3.522,0,0,1-3.518-3.518V31.04a3.522,3.522,0,0,1,3.518-3.518H55.381A3.522,3.522,0,0,1,58.9,31.04ZM55.381,25.775H47.535V10.29A15.685,15.685,0,0,1,62.174,25.921v4.7H60.628a5.271,5.271,0,0,0-5.247-4.846Z" transform="translate(-15.288 0)"/>
        <path id="Trazado_819113" data-name="Trazado 819113" d="M220.335,389.647a5.227,5.227,0,0,1-7.392,0,.873.873,0,0,0-1.235,1.235,6.974,6.974,0,0,0,9.863,0,.873.873,0,1,0-1.235-1.235Z" transform="translate(-188.609 -344.048)"/>
        <path id="Trazado_819114" data-name="Trazado 819114" d="M139.824,256.064a.873.873,0,0,0-1.1.553l-1.133,3.41L136.4,256.6a.873.873,0,0,0-1.65.573l1.915,5.516a1,1,0,0,0,.942.665h.007a1,1,0,0,0,.941-.684l1.826-5.5A.874.874,0,0,0,139.824,256.064Z" transform="translate(-120.792 -226.197)"/>
        <path id="Trazado_819115" data-name="Trazado 819115" d="M193.16,258.338a2.372,2.372,0,0,0-2.409-2.327h-1.487a.874.874,0,0,0-.873.876l0,5.591a.873.873,0,1,0,1.747,0v-1.122l1.5,1.7a.873.873,0,0,0,1.311-1.154l-1.251-1.421A2.331,2.331,0,0,0,193.16,258.338Zm-2.409-.58a.586.586,0,1,1,0,1.161l-.608,0c0-.225,0-.926,0-1.163Z" transform="translate(-168.232 -226.199)"/>
      </g>
    </g>
  </g>
</svg>
