<svg xmlns="http://www.w3.org/2000/svg" xmlns:xlink="http://www.w3.org/1999/xlink" width="251.041" height="180.063" viewBox="0 0 251.041 180.063">
  <defs>
    <filter id="Elipse_4719" x="166.45" y="97.137" width="84.591" height="82.926" filterUnits="userSpaceOnUse">
      <feOffset dy="1" input="SourceAlpha"/>
      <feGaussianBlur stdDeviation="5.5" result="blur"/>
      <feFlood flood-color="#fff" flood-opacity="0.902"/>
      <feComposite operator="in" in2="blur"/>
      <feComposite in="SourceGraphic"/>
    </filter>
    <filter id="Elipse_4719-2" x="20.5" y="0" width="45" height="45" filterUnits="userSpaceOnUse">
      <feOffset dy="1" input="SourceAlpha"/>
      <feGaussianBlur stdDeviation="5.5" result="blur-2"/>
      <feFlood flood-color="#fff" flood-opacity="0.902"/>
      <feComposite operator="in" in2="blur-2"/>
      <feComposite in="SourceGraphic"/>
    </filter>
  </defs>
  <g id="Grupo_1072763" data-name="Grupo 1072763" transform="translate(-915 -691.5)">
    <g id="Grupo_1072761" data-name="Grupo 1072761" transform="translate(0 0.438)">
      <rect id="dispositivos-informaticos-tecnologia-nube-conectados-al-almacenamiento-digital-centro-datos-traves-internet-iot-smart-home-communication-laptop-tablet" width="245" height="118.358" rx="12" transform="translate(915 748.642)" fill="#222b89"/>
      <path id="Trazado_771202" data-name="Trazado 771202" d="M1.494,27.082,0,25.751a3.669,3.669,0,0,1,3.683-2.029c1.129-.045,1.79-.114,2.244-.991s.258-1.709-.127-3.1c-.408-1.479-.916-3.321.078-5.242a3.668,3.668,0,0,1,3.683-2.029c1.129-.045,1.79-.113,2.244-.991s.258-1.709-.126-3.1c-.408-1.479-.916-3.321.078-5.242A3.669,3.669,0,0,1,15.441.991C16.57.946,17.231.878,17.685,0L19.18,1.331A3.668,3.668,0,0,1,15.5,3.361c-1.129.045-1.791.114-2.245.991s-.258,1.709.126,3.1c.408,1.479.916,3.321-.078,5.242a3.669,3.669,0,0,1-3.683,2.029c-1.129.045-1.79.114-2.244.991s-.258,1.709.127,3.1c.408,1.479.916,3.321-.078,5.242a3.668,3.668,0,0,1-3.683,2.029c-1.13.045-1.791.114-2.244.991" transform="translate(1132.082 718.863) rotate(90)" fill="#dc40ed"/>
      <ellipse id="Elipse_4729" data-name="Elipse 4729" cx="2.959" cy="3.107" rx="2.959" ry="3.107" transform="translate(1054.704 845.047)" fill="#fff"/>
      <g id="Grupo_1072486" data-name="Grupo 1072486" transform="translate(925.639 715.599)">
        <g id="Grupo_1072487" data-name="Grupo 1072487" transform="translate(0 28.881)">
          <path id="Trazado_818654" data-name="Trazado 818654" d="M21.027,28.61A21.027,21.027,0,1,0,42.054,49.638,21.027,21.027,0,0,0,21.027,28.61m0,34.471A13.444,13.444,0,1,1,34.471,49.638,13.444,13.444,0,0,1,21.027,63.081" transform="translate(0 -45.079)" fill="#dc40ed"/>
          <rect id="Rectángulo_376303" data-name="Rectángulo 376303" width="7.673" height="1.374" transform="translate(140.119 14.718)" fill="#dc40ed"/>
          <rect id="Rectángulo_376304" data-name="Rectángulo 376304" width="11.57" height="1.374" transform="translate(140.119 17.81)" fill="#dc40ed"/>
          <rect id="Rectángulo_376305" data-name="Rectángulo 376305" width="14.267" height="1.374" transform="translate(140.119 20.902)" fill="#dc40ed"/>
          <rect id="Rectángulo_376306" data-name="Rectángulo 376306" width="5.455" height="1.374" transform="translate(140.119 23.994)" fill="#dc40ed"/>
          <rect id="Rectángulo_376307" data-name="Rectángulo 376307" width="25.631" height="2.673" transform="translate(80.82 22.913)" fill="#dc40ed" stroke="#289df2" stroke-miterlimit="10" stroke-width="1.128"/>
          <rect id="Rectángulo_376308" data-name="Rectángulo 376308" width="15.882" height="0.786" transform="translate(82.265 23.652)" fill="#dc40ed"/>
        </g>
      </g>
      <g id="Grupo_1072488" data-name="Grupo 1072488" transform="translate(1097.95 803.699)">
        <g transform="matrix(1, 0, 0, 1, -182.95, -112.64)" filter="url(#Elipse_4719)">
          <g id="Elipse_4719-3" data-name="Elipse 4719" transform="translate(182.95 112.64)" fill="none" stroke="#fff" stroke-width="6">
            <ellipse cx="25.795" cy="24.963" rx="25.795" ry="24.963" stroke="none"/>
            <ellipse cx="25.795" cy="24.963" rx="22.795" ry="21.963" fill="none"/>
          </g>
        </g>
      </g>
      <g id="Grupo_1072489" data-name="Grupo 1072489" transform="translate(952 706.563)">
        <g transform="matrix(1, 0, 0, 1, -37, -15.5)" filter="url(#Elipse_4719-2)">
          <circle id="Elipse_4719-4" data-name="Elipse 4719" cx="6" cy="6" r="6" transform="translate(37 15.5)" fill="#dc40ed"/>
        </g>
      </g>
      <path id="Trazado_771199" data-name="Trazado 771199" d="M19.42,12.138H11.106L18.813,0H9.1L0,18.206H7.161L0,35.2Z" transform="translate(1113.73 827.619) rotate(-1)" fill="#dc40ed"/>
    </g>
    <g id="FILLED_OUTLINE" transform="translate(930.932 698.426)">
      <rect id="Rectángulo_376486" data-name="Rectángulo 376486" width="105" height="134" rx="16" transform="translate(51.88 18.313)" fill="#7950ea"/>
      <path id="Trazado_819264" data-name="Trazado 819264" d="M112,56h86.333V171.111H112Z" transform="translate(-50.417 -28.009)" fill="#8b74f7"/>
      <g id="Grupo_1072854" data-name="Grupo 1072854" transform="translate(102.352 35.185)">
        <path id="Trazado_819265" data-name="Trazado 819265" d="M248,80h35.972v4.8H248Z" transform="translate(-248 -80)" fill="#f9cb58"/>
        <path id="Trazado_819266" data-name="Trazado 819266" d="M248,216h23.981v4.8H248Z" transform="translate(-248 -175.231)" fill="#f9cb58"/>
        <path id="Trazado_819267" data-name="Trazado 819267" d="M248,320h21.583v4.8H248Z" transform="translate(-248 -248.056)" fill="#f9cb58"/>
        <path id="Trazado_819268" data-name="Trazado 819268" d="M248,112h28.778v4.8H248Z" transform="translate(-248 -102.407)" fill="#f9cb58"/>
        <path id="Trazado_819269" data-name="Trazado 819269" d="M248,184h35.972v4.8H248Z" transform="translate(-248 -152.824)" fill="#f9cb58"/>
      </g>
      <rect id="Rectángulo_376487" data-name="Rectángulo 376487" width="19" height="18" rx="9" transform="translate(73.88 38.313)" fill="#eab849"/>
      <path id="Trazado_819270" data-name="Trazado 819270" d="M0,0H16.958V4.8H0Z" transform="translate(79.065 47.883) rotate(-45)" fill="#f4f4f4"/>
      <rect id="Rectángulo_376488" data-name="Rectángulo 376488" width="19" height="20" rx="9.5" transform="translate(73.88 68.313)" fill="#eab849"/>
      <path id="Trazado_819271" data-name="Trazado 819271" d="M0,0H16.958V4.8H0Z" transform="translate(79.061 79.057) rotate(-45)" fill="#f4f4f4"/>
      <rect id="Rectángulo_376489" data-name="Rectángulo 376489" width="19" height="19" rx="9.5" transform="translate(73.88 100.313)" fill="#eab849"/>
      <path id="Trazado_819272" data-name="Trazado 819272" d="M311.551,192.519a5.087,5.087,0,0,0-7.194,0L248,248.876v7.194h7.194l56.356-56.356A5.087,5.087,0,0,0,311.551,192.519Z" transform="translate(-145.648 -122.561)" fill="#eab849"/>
      <path id="Trazado_819273" data-name="Trazado 819273" d="M416,198.515l7.194,7.194,6-6A5.087,5.087,0,0,0,422,192.519Z" transform="translate(-263.287 -122.561)" fill="#d3a039"/>
      <path id="Trazado_819274" data-name="Trazado 819274" d="M279.822,282.38l-.849-.424a4.8,4.8,0,0,1-2.308-6.071l6.748-16.869A4.8,4.8,0,0,1,287.865,256H300.7a14.389,14.389,0,0,1,12.139,6.664l12.546,19.716,16.787,16.787v28.778L312.4,298.173a4.8,4.8,0,0,0-3.391-1.4H303.8a14.389,14.389,0,0,1-8.633-2.878l-10.452-7.839a5.308,5.308,0,0,1,5.818-8.855l10.426,5.958a4.283,4.283,0,0,0,5.689-6.095l-2.849-4.273-7.194-7.194Z" transform="translate(-165.479 -168.056)" fill="#f9cea0"/>
      <path id="Trazado_819275" data-name="Trazado 819275" d="M0,0H20.349V10.174H0Z" transform="translate(128.712 99.937) rotate(-45)" fill="#eab849"/>
      <path id="Trazado_819276" data-name="Trazado 819276" d="M86,220.106l-.122-.091a5.927,5.927,0,0,0-7.943.757l-16.168,17.8a2.4,2.4,0,0,1-4.173-1.612V200l-5.756,4.317A9.593,9.593,0,0,0,48,211.991v76.741H69.583V264.339a16.376,16.376,0,0,1,4.8-11.579,16.376,16.376,0,0,0,4.8-11.579v-1.073a4.793,4.793,0,0,1,1.111-3.07c1.529-1.835,4.366-5.237,6.761-8.107A6.118,6.118,0,0,0,86,220.106Z" transform="translate(-5.602 -128.843)" fill="#f9cea0"/>
      <path id="Trazado_819277" data-name="Trazado 819277" d="M143.532,126.315h-5.208a12.067,12.067,0,0,1-7.194-2.4l-10.452-7.839a2.91,2.91,0,0,1,3.19-4.855l10.427,5.958a6.681,6.681,0,0,0,8.874-9.507l-1.758-2.637,5.955-5.955,10.66,16.752L175,132.807l3.392-3.391-16.6-16.6-1.882-2.957V86.54l7.691-7.691a7.488,7.488,0,0,0-7.691-12.386V23.194A7.2,7.2,0,0,0,152.713,16H56.787a7.2,7.2,0,0,0-7.194,7.194V69.958l-4.8,3.6A12.048,12.048,0,0,0,40,83.148v76.741h4.8V83.148a7.229,7.229,0,0,1,2.878-5.756l1.919-1.439v32.163a4.8,4.8,0,0,0,8.347,3.225l6-6.61h.038v-.042L74.108,93.541a3.514,3.514,0,0,1,4.728-.451l.122.092a3.722,3.722,0,0,1,1.482,2.567,3.672,3.672,0,0,1-.836,2.8c-2.4,2.87-5.232,6.273-6.762,8.108a7.205,7.205,0,0,0-1.667,4.606v1.073a13.885,13.885,0,0,1-4.094,9.883,18.65,18.65,0,0,0-5.5,13.275v24.393h4.8v-4.8h86.333a7.2,7.2,0,0,0,7.194-7.194v-1.4L175,161.585l3.392-3.391-29.771-29.771a7.148,7.148,0,0,0-5.087-2.107Zm-25.732-6.4,1.114.835-10.361,10.361h-3.8v-3.8l10.571-10.571a7.7,7.7,0,0,0,2.479,3.177Zm-4.388-11.2,6.747-16.869a2.387,2.387,0,0,1,2.227-1.507h12.546l-20.973,20.973a2.413,2.413,0,0,1-.547-2.6Zm11.995-2.067,27.306-27.306,3.8,3.8-26.223,26.223-4.046-2.312a7.663,7.663,0,0,0-.84-.407Zm13.771,3.683a1.885,1.885,0,0,1-2.5,2.683l-2.064-1.179,3.342-3.342Zm15.934-8.014-4.272-6.713,4.272-4.272Zm7.194-31.454a2.689,2.689,0,0,1,1.9,4.591l-4.3,4.3-3.8-3.8,4.3-4.3A2.671,2.671,0,0,1,162.306,70.866ZM54.389,108.114V23.194a2.4,2.4,0,0,1,2.4-2.4h95.926a2.4,2.4,0,0,1,2.4,2.4v46.97l-4.8,4.8V25.593H59.185v77.242Zm21.583,3.15a2.4,2.4,0,0,1,.555-1.534c1.4-1.686,3.912-4.693,6.168-7.4h5.267a2.4,2.4,0,0,1,2.4,2.4v9.593a2.4,2.4,0,0,1-2.4,2.4H78.37a2.4,2.4,0,0,1-2.4-2.4Zm-5.5,14.348a18.777,18.777,0,0,0,3.774-5.4,7.152,7.152,0,0,0,4.123,1.3h9.593a7.2,7.2,0,0,0,7.194-7.194v-9.593a7.2,7.2,0,0,0-7.194-7.194H85.155a8.555,8.555,0,0,0,.05-2.343,8.452,8.452,0,0,0-2.254-4.852h5.012a7.2,7.2,0,0,0,7.194-7.194v-4.8h-4.8v4.8a2.4,2.4,0,0,1-2.4,2.4H78.37a2.4,2.4,0,0,1-2.4-2.4V73.556a2.4,2.4,0,0,1,2.4-2.4h4.8v-4.8h-4.8a7.2,7.2,0,0,0-7.194,7.194v9.593a7.172,7.172,0,0,0,2.172,5.144,8.356,8.356,0,0,0-2.791,2.024l-6.576,7.239V30.389h81.537V79.757l-6.278,6.278a16.724,16.724,0,0,0-4.019-.488H122.386a7.16,7.16,0,0,0-6.68,4.522l-6.747,16.869c-.025.063-.043.128-.066.192h-6.541v4.8h6.5a7.261,7.261,0,0,0,1.723,2.776l-10.62,10.62v10.586H110.54l12.25-12.25,5.462,4.1a16.891,16.891,0,0,0,10.072,3.357h5.208a2.382,2.382,0,0,1,1.7.7l.291.291v8.6H66.38V135.5a13.885,13.885,0,0,1,4.094-9.883ZM155.111,147.9a2.4,2.4,0,0,1-2.4,2.4H66.38v-4.8h83.935v-8.6l4.8,4.8Z"/>
      <path id="Trazado_819278" data-name="Trazado 819278" d="M167.981,91.991h-4.8v4.8a2.4,2.4,0,0,1-2.4,2.4h-9.593a2.4,2.4,0,0,1-2.4-2.4V87.194a2.4,2.4,0,0,1,2.4-2.4h4.8V80h-4.8A7.2,7.2,0,0,0,144,87.194v9.593a7.2,7.2,0,0,0,7.194,7.194h9.593a7.2,7.2,0,0,0,7.194-7.194Z" transform="translate(-72.824 -44.815)"/>
      <path id="Trazado_819279" data-name="Trazado 819279" d="M0,0H16.958V4.8H0Z" transform="translate(79.064 47.88) rotate(-45)"/>
      <path id="Trazado_819280" data-name="Trazado 819280" d="M248,80h35.972v4.8H248Z" transform="translate(-145.648 -44.815)"/>
      <path id="Trazado_819281" data-name="Trazado 819281" d="M0,0H16.958V4.8H0Z" transform="translate(79.061 79.057) rotate(-45)"/>
      <path id="Trazado_819282" data-name="Trazado 819282" d="M248,216h23.981v4.8H248Z" transform="translate(-145.648 -140.046)"/>
      <path id="Trazado_819283" data-name="Trazado 819283" d="M248,112h28.778v4.8H248Z" transform="translate(-145.648 -67.222)"/>
      <path id="Trazado_819284" data-name="Trazado 819284" d="M248,184h35.972v4.8H248Z" transform="translate(-145.648 -117.639)"/>
    </g>
  </g>
</svg>
