<svg xmlns="http://www.w3.org/2000/svg" xmlns:xlink="http://www.w3.org/1999/xlink" width="251.041" height="180.063" viewBox="0 0 251.041 180.063">
  <defs>
    <filter id="Elipse_4719" x="166.45" y="97.137" width="84.591" height="82.926" filterUnits="userSpaceOnUse">
      <feOffset dy="1" input="SourceAlpha"/>
      <feGaussianBlur stdDeviation="5.5" result="blur"/>
      <feFlood flood-color="#fff" flood-opacity="0.902"/>
      <feComposite operator="in" in2="blur"/>
      <feComposite in="SourceGraphic"/>
    </filter>
    <filter id="Elipse_4719-2" x="20.5" y="0" width="45" height="45" filterUnits="userSpaceOnUse">
      <feOffset dy="1" input="SourceAlpha"/>
      <feGaussianBlur stdDeviation="5.5" result="blur-2"/>
      <feFlood flood-color="#fff" flood-opacity="0.902"/>
      <feComposite operator="in" in2="blur-2"/>
      <feComposite in="SourceGraphic"/>
    </filter>
  </defs>
  <g id="Grupo_1072764" data-name="Grupo 1072764" transform="translate(-915.313 -691.5)">
    <g id="Grupo_1072761" data-name="Grupo 1072761" transform="translate(0.313 0.438)">
      <rect id="dispositivos-informaticos-tecnologia-nube-conectados-al-almacenamiento-digital-centro-datos-traves-internet-iot-smart-home-communication-laptop-tablet" width="245" height="118.358" rx="12" transform="translate(915 748.642)" fill="#222b89"/>
      <path id="Trazado_771202" data-name="Trazado 771202" d="M1.494,27.082,0,25.751a3.669,3.669,0,0,1,3.683-2.029c1.129-.045,1.79-.114,2.244-.991s.258-1.709-.127-3.1c-.408-1.479-.916-3.321.078-5.242a3.668,3.668,0,0,1,3.683-2.029c1.129-.045,1.79-.113,2.244-.991s.258-1.709-.126-3.1c-.408-1.479-.916-3.321.078-5.242A3.669,3.669,0,0,1,15.441.991C16.57.946,17.231.878,17.685,0L19.18,1.331A3.668,3.668,0,0,1,15.5,3.361c-1.129.045-1.791.114-2.245.991s-.258,1.709.126,3.1c.408,1.479.916,3.321-.078,5.242a3.669,3.669,0,0,1-3.683,2.029c-1.129.045-1.79.114-2.244.991s-.258,1.709.127,3.1c.408,1.479.916,3.321-.078,5.242a3.668,3.668,0,0,1-3.683,2.029c-1.13.045-1.791.114-2.244.991" transform="translate(1132.082 718.863) rotate(90)" fill="#dc40ed"/>
      <ellipse id="Elipse_4729" data-name="Elipse 4729" cx="2.959" cy="3.107" rx="2.959" ry="3.107" transform="translate(1054.704 845.047)" fill="#fff"/>
      <g id="Grupo_1072486" data-name="Grupo 1072486" transform="translate(925.639 715.599)">
        <g id="Grupo_1072487" data-name="Grupo 1072487" transform="translate(0 28.881)">
          <path id="Trazado_818654" data-name="Trazado 818654" d="M21.027,28.61A21.027,21.027,0,1,0,42.054,49.638,21.027,21.027,0,0,0,21.027,28.61m0,34.471A13.444,13.444,0,1,1,34.471,49.638,13.444,13.444,0,0,1,21.027,63.081" transform="translate(0 -45.079)" fill="#dc40ed"/>
          <rect id="Rectángulo_376303" data-name="Rectángulo 376303" width="7.673" height="1.374" transform="translate(140.119 14.718)" fill="#dc40ed"/>
          <rect id="Rectángulo_376304" data-name="Rectángulo 376304" width="11.57" height="1.374" transform="translate(140.119 17.81)" fill="#dc40ed"/>
          <rect id="Rectángulo_376305" data-name="Rectángulo 376305" width="14.267" height="1.374" transform="translate(140.119 20.902)" fill="#dc40ed"/>
          <rect id="Rectángulo_376306" data-name="Rectángulo 376306" width="5.455" height="1.374" transform="translate(140.119 23.994)" fill="#dc40ed"/>
          <rect id="Rectángulo_376307" data-name="Rectángulo 376307" width="25.631" height="2.673" transform="translate(80.82 22.913)" fill="#dc40ed" stroke="#289df2" stroke-miterlimit="10" stroke-width="1.128"/>
          <rect id="Rectángulo_376308" data-name="Rectángulo 376308" width="15.882" height="0.786" transform="translate(82.265 23.652)" fill="#dc40ed"/>
        </g>
      </g>
      <g id="Grupo_1072488" data-name="Grupo 1072488" transform="translate(1097.95 803.699)">
        <g transform="matrix(1, 0, 0, 1, -182.95, -112.64)" filter="url(#Elipse_4719)">
          <g id="Elipse_4719-3" data-name="Elipse 4719" transform="translate(182.95 112.64)" fill="none" stroke="#fff" stroke-width="6">
            <ellipse cx="25.795" cy="24.963" rx="25.795" ry="24.963" stroke="none"/>
            <ellipse cx="25.795" cy="24.963" rx="22.795" ry="21.963" fill="none"/>
          </g>
        </g>
      </g>
      <g id="Grupo_1072489" data-name="Grupo 1072489" transform="translate(952 706.563)">
        <g transform="matrix(1, 0, 0, 1, -37, -15.5)" filter="url(#Elipse_4719-2)">
          <circle id="Elipse_4719-4" data-name="Elipse 4719" cx="6" cy="6" r="6" transform="translate(37 15.5)" fill="#dc40ed"/>
        </g>
      </g>
      <path id="Trazado_771199" data-name="Trazado 771199" d="M19.42,12.138H11.106L18.813,0H9.1L0,18.206H7.161L0,35.2Z" transform="translate(1113.73 827.619) rotate(-1)" fill="#dc40ed"/>
    </g>
    <g id="Layer_1" transform="translate(964.146 712.769)">
      <g id="Grupo_1072876" data-name="Grupo 1072876" transform="translate(2.167 11.431)">
        <g id="Grupo_1072875" data-name="Grupo 1072875" transform="translate(1.413 1.413)">
          <g id="Grupo_1072857" data-name="Grupo 1072857" transform="translate(0 18.099)">
            <g id="Grupo_1072856" data-name="Grupo 1072856">
              <path id="Trazado_819301" data-name="Trazado 819301" d="M144.086,45.953V153.974a2.826,2.826,0,0,1-2.826,2.826H7.493a2.826,2.826,0,0,1-2.826-2.826V45.953Z" transform="translate(-4.667 -45.953)" fill="#fc5d3d"/>
            </g>
          </g>
          <g id="Grupo_1072864" data-name="Grupo 1072864" transform="translate(41.061 46.726)">
            <g id="Grupo_1072859" data-name="Grupo 1072859">
              <g id="Grupo_1072858" data-name="Grupo 1072858">
                <path id="Trazado_819302" data-name="Trazado 819302" d="M105.962,96.6c-15.823,0-28.649,10.839-28.649,24.208,0,7.465,4,14.139,10.288,18.58l1.021,8.626a2.47,2.47,0,0,0,2.452,2.179h29.774a2.469,2.469,0,0,0,2.452-2.179l1.021-8.626c6.287-4.44,10.288-11.114,10.288-18.58C134.611,107.439,121.785,96.6,105.962,96.6Z" transform="translate(-77.313 -96.6)" fill="#efefef"/>
              </g>
            </g>
            <g id="Grupo_1072861" data-name="Grupo 1072861" transform="translate(10.295 16.755)">
              <g id="Grupo_1072860" data-name="Grupo 1072860">
                <path id="Trazado_819303" data-name="Trazado 819303" d="M106.428,137.144c-2.656,2.656-6.254,3.364-8.909.709a6.8,6.8,0,1,1,9.618-9.618C109.793,130.89,109.084,134.488,106.428,137.144Z" transform="translate(-95.527 -126.243)" fill="#afafaf"/>
              </g>
            </g>
            <g id="Grupo_1072863" data-name="Grupo 1072863" transform="translate(33.721 16.755)">
              <g id="Grupo_1072862" data-name="Grupo 1072862">
                <path id="Trazado_819304" data-name="Trazado 819304" d="M139.355,137.144c2.656,2.656,6.254,3.364,8.909.709a6.8,6.8,0,0,0-9.618-9.618C135.99,130.89,136.7,134.488,139.355,137.144Z" transform="translate(-136.974 -126.243)" fill="#afafaf"/>
              </g>
            </g>
          </g>
          <g id="Grupo_1072866" data-name="Grupo 1072866">
            <g id="Grupo_1072865" data-name="Grupo 1072865">
              <path id="Trazado_819305" data-name="Trazado 819305" d="M144.086,16.757V32.03H4.667V16.757a2.826,2.826,0,0,1,2.826-2.826H141.261A2.826,2.826,0,0,1,144.086,16.757Z" transform="translate(-4.667 -13.931)" fill="#afafaf"/>
            </g>
          </g>
          <g id="Grupo_1072868" data-name="Grupo 1072868" transform="translate(7.323 5.584)">
            <g id="Grupo_1072867" data-name="Grupo 1072867" transform="translate(0)">
              <circle id="Elipse_9775" data-name="Elipse 9775" cx="3.466" cy="3.466" r="3.466" fill="#fc5d3d"/>
            </g>
          </g>
          <g id="Grupo_1072870" data-name="Grupo 1072870" transform="translate(20.689 5.584)">
            <g id="Grupo_1072869" data-name="Grupo 1072869">
              <circle id="Elipse_9776" data-name="Elipse 9776" cx="3.466" cy="3.466" r="3.466" fill="#f0c020"/>
            </g>
          </g>
          <g id="Grupo_1072872" data-name="Grupo 1072872" transform="translate(34.054 5.584)">
            <g id="Grupo_1072871" data-name="Grupo 1072871">
              <circle id="Elipse_9777" data-name="Elipse 9777" cx="3.466" cy="3.466" r="3.466" fill="#13bf6d"/>
            </g>
          </g>
          <g id="Grupo_1072874" data-name="Grupo 1072874" transform="translate(5.91 21.799)">
            <g id="Grupo_1072873" data-name="Grupo 1072873" transform="translate(0)">
              <path id="Trazado_819306" data-name="Trazado 819306" d="M140.532,153.39H23.815a1.413,1.413,0,0,1,0-2.826h115.3V53.912a1.413,1.413,0,0,1,2.826,0v98.065A1.413,1.413,0,0,1,140.532,153.39Zm-122.369,0H16.537a1.413,1.413,0,0,1,0-2.826h1.626a1.413,1.413,0,0,1,0,2.826Z" transform="translate(-15.124 -52.499)" fill="#ffcbc3"/>
            </g>
          </g>
        </g>
        <path id="Trazado_819307" data-name="Trazado 819307" d="M89.2,107.828a1.413,1.413,0,1,0,2,.119A1.456,1.456,0,0,0,89.2,107.828Z" transform="translate(-39.8 -53.195)"/>
        <path id="Trazado_819308" data-name="Trazado 819308" d="M81.129,106.1a1.446,1.446,0,0,0-1.973.333A22.828,22.828,0,0,0,74.81,119.72c0,7.444,3.781,14.5,10.372,19.364l.95,8.009a3.885,3.885,0,0,0,3.855,3.425h29.775a3.885,3.885,0,0,0,3.855-3.425l.95-8.009c6.59-4.867,10.372-11.92,10.372-19.364,0-14.007-13.282-25.621-30.064-25.621a33.71,33.71,0,0,0-16.923,4.437,1.418,1.418,0,0,0-.514,1.933,1.453,1.453,0,0,0,1.933.514,30.541,30.541,0,0,1,13.589-4l-1.675,5.623a1.422,1.422,0,0,0,1.357,1.82h2.724l-1.837,5.675a1.414,1.414,0,1,0,2.69.87l2.436-7.523a1.415,1.415,0,0,0-1.345-1.848h-2.775l1.388-4.653c14.815.465,26.189,10.715,26.189,22.774,0,6.715-3.533,13.068-9.693,17.426a1.412,1.412,0,0,0-.588.989l-1.017,8.625a1.062,1.062,0,0,1-1.051.933h-7.868l.345-7.037a1.415,1.415,0,0,0-2.826-.141l-.348,7.178h-8.382l-.348-7.178a1.415,1.415,0,0,0-2.826.141l.346,7.037H89.986a1.062,1.062,0,0,1-1.051-.933l-1.017-8.625a1.44,1.44,0,0,0-.588-.989c-6.161-4.358-9.693-10.711-9.693-17.426a19.993,19.993,0,0,1,3.826-11.643,1.418,1.418,0,0,0-.333-1.973Z" transform="translate(-33.751 -47.374)"/>
        <path id="Trazado_819309" data-name="Trazado 819309" d="M95.428,126.146a8.21,8.21,0,0,0,0,11.615c3.182,3.208,7.679,2.513,10.909-.707v-.006c3.253-3.253,3.9-7.748.707-10.9A8.2,8.2,0,0,0,95.428,126.146Zm8.908,8.908v.006c-2.078,2.078-4.789,2.8-6.907.706a5.39,5.39,0,0,1,7.619-7.625C107.158,130.294,106.4,133,104.336,135.054Z" transform="translate(-41.669 -60.26)"/>
        <path id="Trazado_819310" data-name="Trazado 819310" d="M148.189,137.767a8.214,8.214,0,1,0-11.616-11.616c-3,3-2.711,7.488.708,10.907C140.484,140.261,144.961,141,148.189,137.767Zm-9.617-9.618a5.388,5.388,0,1,1,7.619,7.619c-2.1,2.1-4.831,1.371-6.911-.708s-2.807-4.811-.708-6.911Z" transform="translate(-59.705 -60.265)"/>
        <path id="Trazado_819311" data-name="Trazado 819311" d="M130.233,153.359a1.413,1.413,0,0,0,0,2l1.04,1.046a1.415,1.415,0,1,0,2-2l-1.04-1.04A1.444,1.444,0,0,0,130.233,153.359Z" transform="translate(-57.669 -72.964)"/>
        <path id="Trazado_819312" data-name="Trazado 819312" d="M119.752,156.4a1.411,1.411,0,0,0,2,0l1.046-1.04a1.418,1.418,0,0,0,0-2,1.444,1.444,0,0,0-2,0l-1.04,1.04A1.418,1.418,0,0,0,119.752,156.4Z" transform="translate(-53.112 -72.964)"/>
        <path id="Trazado_819313" data-name="Trazado 819313" d="M195.408,145.7a1.412,1.412,0,0,0,2,0l7.636-7.636a1.418,1.418,0,0,0,0-2l-7.636-7.63a1.437,1.437,0,0,0-2,0,1.406,1.406,0,0,0,0,2l6.63,6.636-6.63,6.636a1.4,1.4,0,0,0,0,2Z" transform="translate(-86.003 -62.125)"/>
        <path id="Trazado_819314" data-name="Trazado 819314" d="M52.544,128.429a1.437,1.437,0,0,0-2,0l-7.636,7.63a1.419,1.419,0,0,0,0,2l7.636,7.636a1.413,1.413,0,0,0,2-2l-6.636-6.636,6.636-6.636a1.4,1.4,0,0,0,0-2Z" transform="translate(-19.703 -62.125)"/>
        <circle id="Elipse_9778" data-name="Elipse 9778" cx="1.413" cy="1.413" r="1.413" transform="translate(0.002 60.268)"/>
        <path id="Trazado_819315" data-name="Trazado 819315" d="M140.173,11.431H6.406A4.244,4.244,0,0,0,2.167,15.67c0,.187,0,18.779,0,51.789a1.413,1.413,0,0,0,2.826,0V32.354h136.59V138.965a1.414,1.414,0,0,1-1.413,1.413H6.408a1.414,1.414,0,0,1-1.413-1.413v-60.2a1.413,1.413,0,1,0-2.826,0v60.2A4.244,4.244,0,0,0,6.408,143.2H140.171a4.244,4.244,0,0,0,4.239-4.239c0-13.718,0-119.588,0-123.295A4.244,4.244,0,0,0,140.173,11.431ZM4.993,29.528V15.67a1.415,1.415,0,0,1,1.413-1.413H140.174a1.415,1.415,0,0,1,1.413,1.413V29.528Z" transform="translate(-2.167 -11.431)"/>
        <path id="Trazado_819316" data-name="Trazado 819316" d="M20,21.309a4.878,4.878,0,1,0,4.878,4.878A4.891,4.891,0,0,0,20,21.309Zm0,6.93a2.052,2.052,0,1,1,2.052-2.052A2.064,2.064,0,0,1,20,28.239Z" transform="translate(-7.799 -15.726)"/>
        <path id="Trazado_819317" data-name="Trazado 819317" d="M43.648,21.309a4.878,4.878,0,1,0,4.878,4.878A4.882,4.882,0,0,0,43.648,21.309Zm0,6.935A2.055,2.055,0,1,1,45.7,26.187,2.064,2.064,0,0,1,43.648,28.244Z" transform="translate(-18.081 -15.726)"/>
        <path id="Trazado_819318" data-name="Trazado 819318" d="M67.3,21.309a4.878,4.878,0,1,0,4.878,4.878A4.882,4.882,0,0,0,67.3,21.309Zm0,6.935a2.055,2.055,0,1,1,2.052-2.057A2.064,2.064,0,0,1,67.3,28.244Z" transform="translate(-28.364 -15.726)"/>
        <path id="Trazado_819319" data-name="Trazado 819319" d="M152.015,27.439H95.493a1.413,1.413,0,0,0,0,2.826h56.521a1.413,1.413,0,0,0,0-2.826Z" transform="translate(-42.129 -18.391)"/>
        <circle id="Elipse_9779" data-name="Elipse 9779" cx="1.413" cy="1.413" r="1.413" transform="translate(114.124 9.048)"/>
        <path id="Trazado_819320" data-name="Trazado 819320" d="M227.035,27.439H215.493a1.413,1.413,0,0,0,0,2.826h11.542a1.413,1.413,0,1,0,0-2.826Z" transform="translate(-94.304 -18.391)"/>
      </g>
    </g>
  </g>
</svg>
