<svg xmlns="http://www.w3.org/2000/svg" xmlns:xlink="http://www.w3.org/1999/xlink" width="127" height="127" viewBox="0 0 127 127">
  <defs>
    <filter id="Elipse_4723" x="0" y="0" width="127" height="127" filterUnits="userSpaceOnUse">
      <feOffset dy="1" input="SourceAlpha"/>
      <feGaussianBlur stdDeviation="5.5" result="blur"/>
      <feFlood flood-color="#fff" flood-opacity="0.902"/>
      <feComposite operator="in" in2="blur"/>
      <feComposite in="SourceGraphic"/>
    </filter>
  </defs>
  <g id="Grupo_1072783" data-name="Grupo 1072783" transform="translate(-269.5 -1970.5)">
    <g transform="matrix(1, 0, 0, 1, 269.5, 1970.5)" filter="url(#Elipse_4723)">
      <g id="Elipse_4723-2" data-name="Elipse 4723" transform="translate(16.5 15.5)" fill="none" stroke="#fff" stroke-width="6">
        <circle cx="47" cy="47" r="47" stroke="none"/>
        <circle cx="47" cy="47" r="44" fill="none"/>
      </g>
    </g>
    <g id="banda-ancha" transform="translate(292.33 1986.196)">
      <g id="Grupo_1072780" data-name="Grupo 1072780" transform="translate(3.431 12.563)">
        <g id="Grupo_1072777" data-name="Grupo 1072777" transform="translate(0 15.522)">
          <g id="Grupo_1072774" data-name="Grupo 1072774">
            <path id="Trazado_819192" data-name="Trazado 819192" d="M79.925,210.177v1.658a7.021,7.021,0,0,1-7.02,7.02H12.19a7.021,7.021,0,0,1-7.02-7.02v-1.658a1.309,1.309,0,0,1,1.308-1.312H78.616A1.309,1.309,0,0,1,79.925,210.177Z" transform="translate(-5.17 -165.181)" fill="#72c2e9"/>
            <path id="Trazado_819193" data-name="Trazado 819193" d="M118.614,208.865v1.823a2.434,2.434,0,0,1-2.434,2.434h-9.725a2.434,2.434,0,0,1-2.434-2.434v-1.823Z" transform="translate(-73.94 -165.181)" fill="#4ba5c8"/>
            <path id="Trazado_819194" data-name="Trazado 819194" d="M85.021,68.455v40.536H18.19V68.455a3.147,3.147,0,0,1,3.146-3.146H35.289l3.962,5.465,2.428,3.347,2.428-3.347,3.962-5.465H58.05v8.813h6.965V65.309H81.874a3.147,3.147,0,0,1,3.146,3.146Z" transform="translate(-14.228 -65.309)" fill="#72c2e9"/>
            <g id="Grupo_1072773" data-name="Grupo 1072773" transform="translate(18.429)">
              <path id="Trazado_819195" data-name="Trazado 819195" d="M68.362,65.309l3.962,5.465H69.692L65.73,65.309Z" transform="translate(-65.73 -65.309)" fill="#4ba5c8"/>
              <path id="Trazado_819196" data-name="Trazado 819196" d="M109.951,65.309l-3.962,5.465H103.36l3.962-5.465Z" transform="translate(-91.909 -65.309)" fill="#4ba5c8"/>
              <path id="Trazado_819197" data-name="Trazado 819197" d="M142.18,65.309h2.13v5.465h-2.13Z" transform="translate(-118.916 -65.309)" fill="#4ba5c8"/>
              <path id="Trazado_819198" data-name="Trazado 819198" d="M172.07,65.309h2.13v5.465h-2.13Z" transform="translate(-139.711 -65.309)" fill="#4ba5c8"/>
            </g>
            <path id="Trazado_819199" data-name="Trazado 819199" d="M91.087,83.269v33.507H33.69V83.269H50.034l2.428,3.347,2.428-3.347H68.834v3.347H75.8V83.269Z" transform="translate(-25.011 -77.804)" fill="#efefef"/>
            <path id="Trazado_819200" data-name="Trazado 819200" d="M88.871,83.269l-3.335,4.6a2.132,2.132,0,0,1-3.451,0l-3.335-4.6h2.632l2.428,3.347,2.428-3.347Z" transform="translate(-56.359 -77.804)" fill="#afafaf"/>
            <path id="Trazado_819201" data-name="Trazado 819201" d="M153.406,83.269v3.347a2.129,2.129,0,0,1-2.13,2.13H144.31a2.129,2.129,0,0,1-2.13-2.13V83.269h2.13v3.347h6.965V83.269Z" transform="translate(-100.488 -77.804)" fill="#afafaf"/>
          </g>
          <g id="Grupo_1072776" data-name="Grupo 1072776" transform="translate(15.369 13.441)">
            <path id="Trazado_819202" data-name="Trazado 819202" d="M106.964,141.209a15.95,15.95,0,0,1,.155,7.681H76.044a15.93,15.93,0,0,1,26.8-14.792l0,0a15.871,15.871,0,0,1,3.186,4.558v0Z" transform="translate(-69.571 -123.358)" fill="#efefef"/>
            <path id="Trazado_819203" data-name="Trazado 819203" d="M179.132,130.649v0l0,0Z" transform="translate(-141.562 -124.207)" fill="#fc5d3d"/>
            <path id="Trazado_819204" data-name="Trazado 819204" d="M175.485,149.745H169.3a15.95,15.95,0,0,0-.155-7.681l2.413-.879a1.359,1.359,0,0,0-.931-2.553l-2.413.879v0a15.872,15.872,0,0,0-3.186-4.558l4.294-4.291A21.97,21.97,0,0,1,175.485,149.745Z" transform="translate(-131.753 -124.214)" fill="#fc5d3d"/>
            <path id="Trazado_819205" data-name="Trazado 819205" d="M76.882,130.649l0,0v0Z" transform="translate(-70.427 -124.207)" fill="#13bf6d"/>
            <path id="Trazado_819206" data-name="Trazado 819206" d="M62.15,149.745H55.967a21.948,21.948,0,0,1,6.162-19.086l4.294,4.294A15.921,15.921,0,0,0,62.15,149.745Z" transform="translate(-55.677 -124.214)" fill="#13bf6d"/>
            <path id="Trazado_819207" data-name="Trazado 819207" d="M108,115.924l-4.294,4.291,0,0a15.924,15.924,0,0,0-22.527,0l-4.294-4.294,0,0a22,22,0,0,1,31.112,0Z" transform="translate(-70.427 -109.479)" fill="#f0c020"/>
            <path id="Trazado_819208" data-name="Trazado 819208" d="M121.007,176.48h-8.514a4.924,4.924,0,0,1,4.254-7.391,4.81,4.81,0,0,1,3.259,1.229,5.027,5.027,0,0,1,1.473,2.358A4.821,4.821,0,0,1,121.007,176.48Z" transform="translate(-94.737 -150.95)" fill="#7d7b79"/>
            <path id="Trazado_819209" data-name="Trazado 819209" d="M153.255,159.225l-2.413.879-10.651,3.877a5.027,5.027,0,0,0-1.473-2.358l11.192-4.072,2.413-.879a1.359,1.359,0,0,1,.931,2.553Z" transform="translate(-113.449 -142.254)" fill="#72c2e9"/>
            <g id="Grupo_1072775" data-name="Grupo 1072775" transform="translate(1.99 7.615)">
              <path id="Trazado_819210" data-name="Trazado 819210" d="M62.243,150.045q-.018-.316-.026-.631a.761.761,0,0,1,1.521-.04q.008.292.025.585a.761.761,0,0,1-1.519.087Zm.793-2.933a.761.761,0,0,1-.655-.853,20.112,20.112,0,0,1,5.69-11.532.761.761,0,1,1,1.076,1.076,18.581,18.581,0,0,0-5.258,10.655A.761.761,0,0,1,63.036,147.112Z" transform="translate(-62.216 -134.503)" fill="#76ffbb"/>
            </g>
          </g>
        </g>
        <g id="Grupo_1072779" data-name="Grupo 1072779" transform="translate(19.007 0)">
          <path id="Trazado_819211" data-name="Trazado 819211" d="M84.516,26.991l-2.051,2.83L78.5,35.287l-2.428,3.347-2.428-3.347-3.962-5.465-2.054-2.83h4.96V14.3h6.965V26.991Z" transform="translate(-67.63 -14.299)" fill="#13bf6d"/>
          <g id="Grupo_1072778" data-name="Grupo 1072778" transform="translate(19.856)">
            <path id="Trazado_819212" data-name="Trazado 819212" d="M149.766,25.942h-4.96V38.634H137.84V25.942h-4.96L141.321,14.3Z" transform="translate(-132.88 -14.299)" fill="#fc5d3d"/>
          </g>
        </g>
      </g>
      <g id="Grupo_1072781" data-name="Grupo 1072781" transform="translate(53.675 49.141)">
        <path id="Trazado_819213" data-name="Trazado 819213" d="M175.9,149.924a18.39,18.39,0,0,0-5.39-14.122.761.761,0,0,1,1.076-1.076,19.9,19.9,0,0,1,5.833,15.282A.761.761,0,0,1,175.9,149.924Z" transform="translate(-170.283 -134.503)" fill="#ffcbc3"/>
      </g>
      <g id="Grupo_1072782" data-name="Grupo 1072782" transform="translate(26.412 43.491)">
        <path id="Trazado_819214" data-name="Trazado 819214" d="M108.178,122.883a18.5,18.5,0,0,0-26.178,0,.761.761,0,0,1-1.076-1.075,20.017,20.017,0,0,1,28.331,0,.761.761,0,1,1-1.077,1.075Z" transform="translate(-80.69 -115.933)" fill="#f8e5b0"/>
      </g>
      <circle id="Elipse_9754" data-name="Elipse 9754" cx="0.761" cy="0.761" r="0.761" transform="translate(73.463 42.144)"/>
      <circle id="Elipse_9755" data-name="Elipse 9755" cx="0.761" cy="0.761" r="0.761" transform="translate(23.755 81)"/>
      <path id="Trazado_819215" data-name="Trazado 819215" d="M10.451,82.521H21.473a.761.761,0,0,0,0-1.522H10.451A6.283,6.283,0,0,1,4.192,74.74V73.082a.55.55,0,0,1,.548-.551H32.75v1.062a3.2,3.2,0,0,0,3.2,3.2h9.725a3.2,3.2,0,0,0,3.2-3.2V72.531H76.877a.55.55,0,0,1,.548.551V74.74A6.283,6.283,0,0,1,71.165,81H27.559a.761.761,0,0,0,0,1.522H71.165a7.777,7.777,0,0,0,7.781-7.781V73.082a2.076,2.076,0,0,0-2.069-2.072H74.984V45.947a.761.761,0,0,0-1.522,0V71.01H8.153V31.233a2.388,2.388,0,0,1,2.386-2.386H24.1l2.86,3.944H12.109a.761.761,0,0,0-.761.761V67.059a.761.761,0,0,0,.761.761h57.4a.761.761,0,0,0,.761-.761V33.552a.761.761,0,0,0-.761-.761H54.979V28.846h16.1a2.4,2.4,0,0,1,2.386,2.389v8.627a.761.761,0,0,0,1.522,0V31.234a3.912,3.912,0,0,0-3.907-3.907h-16.1v-2.36h4.2a.761.761,0,0,0,.616-1.207L51.35,12.118a.761.761,0,0,0-1.232,0L41.677,23.76a.761.761,0,0,0,.616,1.207h4.2v2.358H38.763L39.941,25.7a.76.76,0,0,0-.618-1.205h-4.2V12.565a.761.761,0,0,0-1.522,0V25.258a.764.764,0,0,0,.761.761h3.469L30.882,35.6l-6.953-9.586H27.4a.762.762,0,0,0,.761-.761v-3.7a.761.761,0,0,0-1.522,0V24.5h-4.2a.758.758,0,0,0-.615,1.205L23,27.326H10.539a3.912,3.912,0,0,0-3.907,3.907V71.009H4.739A2.076,2.076,0,0,0,2.67,73.082V74.74a7.777,7.777,0,0,0,7.781,7.781ZM61.874,66.3h-4.6a16.738,16.738,0,0,0-.181-6.438l1.775-.646a2.12,2.12,0,0,0-1.452-3.983l-1.77.644a16.554,16.554,0,0,0-2.505-3.6l3.22-3.217A21.331,21.331,0,0,1,61.874,66.3ZM30.084,52.8A15.175,15.175,0,0,1,54.2,56.4l-9.985,3.634a5.677,5.677,0,0,0-8.328,1.726,5.614,5.614,0,0,0-.5,4.539H25.9A15.075,15.075,0,0,1,30.084,52.8ZM55.722,66.3H46.235a5.54,5.54,0,0,0,.19-2.554l9.227-3.359a15.208,15.208,0,0,1,.071,5.913ZM37.208,62.516a4.162,4.162,0,0,1,7.4,3.781H37.018A4.106,4.106,0,0,1,37.208,62.516ZM46,62.279h0a6.419,6.419,0,0,0-.607-1.053L57.934,56.66a.6.6,0,0,1,.412,1.123h0ZM52.062,51.2a16.676,16.676,0,0,0-22.5,0l-3.22-3.22a21.23,21.23,0,0,1,28.947,0Zm-26.8-2.144,3.22,3.22A16.578,16.578,0,0,0,24.347,66.3h-4.6A21.239,21.239,0,0,1,25.262,49.057Zm21.231-20.21v3.944H34.8l2.86-3.944Zm-15,8.5,2.2-3.032h12.8V36.9a.761.761,0,0,0,1.522,0V24.207a.761.761,0,0,0-.761-.761H43.784l6.95-9.586,6.953,9.586H54.219a.761.761,0,0,0-.761.761V36.9a.761.761,0,0,0,1.522,0V34.313H68.746V66.3h-5.34c2.606-21.425-23.43-34.126-38.691-18.864a22.771,22.771,0,0,0-6.5,18.864H12.87V34.313h15.2l2.2,3.032a.756.756,0,0,0,1.229,0ZM47.344,72.531v1.062a1.683,1.683,0,0,1-1.674,1.674H35.945a1.681,1.681,0,0,1-1.674-1.674V72.531Z" transform="translate(0)"/>
      <circle id="Elipse_9756" data-name="Elipse 9756" cx="0.761" cy="0.761" r="0.761" transform="translate(26.637 17.751)"/>
      <path id="Trazado_819216" data-name="Trazado 819216" d="M82.952,12.583a.761.761,0,0,0-1.522,0v2.9a.761.761,0,0,0,1.522,0Z" transform="translate(-54.793 -0.017)"/>
    </g>
  </g>
</svg>
