<svg xmlns="http://www.w3.org/2000/svg" xmlns:xlink="http://www.w3.org/1999/xlink" width="295" height="246" viewBox="0 0 295 246">
  <defs>
    <clipPath id="clip-path">
      <rect id="SVGID" width="120" height="75.71" fill="none"/>
    </clipPath>
    <linearGradient id="linear-gradient" x1="-0.367" y1="0.277" x2="-0.367" y2="0.025" gradientUnits="objectBoundingBox">
      <stop offset="0" stop-color="#fff"/>
      <stop offset="0.102" stop-color="#ecf8fb"/>
      <stop offset="0.307" stop-color="#bde8f3"/>
      <stop offset="0.597" stop-color="#71cee7"/>
      <stop offset="0.957" stop-color="#09abd5"/>
      <stop offset="0.988" stop-color="#00a8d4"/>
    </linearGradient>
    <linearGradient id="linear-gradient-2" x1="-0.344" y1="-0.01" x2="-0.37" y2="0.97" gradientUnits="objectBoundingBox">
      <stop offset="0" stop-color="#ffcc94"/>
      <stop offset="1" stop-color="#1c0555"/>
    </linearGradient>
    <linearGradient id="linear-gradient-3" x1="-0.525" y1="0.5" x2="0.475" y2="0.5" gradientUnits="objectBoundingBox">
      <stop offset="0" stop-color="#ffcc94"/>
      <stop offset="0.996" stop-color="#3f0001"/>
    </linearGradient>
    <linearGradient id="linear-gradient-4" x1="-157.232" y1="0.876" x2="-264.693" y2="-2.129" xlink:href="#linear-gradient-3"/>
    <linearGradient id="linear-gradient-5" x1="-1.426" y1="0.81" x2="-2.434" y2="0.451" xlink:href="#linear-gradient-3"/>
    <linearGradient id="linear-gradient-6" x1="-160.773" y1="0.968" x2="-268.248" y2="-2.036" xlink:href="#linear-gradient-3"/>
    <linearGradient id="linear-gradient-7" x1="-9.224" y1="0.695" x2="-16.328" y2="-2.309" xlink:href="#linear-gradient-3"/>
  </defs>
  <g id="Grupo_1072882" data-name="Grupo 1072882" transform="translate(-600 -399)">
    <rect id="Rectángulo_376462" data-name="Rectángulo 376462" width="295" height="246" rx="33" transform="translate(600 399)" fill="#fae2fd"/>
    <g id="Grupo_1072880" data-name="Grupo 1072880" transform="translate(612.307 551.521)">
      <g id="Grupo_1072487" data-name="Grupo 1072487" transform="translate(0)">
        <path id="Trazado_818654" data-name="Trazado 818654" d="M38.5,28.61A38.5,38.5,0,1,0,77,67.113a38.5,38.5,0,0,0-38.5-38.5m0,63.119A24.616,24.616,0,1,1,63.119,67.113,24.616,24.616,0,0,1,38.5,91.729" transform="translate(0 -28.61)" fill="#dc40ed"/>
        <rect id="Rectángulo_376303" data-name="Rectángulo 376303" width="14.05" height="2.517" transform="translate(241.707 57.106)" fill="#dc40ed"/>
        <rect id="Rectángulo_376304" data-name="Rectángulo 376304" width="21.185" height="2.516" transform="translate(241.707 62.768)" fill="#dc40ed"/>
        <rect id="Rectángulo_376305" data-name="Rectángulo 376305" width="26.125" height="2.517" transform="translate(241.707 68.428)" fill="#dc40ed"/>
        <rect id="Rectángulo_376306" data-name="Rectángulo 376306" width="9.989" height="2.517" transform="translate(241.707 74.09)" fill="#dc40ed"/>
        <rect id="Rectángulo_376307" data-name="Rectángulo 376307" width="46.932" height="4.895" transform="translate(138.66 72.112)" fill="#dc40ed" stroke="#289df2" stroke-miterlimit="10" stroke-width="1.128"/>
        <rect id="Rectángulo_376308" data-name="Rectángulo 376308" width="29.081" height="1.44" transform="translate(141.807 73.464)" fill="#dc40ed"/>
      </g>
    </g>
    <g id="Grupo_1072881" data-name="Grupo 1072881" transform="translate(620.668 414.993)">
      <g id="Grupo_1072487-2" data-name="Grupo 1072487" transform="translate(0 0)">
        <path id="Trazado_818654-2" data-name="Trazado 818654" d="M38.5,105.616A38.5,38.5,0,1,0,0,67.112a38.5,38.5,0,0,0,38.5,38.5m0-63.12A24.617,24.617,0,1,1,13.886,67.112,24.616,24.616,0,0,1,38.5,42.5" transform="translate(190.827 -28.609)" fill="#dc40ed"/>
        <rect id="Rectángulo_376303-2" data-name="Rectángulo 376303" width="14.05" height="2.517" transform="translate(12.075 17.384)" fill="#dc40ed"/>
        <rect id="Rectángulo_376304-2" data-name="Rectángulo 376304" width="21.185" height="2.516" transform="translate(4.94 11.723)" fill="#dc40ed"/>
        <rect id="Rectángulo_376305-2" data-name="Rectángulo 376305" width="26.125" height="2.517" transform="translate(0 6.061)" fill="#dc40ed"/>
        <rect id="Rectángulo_376306-2" data-name="Rectángulo 376306" width="9.989" height="2.517" transform="translate(16.136 0.4)" fill="#dc40ed"/>
        <rect id="Rectángulo_376307-2" data-name="Rectángulo 376307" width="46.932" height="4.895" transform="translate(82.24 0)" fill="#dc40ed" stroke="#289df2" stroke-miterlimit="10" stroke-width="1.128"/>
        <rect id="Rectángulo_376308-2" data-name="Rectángulo 376308" width="29.081" height="1.44" transform="translate(96.944 2.103)" fill="#dc40ed"/>
      </g>
    </g>
    <g id="Grupo_83203" data-name="Grupo 83203" transform="translate(449 16.666)">
      <g id="Grupo_83199" data-name="Grupo 83199" transform="translate(-56.254 333.351)">
        <g id="Grupo_83162" data-name="Grupo 83162" transform="translate(344.15 72.983)">
          <g id="Grupo_83128" data-name="Grupo 83128" transform="translate(37.463 70.098)">
            <g id="Grupo_83126" data-name="Grupo 83126">
              <rect id="Rectángulo_34190" data-name="Rectángulo 34190" width="3.398" height="126.121" fill="#26241f"/>
              <rect id="Rectángulo_34191" data-name="Rectángulo 34191" width="3.398" height="126.121" transform="translate(1.39)" fill="#2b2923"/>
            </g>
            <g id="Grupo_83127" data-name="Grupo 83127" transform="translate(49.589)">
              <rect id="Rectángulo_34192" data-name="Rectángulo 34192" width="3.398" height="126.121" fill="#26241f"/>
              <rect id="Rectángulo_34193" data-name="Rectángulo 34193" width="3.398" height="126.121" transform="translate(1.39)" fill="#2b2923"/>
            </g>
            <rect id="Rectángulo_34194" data-name="Rectángulo 34194" width="48.421" height="5.545" transform="translate(50.962 44.913) rotate(-180)" fill="#2b2923"/>
          </g>
          <g id="Grupo_83161" data-name="Grupo 83161">
            <rect id="Rectángulo_34195" data-name="Rectángulo 34195" width="5.191" height="80.198" transform="translate(123.812)" fill="#49453e"/>
            <rect id="Rectángulo_34196" data-name="Rectángulo 34196" width="1.369" height="80.198" transform="translate(124.485)" fill="#322f28" opacity="0.4" style="mix-blend-mode: screen;isolation: isolate"/>
            <rect id="Rectángulo_34197" data-name="Rectángulo 34197" width="125.181" height="80.198" fill="#322f28"/>
            <g id="Grupo_83160" data-name="Grupo 83160" transform="translate(2.59 1.921)">
              <g id="Grupo_83159" data-name="Grupo 83159" clip-path="url(#clip-path)">
                <g id="Grupo_83158" data-name="Grupo 83158" transform="translate(-2.467)">
                  <rect id="Rectángulo_34198" data-name="Rectángulo 34198" width="120" height="76.357" transform="translate(2.467)" fill="#97f5ff"/>
                  <rect id="Rectángulo_34199" data-name="Rectángulo 34199" width="120" height="73.225" transform="translate(2.467)" opacity="0.5" fill="url(#linear-gradient)" style="mix-blend-mode: multiply;isolation: isolate"/>
                  <path id="Trazado_116032" data-name="Trazado 116032" d="M361.318,105.78a576.278,576.278,0,0,0-65.764-27.118s-.619,28.576,0,28.576S361.318,105.78,361.318,105.78Z" transform="translate(-293.621 -70.03)" fill="#9fceb6"/>
                  <path id="Trazado_116033" data-name="Trazado 116033" d="M391.172,97.849V84.272s-1.507-.911-8.614-1.639-10.569.273-12.847.091-4.645-1.641-7.288-1.641-6.015,2-8.382,2.278a106.5,106.5,0,0,0-10.571,1.732c-2.367.637-3.826,2.551-5.376,3.1s-2.849.667-5.16,1.587c-3.555,1.412-7.618,9.826-7.618,9.826l15.787,6.81Z" transform="translate(-267.846 -67.952)" fill="#998946"/>
                  <path id="Trazado_116034" data-name="Trazado 116034" d="M322.091,98.391s6.925-6.286,11.208-7.016,11.206.273,14.122-.091,9.111-2,12.847-1.73,13.3.219,18.678.037,14.992-2.133,14.992-2.133v9.475l-51.893,1.459Z" transform="translate(-270.612 -62.482)" fill="#8e7f40"/>
                  <path id="Trazado_116035" data-name="Trazado 116035" d="M363.157,98.266l2.508-.427-3.22-14.046-1.832,3.519-1.626-2.836-3.053,5.379-3.254-9.194-.916,2.445-.916-1.172-3.831,16.512,2.815-.082a24.171,24.171,0,0,1,6.307-.587C359.9,97.874,360.92,98.755,363.157,98.266Z" transform="translate(-249.222 -68.313)" fill="#8c6d2f"/>
                  <path id="Trazado_116036" data-name="Trazado 116036" d="M349,95.878l1.276-.819-1.193-4.372-1.1,1.875-1.332-5.377-1.275,3.046-1.026-4.647-1.308,3.365-.877-1.633-1.135,3.28-.779-1.912L336.49,98.55S345.088,100.07,349,95.878Z" transform="translate(-258.256 -64.091)" fill="#937731"/>
                  <path id="Trazado_116037" data-name="Trazado 116037" d="M361.551,91.1,359,87.1l-2.8,4.057Z" transform="translate(-241.345 -62.787)" fill="#8c6d2f"/>
                  <path id="Trazado_116038" data-name="Trazado 116038" d="M351.1,93.4l-2.639-6.951-2.916,7.776Z" transform="translate(-250.487 -63.348)" fill="#8c6d2f"/>
                  <path id="Trazado_116039" data-name="Trazado 116039" d="M326.365,104.242a73.246,73.246,0,0,1-8.726-8.854c-4.1-5.011-22.212-16.64-22.212-16.64V97.393S311.4,105.258,326.365,104.242Z" transform="translate(-293.494 -69.956)" fill="#8e7f40"/>
                  <path id="Trazado_116040" data-name="Trazado 116040" d="M323.045,105.344,324.4,101.2l-3.19-11.39-1.639,2.917L316.75,82.251,313.2,88.719l-3.917-10.933L306,87.445l-2-3.19L298.8,97.648l4.463,4.1,2.826-1.184A28.815,28.815,0,0,0,323.045,105.344Z" transform="translate(-290.599 -70.782)" fill="#7f652b"/>
                  <path id="Trazado_116041" data-name="Trazado 116041" d="M348.775,95.7c-.037.009-1.7-6.455-1.7-6.455l-1.2,3.54-1.529-2.81-1.531,2.81-1.422-2.932-.76.842-1.262-2.542-1.477,1.823-.58-.847-1.065,1.392L335.2,89.17l-2.016,3.61-.866-1.736-2.085,3.213-1.094-.643L325.86,97.8h19.793Z" transform="translate(-267.378 -61.889)" fill="#937731"/>
                  <path id="Trazado_116042" data-name="Trazado 116042" d="M302.951,96.252l1.983.281-2.985-14.859-.911,1.913-1.093-3.007-2.187,5.285L295.48,81.4l-1.093,12.938Z" transform="translate(-294.387 -68.383)" fill="#8e6e2d"/>
                  <g id="Grupo_83129" data-name="Grupo 83129" transform="translate(27.972 29.539)">
                    <rect id="Rectángulo_34200" data-name="Rectángulo 34200" width="6.987" height="4.496" transform="translate(6.987 6.197) rotate(-180)" fill="#635a23"/>
                    <path id="Trazado_116043" data-name="Trazado 116043" d="M338.676,90.96v2.794l5.371-2.232Z" transform="translate(-284.352 -89.016)" fill="#635a23"/>
                    <rect id="Rectángulo_34201" data-name="Rectángulo 34201" width="71.201" height="2.704" transform="translate(71.457 2.704) rotate(-180)" fill="#6d6529"/>
                    <rect id="Rectángulo_34202" data-name="Rectángulo 34202" width="71.201" height="1.352" transform="translate(71.457 2.704) rotate(-180)" fill="#635a23"/>
                    <rect id="Rectángulo_34203" data-name="Rectángulo 34203" width="1.458" height="4.374" transform="translate(38.286 6.44) rotate(-180)" fill="#635a23"/>
                    <rect id="Rectángulo_34204" data-name="Rectángulo 34204" width="1.458" height="4.374" transform="translate(36.221 6.44) rotate(-180)" fill="#635a23"/>
                    <rect id="Rectángulo_34205" data-name="Rectángulo 34205" width="1.458" height="4.374" transform="translate(34.155 6.44) rotate(-180)" fill="#635a23"/>
                  </g>
                  <path id="Trazado_116044" data-name="Trazado 116044" d="M337.41,98.216s-6.559-.091-19.224-3.462-22.759-7.2-22.759-7.2v17.95A312.747,312.747,0,0,0,337.41,98.216Z" transform="translate(-293.494 -62.397)" fill="#a88729"/>
                  <path id="Trazado_116045" data-name="Trazado 116045" d="M316.165,99.809l-3.384-12.088L310.959,90l-2.369-5.74-4.21,12.756Z" transform="translate(-285.811 -65.227)" fill="#8e6e2d"/>
                  <path id="Trazado_116046" data-name="Trazado 116046" d="M332.83,96.852s4.283-.91,10.66-2.278,10.532-4.185,21.467-4.822,19.765-.485,19.765-.485v14.783Z" transform="translate(-261.397 -60.943)" fill="#a5974d"/>
                  <path id="Trazado_116047" data-name="Trazado 116047" d="M332.83,93.342s23.621,0,51.893,1.7v5.047C369.3,101.222,351.647,98.333,332.83,93.342Z" transform="translate(-261.397 -57.432)" fill="#db8f3e"/>
                  <g id="Grupo_83130" data-name="Grupo 83130" transform="translate(67.697 34.787)">
                    <path id="Trazado_116048" data-name="Trazado 116048" d="M339.271,95.962l-3.341-.4V92.855c.914-.043,2.007-.082,3.341-.106Z" transform="translate(-326.434 -92.728)" fill="#b2bed1"/>
                    <path id="Trazado_116049" data-name="Trazado 116049" d="M336.683,95.4l-2.551-.3V93.013l.2-.013s.792-.085,2.347-.173Z" transform="translate(-327.977 -92.661)" fill="#8c444e"/>
                    <path id="Trazado_116050" data-name="Trazado 116050" d="M334.869,94.932l-2.251-.268V93.082l2.251-.137Z" transform="translate(-329.276 -92.56)" fill="#b2bed1"/>
                    <path id="Trazado_116051" data-name="Trazado 116051" d="M342.386,96.587l-4.069-.485V92.75c1.217-.013,2.542-.019,4.069,0Z" transform="translate(-324.385 -92.738)" fill="#8c444e"/>
                    <path id="Trazado_116052" data-name="Trazado 116052" d="M331.572,93.126l1.519-.093v1.506l-1.519-.18Z" transform="translate(-330.174 -92.484)" fill="#8c444e"/>
                    <path id="Trazado_116053" data-name="Trazado 116053" d="M331.906,93.093V94.27l-1.087-.129V93.16Z" transform="translate(-330.819 -92.432)" fill="#b2bed1"/>
                    <path id="Trazado_116054" data-name="Trazado 116054" d="M341.259,92.758c1.49.028,3.1.071,4.861.139v4.415l-4.861-.578Z" transform="translate(-321.861 -92.72)" fill="#b2bed1"/>
                    <path id="Trazado_116055" data-name="Trazado 116055" d="M348.812,93.1c2.023.139,4.212.316,6.479.513v5.266l-6.479-.769Z" transform="translate(-315.379 -92.427)" fill="#b2bed1"/>
                    <path id="Trazado_116056" data-name="Trazado 116056" d="M357.966,93.935c1.687.186,3.395.379,5.186.595v5.5l-5.186-.617Z" transform="translate(-307.524 -91.71)" fill="#b2bed1"/>
                    <path id="Trazado_116057" data-name="Trazado 116057" d="M344.79,92.872c1.789.082,3.718.188,5.771.318V98.1l-5.771-.686Z" transform="translate(-318.831 -92.622)" fill="#8c444e"/>
                    <path id="Trazado_116058" data-name="Trazado 116058" d="M359.987,99.582l-6.641-.788V93.469c2.116.191,4.317.407,6.641.654Z" transform="translate(-311.488 -92.11)" fill="#8c444e"/>
                  </g>
                  <path id="Trazado_116059" data-name="Trazado 116059" d="M416.82,100.085a348.329,348.329,0,0,0-51.893-6.743H337.41l-41.983,7.29v33.878H416.82Z" transform="translate(-293.494 -57.432)" fill="#f4ad58"/>
                  <path id="Trazado_116060" data-name="Trazado 116060" d="M337.41,93.532v-.4a3.516,3.516,0,0,0-.652,0c-2.745.409-20.544,2.936-41.331,4.231v3.454Z" transform="translate(-293.494 -57.623)" fill="#db8f3e"/>
                  <g id="Grupo_83131" data-name="Grupo 83131" transform="translate(1.933 35.91)">
                    <path id="Trazado_116061" data-name="Trazado 116061" d="M326.447,93.342s17.716,8.676,52.671,41.167h4.614c-25.9-21.8-46.92-36.914-57.125-41.167Z" transform="translate(-268.807 -93.342)" fill="#ffd09c"/>
                    <path id="Trazado_116062" data-name="Trazado 116062" d="M342.569,93.342h-.182a2.071,2.071,0,0,1,.87,1.189c.433,3.43-41.637,39.978-41.637,39.978h4.251S344.377,98.19,343.6,94.485C343.468,93.868,342.569,93.342,342.569,93.342Z" transform="translate(-290.113 -93.342)" fill="#ffd09c"/>
                    <path id="Trazado_116063" data-name="Trazado 116063" d="M343.514,93.342h-.182s3.042,1.464-47.9,14.265v1.336C347.015,94.669,343.514,93.342,343.514,93.342Z" transform="translate(-295.427 -93.342)" fill="#ffd09c"/>
                    <path id="Trazado_116064" data-name="Trazado 116064" d="M328.1,93.342s17.4,3.428,60.687,16.329v-1.3C344.832,95.739,328.47,93.342,328.47,93.342Z" transform="translate(-267.391 -93.342)" fill="#ffd09c"/>
                  </g>
                  <rect id="Rectángulo_34206" data-name="Rectángulo 34206" width="41.854" height="11.933" transform="translate(82.802 73.614) rotate(-180)" fill="#db8f3e"/>
                  <path id="Trazado_116065" data-name="Trazado 116065" d="M416.82,100.085a348.329,348.329,0,0,0-51.893-6.743H337.41l-41.983,7.29v33.878H416.82Z" transform="translate(-293.494 -57.432)" opacity="0.3" fill="url(#linear-gradient-2)" style="mix-blend-mode: overlay;isolation: isolate"/>
                  <g id="Grupo_83149" data-name="Grupo 83149" transform="translate(7.444 49.235)">
                    <g id="Grupo_83147" data-name="Grupo 83147" transform="translate(0 0.76)">
                      <path id="Trazado_116066" data-name="Trazado 116066" d="M299.855,110.783a8.755,8.755,0,1,1,8.756,8.756A8.764,8.764,0,0,1,299.855,110.783Zm.39,0a8.364,8.364,0,1,0,8.365-8.364A8.375,8.375,0,0,0,300.245,110.783Z" transform="translate(-297.138 -99.972)" fill="#fff"/>
                      <path id="Trazado_116067" data-name="Trazado 116067" d="M308.173,120.235a11.318,11.318,0,0,0,0-18.463l-.23.318a10.922,10.922,0,0,1,0,17.827Z" transform="translate(-290.198 -100.193)" fill="#fff"/>
                      <path id="Trazado_116068" data-name="Trazado 116068" d="M303.163,120.235l.229-.318a10.925,10.925,0,0,1,0-17.827l-.229-.318a11.318,11.318,0,0,0,0,18.463Z" transform="translate(-298.393 -100.193)" fill="#fff"/>
                      <path id="Trazado_116069" data-name="Trazado 116069" d="M301.954,108.981a4.854,4.854,0,1,1,4.855,4.855A4.86,4.86,0,0,1,301.954,108.981Zm.312,0a4.541,4.541,0,1,0,4.543-4.539A4.546,4.546,0,0,0,302.266,108.981Z" transform="translate(-295.337 -98.171)" fill="#fff"/>
                      <path id="Trazado_116070" data-name="Trazado 116070" d="M305.965,109.434l-2.343-6.055-.3.122,2.161,6.42Z" transform="translate(-294.166 -98.814)" fill="#e22020"/>
                      <path id="Trazado_116071" data-name="Trazado 116071" d="M304.3,106.964a.486.486,0,1,0,.487-.485A.486.486,0,0,0,304.3,106.964Z" transform="translate(-293.32 -96.153)" fill="#fff"/>
                      <g id="Grupo_83132" data-name="Grupo 83132" transform="translate(11.277 2.954)">
                        <rect id="Rectángulo_34207" data-name="Rectángulo 34207" width="0.39" height="1.947" fill="#fff"/>
                      </g>
                      <rect id="Rectángulo_34208" data-name="Rectángulo 34208" width="1.947" height="0.39" transform="translate(17.382 10.616)" fill="#fff"/>
                      <rect id="Rectángulo_34209" data-name="Rectángulo 34209" width="1.944" height="0.387" transform="translate(3.616 10.617)" fill="#e22020"/>
                      <g id="Grupo_83133" data-name="Grupo 83133" transform="translate(5.778 5.118)">
                        <rect id="Rectángulo_34210" data-name="Rectángulo 34210" width="0.39" height="1.948" transform="translate(9.735 10.01) rotate(-45.019)" fill="#fff"/>
                        <rect id="Rectángulo_34211" data-name="Rectángulo 34211" width="0.39" height="1.946" transform="translate(0 0.276) rotate(-44.979)" fill="#fff"/>
                      </g>
                      <rect id="Rectángulo_34212" data-name="Rectángulo 34212" width="1.947" height="0.39" transform="matrix(0.708, -0.707, 0.707, 0.708, 15.512, 6.495)" fill="#fff"/>
                      <rect id="Rectángulo_34213" data-name="Rectángulo 34213" width="1.945" height="0.387" transform="translate(5.779 16.231) rotate(-45.004)" fill="#e22020"/>
                      <g id="Grupo_83137" data-name="Grupo 83137" transform="translate(4.763 6.873)">
                        <g id="Grupo_83134" data-name="Grupo 83134" transform="translate(0.948)">
                          <path id="Trazado_116072" data-name="Trazado 116072" d="M307.922,109.259l.218-.325-.806-.538-.218.326Z" transform="translate(-296.618 -101.382)" fill="#fff"/>
                          <rect id="Rectángulo_34214" data-name="Rectángulo 34214" width="0.392" height="0.967" transform="translate(0 0.325) rotate(-56.157)" fill="#fff"/>
                        </g>
                        <g id="Grupo_83135" data-name="Grupo 83135" transform="translate(0.348 1.17)">
                          <path id="Trazado_116073" data-name="Trazado 116073" d="M308.323,108.569l.149-.364-.9-.369-.149.364Z" transform="translate(-295.752 -103.032)" fill="#fff"/>
                          <rect id="Rectángulo_34215" data-name="Rectángulo 34215" width="0.393" height="0.966" transform="matrix(0.38, -0.925, 0.925, 0.38, 0, 0.364)" fill="#fff"/>
                        </g>
                        <g id="Grupo_83136" data-name="Grupo 83136" transform="translate(0 2.439)">
                          <path id="Trazado_116074" data-name="Trazado 116074" d="M308.575,107.812l.077-.387-.951-.186-.077.387Z" transform="translate(-295.235 -104.813)" fill="#fff"/>
                          <path id="Trazado_116075" data-name="Trazado 116075" d="M301.906,106.506l.077-.385-.949-.188-.077.385Z" transform="translate(-300.957 -105.933)" fill="#fff"/>
                        </g>
                      </g>
                      <rect id="Rectángulo_34216" data-name="Rectángulo 34216" width="0.968" height="0.39" transform="matrix(0.981, -0.196, 0.196, 0.981, 17.149, 9.482)" fill="#fff"/>
                      <path id="Trazado_116076" data-name="Trazado 116076" d="M301.034,107.819l.949-.188-.076-.38-.949.188Z" transform="translate(-296.192 -95.491)" fill="#e22020"/>
                      <rect id="Rectángulo_34217" data-name="Rectángulo 34217" width="0.968" height="0.391" transform="translate(16.775 8.389) rotate(-22.557)" fill="#fff"/>
                      <path id="Trazado_116077" data-name="Trazado 116077" d="M301.3,108.583l.892-.372-.152-.361-.892.372Z" transform="translate(-296.027 -94.976)" fill="#e22020"/>
                      <path id="Trazado_116078" data-name="Trazado 116078" d="M307.329,105.477l.8-.54-.218-.325-.8.54Z" transform="translate(-290.912 -97.755)" fill="#fff"/>
                      <path id="Trazado_116079" data-name="Trazado 116079" d="M301.693,109.266l.8-.539-.22-.323-.8.539Z" transform="translate(-295.75 -94.501)" fill="#e22020"/>
                      <g id="Grupo_83141" data-name="Grupo 83141" transform="translate(12.398 4.104)">
                        <g id="Grupo_83138" data-name="Grupo 83138" transform="translate(2.147 0.945)">
                          <path id="Trazado_116080" data-name="Trazado 116080" d="M306.546,104.664l.538-.806-.326-.218-.538.806Z" transform="translate(-306.221 -103.64)" fill="#fff"/>
                        </g>
                        <g id="Grupo_83139" data-name="Grupo 83139" transform="translate(1.11 0.348)">
                          <rect id="Rectángulo_34218" data-name="Rectángulo 34218" width="0.966" height="0.393" transform="matrix(0.38, -0.925, 0.925, 0.38, 0, 0.894)" fill="#fff"/>
                        </g>
                        <g id="Grupo_83140" data-name="Grupo 83140">
                          <path id="Trazado_116081" data-name="Trazado 116081" d="M305.45,104.157l.188-.949-.385-.077-.187.949Z" transform="translate(-305.065 -103.131)" fill="#fff"/>
                        </g>
                      </g>
                      <g id="Grupo_83145" data-name="Grupo 83145" transform="translate(7.516 4.108)">
                        <g id="Grupo_83142" data-name="Grupo 83142" transform="translate(2.438)">
                          <path id="Trazado_116082" data-name="Trazado 116082" d="M303.938,104.159l.383-.077-.188-.949-.383.077Z" transform="translate(-303.75 -103.133)" fill="#fff"/>
                        </g>
                        <g id="Grupo_83143" data-name="Grupo 83143" transform="translate(1.161 0.356)">
                          <rect id="Rectángulo_34219" data-name="Rectángulo 34219" width="0.39" height="0.968" transform="translate(0 0.15) rotate(-22.553)" fill="#fff"/>
                        </g>
                        <g id="Grupo_83144" data-name="Grupo 83144" transform="translate(0 0.955)">
                          <path id="Trazado_116083" data-name="Trazado 116083" d="M302.979,104.667l.325-.218-.542-.8-.325.218Z" transform="translate(-302.438 -103.647)" fill="#fff"/>
                        </g>
                      </g>
                      <g id="Grupo_83146" data-name="Grupo 83146" transform="translate(2.473)">
                        <path id="Trazado_116084" data-name="Trazado 116084" d="M308.626,101.649a.727.727,0,1,0,.728-.727A.73.73,0,0,0,308.626,101.649Z" transform="translate(-292.085 -100.922)" fill="#fff"/>
                        <path id="Trazado_116085" data-name="Trazado 116085" d="M299.724,101.649a.727.727,0,1,0,.727-.727A.729.729,0,0,0,299.724,101.649Z" transform="translate(-299.724 -100.922)" fill="#fff"/>
                        <path id="Trazado_116086" data-name="Trazado 116086" d="M308.626,112.5a.727.727,0,1,0,.728-.728A.728.728,0,0,0,308.626,112.5Z" transform="translate(-292.085 -91.608)" fill="#fff"/>
                        <path id="Trazado_116087" data-name="Trazado 116087" d="M299.724,112.5a.727.727,0,1,0,.727-.728A.726.726,0,0,0,299.724,112.5Z" transform="translate(-299.724 -91.608)" fill="#fff"/>
                      </g>
                    </g>
                    <g id="Grupo_83148" data-name="Grupo 83148" transform="translate(87.103)">
                      <path id="Trazado_116088" data-name="Trazado 116088" d="M345.48,111.9a11.179,11.179,0,1,0,11.179-11.177A11.179,11.179,0,0,0,345.48,111.9Z" transform="translate(-345.088 -100.331)" fill="#fff" opacity="0.2" style="mix-blend-mode: screen;isolation: isolate"/>
                      <path id="Trazado_116089" data-name="Trazado 116089" d="M345.269,112.084a11.572,11.572,0,1,1,11.571,11.573A11.585,11.585,0,0,1,345.269,112.084Zm.786,0A10.786,10.786,0,1,0,356.84,101.3,10.8,10.8,0,0,0,346.055,112.084Z" transform="translate(-345.269 -100.513)" fill="#fff"/>
                      <path id="Trazado_116090" data-name="Trazado 116090" d="M354.836,122.566s1.719-7.858.364-12.637a47.926,47.926,0,0,0-3.815-9.146l-1.563.258a94.4,94.4,0,0,1,3.7,9.661c1.093,3.828-.528,12.21-.528,12.21Z" transform="translate(-341.361 -100.281)" fill="#fff"/>
                      <path id="Trazado_116091" data-name="Trazado 116091" d="M355.017,101.1l-3.491,2.944-.607-1.4,2.415-1.882Z" transform="translate(-340.421 -100.293)" fill="#fff"/>
                      <path id="Trazado_116092" data-name="Trazado 116092" d="M356.088,105.2a91.307,91.307,0,0,0-9.242-1.734L346,104.748s5.738.818,10.266,1.94Z" transform="translate(-344.643 -97.982)" fill="#fff"/>
                      <path id="Trazado_116093" data-name="Trazado 116093" d="M350.951,110.49a2.856,2.856,0,1,0,2.856-2.856A2.855,2.855,0,0,0,350.951,110.49Z" transform="translate(-340.393 -94.402)" fill="#e22020" opacity="0.2"/>
                      <path id="Trazado_116094" data-name="Trazado 116094" d="M360.024,105.934a21.712,21.712,0,0,0-4.131,5.043,17.789,17.789,0,0,0-1.427,6.176l1.375-.925a19.6,19.6,0,0,1,1.241-4.671,12.25,12.25,0,0,1,3.036-3.8Z" transform="translate(-337.377 -95.861)" fill="#fff"/>
                      <path id="Trazado_116095" data-name="Trazado 116095" d="M351.528,117.012s.851-3.765-.609-5.981a6.349,6.349,0,0,0-5.177-2.927l-.206-1.418s4.37.236,6.4,3.726a9.666,9.666,0,0,1,.922,7.093Z" transform="translate(-345.041 -95.216)" fill="#fff"/>
                      <path id="Trazado_116096" data-name="Trazado 116096" d="M353.266,108.223l1.154,2.734-2.768-.265Z" transform="translate(-339.791 -93.897)" fill="#e22020"/>
                    </g>
                  </g>
                  <g id="Grupo_83156" data-name="Grupo 83156" transform="translate(38.797 46.771)">
                    <g id="Grupo_83150" data-name="Grupo 83150" transform="translate(34.554 2.377)">
                      <path id="Trazado_116097" data-name="Trazado 116097" d="M334.1,101.421c0,1.163.806,1.264,1.8,1.4s1.8-.273,1.8-.911-.808-1.264-1.8-1.4S334.1,100.51,334.1,101.421Z" transform="translate(-333.662 -100.466)" fill="#322f28"/>
                      <path id="Trazado_116098" data-name="Trazado 116098" d="M333.862,102.183a3.183,3.183,0,0,1,.5-1.433c.448-.635.3,1.892.3,1.892Z" transform="translate(-333.862 -100.31)" fill="#322f28"/>
                    </g>
                    <g id="Grupo_83151" data-name="Grupo 83151" transform="translate(7.347 2.377)">
                      <path id="Trazado_116099" data-name="Trazado 116099" d="M322.83,101.421c0,1.163-.808,1.264-1.8,1.4s-1.806-.273-1.806-.911.808-1.264,1.806-1.4S322.83,100.51,322.83,101.421Z" transform="translate(-319.22 -100.466)" fill="#322f28"/>
                      <path id="Trazado_116100" data-name="Trazado 116100" d="M321.774,102.183a3.156,3.156,0,0,0-.5-1.433c-.448-.635-.3,1.892-.3,1.892Z" transform="translate(-317.732 -100.31)" fill="#322f28"/>
                    </g>
                    <path id="Trazado_116101" data-name="Trazado 116101" d="M315.54,113.547c1.916-7.942,7.986-7.072,12.249-12.227a5.136,5.136,0,0,1,3.445-1.864,83.429,83.429,0,0,1,13.353,0,5.139,5.139,0,0,1,3.451,1.869c4.253,5.153,10.329,4.277,12.245,12.221l-22.372,1.171Z" transform="translate(-315.031 -99.187)" fill="#f4e4ec"/>
                    <g id="Grupo_83152" data-name="Grupo 83152" transform="translate(0.275 16.964)">
                      <rect id="Rectángulo_34220" data-name="Rectángulo 34220" width="7.142" height="9.748" rx="1.205" transform="translate(44.939 9.748) rotate(-180)" fill="#322f28"/>
                      <rect id="Rectángulo_34221" data-name="Rectángulo 34221" width="7.142" height="9.748" rx="1.205" transform="translate(7.142 9.748) rotate(-180)" fill="#322f28"/>
                    </g>
                    <path id="Trazado_116102" data-name="Trazado 116102" d="M354.908,120.224H321.065a5.151,5.151,0,0,1-4.731-3.19,11.43,11.43,0,0,1-.561-8.081c2.035-5.9,43.26-5.9,44.735,0a14.169,14.169,0,0,1-.775,7.838A5.132,5.132,0,0,1,354.908,120.224Z" transform="translate(-315.266 -94.606)" fill="#eacce4"/>
                    <path id="Trazado_116103" data-name="Trazado 116103" d="M360.487,109.439c-1.368-5.467-42.871-5.407-44.735,0a9.328,9.328,0,0,0-.461,2.152,9.306,9.306,0,0,1,.461-2.639c2.035-5.9,43.26-5.9,44.735,0a9.786,9.786,0,0,1,.249,2.365A9.478,9.478,0,0,0,360.487,109.439Z" transform="translate(-315.244 -94.606)" fill="#ddbcd7"/>
                    <path id="Trazado_116104" data-name="Trazado 116104" d="M324.574,109.568l-1.366-4.517a28.637,28.637,0,0,0-6.784,1.882v1.743Z" transform="translate(-314.272 -94.155)" fill="#c12736"/>
                    <path id="Trazado_116105" data-name="Trazado 116105" d="M334.2,109.568l1.366-4.517a28.653,28.653,0,0,1,6.786,1.882v1.743Z" transform="translate(-299.016 -94.155)" fill="#c12736"/>
                    <rect id="Rectángulo_34222" data-name="Rectángulo 34222" width="33.932" height="5.427" transform="translate(39.643 25.618) rotate(-180)" fill="#d8b2d1"/>
                    <path id="Trazado_116106" data-name="Trazado 116106" d="M321.87,107.156h21.218l-2.338-6.572a61.4,61.4,0,0,0-16.541,0Z" transform="translate(-309.599 -98.468)" fill="#322f28"/>
                    <g id="Grupo_83155" data-name="Grupo 83155" transform="translate(7.96 21.487)">
                      <g id="Grupo_83153" data-name="Grupo 83153" transform="translate(23.779 0)">
                        <path id="Trazado_116107" data-name="Trazado 116107" d="M334.031,112.128a1.331,1.331,0,1,0,1.33-1.377A1.355,1.355,0,0,0,334.031,112.128Z" transform="translate(-330.902 -110.751)" fill="#322f28"/>
                        <path id="Trazado_116108" data-name="Trazado 116108" d="M332.347,112.128a1.331,1.331,0,1,0,1.33-1.377A1.355,1.355,0,0,0,332.347,112.128Z" transform="translate(-332.347 -110.751)" fill="#322f28"/>
                      </g>
                      <g id="Grupo_83154" data-name="Grupo 83154">
                        <ellipse id="Elipse_4784" data-name="Elipse 4784" cx="1.33" cy="1.377" rx="1.33" ry="1.377" transform="translate(3.129)" fill="#322f28"/>
                        <ellipse id="Elipse_4785" data-name="Elipse 4785" cx="1.33" cy="1.377" rx="1.33" ry="1.377" fill="#322f28"/>
                      </g>
                    </g>
                    <path id="Trazado_116109" data-name="Trazado 116109" d="M357.61,107.047s-8.573-.117-20.458-.095c-6.249.011-13.414.624-20.728.095v2.9s8.664.188,20.65.21c6.2.011,13.3.548,20.536-.21Z" transform="translate(-314.272 -92.526)" fill="#322f28"/>
                    <rect id="Rectángulo_34223" data-name="Rectángulo 34223" width="9.583" height="6.966" transform="translate(27.536 19.867) rotate(-180)" fill="#eacce4"/>
                    <rect id="Rectángulo_34224" data-name="Rectángulo 34224" width="9.583" height="5.103" transform="translate(27.536 24.322) rotate(-180)" fill="#d8b2d1"/>
                    <rect id="Rectángulo_34225" data-name="Rectángulo 34225" width="33.932" height="0.891" transform="translate(39.643 25.618) rotate(-180)" fill="#bc91b8"/>
                    <path id="Trazado_116110" data-name="Trazado 116110" d="M333.029,100.338s1.444,6.258,6.669,4.867C339.7,105.2,335.012,101.823,333.029,100.338Z" transform="translate(-300.022 -98.199)" fill="#322f28"/>
                    <path id="Trazado_116111" data-name="Trazado 116111" d="M325.12,100.338s-1.446,6.258-6.671,4.867C318.449,105.2,323.135,101.823,325.12,100.338Z" transform="translate(-312.534 -98.199)" fill="#322f28"/>
                    <rect id="Rectángulo_34226" data-name="Rectángulo 34226" width="33.932" height="0.81" transform="translate(39.643 21.001) rotate(-180)" fill="#cea7c8"/>
                    <rect id="Rectángulo_34227" data-name="Rectángulo 34227" width="9.583" height="1.458" transform="translate(27.536 20.677) rotate(-180)" fill="#cea7c8"/>
                    <rect id="Rectángulo_34228" data-name="Rectángulo 34228" width="7.822" height="5.022" transform="translate(26.669 18.49) rotate(-180)" fill="#d8b2d1"/>
                    <rect id="Rectángulo_34229" data-name="Rectángulo 34229" width="7.822" height="0.958" transform="translate(26.669 14.426) rotate(-180)" fill="#cea7c8"/>
                  </g>
                  <path id="Trazado_116112" data-name="Trazado 116112" d="M295.48,83.8l.84,1.644v-5.87s5.112,3.287,10.517,7.113l.944-2.432,2,3.19,3.281-9.659,3.917,10.933,3.555-6.468,2.824,10.478L325,89.812l2.943,10.508h-4.66l1.189,4.192,3.274.65v-.006a84.351,84.351,0,0,0,8.672,1.317c.528-.076.97-.139,1.232-.178a3.516,3.516,0,0,1,.652,0v.4l-1.631.282a312.425,312.425,0,0,1-38.512,6.687l-1.84.32V97.168l-1.932-.431Z" transform="translate(-294.386 -70.782)" opacity="0.3" fill="url(#linear-gradient-3)" style="mix-blend-mode: overlay;isolation: isolate"/>
                  <g id="Grupo_83157" data-name="Grupo 83157" transform="translate(51.479 12.349)">
                    <rect id="Rectángulo_34230" data-name="Rectángulo 34230" width="0.608" height="3.667" transform="translate(10.648 19.894)" opacity="0.3" fill="url(#linear-gradient-4)" style="mix-blend-mode: overlay;isolation: isolate"/>
                    <path id="Trazado_116113" data-name="Trazado 116113" d="M333.586,100.555h16.038v1.34c4.841-1.068,8.482-2.947,14.86-4.043H325.919c1.442-2.577,4.071-6.751,6.5-7.713,2.312-.92,3.612-1.041,5.16-1.587s3.008-2.46,5.376-3.1a106.006,106.006,0,0,1,10.569-1.732c2.369-.273,5.742-2.278,8.384-2.278,2.456,0,4.673,1.225,6.8,1.548l.245-1.057.909,1.163h.011l.912-2.436.829,2.345a49.714,49.714,0,0,1,10.424-.013c7.107.728,8.614,1.639,8.614,1.639v26.789L348,105.505l-7.42,1.269-5.913-2.551h-1.085Z" transform="translate(-318.806 -80.662)" opacity="0.3" fill="url(#linear-gradient-5)" style="mix-blend-mode: overlay;isolation: isolate"/>
                    <rect id="Rectángulo_34231" data-name="Rectángulo 34231" width="0.607" height="3.667" transform="translate(12.714 19.894)" opacity="0.3" fill="url(#linear-gradient-6)" style="mix-blend-mode: overlay;isolation: isolate"/>
                    <path id="Trazado_116114" data-name="Trazado 116114" d="M331.281,91.368v3.668h-9.19a57.57,57.57,0,0,1,4.629-3.668Z" transform="translate(-322.091 -71.475)" opacity="0.3" fill="url(#linear-gradient-7)" style="mix-blend-mode: overlay;isolation: isolate"/>
                  </g>
                </g>
              </g>
            </g>
          </g>
        </g>
        <rect id="Rectángulo_34232" data-name="Rectángulo 34232" width="47.655" height="3.159" transform="translate(441.515 269.202) rotate(-180)" fill="#2b2923"/>
        <g id="Grupo_83167" data-name="Grupo 83167" transform="translate(298.322 172.549)">
          <g id="Grupo_83163" data-name="Grupo 83163" transform="translate(27.768 27.623)">
            <path id="Trazado_116115" data-name="Trazado 116115" d="M287.919,141.433l45.85,69.029h-6.635L284.6,146.427Z" transform="translate(-284.602 -141.433)" fill="#26241f"/>
          </g>
          <path id="Trazado_116116" data-name="Trazado 116116" d="M284.611,146.427h1.659l3.258-4.995h-1.659Z" transform="translate(-256.826 -113.809)" fill="#26241f"/>
          <path id="Trazado_116117" data-name="Trazado 116117" d="M294.748,158.234l-20.894-31.668h4.318l17.123,31.668Z" transform="translate(-266.057 -126.566)" fill="#827d79"/>
          <path id="Trazado_116118" data-name="Trazado 116118" d="M295.042,158.234l-20.894-31.668h4.318L297.2,154.984Z" transform="translate(-265.804 -126.566)" fill="#a39f9b"/>
          <g id="Grupo_83164" data-name="Grupo 83164" transform="translate(0 40.499)">
            <path id="Trazado_116119" data-name="Trazado 116119" d="M306.956,148.362l3.318,4.995-33.981,51.159h-6.635Z" transform="translate(-269.657 -148.362)" fill="#26241f"/>
          </g>
          <g id="Grupo_83165" data-name="Grupo 83165" transform="translate(1.361 40.499)">
            <path id="Trazado_116120" data-name="Trazado 116120" d="M307.688,148.362l3.318,4.995-33.981,51.159H270.39Z" transform="translate(-270.39 -148.362)" fill="#2b2923"/>
          </g>
          <g id="Grupo_83166" data-name="Grupo 83166" transform="translate(29.384 27.623)">
            <path id="Trazado_116121" data-name="Trazado 116121" d="M288.789,141.433l45.85,69.029H328l-42.533-64.034Z" transform="translate(-285.471 -141.433)" fill="#2b2923"/>
          </g>
          <path id="Trazado_116122" data-name="Trazado 116122" d="M290.531,150.026a1.717,1.717,0,0,0,.113,2.4,1.7,1.7,0,0,0,2.336-.511,1.719,1.719,0,0,0-.113-2.4A1.7,1.7,0,0,0,290.531,150.026Z" transform="translate(-252.113 -107.113)" fill="#a39f9b"/>
        </g>
        <path id="Trazado_116123" data-name="Trazado 116123" d="M355.862,186.175h13.945l-32.563-15.309H323.3Z" transform="translate(74.697 83.998)" fill="#2b2923"/>
        <g id="Grupo_83180" data-name="Grupo 83180" transform="translate(342.816 239.071)">
          <path id="Trazado_116124" data-name="Trazado 116124" d="M296.456,192.6h51.9l36.1-27.1-1.13-3.131h-46.6Z" transform="translate(-291.154 -162.366)" fill="#827d79"/>
          <path id="Trazado_116125" data-name="Trazado 116125" d="M293.6,192.6h51.9l40.271-30.232h-51.9Z" transform="translate(-293.603 -162.366)" fill="#a39f9b"/>
          <path id="Trazado_116126" data-name="Trazado 116126" d="M293.6,192.6h51.9l40.271-30.232Z" transform="translate(-293.603 -162.366)" fill="#a39f9b" opacity="0.2" style="mix-blend-mode: screen;isolation: isolate"/>
          <path id="Trazado_116127" data-name="Trazado 116127" d="M317.038,177.131H329.3l13.511-10.143H330.549Z" transform="translate(-273.492 -158.401)" fill="#827d79"/>
          <path id="Trazado_116128" data-name="Trazado 116128" d="M306.663,177.131h12.266l13.512-10.143H320.174Z" transform="translate(-282.395 -158.401)" fill="#827d79"/>
          <g id="Grupo_83173" data-name="Grupo 83173" transform="translate(48.319 6.029)">
            <path id="Trazado_116129" data-name="Trazado 116129" d="M321.46,175.73h1.509a13.612,13.612,0,0,0,7.005-2.482l4.539-3.447c1.808-1.371,1.6-2.483-.465-2.483h-1.507a13.612,13.612,0,0,0-7.007,2.483L321,173.247C319.19,174.619,319.4,175.73,321.46,175.73Z" transform="translate(-319.469 -164.146)" fill="#77726e"/>
            <path id="Trazado_116130" data-name="Trazado 116130" d="M321.485,177.138h1.509a10.971,10.971,0,0,0,6.853-3.384l4.328-4.7c1.721-1.867,1.444-3.382-.619-3.382h-1.507a10.982,10.982,0,0,0-6.855,3.382l-4.326,4.7C319.146,175.624,319.423,177.138,321.485,177.138Z" transform="translate(-319.494 -165.554)" fill="#827d79"/>
            <path id="Trazado_116131" data-name="Trazado 116131" d="M321.354,177.072h1.509a10.982,10.982,0,0,0,6.853-3.382l4.328-4.7c1.721-1.869,1.444-3.384-.619-3.384h-1.509a10.975,10.975,0,0,0-6.853,3.384l-4.328,4.7C319.015,175.558,319.292,177.072,321.354,177.072Z" transform="translate(-319.606 -165.611)" fill="#b7b6b6"/>
            <g id="Grupo_83172" data-name="Grupo 83172" transform="translate(3.02 3.077)">
              <g id="Grupo_83168" data-name="Grupo 83168" transform="translate(4.208)">
                <path id="Trazado_116132" data-name="Trazado 116132" d="M325.855,167.611c-.171.19-.154.344.035.344a1.051,1.051,0,0,0,.65-.344c.171-.19.156-.344-.033-.344A1.056,1.056,0,0,0,325.855,167.611Z" transform="translate(-321.573 -167.267)" fill="#a39f9b"/>
                <path id="Trazado_116133" data-name="Trazado 116133" d="M324.735,167.611c-.171.19-.156.344.033.344a1.055,1.055,0,0,0,.652-.344c.171-.19.156-.344-.033-.344A1.055,1.055,0,0,0,324.735,167.611Z" transform="translate(-322.535 -167.267)" fill="#a39f9b"/>
                <path id="Trazado_116134" data-name="Trazado 116134" d="M323.615,167.611c-.171.19-.156.344.033.344a1.055,1.055,0,0,0,.652-.344c.171-.19.156-.344-.033-.344A1.055,1.055,0,0,0,323.615,167.611Z" transform="translate(-323.496 -167.267)" fill="#a39f9b"/>
              </g>
              <g id="Grupo_83169" data-name="Grupo 83169" transform="translate(2.805 1.54)">
                <path id="Trazado_116135" data-name="Trazado 116135" d="M325.1,168.44c-.171.19-.154.342.035.342a1.044,1.044,0,0,0,.65-.342c.171-.19.156-.344-.033-.344A1.055,1.055,0,0,0,325.1,168.44Z" transform="translate(-320.818 -168.096)" fill="#a39f9b"/>
                <path id="Trazado_116136" data-name="Trazado 116136" d="M323.98,168.44c-.171.19-.154.342.033.342a1.048,1.048,0,0,0,.652-.342c.171-.19.156-.344-.033-.344A1.055,1.055,0,0,0,323.98,168.44Z" transform="translate(-321.78 -168.096)" fill="#a39f9b"/>
                <path id="Trazado_116137" data-name="Trazado 116137" d="M322.86,168.44c-.171.19-.156.342.033.342a1.052,1.052,0,0,0,.652-.342c.171-.19.156-.344-.033-.344A1.055,1.055,0,0,0,322.86,168.44Z" transform="translate(-322.741 -168.096)" fill="#a39f9b"/>
              </g>
              <g id="Grupo_83170" data-name="Grupo 83170" transform="translate(1.403 3.081)">
                <path id="Trazado_116138" data-name="Trazado 116138" d="M324.345,169.267c-.171.19-.154.344.035.344a1.047,1.047,0,0,0,.65-.344c.171-.188.156-.342-.033-.342A1.062,1.062,0,0,0,324.345,169.267Z" transform="translate(-320.064 -168.925)" fill="#a39f9b"/>
                <path id="Trazado_116139" data-name="Trazado 116139" d="M323.225,169.267c-.171.19-.154.344.035.344a1.047,1.047,0,0,0,.65-.344c.171-.188.156-.342-.033-.342A1.062,1.062,0,0,0,323.225,169.267Z" transform="translate(-321.025 -168.925)" fill="#a39f9b"/>
                <path id="Trazado_116140" data-name="Trazado 116140" d="M322.1,169.267c-.171.19-.154.344.033.344a1.056,1.056,0,0,0,.652-.344c.171-.188.156-.342-.034-.342A1.062,1.062,0,0,0,322.1,169.267Z" transform="translate(-321.986 -168.925)" fill="#a39f9b"/>
              </g>
              <g id="Grupo_83171" data-name="Grupo 83171" transform="translate(0 4.621)">
                <path id="Trazado_116141" data-name="Trazado 116141" d="M323.59,170.1c-.171.19-.154.344.035.344a1.055,1.055,0,0,0,.652-.344c.169-.19.154-.342-.035-.342A1.052,1.052,0,0,0,323.59,170.1Z" transform="translate(-319.309 -169.754)" fill="#a39f9b"/>
                <path id="Trazado_116142" data-name="Trazado 116142" d="M322.47,170.1c-.171.19-.154.344.035.344a1.047,1.047,0,0,0,.65-.344c.171-.19.156-.342-.033-.342A1.052,1.052,0,0,0,322.47,170.1Z" transform="translate(-320.27 -169.754)" fill="#a39f9b"/>
                <path id="Trazado_116143" data-name="Trazado 116143" d="M321.35,170.1c-.171.19-.154.344.035.344a1.047,1.047,0,0,0,.65-.344c.171-.19.156-.342-.033-.342A1.052,1.052,0,0,0,321.35,170.1Z" transform="translate(-321.231 -169.754)" fill="#a39f9b"/>
              </g>
            </g>
            <path id="Trazado_116144" data-name="Trazado 116144" d="M332.366,168.995c1.723-1.869,1.446-3.384-.619-3.384h.321c2.063,0,2.339,1.514.617,3.384l-4.326,4.7a10.982,10.982,0,0,1-6.853,3.382h-.321a10.982,10.982,0,0,0,6.855-3.382Z" transform="translate(-318.251 -165.611)" fill="#c1c1c1"/>
          </g>
          <g id="Grupo_83179" data-name="Grupo 83179" transform="translate(29.061 6.029)">
            <path id="Trazado_116145" data-name="Trazado 116145" d="M311.1,175.73h1.507a13.618,13.618,0,0,0,7.007-2.482l4.539-3.447c1.806-1.371,1.6-2.483-.466-2.483h-1.507a13.612,13.612,0,0,0-7.007,2.483l-4.539,3.447C308.826,174.619,309.034,175.73,311.1,175.73Z" transform="translate(-309.105 -164.146)" fill="#77726e"/>
            <path id="Trazado_116146" data-name="Trazado 116146" d="M311.123,177.138h1.507a10.971,10.971,0,0,0,6.853-3.384l4.328-4.7c1.721-1.867,1.446-3.382-.619-3.382h-1.507a10.982,10.982,0,0,0-6.855,3.382l-4.326,4.7C308.782,175.624,309.058,177.138,311.123,177.138Z" transform="translate(-309.13 -165.554)" fill="#827d79"/>
            <path id="Trazado_116147" data-name="Trazado 116147" d="M310.99,177.072H312.5a10.982,10.982,0,0,0,6.853-3.382l4.328-4.7c1.721-1.869,1.444-3.384-.619-3.384h-1.509a10.975,10.975,0,0,0-6.853,3.384l-4.326,4.7C308.651,175.558,308.928,177.072,310.99,177.072Z" transform="translate(-309.243 -165.611)" fill="#b7b6b6"/>
            <g id="Grupo_83178" data-name="Grupo 83178" transform="translate(3.019 3.077)">
              <g id="Grupo_83174" data-name="Grupo 83174" transform="translate(4.208)">
                <path id="Trazado_116148" data-name="Trazado 116148" d="M315.491,167.611c-.171.19-.154.344.035.344a1.046,1.046,0,0,0,.65-.344c.171-.19.156-.344-.033-.344A1.055,1.055,0,0,0,315.491,167.611Z" transform="translate(-311.209 -167.267)" fill="#a39f9b"/>
                <path id="Trazado_116149" data-name="Trazado 116149" d="M314.371,167.611c-.171.19-.154.344.035.344a1.046,1.046,0,0,0,.65-.344c.171-.19.156-.344-.033-.344A1.055,1.055,0,0,0,314.371,167.611Z" transform="translate(-312.17 -167.267)" fill="#a39f9b"/>
                <path id="Trazado_116150" data-name="Trazado 116150" d="M313.251,167.611c-.171.19-.156.344.033.344a1.055,1.055,0,0,0,.652-.344c.171-.19.156-.344-.033-.344A1.055,1.055,0,0,0,313.251,167.611Z" transform="translate(-313.132 -167.267)" fill="#a39f9b"/>
              </g>
              <g id="Grupo_83175" data-name="Grupo 83175" transform="translate(2.806 1.54)">
                <path id="Trazado_116151" data-name="Trazado 116151" d="M314.736,168.44c-.171.19-.154.342.035.342a1.043,1.043,0,0,0,.65-.342c.171-.19.156-.344-.033-.344A1.056,1.056,0,0,0,314.736,168.44Z" transform="translate(-310.455 -168.096)" fill="#a39f9b"/>
                <path id="Trazado_116152" data-name="Trazado 116152" d="M313.616,168.44c-.171.19-.154.342.035.342a1.044,1.044,0,0,0,.65-.342c.171-.19.156-.344-.033-.344A1.056,1.056,0,0,0,313.616,168.44Z" transform="translate(-311.416 -168.096)" fill="#a39f9b"/>
                <path id="Trazado_116153" data-name="Trazado 116153" d="M312.5,168.44c-.171.19-.154.342.035.342a1.048,1.048,0,0,0,.65-.342c.171-.19.156-.344-.033-.344A1.055,1.055,0,0,0,312.5,168.44Z" transform="translate(-312.377 -168.096)" fill="#a39f9b"/>
              </g>
              <g id="Grupo_83176" data-name="Grupo 83176" transform="translate(1.403 3.081)">
                <path id="Trazado_116154" data-name="Trazado 116154" d="M313.98,169.267c-.169.19-.154.344.035.344a1.055,1.055,0,0,0,.652-.344c.169-.188.154-.342-.035-.342A1.062,1.062,0,0,0,313.98,169.267Z" transform="translate(-309.7 -168.925)" fill="#a39f9b"/>
                <path id="Trazado_116155" data-name="Trazado 116155" d="M312.861,169.267c-.171.19-.154.344.035.344a1.047,1.047,0,0,0,.65-.344c.171-.188.156-.342-.033-.342A1.062,1.062,0,0,0,312.861,169.267Z" transform="translate(-310.661 -168.925)" fill="#a39f9b"/>
                <path id="Trazado_116156" data-name="Trazado 116156" d="M311.741,169.267c-.171.19-.154.344.035.344a1.047,1.047,0,0,0,.65-.344c.171-.188.156-.342-.034-.342A1.062,1.062,0,0,0,311.741,169.267Z" transform="translate(-311.622 -168.925)" fill="#a39f9b"/>
              </g>
              <g id="Grupo_83177" data-name="Grupo 83177" transform="translate(0 4.621)">
                <path id="Trazado_116157" data-name="Trazado 116157" d="M313.225,170.1c-.169.19-.154.344.035.344a1.055,1.055,0,0,0,.652-.344c.169-.19.154-.342-.035-.342A1.052,1.052,0,0,0,313.225,170.1Z" transform="translate(-308.945 -169.754)" fill="#a39f9b"/>
                <path id="Trazado_116158" data-name="Trazado 116158" d="M312.105,170.1c-.169.19-.154.344.035.344a1.055,1.055,0,0,0,.652-.344c.169-.19.154-.342-.035-.342A1.052,1.052,0,0,0,312.105,170.1Z" transform="translate(-309.906 -169.754)" fill="#a39f9b"/>
                <path id="Trazado_116159" data-name="Trazado 116159" d="M310.986,170.1c-.171.19-.154.344.035.344a1.046,1.046,0,0,0,.65-.344c.171-.19.156-.342-.033-.342A1.052,1.052,0,0,0,310.986,170.1Z" transform="translate(-310.867 -169.754)" fill="#a39f9b"/>
              </g>
            </g>
            <path id="Trazado_116160" data-name="Trazado 116160" d="M322,168.995c1.723-1.869,1.446-3.384-.617-3.384h.32c2.063,0,2.339,1.514.619,3.384L318,173.69a10.982,10.982,0,0,1-6.853,3.382h-.321a10.981,10.981,0,0,0,6.855-3.382Z" transform="translate(-307.887 -165.611)" fill="#c1c1c1"/>
          </g>
          <path id="Trazado_116161" data-name="Trazado 116161" d="M293.6,192.6h51.9l40.271-30.232h-51.9l49.761.727L345.32,191.849Z" transform="translate(-293.603 -162.366)" fill="#b7b6b6"/>
        </g>
        <g id="Grupo_83183" data-name="Grupo 83183" transform="translate(369.107 171.817)">
          <g id="Grupo_83181" data-name="Grupo 83181" transform="translate(19.972 28.356)">
            <path id="Trazado_116162" data-name="Trazado 116162" d="M321.817,141.433l45.85,69.029h-6.635L318.5,146.427Z" transform="translate(-318.499 -141.433)" fill="#26241f"/>
          </g>
          <path id="Trazado_116163" data-name="Trazado 116163" d="M318.508,146.427h1.659l3.258-4.995h-1.659Z" transform="translate(-298.52 -113.077)" fill="#26241f"/>
          <path id="Trazado_116164" data-name="Trazado 116164" d="M328.646,158.234l-20.894-31.668h4.318l17.123,31.668Z" transform="translate(-307.751 -125.834)" fill="#827d79"/>
          <path id="Trazado_116165" data-name="Trazado 116165" d="M328.94,158.234l-20.894-31.668h4.318L331.1,154.984Z" transform="translate(-307.499 -125.834)" fill="#a39f9b"/>
          <g id="Grupo_83182" data-name="Grupo 83182" transform="translate(21.588 28.356)">
            <path id="Trazado_116166" data-name="Trazado 116166" d="M322.687,141.433l45.85,69.029H361.9l-42.533-64.034Z" transform="translate(-319.369 -141.433)" fill="#2b2923"/>
          </g>
          <path id="Trazado_116167" data-name="Trazado 116167" d="M308.783,126.173h1.922l19.474,29.537-.964,1.452Z" transform="translate(-306.866 -126.173)" fill="#b7b6b6"/>
        </g>
        <rect id="Rectángulo_34233" data-name="Rectángulo 34233" width="65.771" height="5.589" transform="translate(377.009 176.616) rotate(-180)" fill="#26241f"/>
        <path id="Trazado_116168" data-name="Trazado 116168" d="M279.551,138.39h45.894l1.669-13.336a9.969,9.969,0,0,0-9.893-11.208H294.366a9.97,9.97,0,0,0-9.543,7.087Z" transform="translate(37.155 35.067)" fill="#26241f"/>
        <rect id="Rectángulo_34234" data-name="Rectángulo 34234" width="65.771" height="5.589" transform="translate(371.542 176.616) rotate(-180)" fill="#2b2923"/>
        <path id="Trazado_116169" data-name="Trazado 116169" d="M276.412,138.39h45.894l1.669-13.336a9.969,9.969,0,0,0-9.891-11.208H291.227a9.972,9.972,0,0,0-9.543,7.087Z" transform="translate(34.461 35.067)" fill="#2b2923"/>
        <g id="Grupo_83184" data-name="Grupo 83184" transform="translate(297.6 213.048)">
          <path id="Trazado_116170" data-name="Trazado 116170" d="M306.567,148.362l3.318,4.995L275.9,204.515h-6.635Z" transform="translate(-269.268 -148.362)" fill="#2b2923"/>
        </g>
        <rect id="Rectángulo_34235" data-name="Rectángulo 34235" width="217.087" height="3.24" transform="translate(453.341 271.47) rotate(-180)" fill="#2b2923"/>
        <g id="Grupo_83186" data-name="Grupo 83186" transform="translate(307.661 133.706)">
          <path id="Trazado_116171" data-name="Trazado 116171" d="M317.674,116.4H279.043l-1.6,4.818c4.185.782,12.424,7.9,11.522,17.58h6.156c5.3-12.543,14.462-15.287,22.32-17.58Z" transform="translate(-272.315 -96.451)" fill="#26241f"/>
          <path id="Trazado_116172" data-name="Trazado 116172" d="M294.861,151.317c12.608,0,24.645-10.22,26.886-22.827s-6.162-22.827-18.769-22.827-24.645,10.22-26.886,22.827S282.254,151.317,294.861,151.317Zm-14.72-22.827c1.843-10.37,11.745-18.777,22.116-18.777s17.283,8.406,15.439,18.777-11.745,18.778-22.116,18.778S278.3,138.86,280.141,128.489Z" transform="translate(-273.785 -105.662)" fill="#26241f"/>
          <path id="Trazado_116173" data-name="Trazado 116173" d="M293.816,151.317c12.606,0,24.645-10.22,26.886-22.827s-6.164-22.827-18.769-22.827-24.645,10.22-26.887,22.827S281.208,151.317,293.816,151.317ZM279.1,128.489c1.843-10.37,11.745-18.777,22.116-18.777s17.283,8.406,15.439,18.777-11.745,18.778-22.116,18.778S277.253,138.86,279.1,128.489Z" transform="translate(-274.683 -105.662)" fill="#3f3c35"/>
          <path id="Trazado_116174" data-name="Trazado 116174" d="M317.406,116.4H278.08l-1.6,4.818c4.185.782,13.119,7.9,12.219,17.58h6.156c5.3-12.543,14.46-15.287,22.32-17.58Z" transform="translate(-273.142 -96.451)" fill="#3f3c35"/>
          <g id="Grupo_83185" data-name="Grupo 83185" transform="translate(16.137 22.478)">
            <path id="Trazado_116175" data-name="Trazado 116175" d="M283.672,122.5a3.865,3.865,0,0,0,3.9,4.738,5.905,5.905,0,0,0,5.578-4.738,3.865,3.865,0,0,0-3.9-4.738A5.9,5.9,0,0,0,283.672,122.5Zm1.094,0a4.538,4.538,0,0,1,4.289-3.646,2.972,2.972,0,0,1,3,3.646,4.539,4.539,0,0,1-4.29,3.644A2.971,2.971,0,0,1,284.767,122.5Z" transform="translate(-283.171 -117.759)" fill="#26241f"/>
            <path id="Trazado_116176" data-name="Trazado 116176" d="M283.442,122.5a3.865,3.865,0,0,0,3.9,4.738,5.9,5.9,0,0,0,5.576-4.738,3.863,3.863,0,0,0-3.9-4.738A5.9,5.9,0,0,0,283.442,122.5Zm1.094,0a4.538,4.538,0,0,1,4.289-3.646,2.972,2.972,0,0,1,3,3.646,4.54,4.54,0,0,1-4.29,3.644A2.971,2.971,0,0,1,284.537,122.5Z" transform="translate(-283.368 -117.759)" fill="#a39f9b"/>
          </g>
        </g>
        <g id="Grupo_83187" data-name="Grupo 83187" transform="translate(304.784 143.886)">
          <path id="Trazado_116177" data-name="Trazado 116177" d="M280.373,118.507l-3.167,7.389-4.071-3.705,4.345-5.626Z" transform="translate(-273.135 -106.486)" fill="#ffb476"/>
          <path id="Trazado_116178" data-name="Trazado 116178" d="M275.281,116.1c.366-.977.738-.957.738-.957a1.227,1.227,0,0,1,.931-1.1c.342-1.189,1.228-.959,1.228-.959a11.445,11.445,0,0,1,.8-1.375,1.255,1.255,0,0,1,1.645-.411,5.855,5.855,0,0,0-1.269,2.471c-.463,1.459-.663,3.727.732,4.437,1.667.847,3.35-1.723,3.668-2.213,1.074.414-.412,2.6-.771,3.174-.81,1.3-3.53,2.969-4.3,4s-2.986-1.44-2.986-1.44S274.733,117.345,275.281,116.1Z" transform="translate(-271.439 -111.141)" fill="#ed9558"/>
        </g>
        <path id="Trazado_116179" data-name="Trazado 116179" d="M298.454,116.025c-.29-.663-2.155,1.442-1.871,2.508C297.136,120.612,298.957,117.167,298.454,116.025Z" transform="translate(51.745 36.828)" fill="#ffb476"/>
        <g id="Grupo_83191" data-name="Grupo 83191" transform="translate(258.435 83.47)">
          <path id="Trazado_116180" data-name="Trazado 116180" d="M313.766,122.334c-1.758,1.552-17.857,24.576-31.063,28.528L281.33,136.7s27.878-15.307,28.491-16.645C309.821,120.058,315.524,120.783,313.766,122.334Z" transform="translate(-219.753 -43.072)" fill="#ffb476"/>
          <g id="Grupo_83188" data-name="Grupo 83188" transform="translate(89.828 66.446)">
            <path id="Trazado_116181" data-name="Trazado 116181" d="M300.718,126.172c1.007-.914,4.879-2.774,5.582-4.177.3-.611-.535-6.593-2.048-6.405-.576,1.526-3.4,3.263-4.266,3.415a1.56,1.56,0,0,1-1.866-.684,1.536,1.536,0,0,0-1.152-.6c-.823-.091-.23,4.227-.2,6.171C296.8,125.187,300.718,126.172,300.718,126.172Z" transform="translate(-296.534 -113.356)" fill="#ffb476"/>
            <path id="Trazado_116182" data-name="Trazado 116182" d="M300.714,116.62c0-.152-.275-2.022.4-2.211.712-.2,1.4.9,1.42,2.128a4.6,4.6,0,0,1-.492,1.676C301.37,119.888,300.714,116.62,300.714,116.62Z" transform="translate(-292.996 -114.386)" fill="#ffb476"/>
            <path id="Trazado_116183" data-name="Trazado 116183" d="M301.6,116.347a1.042,1.042,0,0,1,.732.5c.229.424-.162,1.132-.162,1.132a1.4,1.4,0,0,1,.528.734,1.547,1.547,0,0,1-.359,1.139s.461.435-.019,1.312S300.49,117.724,301.6,116.347Z" transform="translate(-292.554 -112.702)" fill="#ffb476"/>
          </g>
          <path id="Trazado_116184" data-name="Trazado 116184" d="M309.421,168.679a14.188,14.188,0,0,0,8.393-.282c4.733-1.552,6.635-3.9,7.265-2.635S312.017,178.59,311.1,177.276s-1.6-3.757-3.846-6.624S309.421,168.679,309.421,168.679Z" transform="translate(-198.052 -4.163)" fill="#2d313d"/>
          <path id="Trazado_116185" data-name="Trazado 116185" d="M348.97,191.821C323.3,155.874,320.4,142.569,312.647,137.9c-6.284-3.783-37.949,8.925-37.949,8.925s-23.218,30.829-3.621,26.707c10.123-2.129,26.975-11.08,34.352-16.292a51.205,51.205,0,0,0,9.761,16.341c8.717,10.073,27.991,22.651,27.991,22.651Z" transform="translate(-235.298 -28.368)" fill="#007ca0"/>
          <path id="Trazado_116186" data-name="Trazado 116186" d="M320.354,169.2a11.067,11.067,0,0,0,8.354-.58c4.5-2.142,6.084-4.72,6.87-3.54s-11.318,14.391-12.392,13.206-2.752-4.246-5-7.113S320.354,169.2,320.354,169.2Z" transform="translate(-188.669 -4.688)" fill="#2d313d"/>
          <path id="Trazado_116187" data-name="Trazado 116187" d="M271.6,94.723c-.249,3.281,2.928,5.967,2.527,6.955s-3.852,2.159-3.852,2.159S271.05,96.258,271.6,94.723Z" transform="translate(-229.237 -64.813)" fill="#ed9558"/>
          <path id="Trazado_116188" data-name="Trazado 116188" d="M270.589,94.461a2.852,2.852,0,0,0,1.464.2,1.66,1.66,0,0,1-.615,1.041C270.958,95.964,270.392,95.059,270.589,94.461Z" transform="translate(-229.006 -65.038)" fill="#322f28"/>
          <path id="Trazado_116189" data-name="Trazado 116189" d="M278.892,85.091s2.2.918,2.038,9.22a69.832,69.832,0,0,1-1.351,9.346c-.2,2.765,1.2,4.82,1.039,7.143-.177,2.546-2.007,5.495-4.571,12,0,0-5.093.119-15.114-4.354Z" transform="translate(-237.257 -73.079)" fill="#ffb476"/>
          <path id="Trazado_116190" data-name="Trazado 116190" d="M266.583,100.627c.58,9.945,8.025,13.228,8.025,13.228s-2.261.405-10.692-1.8L262.61,95.512Z" transform="translate(-235.818 -64.136)" fill="#d1652f"/>
          <path id="Trazado_116191" data-name="Trazado 116191" d="M273.05,87.729s-4.738,5.816-4.118,18.282l-2.568.258s.617-3.443-.57-4.893l3.133-14.939Z" transform="translate(-233.086 -71.923)" fill="#ba5604"/>
          <path id="Trazado_116192" data-name="Trazado 116192" d="M257.645,105.64c1.033,4,0,8.345-.836,9.657h15.913c-.816-2.3-.637-9.131-.637-9.131-.03-1.992-2.33-4.359-2.26-6.481Z" transform="translate(-240.796 -60.555)" fill="#d1652f"/>
          <path id="Trazado_116193" data-name="Trazado 116193" d="M284.133,94.369a9.408,9.408,0,0,0,3.144-4.632c.3-1,5.089-3.215-2.172-5.664-6.877-2.321-22.694-5.128-26.1-.34-6.678,2.382-9.443,9.714-7.992,16.855,1.914,9.934,9.389,16.558,11.807,20.878,1.587,1.615,12.167.7,14.044-8.484C277.91,103.18,282.271,104.421,284.133,94.369Z" transform="translate(-246.096 -76.491)" fill="#ba5604"/>
          <path id="Trazado_116194" data-name="Trazado 116194" d="M270.051,94.41c-.673-.364-.5-.963.067-1.42.762-.611,2.72-1.63,3.59-1.128.418.242.2,1.143.072,1.433C273.353,94.306,271.116,94.707,270.051,94.41Z" transform="translate(-229.806 -67.384)" fill="#ba5604"/>
          <path id="Trazado_116195" data-name="Trazado 116195" d="M253.891,87.387c-4.578,2.289,23.394,17.058,27.38,11.7,1.312-3.932,7.635-5.379,8.122-10.907.578-6.583-9.722-13.122-23.526-7.291a3.769,3.769,0,0,1-.884.134c-1.6.164-2.975.314-4.147.479C254.885,81.495,252.819,85.261,253.891,87.387Z" transform="translate(-243.733 -78.626)" fill="#ba5604"/>
          <path id="Trazado_116196" data-name="Trazado 116196" d="M263.755,98.6c.249,2.083,1.719,3.557,3.281,3.291s2.629-2.168,2.378-4.251-1.719-3.557-3.283-3.293S263.5,96.519,263.755,98.6Z" transform="translate(-234.867 -65.16)" fill="#ffb476"/>
          <path id="Trazado_116197" data-name="Trazado 116197" d="M266.78,99.208c-.754.128-1.464-.583-1.585-1.589a1.757,1.757,0,0,1,1.148-2.051,1.088,1.088,0,0,1,.792.214,1.468,1.468,0,0,0-1.362-.6,2.143,2.143,0,0,0-1.4,2.5c.147,1.226,1.013,2.094,1.932,1.938a1.5,1.5,0,0,0,.894-.6A1.091,1.091,0,0,1,266.78,99.208Z" transform="translate(-234.323 -64.438)" fill="#d1652f"/>
          <path id="Trazado_116198" data-name="Trazado 116198" d="M304.239,146.715c4.868,8.337,11.861,20.142,23.853,36.934l-5.79,4.406s-19.275-12.578-27.991-22.651a55.627,55.627,0,0,1-6.767-9.755Z" transform="translate(-214.421 -20.196)" fill="#006b91"/>
          <path id="Trazado_116199" data-name="Trazado 116199" d="M377.078,191.821c-25.672-35.948-28.565-49.252-36.323-53.925-6.284-3.783-39.116,8.925-39.116,8.925l-6.985-3.393-40.519,6.431s2.312,13.3,8.295,19.932c3.937,4.361,17.667,8.367,37.263,4.246,10.123-2.129,26.466-11.589,33.842-16.8a51.207,51.207,0,0,0,9.761,16.341c8.717,10.073,27.991,22.651,27.991,22.651Z" transform="translate(-243.091 -28.368)" fill="#099ebf"/>
          <path id="Trazado_116200" data-name="Trazado 116200" d="M256.742,158.255l27.705-.229c16.848,8.585,50.059-13.447,50.059-13.447C339,162.694,364.52,183.1,371.247,188.216l-2.2,1.672s-19.275-12.578-27.991-22.651A51.207,51.207,0,0,1,331.3,150.9c-7.377,5.212-23.719,14.672-33.842,16.8-19.6,4.121-33.326.115-37.263-4.246A24.5,24.5,0,0,1,256.742,158.255Z" transform="translate(-240.854 -22.029)" fill="#007ca0"/>
          <path id="Trazado_116201" data-name="Trazado 116201" d="M249.909,117.975c.831-3.036,5.582-8.358,14.5-9.856,0,0,13.029-.158,16,0,4.238.855,10.643,2.815,13.522,6.069l-.046.091c6.509,8.118-7.94,31.191,2.105,48.364,3.267,5.586,13.208,8.419,13.208,8.419-6.2,24.063-35.149,28.53-42.858,23.093C247.4,180.788,246.113,131.857,249.909,117.975Z" transform="translate(-248.191 -53.377)" fill="#f4e4ec"/>
          <path id="Trazado_116202" data-name="Trazado 116202" d="M270.478,112.18c-15.8,4.454,15.934,53.868,27.59,44.413,4.794-3.889-3.356-12.726-9.452-22.368S274.785,110.967,270.478,112.18Z" transform="translate(-232.775 -49.898)" fill="#ffb476"/>
          <path id="Trazado_116203" data-name="Trazado 116203" d="M270.27,103.621s2.232-21.185-12.875-23.164l5.032-.613s12.225.922,11.725,21.7Z" transform="translate(-240.293 -77.582)" fill="#2b2923"/>
          <rect id="Rectángulo_34236" data-name="Rectángulo 34236" width="1.894" height="3.157" transform="translate(33.567 42.525) rotate(-180)" fill="#2b2923"/>
          <g id="Grupo_83189" data-name="Grupo 83189" transform="translate(26.999 23.898)">
            <path id="Trazado_116204" data-name="Trazado 116204" d="M275.772,101.632c-1.076,4.733-4.805,7.919-8.326,7.117s-5.508-5.286-4.432-10.019,4.805-7.919,8.326-7.119S276.848,96.9,275.772,101.632Z" transform="translate(-262.722 -91.488)" fill="#2b2923"/>
            <path id="Trazado_116205" data-name="Trazado 116205" d="M275.022,100.817c-.916,4.028-4.088,6.741-7.087,6.059s-4.686-4.5-3.77-8.529,4.088-6.741,7.087-6.059S275.938,96.789,275.022,100.817Z" transform="translate(-261.697 -90.891)" fill="#322f28"/>
            <ellipse id="Elipse_4786" data-name="Elipse 4786" cx="4.64" cy="2.432" rx="4.64" ry="2.432" transform="matrix(0.5, -0.866, 0.866, 0.5, 2.021, 9.303)" fill="#322f28" opacity="0.4" style="mix-blend-mode: screen;isolation: isolate"/>
            <path id="Trazado_116206" data-name="Trazado 116206" d="M266.666,98.819c.19.708-.028,1.382-.489,1.507s-.987-.353-1.176-1.061.028-1.384.489-1.507S266.474,98.109,266.666,98.819Z" transform="translate(-260.825 -86.124)" fill="#322f28" opacity="0.4" style="mix-blend-mode: screen;isolation: isolate"/>
          </g>
          <g id="Grupo_83190" data-name="Grupo 83190" transform="translate(32.221 41.54)">
            <path id="Trazado_116207" data-name="Trazado 116207" d="M270.411,103.842c-.2.569.377,1.28,1.278,1.589s1.789.1,1.984-.468-.377-1.282-1.278-1.591S270.606,103.272,270.411,103.842Z" transform="translate(-261.378 -99.054)" fill="#2b2923"/>
            <path id="Trazado_116208" data-name="Trazado 116208" d="M273.942,106a.4.4,0,0,1-.247-.316,5.763,5.763,0,0,0-2.246-1.048.391.391,0,1,1,.249-.741c2.406.8,2.644,1.308,2.724,1.475a.509.509,0,0,1,.028.405.391.391,0,0,1-.366.251A.421.421,0,0,1,273.942,106Zm-.227-.5v0Z" transform="translate(-260.684 -98.502)" fill="#2b2923"/>
            <path id="Trazado_116209" data-name="Trazado 116209" d="M277.721,108.786c.764,0,1.325-.111,1.533-.387a.391.391,0,0,0-.619-.478c-.693.468-7.319-.591-10.716-2.367-1.02-.533-1.6-1.078-1.6-1.5v-2.683a.392.392,0,0,0-.784,0v2.683c0,1.119,1.485,2.189,4.411,3.183A30.5,30.5,0,0,0,277.721,108.786Z" transform="translate(-265.532 -100.982)" fill="#2b2923"/>
          </g>
          <path id="Trazado_116210" data-name="Trazado 116210" d="M285.416,127.164l2.042,3.066-7.28,8.217s7.161,8.113,10.328,8.02c8.263-.243,26.978-21.006,32.558-25.183-1.691,1.492-16.655,22.82-29.55,27.952a5.206,5.206,0,0,1-1.436.546c-.024.007-.052.022-.076.03l0-.006c-6.007,1.152-15.01-7.579-21.5-17.717Z" transform="translate(-229.052 -42.021)" fill="#ed9558"/>
          <path id="Trazado_116211" data-name="Trazado 116211" d="M278.914,111.888c3.757,2.267,8.167,14.456,12.622,22.257L277.5,148.677s-17.834-23.846-9.646-35.639C270.907,108.632,278.914,111.888,278.914,111.888Z" transform="translate(-233.167 -51.077)" fill="#f4e4ec"/>
          <path id="Trazado_116212" data-name="Trazado 116212" d="M264.414,108.119s13.029-.158,16,0c3.752.756,9.189,2.384,12.386,5-6.851-1.137-8.336,15.053,3.746,33.685l-4.028,4.172-.015-.02h0l-9.469-11.966s.777,47.128,11.678,51.519c-10.63,6.567-23.585,7.02-28.368,3.646-18.951-13.368-20.233-62.3-16.437-76.182C250.74,114.939,255.491,109.617,264.414,108.119Z" transform="translate(-248.191 -53.377)" fill="#eacce4"/>
          <path id="Trazado_116213" data-name="Trazado 116213" d="M276.527,109.114s-3.255,1.249-12.011,1.225c-6.379-.017-9.142-1.126-9.142-1.126A34.1,34.1,0,0,1,276.527,109.114Z" transform="translate(-242.028 -53.843)" fill="#d1652f"/>
          <path id="Trazado_116214" data-name="Trazado 116214" d="M260.954,80.284c9.8-3.543,17.6-.87,20.607,3.386.245,1.494-.426,5.894-3.642,6.537C272.084,91.374,271.962,80.754,260.954,80.284Z" transform="translate(-237.239 -78.615)" fill="#ce6f09"/>
          <path id="Trazado_116215" data-name="Trazado 116215" d="M267.089,86c1.338-1.459-2.984-5.942-7.293-5.825s-8.709,1.849-.907,5.461C265.45,88.674,267.089,86,267.089,86Z" transform="translate(-242.694 -77.299)" fill="#ce6f09"/>
        </g>
        <g id="Grupo_83195" data-name="Grupo 83195" transform="translate(244.107 118.973)">
          <path id="Trazado_116216" data-name="Trazado 116216" d="M259.052,164.184h65.06l9.72,26.855h-84.5Z" transform="translate(-232.884 -40.709)" fill="#2b2923"/>
          <path id="Trazado_116217" data-name="Trazado 116217" d="M294.544,164.184l9.72,26.855H246.975l9.72-26.855Z" transform="translate(-234.907 -40.709)" fill="#26241f"/>
          <path id="Trazado_116218" data-name="Trazado 116218" d="M290.241,164.39c-6.829-16.062,12.561-34.612,11.861-45.06S280.11,94.178,253.572,98.511c-18.353,3-12.429,11.177-11.225,14.014,3.51,8.263-1.2,22.075-1.178,30.212C241.217,161.672,290.241,164.39,290.241,164.39ZM269.87,110.257c2.787-4.859,23.846,1.15,26.531,5.833,1.957,3.415-1.637,12.936-7.88,15.553C285.477,132.917,267.083,115.118,269.87,110.257Z" transform="translate(-240.48 -97.733)" fill="#322f28"/>
          <path id="Trazado_116219" data-name="Trazado 116219" d="M331.7,153.5c-6.829-4.861-24.3,11.179-79.707,10.119v10.668h75.424c3.19,1.934,6.574-.379,8.293-4.991C338.016,163.1,335.773,156.405,331.7,153.5Z" transform="translate(-230.603 -50.662)" fill="#2b2923"/>
          <path id="Trazado_116220" data-name="Trazado 116220" d="M290.873,157.232V170.3H251.991V159.635A222.556,222.556,0,0,0,290.873,157.232Z" transform="translate(-230.603 -46.674)" fill="#26241f"/>
          <path id="Trazado_116221" data-name="Trazado 116221" d="M261.77,201.724s-16.543-3.889-18.487-17.253c-2.326-15.991-3.651-37.347-2.068-53.234,1.278-12.832,5.8-22.1,16.781-22.1,19.516,0,25.04,17.413,31.291,42.243,4.72,18.752,17.825,24.583,16.2,36.9a23.745,23.745,0,0,1-7.128,13.447Z" transform="translate(-240.443 -87.946)" fill="#2b2923"/>
          <path id="Trazado_116222" data-name="Trazado 116222" d="M297.055,168.8H260.461s-16.331-4.2-18.269-17.517c-.05-.346-.093-.725-.141-1.074,23.075,13.379,61.124-2.7,61.124-2.7.043.024.072.056.115.08a15.3,15.3,0,0,1,.894,7.488C303.114,163.194,297.055,168.8,297.055,168.8Z" transform="translate(-239.133 -55.021)" fill="#26241f"/>
          <path id="Trazado_116223" data-name="Trazado 116223" d="M252.092,126.053h7.583s-2-11.989-5.184-11.989S252.092,126.053,252.092,126.053Z" transform="translate(-230.59 -83.719)" fill="#fff"/>
          <path id="Trazado_116224" data-name="Trazado 116224" d="M246.607,125.694h-3.85s.624-11.212,2.245-11.212S246.607,125.694,246.607,125.694Z" transform="translate(-238.527 -83.36)" fill="#fff"/>
          <g id="Grupo_83192" data-name="Grupo 83192" transform="translate(22.397 42.178)">
            <path id="Trazado_116225" data-name="Trazado 116225" d="M258.172,120.432s1.505,48.866,7.672,62.69c3.759,8.423,19.005,18.762,19.005,18.762h-7.128s-15.571-9.852-18.163-18.762c-7.161-24.617-7.024-62.69-7.024-62.69Z" transform="translate(-252.534 -120.432)" fill="#d31c2e"/>
            <rect id="Rectángulo_34237" data-name="Rectángulo 34237" width="7.484" height="1.65" transform="translate(32.316 83.102) rotate(-180)" fill="#d31c2e"/>
          </g>
          <g id="Grupo_83193" data-name="Grupo 83193" transform="translate(1.976 42.178)">
            <path id="Trazado_116226" data-name="Trazado 116226" d="M246.769,120.432s-4.621,52.216.775,62.69c4.134,8.022,20.479,18.762,20.479,18.762H260.9s-14.094-8.534-17.03-19.087c-5.184-18.63-.067-62.365-.067-62.365Z" transform="translate(-241.544 -120.432)" fill="#d31c2e"/>
            <path id="Trazado_116227" data-name="Trazado 116227" d="M251.712,165.917H259.2l.1-1.65h-7.484Z" transform="translate(-232.818 -82.815)" fill="#d31c2e"/>
          </g>
          <path id="Trazado_116228" data-name="Trazado 116228" d="M310.244,167.365s-.942-6.329-9.326-6.693-20.9,5.71-28.917,4.131v2.562Z" transform="translate(-213.431 -43.736)" fill="#26241f"/>
          <g id="Grupo_83194" data-name="Grupo 83194" transform="translate(55.749 107.82)">
            <path id="Trazado_116229" data-name="Trazado 116229" d="M271.449,160c-1.869,3.584-.946,7.763,2.066,9.335s6.966-.058,8.837-3.642.944-7.763-2.066-9.335S273.321,156.417,271.449,160Z" transform="translate(-270.483 -155.759)" fill="#26241f"/>
            <path id="Trazado_116230" data-name="Trazado 116230" d="M277.165,155.771h-2.806l1.16,1.968Z" transform="translate(-267.156 -155.748)" fill="#26241f"/>
            <path id="Trazado_116231" data-name="Trazado 116231" d="M272.626,160c-1.869,3.584-.946,7.763,2.066,9.335s6.966-.058,8.837-3.642.944-7.763-2.066-9.335S274.5,156.417,272.626,160Z" transform="translate(-269.473 -155.759)" fill="#322f28"/>
          </g>
        </g>
        <g id="Grupo_83198" data-name="Grupo 83198" transform="translate(361.31 213.048)">
          <g id="Grupo_83196" data-name="Grupo 83196" transform="translate(0 2.036)">
            <path id="Trazado_116232" data-name="Trazado 116232" d="M339.481,149.457l3.318,4.995-32.608,49.123h-6.635Z" transform="translate(-303.556 -149.457)" fill="#26241f"/>
          </g>
          <g id="Grupo_83197" data-name="Grupo 83197" transform="translate(1.361)">
            <path id="Trazado_116233" data-name="Trazado 116233" d="M341.586,148.362l3.318,4.995-33.981,51.159h-6.635Z" transform="translate(-304.288 -148.362)" fill="#2b2923"/>
          </g>
          <path id="Trazado_116234" data-name="Trazado 116234" d="M324.194,149.939a1.717,1.717,0,0,0,.113,2.4,1.7,1.7,0,0,0,2.336-.511,1.719,1.719,0,0,0-.113-2.4A1.7,1.7,0,0,0,324.194,149.939Z" transform="translate(-286.213 -147.687)" fill="#827d79"/>
          <path id="Trazado_116235" data-name="Trazado 116235" d="M324.341,149.939a1.718,1.718,0,0,0,.113,2.4,1.7,1.7,0,0,0,2.336-.511,1.717,1.717,0,0,0-.113-2.4A1.7,1.7,0,0,0,324.341,149.939Z" transform="translate(-286.087 -147.687)" fill="#a39f9b"/>
          <path id="Trazado_116236" data-name="Trazado 116236" d="M324.341,149.939a1.7,1.7,0,0,1,2.336-.511c.017.013.022.035.039.048a1.639,1.639,0,0,0-2.256.494,1.661,1.661,0,0,0,.11,2.321,1.5,1.5,0,0,0,1.741-.015,1.565,1.565,0,0,1-1.856.063A1.718,1.718,0,0,1,324.341,149.939Z" transform="translate(-286.087 -147.686)" fill="#b7b6b6"/>
        </g>
      </g>
    </g>
  </g>
</svg>
