<svg xmlns="http://www.w3.org/2000/svg" xmlns:xlink="http://www.w3.org/1999/xlink" width="150" height="150" viewBox="0 0 150 150">
  <defs>
    <filter id="Elipse_9677" x="0" y="0" width="150" height="150" filterUnits="userSpaceOnUse">
      <feOffset dy="1" input="SourceAlpha"/>
      <feGaussianBlur stdDeviation="8" result="blur"/>
      <feFlood flood-color="#fff"/>
      <feComposite operator="in" in2="blur"/>
      <feComposite in="SourceGraphic"/>
    </filter>
  </defs>
  <g id="Grupo_1071901" data-name="Grupo 1071901" transform="translate(-206 -3215)">
    <g id="Grupo_61577" data-name="Grupo 61577" transform="translate(-587.987 -107.205)">
      <g id="Grupo_61576" data-name="Grupo 61576" transform="translate(838.038 3364.755)">
        <g id="Grupo_61574" data-name="Grupo 61574" transform="translate(1.007 1.007)">
          <g id="Grupo_61556" data-name="Grupo 61556">
            <path id="Trazado_110567" data-name="Trazado 110567" d="M839.564,3366.281h32.211v34.225H839.564Z" transform="translate(-839.564 -3366.281)" fill="#b8aff8"/>
          </g>
          <g id="Grupo_61557" data-name="Grupo 61557" transform="translate(28.185 26.172)">
            <path id="Trazado_110568" data-name="Trazado 110568" d="M882.286,3405.95H914.5v34.225H882.286Z" transform="translate(-882.286 -3405.95)" fill="#b8aff8"/>
          </g>
          <g id="Grupo_61558" data-name="Grupo 61558" transform="translate(8.053 4.026)">
            <path id="Trazado_110569" data-name="Trazado 110569" d="M867.876,3377.759a7.432,7.432,0,0,1-2.939,5.918l-.091.071h-.01a1.359,1.359,0,0,0,.02-.292v-3.3a1.02,1.02,0,0,0-.685-.956,10.4,10.4,0,0,1-4.077-2.517l-.272-.271-.272.271a10.4,10.4,0,0,1-4.077,2.517,1.02,1.02,0,0,0-.684.956v3.3a1.4,1.4,0,0,0,.02.292h-.01l-.09-.071a7.435,7.435,0,0,1-2.94-5.918,5.369,5.369,0,0,1,5.376-5.375H862.5a5.367,5.367,0,0,1,5.376,5.375Z" transform="translate(-851.77 -3372.384)" fill="#b27946"/>
          </g>
          <g id="Grupo_61559" data-name="Grupo 61559" transform="translate(6.04 22.145)">
            <path id="Trazado_110570" data-name="Trazado 110570" d="M868.851,3405.4v6.523H848.719V3405.4a5.046,5.046,0,0,1,4.067-4.962l2.979-.594.111.211a3.249,3.249,0,0,0,5.818,0l.111-.211,2.979.594a5.046,5.046,0,0,1,4.067,4.962Z" transform="translate(-848.719 -3399.847)" fill="#68d0e8"/>
          </g>
          <g id="Grupo_61560" data-name="Grupo 61560" transform="translate(36.238 30.198)">
            <path id="Trazado_110571" data-name="Trazado 110571" d="M897.432,3423.348a7.433,7.433,0,0,1-2.94-5.919,5.369,5.369,0,0,1,5.375-5.375h8.717a2.019,2.019,0,0,1,2.013,2.013,5.981,5.981,0,0,1-1.772,4.268,6.182,6.182,0,0,1-1.248.967,5.987,5.987,0,0,1-3.02.8H904.3a3.09,3.09,0,0,1-1.409-.332,2.442,2.442,0,0,1-1.349-2.185.352.352,0,0,1,.01-.1h-.01l-2.124.856a3.006,3.006,0,0,0-1.9,2.8v1.983a1.4,1.4,0,0,0,.02.292h-.01Z" transform="translate(-894.492 -3412.054)" fill="#b27946"/>
          </g>
          <g id="Grupo_61561" data-name="Grupo 61561" transform="translate(30.873 48.317)">
            <path id="Trazado_110572" data-name="Trazado 110572" d="M909.844,3445.075v6.522H886.36a5.37,5.37,0,0,0,5.365-5.366v-5.194a5.092,5.092,0,0,1,2.054-.927l2.979-.593.111.212a3.249,3.249,0,0,0,5.818,0l.111-.212,2.979.593a5.046,5.046,0,0,1,4.067,4.964Z" transform="translate(-886.36 -3439.518)" fill="#f1bf5e"/>
          </g>
          <g id="Grupo_61562" data-name="Grupo 61562" transform="translate(13.086 19.467)">
            <path id="Trazado_110573" data-name="Trazado 110573" d="M859.923,3395.789l2.5.664a5,5,0,0,0,2.5-.664l.523,2.678-.111.211a3.249,3.249,0,0,1-5.818,0l-.111-.211Z" transform="translate(-859.399 -3395.789)" fill="#f0d0b4"/>
          </g>
          <g id="Grupo_61563" data-name="Grupo 61563" transform="translate(11.073 8.053)">
            <path id="Trazado_110574" data-name="Trazado 110574" d="M866.414,3382.231v3.3a1.35,1.35,0,0,1-.02.292,5.019,5.019,0,0,1-5.013,4.741l-2.5-.664a4.925,4.925,0,0,1-2.517-4.077,1.4,1.4,0,0,1-.02-.292v-3.3a1.021,1.021,0,0,1,.684-.957,10.4,10.4,0,0,0,4.077-2.516l.272-.271.272.271a10.4,10.4,0,0,0,4.077,2.516A1.021,1.021,0,0,1,866.414,3382.231Z" transform="translate(-856.348 -3378.487)" fill="#f0d0b4"/>
          </g>
          <g id="Grupo_61564" data-name="Grupo 61564" transform="translate(41.271 45.64)">
            <path id="Trazado_110575" data-name="Trazado 110575" d="M902.645,3435.46a5.023,5.023,0,0,0,4.992,0l.524,2.677-.111.212a3.25,3.25,0,0,1-5.818,0l-.111-.212Z" transform="translate(-902.121 -3435.46)" fill="#f0d0b4"/>
          </g>
          <g id="Grupo_61565" data-name="Grupo 61565" transform="translate(39.258 35.634)">
            <path id="Trazado_110576" data-name="Trazado 110576" d="M903.1,3420.394a2.442,2.442,0,0,0,1.349,2.184,3.093,3.093,0,0,0,1.409.332h.262a5.979,5.979,0,0,0,3.02-.805v3.826a5.056,5.056,0,0,1-1.469,3.563,4.947,4.947,0,0,1-1.067.805,5.021,5.021,0,0,1-7.509-4.077,1.407,1.407,0,0,1-.02-.292v-1.983a3.006,3.006,0,0,1,1.9-2.8l2.124-.856h.01A.35.35,0,0,0,903.1,3420.394Z" transform="translate(-899.07 -3420.292)" fill="#f0d0b4"/>
          </g>
          <g id="Grupo_61566" data-name="Grupo 61566" transform="translate(24.159 2.013)">
            <path id="Trazado_110577" data-name="Trazado 110577" d="M906.381,3369.332H882.223a6.045,6.045,0,0,0-6.04,6.04v8.728a5.361,5.361,0,0,0,5.365,5.365,5.26,5.26,0,0,0,2.678-.725,5.318,5.318,0,0,0,1.62-1.419,4.68,4.68,0,0,1,3.755-1.882H899a4.68,4.68,0,0,1,3.755,1.882,5.37,5.37,0,0,0,9.663-3.221v-8.728A6.045,6.045,0,0,0,906.381,3369.332Z" transform="translate(-876.183 -3369.332)" fill="#aab2bd"/>
          </g>
          <g id="Grupo_61567" data-name="Grupo 61567" transform="translate(0 40.264)">
            <path id="Trazado_110578" data-name="Trazado 110578" d="M869.763,3427.312H845.6a6.045,6.045,0,0,0-6.04,6.04v8.727a5.362,5.362,0,0,0,5.366,5.366,5.261,5.261,0,0,0,2.677-.725,5.329,5.329,0,0,0,1.621-1.419,4.675,4.675,0,0,1,3.755-1.882h9.4a4.676,4.676,0,0,1,3.755,1.882,5.37,5.37,0,0,0,9.663-3.222v-8.727A6.044,6.044,0,0,0,869.763,3427.312Z" transform="translate(-839.564 -3427.312)" fill="#aab2bd"/>
          </g>
          <g id="Grupo_61568" data-name="Grupo 61568" transform="translate(28.185 6.039)">
            <path id="Trazado_110579" data-name="Trazado 110579" d="M890.339,3378.455v2.013a1.009,1.009,0,0,1-1.006,1.007h-1.007v1.006a1.011,1.011,0,0,1-1.007,1.008h-2.013a1.01,1.01,0,0,1-1.006-1.008v-1.006h-1.007a1.01,1.01,0,0,1-1.007-1.007v-2.013a1.01,1.01,0,0,1,1.007-1.006H884.3v-1.007a1.01,1.01,0,0,1,1.006-1.006h2.013a1.01,1.01,0,0,1,1.007,1.006v1.007h1.007A1.009,1.009,0,0,1,890.339,3378.455Z" transform="translate(-882.286 -3375.435)" fill="#f7d99e"/>
          </g>
          <g id="Grupo_61569" data-name="Grupo 61569" transform="translate(40.264 6.039)">
            <path id="Trazado_110580" data-name="Trazado 110580" d="M900.595,3375.435h4.027v4.027h-4.027Z" transform="translate(-900.595 -3375.435)" fill="#69e9f8"/>
          </g>
          <g id="Grupo_61570" data-name="Grupo 61570" transform="translate(40.264 2.013)">
            <path id="Trazado_110581" data-name="Trazado 110581" d="M900.595,3369.332h4.027v4.026h-4.027Z" transform="translate(-900.595 -3369.332)" fill="#69e9f8"/>
          </g>
          <g id="Grupo_61571" data-name="Grupo 61571" transform="translate(16.106 44.291)">
            <path id="Trazado_110582" data-name="Trazado 110582" d="M863.977,3433.415H868v4.027h-4.026Z" transform="translate(-863.977 -3433.415)" fill="#fcd770"/>
          </g>
          <g id="Grupo_61572" data-name="Grupo 61572" transform="translate(16.106 40.264)">
            <path id="Trazado_110583" data-name="Trazado 110583" d="M863.977,3427.312H868v4.027h-4.026Z" transform="translate(-863.977 -3427.312)" fill="#fcd770"/>
          </g>
          <g id="Grupo_61573" data-name="Grupo 61573" transform="translate(4.026 44.291)">
            <path id="Trazado_110584" data-name="Trazado 110584" d="M853.72,3436.434v2.014a1.01,1.01,0,0,1-1.007,1.007h-1.007v1.007a1.01,1.01,0,0,1-1.007,1.006h-2.013a1.01,1.01,0,0,1-1.007-1.006v-1.007h-1.007a1.01,1.01,0,0,1-1.007-1.007v-2.014a1.01,1.01,0,0,1,1.007-1.006h1.007v-1.007a1.01,1.01,0,0,1,1.007-1.007H850.7a1.01,1.01,0,0,1,1.007,1.007v1.007h1.007A1.01,1.01,0,0,1,853.72,3436.434Z" transform="translate(-845.667 -3433.415)" fill="#05dbf3"/>
          </g>
        </g>
        <g id="Grupo_61575" data-name="Grupo 61575">
          <path id="Trazado_110585" data-name="Trazado 110585" d="M852.195,3433.9a2.016,2.016,0,0,0-2.013-2.014h-2.013a26830.482,26830.482,0,0,1-4.026,4.026v2.013a7512.723,7512.723,0,0,0,4.026,4.026h2.013a6707.512,6707.512,0,0,0,4.026-4.026v-2.013A2.015,2.015,0,0,0,852.195,3433.9Zm0,4.026h-2.013v2.014h-2.013v-2.014h-2.013v-2.013h2.013V3433.9h2.013v2.013l2.013,0Z" transform="translate(-840.115 -3387.598)" fill="#453d7a"/>
          <path id="Trazado_110586" data-name="Trazado 110586" d="M862.451,3444.1h2.013v2.013h-2.013Z" transform="translate(-846.345 -3391.752)" fill="#453d7a"/>
          <path id="Trazado_110587" data-name="Trazado 110587" d="M868.554,3444.1h2.013v2.013h-2.013Z" transform="translate(-848.422 -3391.752)" fill="#453d7a"/>
          <path id="Trazado_110588" data-name="Trazado 110588" d="M877.709,3444.1h2.013v2.013h-2.013Z" transform="translate(-851.537 -3391.752)" fill="#453d7a"/>
          <path id="Trazado_110589" data-name="Trazado 110589" d="M883.812,3444.1h2.013v2.013h-2.013Z" transform="translate(-853.613 -3391.752)" fill="#453d7a"/>
          <circle id="Elipse_4466" data-name="Elipse 4466" cx="1.007" cy="1.007" r="1.007" transform="translate(28.185 44.291)" fill="#453d7a"/>
          <circle id="Elipse_4467" data-name="Elipse 4467" cx="1.007" cy="1.007" r="1.007" transform="translate(28.185 48.317)" fill="#453d7a"/>
          <circle id="Elipse_4468" data-name="Elipse 4468" cx="1.007" cy="1.007" r="1.007" transform="translate(26.172 46.304)" fill="#453d7a"/>
          <circle id="Elipse_4469" data-name="Elipse 4469" cx="1.007" cy="1.007" r="1.007" transform="translate(30.199 46.304)" fill="#453d7a"/>
          <path id="Trazado_110590" data-name="Trazado 110590" d="M888.813,3375.923a2.015,2.015,0,0,0-2.014-2.012h-2.013a17073.969,17073.969,0,0,0-4.026,4.026v2.012a20869.087,20869.087,0,0,1,4.026,4.027H886.8a11048.682,11048.682,0,0,0,4.026-4.027v-2.012A2.016,2.016,0,0,0,888.813,3375.923Zm0,4.026H886.8v2.013h-2.013v-2.013h-2.013v-2.012h2.013v-2.014H886.8v2.014l2.014,0Z" transform="translate(-852.575 -3367.87)" fill="#453d7a"/>
          <path id="Trazado_110591" data-name="Trazado 110591" d="M873.671,3386.364a3.71,3.71,0,0,1,2.953-1.476h9.4a3.712,3.712,0,0,1,2.953,1.475,6.374,6.374,0,0,0,11.475-3.824v-8.724a7.056,7.056,0,0,0-7.047-7.047H872.263v-2.013H838.038v36.238h28.185v4.026H845.085a7.056,7.056,0,0,0-7.047,7.046v8.725a6.375,6.375,0,0,0,11.475,3.825,3.711,3.711,0,0,1,2.953-1.478h9.4a3.714,3.714,0,0,1,2.954,1.476,6.4,6.4,0,0,0,5.1,2.551h30.534v-36.238H872.263v-3.205A6.364,6.364,0,0,0,873.671,3386.364Zm24.763-12.549v8.724a4.361,4.361,0,0,1-7.851,2.616,5.733,5.733,0,0,0-4.563-2.281h-9.4a5.73,5.73,0,0,0-4.563,2.282,4.362,4.362,0,0,1-7.852-2.617v-8.724a5.039,5.039,0,0,1,5.033-5.034H878.3v8.053h6.039v-8.053H893.4A5.039,5.039,0,0,1,898.435,3373.815Zm-38.62,1.836a9.451,9.451,0,0,1-3.677-2.273l-.987-.986-.987.986a9.44,9.44,0,0,1-3.675,2.272,2.011,2.011,0,0,0-1.378,1.91v1.043a6.457,6.457,0,0,1-1.007-3.443,4.366,4.366,0,0,1,4.366-4.365h5.361a4.365,4.365,0,0,1,4.365,4.367,6.454,6.454,0,0,1-1.007,3.441v-1.043a2.01,2.01,0,0,0-1.376-1.909Zm4.4,23.329H846.091v-5.515a4.055,4.055,0,0,1,3.261-3.976l2.261-.452a4.257,4.257,0,0,0,7.076,0l2.261.452a4.055,4.055,0,0,1,3.26,3.976Zm-7.1-11.237a2.231,2.231,0,0,1-3.926,0l.214-1.1a5.99,5.99,0,0,0,3.5,0Zm-1.963-2.855a4.031,4.031,0,0,1-4.026-4.027v-3.3a11.463,11.463,0,0,0,4.026-2.344,11.475,11.475,0,0,0,4.026,2.344v3.3A4.031,4.031,0,0,1,855.151,3384.887Zm25.165-12.08h2.013v2.014h-2.013Zm2.013-2.012h-2.013v-2.014h2.013Zm-42.278-4.027h29.192a7.057,7.057,0,0,0-6.508,4.349c-.076-.092-.136-.2-.217-.283a6.4,6.4,0,0,0-4.687-2.053H852.47a6.381,6.381,0,0,0-6.379,6.379,8.485,8.485,0,0,0,3.08,6.505,6.035,6.035,0,0,0,2.365,4.022l-.265,1.365-2.314.462a6.07,6.07,0,0,0-4.88,5.95v5.515h-4.026Zm16.105,44.291h2.014v2.012h-2.014Zm2.014-2.014h-2.014v-2.013h2.014Zm8.254,14.36a5.734,5.734,0,0,0-4.563-2.281h-9.4a5.731,5.731,0,0,0-4.563,2.282,4.362,4.362,0,0,1-7.851-2.617v-8.725a5.038,5.038,0,0,1,5.033-5.033h9.059v8.052h6.04v-8.052h9.059a5.039,5.039,0,0,1,5.033,5.033v8.725a4.362,4.362,0,0,1-7.852,2.615Zm9.865-2.615v-4.626a4.065,4.065,0,0,1,1.248-.5l2.26-.452a4.257,4.257,0,0,0,7.077,0l2.261.452a4.055,4.055,0,0,1,3.26,3.977v5.514H874.551a6.339,6.339,0,0,0,1.738-4.361Zm1.025-15.984a6.467,6.467,0,0,1-1.025-3.475,4.365,4.365,0,0,1,4.365-4.365h8.72a1.007,1.007,0,0,1,1.007,1.006,5.039,5.039,0,0,1-5.033,5.034h-.266a2.135,2.135,0,0,1-.953-.226,1.436,1.436,0,0,1,0-2.569l.662-.331-.9-1.8-.662.331a3.422,3.422,0,0,0-1.8,2.262l-1.6.641a4,4,0,0,0-2.513,3.494Zm1.995.244a2,2,0,0,1,1.266-1.868l1-.4a3.421,3.421,0,0,0,1.654,1.8,4.158,4.158,0,0,0,1.854.438h.266a7.006,7.006,0,0,0,2.013-.3v2.309a4.027,4.027,0,1,1-8.053,0Zm4.027,8.021a6.006,6.006,0,0,0,1.748-.26l.213,1.1a2.23,2.23,0,0,1-3.925,0l.214-1.1A6.014,6.014,0,0,0,883.336,3413.071Zm15.1-20.131v32.211h-4.026v-5.514a6.07,6.07,0,0,0-4.879-5.95l-2.314-.463-.265-1.365a6.032,6.032,0,0,0,2.425-4.828v-3.284a7.041,7.041,0,0,0,3.02-5.774,3.024,3.024,0,0,0-3.02-3.02h-8.72a6.379,6.379,0,0,0-6.378,6.378,8.482,8.482,0,0,0,3.08,6.505,6.041,6.041,0,0,0,2.365,4.023l-.265,1.365-2.313.463a5.86,5.86,0,0,0-.854.246v-1.867a7.055,7.055,0,0,0-7.046-7.046h-1.007v-4.026h4.026v-8.053Zm-28.185,6.04h-4.026v-5.515a6.071,6.071,0,0,0-4.879-5.95l-2.314-.462-.265-1.365a6.032,6.032,0,0,0,2.365-4.022,8.376,8.376,0,0,0,1.067-1.047v1.92a6.382,6.382,0,0,0,6.375,6.375,6.313,6.313,0,0,0,1.678-.237Z" transform="translate(-838.038 -3364.755)" fill="#12263f"/>
          <path id="Trazado_110592" data-name="Trazado 110592" d="M899.07,3386.116h2.013v2.013H899.07Z" transform="translate(-858.805 -3372.023)" fill="#453d7a"/>
          <path id="Trazado_110593" data-name="Trazado 110593" d="M905.173,3386.116h2.013v2.013h-2.013Z" transform="translate(-860.882 -3372.023)" fill="#453d7a"/>
          <path id="Trazado_110594" data-name="Trazado 110594" d="M914.327,3386.116h2.013v2.013h-2.013Z" transform="translate(-863.997 -3372.023)" fill="#453d7a"/>
          <path id="Trazado_110595" data-name="Trazado 110595" d="M920.431,3386.116h2.013v2.013h-2.013Z" transform="translate(-866.074 -3372.023)" fill="#453d7a"/>
          <circle id="Elipse_4470" data-name="Elipse 4470" cx="1.007" cy="1.007" r="1.007" transform="translate(52.344 6.04)" fill="#453d7a"/>
          <circle id="Elipse_4471" data-name="Elipse 4471" cx="1.007" cy="1.007" r="1.007" transform="translate(52.344 10.066)" fill="#453d7a"/>
          <circle id="Elipse_4472" data-name="Elipse 4472" cx="1.007" cy="1.007" r="1.007" transform="translate(50.331 8.053)" fill="#453d7a"/>
          <circle id="Elipse_4473" data-name="Elipse 4473" cx="1.007" cy="1.007" r="1.007" transform="translate(54.357 8.053)" fill="#453d7a"/>
        </g>
      </g>
    </g>
    <g transform="matrix(1, 0, 0, 1, 206, 3215)" filter="url(#Elipse_9677)">
      <path id="Elipse_9677-2" data-name="Elipse 9677" d="M51,6A45,45,0,1,0,96,51,45.051,45.051,0,0,0,51,6m0-6A51,51,0,1,1,0,51,51,51,0,0,1,51,0Z" transform="translate(24 23)" fill="#fff"/>
    </g>
  </g>
</svg>
