<svg xmlns="http://www.w3.org/2000/svg" xmlns:xlink="http://www.w3.org/1999/xlink" width="150" height="150" viewBox="0 0 150 150">
  <defs>
    <filter id="Elipse_9677" x="0" y="0" width="150" height="150" filterUnits="userSpaceOnUse">
      <feOffset dy="1" input="SourceAlpha"/>
      <feGaussianBlur stdDeviation="8" result="blur"/>
      <feFlood flood-color="#fff"/>
      <feComposite operator="in" in2="blur"/>
      <feComposite in="SourceGraphic"/>
    </filter>
  </defs>
  <g id="Grupo_1071902" data-name="Grupo 1071902" transform="translate(-835 -3214)">
    <g transform="matrix(1, 0, 0, 1, 835, 3214)" filter="url(#Elipse_9677)">
      <path id="Elipse_9677-2" data-name="Elipse 9677" d="M51,6A45,45,0,1,0,96,51,45.051,45.051,0,0,0,51,6m0-6A51,51,0,1,1,0,51,51,51,0,0,1,51,0Z" transform="translate(24 23)" fill="#fff"/>
    </g>
    <g id="Grupo_1071856" data-name="Grupo 1071856" transform="translate(48 9.999)">
      <g id="Grupo_61581" data-name="Grupo 61581" transform="translate(-234.557 -120.926)">
        <g id="Grupo_61580" data-name="Grupo 61580" transform="translate(1055.557 3357.927)">
          <path id="Trazado_110596" data-name="Trazado 110596" d="M1077.805,3410.249a21.129,21.129,0,0,0-2.26.122c-8.737.939-17.078,9.246-18.049,17.985a20.438,20.438,0,0,0,31.066,19.711,14.758,14.758,0,0,1,6.594-2.316q.851-.076,1.725-.075.83,0,1.646.058a14.783,14.783,0,0,1,6.693,2.338,20.545,20.545,0,0,0,20.573.526,20.086,20.086,0,0,0,7.555-7.185,20.429,20.429,0,0,0,2.911-13.065c-.969-8.733-9.312-17.039-18.049-17.978a20.971,20.971,0,0,0-2.254-.122Z" transform="translate(-1055.998 -3370.735)" fill="#f7df3f"/>
          <circle id="Elipse_4474" data-name="Elipse 4474" cx="4.088" cy="4.088" r="4.088" transform="translate(46.327 55.859)" fill="#68d0e8"/>
          <path id="Trazado_110598" data-name="Trazado 110598" d="M1078.615,3424.683h5.45v6.813h6.813v5.45h-6.813v6.813h-5.45v-6.813H1071.8v-5.45h6.813Z" transform="translate(-1059.534 -3374.268)" fill="#1425dd"/>
          <g id="Grupo_61579" data-name="Grupo 61579" transform="translate(55.865 47.684)">
            <circle id="Elipse_4475" data-name="Elipse 4475" cx="4.088" cy="4.088" r="4.088" fill="#f7d99e"/>
            <circle id="Elipse_4476" data-name="Elipse 4476" cx="4.088" cy="4.088" r="4.088" transform="translate(0 16.351)" fill="#f7d99e"/>
          </g>
          <circle id="Elipse_4477" data-name="Elipse 4477" cx="4.088" cy="4.088" r="4.088" transform="translate(65.403 55.859)" fill="#68d0e8"/>
          <path id="Trazado_110599" data-name="Trazado 110599" d="M1106.083,3408.483v-5.45h5.45v5.45" transform="translate(-1067.925 -3368.968)" fill="#a194f5"/>
          <path id="Trazado_110600" data-name="Trazado 110600" d="M1123.31,3432.705a4.037,4.037,0,0,1,.608,2.117,4.087,4.087,0,0,1-4.088,4.088,4.046,4.046,0,0,1-2.117-.608,4.077,4.077,0,1,0,5.6-5.6Z" transform="translate(-1070.772 -3376.232)" fill="#04b1d9"/>
          <path id="Trazado_110601" data-name="Trazado 110601" d="M1135.94,3421.879a4.067,4.067,0,0,1-5.6,5.6,4.077,4.077,0,1,0,5.6-5.6Z" transform="translate(-1073.864 -3373.582)" fill="#b58f47"/>
          <path id="Trazado_110602" data-name="Trazado 110602" d="M1148.569,3432.705a4.029,4.029,0,0,1,.608,2.117,4.066,4.066,0,0,1-6.2,3.48,4.077,4.077,0,1,0,5.6-5.6Z" transform="translate(-1076.955 -3376.232)" fill="#04b1d9"/>
          <path id="Trazado_110603" data-name="Trazado 110603" d="M1135.94,3443.53a4.067,4.067,0,0,1-5.6,5.6,4.077,4.077,0,1,0,5.6-5.6Z" transform="translate(-1073.864 -3378.882)" fill="#b58f47"/>
          <path id="Trazado_110604" data-name="Trazado 110604" d="M1071.8,3437.823v1.332h6.813v6.813h5.45v-6.813h6.813v-5.45H1088.6C1083.222,3437.457,1075.016,3437.833,1071.8,3437.823Z" transform="translate(-1059.534 -3376.477)" fill="#675bb6"/>
          <path id="Trazado_110605" data-name="Trazado 110605" d="M1106.083,3408.427v.372h5.45v-4.476A10.311,10.311,0,0,1,1106.083,3408.427Z" transform="translate(-1067.925 -3369.284)" fill="#1425dd"/>
          <path id="Trazado_110606" data-name="Trazado 110606" d="M1090.437,3429.692h-5.45v-5.45a1.363,1.363,0,0,0-1.362-1.363h-5.45a1.363,1.363,0,0,0-1.362,1.363v5.45h-5.45a1.363,1.363,0,0,0-1.363,1.363v5.45a1.363,1.363,0,0,0,1.363,1.363h5.45v5.45a1.363,1.363,0,0,0,1.363,1.362h5.45a1.363,1.363,0,0,0,1.362-1.362v-5.45h5.45a1.363,1.363,0,0,0,1.362-1.363v-5.45A1.363,1.363,0,0,0,1090.437,3429.692Zm-1.362,5.45h-5.45a1.363,1.363,0,0,0-1.362,1.363v5.45h-2.725v-5.45a1.363,1.363,0,0,0-1.363-1.363h-5.45v-2.725h5.45a1.363,1.363,0,0,0,1.363-1.362v-5.45h2.725v5.45a1.364,1.364,0,0,0,1.363,1.362h5.449v2.725Z" transform="translate(-1059.092 -3373.827)" fill="#453d7a"/>
          <path id="Trazado_110607" data-name="Trazado 110607" d="M1133.183,3430.171a5.45,5.45,0,1,0-5.45-5.45A5.45,5.45,0,0,0,1133.183,3430.171Zm0-8.175a2.725,2.725,0,1,1-2.725,2.725A2.724,2.724,0,0,1,1133.183,3422Z" transform="translate(-1073.225 -3372.943)" fill="#453d7a"/>
          <path id="Trazado_110608" data-name="Trazado 110608" d="M1133.183,3440.921a5.45,5.45,0,1,0,5.45,5.45A5.451,5.451,0,0,0,1133.183,3440.921Zm0,8.175a2.725,2.725,0,1,1,2.725-2.725A2.724,2.724,0,0,1,1133.183,3449.1Z" transform="translate(-1073.225 -3378.243)" fill="#453d7a"/>
          <path id="Trazado_110609" data-name="Trazado 110609" d="M1120.554,3430.095a5.45,5.45,0,1,0,5.45,5.451A5.451,5.451,0,0,0,1120.554,3430.095Zm0,8.176a2.725,2.725,0,1,1,2.725-2.725A2.725,2.725,0,0,1,1120.554,3438.271Z" transform="translate(-1070.134 -3375.593)" fill="#453d7a"/>
          <path id="Trazado_110610" data-name="Trazado 110610" d="M1145.813,3430.095a5.45,5.45,0,1,0,5.45,5.451A5.451,5.451,0,0,0,1145.813,3430.095Zm0,8.176a2.725,2.725,0,1,1,2.725-2.725A2.725,2.725,0,0,1,1145.813,3438.271Z" transform="translate(-1076.317 -3375.593)" fill="#453d7a"/>
          <path id="Trazado_110611" data-name="Trazado 110611" d="M1117.919,3396.215a22.615,22.615,0,0,0-2.4-.136h-14.988v-5.45H1097.8V3387.9a5.45,5.45,0,0,0-5.45-5.45h-6.813a2.725,2.725,0,1,1,0-5.45h21.8a5.45,5.45,0,1,0,0-10.9h-6.813a2.724,2.724,0,0,1-2.725-2.726v-5.45h-2.726v5.45a5.451,5.451,0,0,0,5.45,5.45h6.813a2.725,2.725,0,1,1,0,5.449h-21.8a5.45,5.45,0,0,0,0,10.9h6.813a2.724,2.724,0,0,1,2.725,2.725v2.726h-2.725v5.45h-14.989a22.066,22.066,0,0,0-2.406.136c-9.4,1.009-18.215,9.793-19.257,19.182a21.8,21.8,0,0,0,33.138,21.014,13.35,13.35,0,0,1,5.98-2.114,20.984,20.984,0,0,1,3.168-.01,13.439,13.439,0,0,1,6.074,2.136,21.8,21.8,0,0,0,33.12-21.032C1136.135,3406,1127.317,3397.216,1117.919,3396.215Zm-22.842-2.862h2.725v2.726h-2.725Zm34.656,37.245a19.063,19.063,0,0,1-24.237,3.509,16.06,16.06,0,0,0-7.316-2.538q-.863-.063-1.741-.063c-.62,0-1.226.026-1.837.073a16.037,16.037,0,0,0-7.205,2.516,19.075,19.075,0,0,1-28.988-18.395c.9-8.07,8.763-15.907,16.841-16.775a19.335,19.335,0,0,1,2.113-.121h38.152a19.959,19.959,0,0,1,2.113.113c8.076.869,15.942,8.705,16.841,16.775A18.935,18.935,0,0,1,1129.734,3430.6Z" transform="translate(-1055.557 -3357.927)" fill="#12263f"/>
        </g>
      </g>
    </g>
  </g>
</svg>
