<svg xmlns="http://www.w3.org/2000/svg" xmlns:xlink="http://www.w3.org/1999/xlink" width="401" height="230" viewBox="0 0 401 230">
  <defs>
    <clipPath id="clip-path">
      <rect id="Rectángulo_376502" data-name="Rectángulo 376502" width="400" height="220.648" fill="none"/>
    </clipPath>
    <clipPath id="clip-path-3">
      <rect id="Rectángulo_376493" data-name="Rectángulo 376493" width="90.346" height="64.304" fill="none"/>
    </clipPath>
    <clipPath id="clip-path-4">
      <rect id="Rectángulo_376491" data-name="Rectángulo 376491" width="44.02" height="44.02" fill="none"/>
    </clipPath>
    <clipPath id="clip-path-5">
      <rect id="Rectángulo_376492" data-name="Rectángulo 376492" width="49.323" height="49.322" fill="none"/>
    </clipPath>
    <clipPath id="clip-path-7">
      <rect id="Rectángulo_376496" data-name="Rectángulo 376496" width="215.322" height="129.68" fill="none"/>
    </clipPath>
    <clipPath id="clip-path-8">
      <rect id="Rectángulo_376497" data-name="Rectángulo 376497" width="23.694" height="46.805" fill="none"/>
    </clipPath>
    <clipPath id="clip-path-9">
      <rect id="Rectángulo_376498" data-name="Rectángulo 376498" width="14.859" height="23.299" fill="none"/>
    </clipPath>
    <clipPath id="clip-path-10">
      <path id="Trazado_819426" data-name="Trazado 819426" d="M100.056,77.021,93.742,87.956l6.314,10.935h12.626L119,87.956l-6.313-10.935Z" transform="translate(-93.742 -77.021)" fill="none"/>
    </clipPath>
  </defs>
  <g id="Grupo_1072921" data-name="Grupo 1072921" transform="translate(-285 -4450)">
    <g id="Grupo_1072950" data-name="Grupo 1072950">
      <rect id="Rectángulo_376473" data-name="Rectángulo 376473" width="401" height="230" transform="translate(285 4450)" fill="none"/>
      <g id="Grupo_1072949" data-name="Grupo 1072949" transform="translate(286 4455)">
        <g id="Grupo_1072948" data-name="Grupo 1072948" clip-path="url(#clip-path)">
          <g id="Grupo_1072932" data-name="Grupo 1072932">
            <g id="Grupo_1072931" data-name="Grupo 1072931" clip-path="url(#clip-path)">
              <g id="Grupo_1072930" data-name="Grupo 1072930" transform="translate(163.096)" style="mix-blend-mode: color-dodge;isolation: isolate">
                <g id="Grupo_1072929" data-name="Grupo 1072929">
                  <g id="Grupo_1072928" data-name="Grupo 1072928" clip-path="url(#clip-path-3)">
                    <g id="Grupo_1072924" data-name="Grupo 1072924" transform="translate(46.327)" opacity="0.25" style="mix-blend-mode: color-dodge;isolation: isolate">
                      <g id="Grupo_1072923" data-name="Grupo 1072923">
                        <g id="Grupo_1072922" data-name="Grupo 1072922" clip-path="url(#clip-path-4)">
                          <path id="Trazado_819362" data-name="Trazado 819362" d="M476.857,18.5h-4.764a1.276,1.276,0,0,1-1.215-.933,15.283,15.283,0,0,0-1.193-2.863,1.217,1.217,0,0,1,.189-1.457l3.4-3.4a1.3,1.3,0,0,0,0-1.842l-3.121-3.12a1.3,1.3,0,0,0-1.842,0l-3.4,3.395a1.223,1.223,0,0,1-1.461.192,15.257,15.257,0,0,0-2.863-1.191,1.269,1.269,0,0,1-.932-1.209V1.3a1.3,1.3,0,0,0-1.3-1.3h-4.413a1.3,1.3,0,0,0-1.3,1.3v4.77a1.269,1.269,0,0,1-.933,1.209,15.237,15.237,0,0,0-2.863,1.192,1.224,1.224,0,0,1-1.461-.192l-3.4-3.4a1.3,1.3,0,0,0-1.842,0l-3.12,3.121a1.3,1.3,0,0,0,0,1.842l3.4,3.4a1.216,1.216,0,0,1,.188,1.456,15.189,15.189,0,0,0-1.194,2.863,1.277,1.277,0,0,1-1.215.933h-4.764a1.3,1.3,0,0,0-1.3,1.3v4.413a1.3,1.3,0,0,0,1.3,1.3h4.764a1.277,1.277,0,0,1,1.215.934,15.2,15.2,0,0,0,1.193,2.861,1.217,1.217,0,0,1-.189,1.458l-3.4,3.4a1.3,1.3,0,0,0,0,1.843l3.12,3.121a1.3,1.3,0,0,0,1.843,0l3.395-3.4a1.223,1.223,0,0,1,1.461-.192,15.254,15.254,0,0,0,2.863,1.191,1.269,1.269,0,0,1,.933,1.209v4.771a1.3,1.3,0,0,0,1.3,1.3h4.413a1.3,1.3,0,0,0,1.3-1.3V37.946a1.27,1.27,0,0,1,.932-1.209,15.257,15.257,0,0,0,2.863-1.191,1.223,1.223,0,0,1,1.461.192l3.4,3.4a1.3,1.3,0,0,0,1.842,0l3.121-3.12a1.3,1.3,0,0,0,0-1.842l-3.381-3.381a1.255,1.255,0,0,1-.2-1.494,15.209,15.209,0,0,0,1.175-2.821,1.306,1.306,0,0,1,1.241-.955h4.745a1.3,1.3,0,0,0,1.3-1.3V19.8a1.3,1.3,0,0,0-1.3-1.3M461.221,30.86c-9.342,4.654-18.575-4.579-13.922-13.922a8.47,8.47,0,0,1,3.773-3.775C460.417,8.5,469.658,17.741,465,27.086a8.462,8.462,0,0,1-3.776,3.774m3.6-8.85a8.78,8.78,0,1,1-8.78-8.78,8.78,8.78,0,0,1,8.78,8.78" transform="translate(-434.14)" fill="#b500ac"/>
                        </g>
                      </g>
                    </g>
                    <g id="Grupo_1072927" data-name="Grupo 1072927" transform="translate(0 14.982)" opacity="0.25" style="mix-blend-mode: color-dodge;isolation: isolate">
                      <g id="Grupo_1072926" data-name="Grupo 1072926">
                        <g id="Grupo_1072925" data-name="Grupo 1072925" clip-path="url(#clip-path-5)">
                          <path id="Trazado_819363" data-name="Trazado 819363" d="M383.568,43.405l-5.119,1.966a1.47,1.47,0,0,1-1.691-.5,17.575,17.575,0,0,0-2.464-2.584,1.4,1.4,0,0,1-.4-1.643l2.25-5.054a1.5,1.5,0,0,0-.759-1.979l-4.641-2.066a1.5,1.5,0,0,0-1.979.76L366.52,37.35a1.408,1.408,0,0,1-1.491.809,17.533,17.533,0,0,0-3.568-.1,1.461,1.461,0,0,1-1.5-.914l-1.969-5.126a1.5,1.5,0,0,0-1.936-.863l-4.742,1.821a1.5,1.5,0,0,0-.862,1.937l1.968,5.126a1.462,1.462,0,0,1-.5,1.684,17.542,17.542,0,0,0-2.585,2.462,1.408,1.408,0,0,1-1.65.4l-5.049-2.247a1.5,1.5,0,0,0-1.98.76l-2.065,4.641a1.5,1.5,0,0,0,.76,1.979l5.056,2.251a1.4,1.4,0,0,1,.8,1.486,17.544,17.544,0,0,0-.1,3.569,1.469,1.469,0,0,1-.92,1.5l-5.119,1.965a1.5,1.5,0,0,0-.863,1.937l1.821,4.742a1.5,1.5,0,0,0,1.936.863l5.119-1.966a1.471,1.471,0,0,1,1.692.5,17.477,17.477,0,0,0,2.462,2.582,1.4,1.4,0,0,1,.4,1.644l-2.251,5.054a1.5,1.5,0,0,0,.761,1.98l4.64,2.066a1.5,1.5,0,0,0,1.98-.76l2.247-5.05a1.408,1.408,0,0,1,1.49-.809,17.541,17.541,0,0,0,3.569.1,1.462,1.462,0,0,1,1.5.914l1.968,5.126a1.5,1.5,0,0,0,1.937.863l4.742-1.821a1.5,1.5,0,0,0,.863-1.937L373.11,71.4a1.463,1.463,0,0,1,.5-1.684,17.566,17.566,0,0,0,2.586-2.462,1.408,1.408,0,0,1,1.649-.4L382.9,69.1a1.5,1.5,0,0,0,1.979-.76l2.066-4.64a1.5,1.5,0,0,0-.76-1.98l-5.028-2.238a1.445,1.445,0,0,1-.827-1.525,17.453,17.453,0,0,0,.1-3.517,1.5,1.5,0,0,1,.939-1.538l5.1-1.958a1.5,1.5,0,0,0,.862-1.936l-1.821-4.742a1.5,1.5,0,0,0-1.937-.863m-11.7,19.732c-8.119,8.855-21.851,2.743-20.7-9.216a9.753,9.753,0,0,1,2.5-5.614c8.119-8.865,21.861-2.749,20.707,9.217a9.749,9.749,0,0,1-2.5,5.613" transform="translate(-338.103 -31.058)" fill="#b500ac"/>
                        </g>
                      </g>
                    </g>
                  </g>
                </g>
              </g>
            </g>
          </g>
          <rect id="Rectángulo_376495" data-name="Rectángulo 376495" width="71.568" height="32.145" transform="translate(101.221 162.874)" fill="#00083f"/>
          <g id="Grupo_1072943" data-name="Grupo 1072943">
            <g id="Grupo_1072942" data-name="Grupo 1072942" clip-path="url(#clip-path)">
              <path id="Trazado_819364" data-name="Trazado 819364" d="M279.368,409.9H152.08a5.623,5.623,0,0,1,5.623-5.623H273.745a5.623,5.623,0,0,1,5.623,5.623" transform="translate(-78.719 -209.262)" fill="#0064d1"/>
              <path id="Trazado_819365" data-name="Trazado 819365" d="M51.357,184.1V55.214a4.967,4.967,0,0,1,4.967-4.967H270.853a4.967,4.967,0,0,1,4.967,4.967V184.1a4.967,4.967,0,0,1-4.967,4.967H56.324a4.967,4.967,0,0,1-4.967-4.967" transform="translate(-26.583 -26.009)" fill="#0064d1"/>
              <path id="Trazado_819366" data-name="Trazado 819366" d="M272.936,189.251H59.665a3.069,3.069,0,0,1-3.069-3.069V58.554a3.069,3.069,0,0,1,3.069-3.069H272.936A3.069,3.069,0,0,1,276,58.554V186.182a3.069,3.069,0,0,1-3.069,3.069" transform="translate(-29.295 -28.72)" fill="#00083f"/>
              <g id="Grupo_1072935" data-name="Grupo 1072935" transform="translate(57.475 26.765)" opacity="0.05">
                <g id="Grupo_1072934" data-name="Grupo 1072934">
                  <g id="Grupo_1072933" data-name="Grupo 1072933" clip-path="url(#clip-path-7)">
                    <path id="Trazado_819367" data-name="Trazado 819367" d="M123.234,55.485a4.087,4.087,0,0,0-4.087,4.087V185.165L334.469,55.485Z" transform="translate(-119.147 -55.485)" fill="#fff"/>
                  </g>
                </g>
              </g>
              <path id="Trazado_819368" data-name="Trazado 819368" d="M663.956,269.153h-5.4V256.122H641.62c-9.185,0-16.63-6.833-16.63-15.262V217.793c0-14.114,12.467-25.556,27.847-25.556h4.775c15.379,0,27.847,11.442,27.847,25.556v29.858a21.5,21.5,0,0,1-21.5,21.5" transform="translate(-323.504 -99.505)" fill="#d300ab"/>
              <path id="Trazado_819369" data-name="Trazado 819369" d="M688.779,251.008a244.386,244.386,0,0,0-72.535-24.188c2.587-15.553,3.8-26.985,6.385-42.538A291.688,291.688,0,0,1,709.2,213.151c-7.266,13.992-13.158,23.864-20.424,37.857" transform="translate(-318.977 -95.387)" fill="#001d5d"/>
              <path id="Trazado_819370" data-name="Trazado 819370" d="M600.9,174.569a19.621,19.621,0,1,0,27.491-3.778,19.622,19.622,0,0,0-27.491,3.778" transform="translate(-308.973 -86.339)" fill="#0044b9"/>
              <path id="Trazado_819371" data-name="Trazado 819371" d="M544.351,267.343a15.228,15.228,0,1,0,21.335-2.932,15.228,15.228,0,0,0-21.335,2.932" transform="translate(-280.162 -135.261)" fill="#0044b9"/>
              <path id="Trazado_819372" data-name="Trazado 819372" d="M604.387,210.08,570,248.214l-24.142-18.308L573.3,186.5Z" transform="translate(-282.542 -96.537)" fill="#0044b9"/>
              <path id="Trazado_819373" data-name="Trazado 819373" d="M558.038,255.061l-1.252,2s18.484.22,28.863,15.614l1.589-1.817c-10.5-15.574-29.2-15.8-29.2-15.8" transform="translate(-288.201 -132.023)" fill="#0064d1"/>
              <g id="Grupo_1072938" data-name="Grupo 1072938" transform="translate(264.348 105.676)" opacity="0.2">
                <g id="Grupo_1072937" data-name="Grupo 1072937">
                  <g id="Grupo_1072936" data-name="Grupo 1072936" clip-path="url(#clip-path-8)">
                    <path id="Trazado_819374" data-name="Trazado 819374" d="M556.052,265.764a11.769,11.769,0,0,1-6.353-17.218l.023-.037,17.966-28.426a2.172,2.172,0,0,1,3.671,2.321L553.405,250.81a7.424,7.424,0,0,0,4.02,10.833,2.172,2.172,0,0,1-1.374,4.121" transform="translate(-548.002 -219.07)" fill="#fff"/>
                  </g>
                </g>
              </g>
              <path id="Trazado_819375" data-name="Trazado 819375" d="M787.1,236.66a19.621,19.621,0,1,1-19.721-19.521A19.622,19.622,0,0,1,787.1,236.66" transform="translate(-387.104 -112.394)" fill="#0044b9"/>
              <path id="Trazado_819376" data-name="Trazado 819376" d="M787.97,348.582a15.228,15.228,0,1,1-15.306-15.15,15.228,15.228,0,0,1,15.306,15.15" transform="translate(-392.1 -172.589)" fill="#0044b9"/>
              <path id="Trazado_819377" data-name="Trazado 819377" d="M748.116,262.15l4.62,51.143,30.3-.155,4.1-51.187Z" transform="translate(-387.236 -135.59)" fill="#0044b9"/>
              <path id="Trazado_819378" data-name="Trazado 819378" d="M787.32,335.57l-.2,2.351S772.2,327,754.663,333.087l-.18-2.407c17.746-6.154,32.837,4.891,32.837,4.891" transform="translate(-390.532 -170.199)" fill="#0064d1"/>
              <g id="Grupo_1072941" data-name="Grupo 1072941" transform="translate(367.796 164.456)" opacity="0.2">
                <g id="Grupo_1072940" data-name="Grupo 1072940">
                  <g id="Grupo_1072939" data-name="Grupo 1072939" clip-path="url(#clip-path-9)">
                    <path id="Trazado_819379" data-name="Trazado 819379" d="M771.372,363.622a11.778,11.778,0,0,1-7.962-9.841l0-.044-.944-10.447a2.172,2.172,0,0,1,4.326-.391l.942,10.424a7.394,7.394,0,0,0,7.4,6.555,2.172,2.172,0,1,1,.023,4.343,11.723,11.723,0,0,1-3.78-.6" transform="translate(-762.452 -340.923)" fill="#fff"/>
                  </g>
                </g>
              </g>
              <path id="Trazado_819380" data-name="Trazado 819380" d="M635.49,194.7a16.881,16.881,0,1,1-10.674-21.355A16.881,16.881,0,0,1,635.49,194.7" transform="translate(-311.91 -89.276)" fill="#0064d1"/>
              <path id="Trazado_819381" data-name="Trazado 819381" d="M617.156,205.65a14.709,14.709,0,1,1,18.607-9.3,14.726,14.726,0,0,1-18.607,9.3" transform="translate(-314.243 -91.61)" fill="#006ac9"/>
              <path id="Trazado_819382" data-name="Trazado 819382" d="M635.921,196.431l-5.472-1.825,1.825-5.472a1.356,1.356,0,0,0-.858-1.715l-3.155-1.052a1.356,1.356,0,0,0-1.715.858l-1.825,5.472-5.472-1.825a1.356,1.356,0,0,0-1.715.857l-1.052,3.155a1.356,1.356,0,0,0,.858,1.715l5.472,1.825-1.825,5.472a1.356,1.356,0,0,0,.857,1.715L625,206.664a1.356,1.356,0,0,0,1.715-.858l1.825-5.472,5.472,1.825a1.356,1.356,0,0,0,1.715-.857l1.052-3.155a1.356,1.356,0,0,0-.857-1.715" transform="translate(-319.064 -96.43)" fill="#00cea3"/>
              <path id="Trazado_819383" data-name="Trazado 819383" d="M625.867,206.373l2.254-6.759-6.759-2.254.536-1.607,6.759,2.254,2.254-6.758,1.607.536-2.253,6.758,6.758,2.254-.536,1.607-6.758-2.254-2.254,6.759Z" transform="translate(-321.626 -98.993)" fill="#07f7ae"/>
              <path id="Trazado_819384" data-name="Trazado 819384" d="M786.432,245.036a16.881,16.881,0,1,1-10.674-21.355,16.881,16.881,0,0,1,10.674,21.355" transform="translate(-390.04 -115.329)" fill="#0064d1"/>
              <path id="Trazado_819385" data-name="Trazado 819385" d="M768.1,255.983a14.709,14.709,0,1,1,18.608-9.3,14.726,14.726,0,0,1-18.608,9.3" transform="translate(-392.374 -117.663)" fill="#006ac9"/>
              <path id="Trazado_819386" data-name="Trazado 819386" d="M793.209,238.773a4.445,4.445,0,1,1-2.81-5.623,4.445,4.445,0,0,1,2.81,5.623" transform="translate(-406.093 -120.563)" fill="#00cea3"/>
              <path id="Trazado_819387" data-name="Trazado 819387" d="M790.605,241.855a2.273,2.273,0,1,1,2.876-1.438,2.276,2.276,0,0,1-2.876,1.438" transform="translate(-408.424 -122.895)" fill="#07f7ae"/>
              <path id="Trazado_819388" data-name="Trazado 819388" d="M782.755,270.125a4.445,4.445,0,1,1-2.81-5.623,4.445,4.445,0,0,1,2.81,5.623" transform="translate(-400.682 -136.792)" fill="#00cea3"/>
              <path id="Trazado_819389" data-name="Trazado 819389" d="M780.151,273.207a2.273,2.273,0,1,1,2.875-1.437,2.275,2.275,0,0,1-2.875,1.437" transform="translate(-403.013 -139.123)" fill="#07f7ae"/>
              <path id="Trazado_819390" data-name="Trazado 819390" d="M798.036,262.488a4.445,4.445,0,1,1,5.623-2.81,4.445,4.445,0,0,1-5.623,2.81" transform="translate(-411.502 -131.383)" fill="#00cea3"/>
              <path id="Trazado_819391" data-name="Trazado 819391" d="M801.055,262.759a2.273,2.273,0,1,1,2.875-1.437,2.276,2.276,0,0,1-2.875,1.437" transform="translate(-413.833 -133.715)" fill="#07f7ae"/>
              <path id="Trazado_819392" data-name="Trazado 819392" d="M766.684,252.033a4.445,4.445,0,1,1,5.623-2.81,4.445,4.445,0,0,1-5.623,2.81" transform="translate(-395.274 -125.972)" fill="#00cea3"/>
              <path id="Trazado_819393" data-name="Trazado 819393" d="M769.7,252.3a2.273,2.273,0,1,1,2.875-1.438A2.275,2.275,0,0,1,769.7,252.3" transform="translate(-397.605 -128.303)" fill="#07f7ae"/>
              <path id="Trazado_819394" data-name="Trazado 819394" d="M664.782,271.591a10.136,10.136,0,1,1-6.409-12.821,10.136,10.136,0,0,1,6.409,12.821" transform="translate(-333.876 -133.672)" fill="#00d0a2"/>
              <path id="Trazado_819395" data-name="Trazado 819395" d="M658,278.543a5.793,5.793,0,1,1,7.327-3.662A5.8,5.8,0,0,1,658,278.543" transform="translate(-338.539 -138.335)" fill="#07f7ae"/>
              <path id="Trazado_819396" data-name="Trazado 819396" d="M721.433,290.482a10.136,10.136,0,1,1-6.409-12.821,10.136,10.136,0,0,1,6.409,12.821" transform="translate(-363.2 -143.45)" fill="#00d0a2"/>
              <path id="Trazado_819397" data-name="Trazado 819397" d="M714.648,297.434a5.793,5.793,0,1,1,7.327-3.662,5.8,5.8,0,0,1-7.327,3.662" transform="translate(-367.863 -148.113)" fill="#07f7ae"/>
              <path id="Trazado_819398" data-name="Trazado 819398" d="M688.316,198.9h0a7.005,7.005,0,0,1-4.836-8.646l3.56-12.6a3.051,3.051,0,0,1,3.766-2.107l7.611,2.151a3.05,3.05,0,0,1,2.106,3.766l-3.559,12.6a7.006,7.006,0,0,1-8.646,4.836" transform="translate(-353.642 -90.807)" fill="#ef22b0"/>
              <path id="Trazado_819399" data-name="Trazado 819399" d="M667.612,191.671h0a5.48,5.48,0,0,1-4.448-6.346l1.773-10.084A2.386,2.386,0,0,1,667.7,173.3l6.093,1.071a2.387,2.387,0,0,1,1.937,2.764l-1.773,10.084a5.48,5.48,0,0,1-6.346,4.448" transform="translate(-343.22 -89.686)" fill="#ef22b0"/>
              <path id="Trazado_819400" data-name="Trazado 819400" d="M711.626,209.237h0a7.005,7.005,0,0,1-1.553-9.784l7.69-10.592a3.051,3.051,0,0,1,4.261-.676l6.4,4.646a3.051,3.051,0,0,1,.677,4.261l-7.69,10.592a7.005,7.005,0,0,1-9.784,1.553" transform="translate(-366.852 -97.106)" fill="#ef22b0"/>
              <path id="Trazado_819401" data-name="Trazado 819401" d="M730.925,227.7h0a7.005,7.005,0,0,1,1.578-9.78l10.612-7.663a3.051,3.051,0,0,1,4.259.687l4.63,6.411a3.051,3.051,0,0,1-.687,4.26l-10.611,7.663a7,7,0,0,1-9.78-1.578" transform="translate(-377.651 -108.533)" fill="#ef22b0"/>
              <path id="Trazado_819402" data-name="Trazado 819402" d="M687.377,378.9H651.834l-2.606-55.843h40.321Z" transform="translate(-336.05 -167.221)" fill="#d300ab"/>
              <path id="Trazado_819403" data-name="Trazado 819403" d="M650.456,245.324h0a12.706,12.706,0,0,1-13.3,12.085l-9.257-.443a3.336,3.336,0,0,1-3.173-3.492l.413-8.639a3.337,3.337,0,0,1,3.493-3.173l19.337.925a2.615,2.615,0,0,1,2.487,2.737" transform="translate(-323.366 -125.086)" fill="#ef22b0"/>
              <path id="Trazado_819404" data-name="Trazado 819404" d="M623.485,241.656h0a7.661,7.661,0,0,1,7.286,8.018l-.684,18.641a3.337,3.337,0,0,1-3.492,3.173l-8.639-.413a3.336,3.336,0,0,1-3.173-3.492l.684-18.641a7.661,7.661,0,0,1,8.018-7.286" transform="translate(-318.219 -125.08)" fill="#ef22b0"/>
              <path id="Trazado_819405" data-name="Trazado 819405" d="M617.741,279.6h0c3.694-3.352,8.739-3,12.871-2.021,8.747,2.082,14.635,8.382,18.21,13.767a8.611,8.611,0,0,1-3.285,12.477l-12.395,6.218-16.02-17.685a9.031,9.031,0,0,1,.619-12.757" transform="translate(-318.219 -143.328)" fill="#ef22b0"/>
              <path id="Trazado_819406" data-name="Trazado 819406" d="M721.834,388.957l1.714-46.423c-2.006-.163-3.74-.091-5.2,2.495a19.121,19.121,0,0,0-1.862,7.787c-.517,6.783-.654,29.284-.687,36.142Z" transform="translate(-370.507 -177.274)" fill="#b500ac"/>
              <rect id="Rectángulo_376499" data-name="Rectángulo 376499" width="99.759" height="2.992" transform="translate(282.544 211.683)" fill="#2f1e80"/>
              <path id="Trazado_819407" data-name="Trazado 819407" d="M226.132,159.463l9.061,5.231a1,1,0,0,1,0,1.727l-9.061,5.231a1,1,0,0,1-1.5-.864V160.327a1,1,0,0,1,1.5-.864" transform="translate(-116.275 -82.47)" fill="#07f7ae"/>
              <path id="Trazado_819408" data-name="Trazado 819408" d="M262.649,158.023a1.716,1.716,0,0,1,0-3.433h46.125a1.716,1.716,0,0,1,0,3.433Z" transform="translate(-135.063 -80.018)" fill="#0064d1"/>
              <path id="Trazado_819409" data-name="Trazado 819409" d="M262.649,170.938a1.716,1.716,0,0,1,0-3.433h46.125a1.716,1.716,0,0,1,0,3.433Z" transform="translate(-135.063 -86.703)" fill="#0064d1"/>
              <path id="Trazado_819410" data-name="Trazado 819410" d="M262.649,183.854a1.716,1.716,0,0,1,0-3.433h35.664a1.716,1.716,0,1,1,0,3.433Z" transform="translate(-135.063 -93.389)" fill="#0064d1"/>
              <path id="Trazado_819411" data-name="Trazado 819411" d="M226.132,211.157l9.061,5.231a1,1,0,0,1,0,1.727l-9.061,5.231a1,1,0,0,1-1.5-.864V212.021a1,1,0,0,1,1.5-.864" transform="translate(-116.275 -109.228)" fill="#2f1e80"/>
              <path id="Trazado_819412" data-name="Trazado 819412" d="M262.649,209.717a1.716,1.716,0,0,1,0-3.433h46.125a1.716,1.716,0,0,1,0,3.433Z" transform="translate(-135.063 -106.776)" fill="#2f1e80"/>
              <path id="Trazado_819413" data-name="Trazado 819413" d="M262.649,222.632a1.716,1.716,0,0,1,0-3.433h46.125a1.716,1.716,0,0,1,0,3.433Z" transform="translate(-135.063 -113.461)" fill="#2f1e80"/>
              <path id="Trazado_819414" data-name="Trazado 819414" d="M262.649,235.548a1.716,1.716,0,0,1,0-3.433h35.664a1.716,1.716,0,0,1,0,3.433Z" transform="translate(-135.063 -120.146)" fill="#2f1e80"/>
              <path id="Trazado_819415" data-name="Trazado 819415" d="M226.132,262.851l9.061,5.231a1,1,0,0,1,0,1.727l-9.061,5.231a1,1,0,0,1-1.5-.864V263.715a1,1,0,0,1,1.5-.864" transform="translate(-116.275 -135.986)" fill="#2f1e80"/>
              <path id="Trazado_819416" data-name="Trazado 819416" d="M262.649,261.41a1.716,1.716,0,0,1,0-3.433h46.125a1.716,1.716,0,0,1,0,3.433Z" transform="translate(-135.063 -133.533)" fill="#2f1e80"/>
              <path id="Trazado_819417" data-name="Trazado 819417" d="M262.649,274.326a1.716,1.716,0,0,1,0-3.433h46.125a1.716,1.716,0,0,1,0,3.433Z" transform="translate(-135.063 -140.218)" fill="#2f1e80"/>
              <path id="Trazado_819418" data-name="Trazado 819418" d="M262.649,287.242a1.716,1.716,0,0,1,0-3.433h35.664a1.716,1.716,0,1,1,0,3.433Z" transform="translate(-135.063 -146.904)" fill="#2f1e80"/>
              <path id="Trazado_819419" data-name="Trazado 819419" d="M110.57,70.4H94.256L86.1,84.529l8.157,14.129H110.57l8.157-14.129Z" transform="translate(-44.566 -36.44)" fill="#0064d1"/>
              <path id="Trazado_819420" data-name="Trazado 819420" d="M100.056,98.891,93.743,87.955l6.313-10.935h12.626L119,87.955l-6.313,10.936Z" transform="translate(-48.523 -39.867)" fill="#2f1e80"/>
              <path id="Trazado_819421" data-name="Trazado 819421" d="M276.555,99.021H171.912a6.875,6.875,0,0,1-6.875-6.875V87.584a6.876,6.876,0,0,1,6.875-6.875H276.555a6.876,6.876,0,0,1,6.875,6.875v4.561a6.875,6.875,0,0,1-6.875,6.875" transform="translate(-85.426 -41.776)" fill="#0064d1"/>
              <path id="Trazado_819422" data-name="Trazado 819422" d="M177.619,99.254a5.962,5.962,0,1,1,0-11.924H277.7a5.962,5.962,0,0,1,0,11.924Z" transform="translate(-88.852 -45.203)" fill="#2f1e80"/>
              <path id="Trazado_819423" data-name="Trazado 819423" d="M181.046,99.488a2.768,2.768,0,1,1,0-5.537h36.243a2.768,2.768,0,0,1,0,5.537Z" transform="translate(-92.279 -48.63)" fill="#ef22b0"/>
            </g>
          </g>
          <g id="Grupo_1072945" data-name="Grupo 1072945" transform="translate(45.22 37.154)">
            <g id="Grupo_1072944" data-name="Grupo 1072944" clip-path="url(#clip-path-10)">
              <path id="Trazado_819424" data-name="Trazado 819424" d="M119.583,89.809A3.843,3.843,0,0,1,117.1,94.38a3.353,3.353,0,0,1-4.03-2.818,3.844,3.844,0,0,1,2.484-4.571,3.354,3.354,0,0,1,4.03,2.818" transform="translate(-103.698 -82.128)" fill="#fff"/>
              <path id="Trazado_819425" data-name="Trazado 819425" d="M116.956,107.6h-9.88a2.424,2.424,0,0,0-2.424,2.424v9.1a1.467,1.467,0,0,0,1.337,1.491,1.413,1.413,0,0,0,1.489-1.411v-7.5a.5.5,0,0,1,1.006,0v24.082c-.6,1.048.469,1.868,1.549,1.591a1.681,1.681,0,0,0,1.219-1.646V122.9a.765.765,0,0,1,.765-.765h0a.765.765,0,0,1,.765.765v12.824A1.681,1.681,0,0,0,114,137.373c1.08.276,2.152-.543,1.549-1.591V111.7a.5.5,0,0,1,1.006,0v7.425a1.467,1.467,0,0,0,1.337,1.491,1.413,1.413,0,0,0,1.489-1.411v-9.182a2.424,2.424,0,0,0-2.424-2.424" transform="translate(-99.389 -92.848)" fill="#fff"/>
            </g>
          </g>
          <g id="Grupo_1072947" data-name="Grupo 1072947">
            <g id="Grupo_1072946" data-name="Grupo 1072946" clip-path="url(#clip-path)">
              <path id="Trazado_819427" data-name="Trazado 819427" d="M596.662,119.768h-4.549a.991.991,0,0,0-.959,1.241l1.432,5.512a.992.992,0,0,1-1.5,1.08l-10.392-6.764a6.607,6.607,0,0,0-3.6-1.069H558.114a3.592,3.592,0,0,1-3.592-3.592V93.137a3.592,3.592,0,0,1,3.592-3.592h38.547a3.592,3.592,0,0,1,3.592,3.592v23.039a3.592,3.592,0,0,1-3.592,3.592" transform="translate(-287.029 -46.35)" fill="#006ac9"/>
              <path id="Trazado_819428" data-name="Trazado 819428" d="M618.434,119.135A3.135,3.135,0,1,0,621.57,116a3.135,3.135,0,0,0-3.135,3.136" transform="translate(-320.111 -60.043)" fill="#0044b9"/>
              <path id="Trazado_819429" data-name="Trazado 819429" d="M595.424,119.135A3.135,3.135,0,1,0,598.56,116a3.135,3.135,0,0,0-3.135,3.136" transform="translate(-308.2 -60.043)" fill="#0044b9"/>
              <path id="Trazado_819430" data-name="Trazado 819430" d="M572.414,119.135A3.135,3.135,0,1,0,575.549,116a3.135,3.135,0,0,0-3.135,3.136" transform="translate(-296.29 -60.043)" fill="#0044b9"/>
              <path id="Trazado_819431" data-name="Trazado 819431" d="M521.55,138.83H526.1a.991.991,0,0,1,.959,1.241l-1.432,5.512a.992.992,0,0,0,1.5,1.08L537.52,139.9a6.6,6.6,0,0,1,3.6-1.069H560.1a3.592,3.592,0,0,0,3.592-3.592V112.2a3.592,3.592,0,0,0-3.592-3.592H521.55a3.592,3.592,0,0,0-3.592,3.592v23.039a3.592,3.592,0,0,0,3.592,3.592" transform="translate(-268.103 -56.217)" fill="#fff"/>
              <path id="Trazado_819432" data-name="Trazado 819432" d="M542.12,138.2a3.135,3.135,0,1,1-3.135-3.135,3.136,3.136,0,0,1,3.135,3.135" transform="translate(-277.363 -69.91)" fill="#ef22b0"/>
              <path id="Trazado_819433" data-name="Trazado 819433" d="M565.131,138.2a3.135,3.135,0,1,1-3.136-3.135,3.135,3.135,0,0,1,3.136,3.135" transform="translate(-289.274 -69.91)" fill="#ef22b0"/>
              <path id="Trazado_819434" data-name="Trazado 819434" d="M588.141,138.2a3.135,3.135,0,1,1-3.136-3.135,3.135,3.135,0,0,1,3.136,3.135" transform="translate(-301.185 -69.91)" fill="#ef22b0"/>
              <path id="Trazado_819435" data-name="Trazado 819435" d="M469.932,146.317a5.844,5.844,0,1,0,5.844,5.844,5.851,5.851,0,0,0-5.844-5.844m0,10.319a4.475,4.475,0,1,1,4.475-4.475,4.48,4.48,0,0,1-4.475,4.475" transform="translate(-240.219 -75.736)" fill="#ef22b0"/>
              <path id="Trazado_819436" data-name="Trazado 819436" d="M72.968,25.3a5.844,5.844,0,1,0,5.844,5.844A5.851,5.851,0,0,0,72.968,25.3m0,10.319a4.475,4.475,0,1,1,4.475-4.475,4.48,4.48,0,0,1-4.475,4.475" transform="translate(-34.744 -13.096)" fill="#07f7ae"/>
              <path id="Trazado_819437" data-name="Trazado 819437" d="M161.414,160.144l-3.164-3.164,3.164-3.164a.685.685,0,0,0-.969-.969l-3.164,3.164-3.164-3.164a.685.685,0,0,0-.968.969l3.164,3.164-3.164,3.164a.685.685,0,0,0,.969.969l3.164-3.164,3.164,3.164a.685.685,0,0,0,.968-.969" transform="translate(-79.168 -79.013)" fill="#ef22b0"/>
              <path id="Trazado_819438" data-name="Trazado 819438" d="M436.668,182.487l.25-4.467,4.468.25a.685.685,0,0,0,.076-1.368l-4.468-.25.25-4.468a.685.685,0,0,0-1.368-.076l-.249,4.468-4.468-.25a.685.685,0,0,0-.076,1.368l4.467.249-.25,4.468a.685.685,0,0,0,1.368.076" transform="translate(-222.8 -88.751)" fill="#0064d1"/>
              <path id="Trazado_819439" data-name="Trazado 819439" d="M616.4,221.463a.618.618,0,0,1-.455-.418l-3.4-10.826a.617.617,0,0,1,.724-.788l11.076,2.467a.618.618,0,0,1,.321,1.02l-7.675,8.359a.619.619,0,0,1-.589.185m-2.357-10.594,2.76,8.785,6.229-6.783Z" transform="translate(-317.049 -108.397)" fill="#07f7ae"/>
              <path id="Trazado_819440" data-name="Trazado 819440" d="M687.359,250.057l-8.6-4.678a.6.6,0,0,1-.24-.812l4.678-8.6a.6.6,0,0,1,.812-.24l8.6,4.678a.6.6,0,0,1,.24.813l-4.678,8.6a.6.6,0,0,1-.813.24m-7.5-5.444,7.544,4.105,4.105-7.544-7.544-4.105Z" transform="translate(-351.176 -121.98)" fill="#0064d1"/>
              <path id="Trazado_819441" data-name="Trazado 819441" d="M23.474,128.252l-2.45-9.475a.6.6,0,0,1,.43-.73l9.475-2.45a.6.6,0,0,1,.73.43l2.45,9.475a.6.6,0,0,1-.43.73l-9.475,2.45a.6.6,0,0,1-.73-.43m-1.14-9.195,2.15,8.314,8.314-2.15-2.15-8.314Z" transform="translate(-10.873 -59.825)" fill="#0064d1"/>
              <path id="Trazado_819442" data-name="Trazado 819442" d="M441.686,156.88a.767.767,0,1,1-.766-.767.767.767,0,0,1,.766.767" transform="translate(-227.829 -80.806)" fill="#0064d1"/>
              <path id="Trazado_819443" data-name="Trazado 819443" d="M418.947,163.238a.767.767,0,1,1-.767-.767.767.767,0,0,1,.767.767" transform="translate(-216.059 -84.097)" fill="#0064d1"/>
              <path id="Trazado_819444" data-name="Trazado 819444" d="M449.265,206.27a.767.767,0,1,1-.767-.766.767.767,0,0,1,.767.766" transform="translate(-231.752 -106.371)" fill="#0064d1"/>
              <path id="Trazado_819445" data-name="Trazado 819445" d="M464.033,119.455a.767.767,0,1,1-.767-.767.767.767,0,0,1,.767.767" transform="translate(-239.396 -61.435)" fill="#0064d1"/>
              <path id="Trazado_819446" data-name="Trazado 819446" d="M33.282,455a.767.767,0,1,1-.767-.767.767.767,0,0,1,.767.767" transform="translate(-16.433 -235.118)" fill="#0064d1"/>
              <path id="Trazado_819447" data-name="Trazado 819447" d="M26.634,448.5a.767.767,0,1,1-.767-.767.767.767,0,0,1,.767.767" transform="translate(-12.992 -231.753)" fill="#0064d1"/>
              <path id="Trazado_819448" data-name="Trazado 819448" d="M1.533,453.411a.767.767,0,1,1-.767-.767.767.767,0,0,1,.767.767" transform="translate(0 -234.295)" fill="#0064d1"/>
              <path id="Trazado_819449" data-name="Trazado 819449" d="M39.272,420.753a.767.767,0,1,1-.767-.767.767.767,0,0,1,.767.767" transform="translate(-19.534 -217.391)" fill="#0064d1"/>
              <path id="Trazado_819450" data-name="Trazado 819450" d="M670.4,284.586a.767.767,0,1,1,1.084,0,.767.767,0,0,1-1.084,0" transform="translate(-346.891 -146.628)" fill="#0064d1"/>
              <path id="Trazado_819451" data-name="Trazado 819451" d="M677.086,265.379a.767.767,0,1,1,1.084,0,.767.767,0,0,1-1.084,0" transform="translate(-350.353 -136.687)" fill="#0064d1"/>
              <path id="Trazado_819452" data-name="Trazado 819452" d="M640.894,249.254a.767.767,0,1,1,1.084,0,.767.767,0,0,1-1.084,0" transform="translate(-331.62 -128.34)" fill="#0064d1"/>
              <path id="Trazado_819453" data-name="Trazado 819453" d="M691.84,321.084a.767.767,0,1,1,1.084,0,.767.767,0,0,1-1.084,0" transform="translate(-357.99 -165.52)" fill="#0064d1"/>
              <path id="Trazado_819454" data-name="Trazado 819454" d="M48.167,80.464a.767.767,0,1,1-.991-.441.767.767,0,0,1,.991.441" transform="translate(-24.165 -41.395)" fill="#0064d1"/>
              <path id="Trazado_819455" data-name="Trazado 819455" d="M29.221,94.553a.767.767,0,1,1-.991-.441.767.767,0,0,1,.991.441" transform="translate(-14.358 -48.688)" fill="#0064d1"/>
              <path id="Trazado_819456" data-name="Trazado 819456" d="M71.623,131.841a.767.767,0,1,1-.991-.441.766.766,0,0,1,.991.441" transform="translate(-36.306 -67.988)" fill="#0064d1"/>
              <path id="Trazado_819457" data-name="Trazado 819457" d="M121.871,27.705a.767.767,0,1,1-.991-.441.766.766,0,0,1,.991.441" transform="translate(-62.315 -14.086)" fill="#0064d1"/>
              <path id="Trazado_819458" data-name="Trazado 819458" d="M113.827,300.846a4.158,4.158,0,1,1,4.178-4.16,4.173,4.173,0,0,1-4.178,4.16" transform="translate(-56.757 -151.418)" fill="#fff"/>
              <path id="Trazado_819459" data-name="Trazado 819459" d="M115.008,274.428a2.359,2.359,0,0,1-1.675-.693,13.1,13.1,0,0,0-18.482-.023,2.369,2.369,0,0,1-3.343,0,2.345,2.345,0,0,1,0-3.319,17.843,17.843,0,0,1,25.172.034,2.342,2.342,0,0,1,0,3.317,2.356,2.356,0,0,1-1.67.688" transform="translate(-47.01 -137.277)" fill="#fff"/>
              <path id="Trazado_819460" data-name="Trazado 819460" d="M113.734,230.645a2.352,2.352,0,0,1-1.673-.691,37.847,37.847,0,0,0-53.393-.027,2.36,2.36,0,0,1-4.032-1.661,2.323,2.323,0,0,1,.689-1.657,42.592,42.592,0,0,1,60.082.029,2.344,2.344,0,0,1,0,3.318,2.353,2.353,0,0,1-1.671.689" transform="translate(-28.28 -110.886)" fill="#fff"/>
              <path id="Trazado_819461" data-name="Trazado 819461" d="M114.385,253.09a2.354,2.354,0,0,1-1.674-.692,25.158,25.158,0,0,0-35.5-.025,2.373,2.373,0,0,1-3.344,0,2.336,2.336,0,0,1,0-3.317,29.9,29.9,0,0,1,42.186.028,2.35,2.35,0,0,1-1.673,4.009" transform="translate(-37.88 -124.414)" fill="#fff"/>
            </g>
          </g>
        </g>
      </g>
    </g>
  </g>
</svg>
