<svg xmlns="http://www.w3.org/2000/svg" width="74" height="74" viewBox="0 0 74 74">
  <g id="Grupo_1072962" data-name="Grupo 1072962" transform="translate(-296 -7128)">
    <circle id="Elipse_9760" data-name="Elipse 9760" cx="37" cy="37" r="37" transform="translate(296 7128)" fill="#dc40ed"/>
    <g id="notas-adhesivas" transform="translate(259.54 7130.001)">
      <g id="Grupo_1072960" data-name="Grupo 1072960" transform="translate(45.808 1.347)">
        <path id="Trazado_819464" data-name="Trazado 819464" d="M336.242,16.3a5,5,0,1,0-.132-1.931A5.01,5.01,0,0,0,336.242,16.3Z" transform="translate(-298.109 -9.996)" fill="#ff5d7d" fill-rule="evenodd"/>
        <path id="Trazado_819465" data-name="Trazado 819465" d="M305.475,48.065a5.012,5.012,0,0,1-5.605-5.6,5.643,5.643,0,1,0,5.605,5.6Z" transform="translate(-261.868 -38.085)" fill="#ff5d7d" fill-rule="evenodd"/>
        <path id="Trazado_819466" data-name="Trazado 819466" d="M93.883,57.5A5.648,5.648,0,0,1,86.79,52.44L66.538,47.014,54.461,92.088l9.691,2.6,24.115,6.461,2.265-8.451,8.451,2.265L107.9,61.682l.9-3.345L97.1,55.2A5.623,5.623,0,0,1,93.883,57.5Z" transform="translate(-54.461 -42.024)" fill="#ffda8f" fill-rule="evenodd"/>
        <path id="Trazado_819467" data-name="Trazado 819467" d="M315.96,388.157l-8.451-2.265-2.265,8.451Z" transform="translate(-271.439 -335.222)" fill="#ffcd69" fill-rule="evenodd"/>
        <path id="Trazado_819468" data-name="Trazado 819468" d="M161.181,189.1l-10.716,6.187-24.115-6.462v13.661H170.1V155.823Z" transform="translate(-116.659 -136.166)" fill="#ffc144" fill-rule="evenodd"/>
      </g>
      <g id="Grupo_1072961" data-name="Grupo 1072961" transform="translate(44.46 -0.001)">
        <path id="Trazado_819469" data-name="Trazado 819469" d="M101.31,16.985a1.348,1.348,0,0,0-.818-.628L90.38,13.648a6.948,6.948,0,0,0,.3-1.226,6.357,6.357,0,1,0-7.965-7.965A7,7,0,0,0,76.9,10.036l-18.667-5a1.348,1.348,0,0,0-1.651.953L44.506,51.062a1.348,1.348,0,0,0,.953,1.651l8.692,2.329V67.668A1.348,1.348,0,0,0,55.5,69.016H99.246a1.348,1.348,0,0,0,1.348-1.348V21.181l.85-3.173a1.348,1.348,0,0,0-.135-1.023ZM87.832,2.821A3.661,3.661,0,1,1,85.243,7.3a3.666,3.666,0,0,1,2.589-4.484Zm-7.784,6.4a4.265,4.265,0,0,1,2.441-1.953,6.36,6.36,0,0,0,5.379,5.383,4.3,4.3,0,1,1-7.82-3.431ZM58.839,7.988l18.093,4.848q.037.171.083.342a6.962,6.962,0,0,0,.95,2.089l-1.413,1.413a1.348,1.348,0,1,0,1.906,1.906l1.416-1.416a6.979,6.979,0,0,0,9.08-1.113l9.538,2.556L89.376,52.631l-7.149-1.916a1.348,1.348,0,0,0-1.651.953L78.66,58.818l-31.2-8.36Zm28,46.754-5.079,2.932,1.073-4.006ZM97.9,66.32H56.847V55.764l22.418,6.007a1.347,1.347,0,0,0,1.023-.135L91,55.449a1.348,1.348,0,0,0,.628-.819L97.9,31.243V66.32Z" transform="translate(-44.46 0.001)"/>
        <path id="Trazado_819470" data-name="Trazado 819470" d="M161.813,171.626l26.631,7.136a1.348,1.348,0,1,0,.7-2.6l-26.631-7.136a1.348,1.348,0,1,0-.7,2.6Z" transform="translate(-145.129 -146.197)"/>
        <path id="Trazado_819471" data-name="Trazado 819471" d="M151.413,210.438l26.631,7.136a1.348,1.348,0,1,0,.7-2.6l-26.631-7.136a1.348,1.348,0,1,0-.7,2.6Z" transform="translate(-136.131 -179.778)"/>
        <path id="Trazado_819472" data-name="Trazado 819472" d="M149.166,248.642l-7.455-2a1.348,1.348,0,1,0-.7,2.6l7.455,2a1.348,1.348,0,1,0,.7-2.6Z" transform="translate(-127.133 -213.357)"/>
        <path id="Trazado_819473" data-name="Trazado 819473" d="M240.144,273.07h0a1.348,1.348,0,1,0,1.349,1.348A1.348,1.348,0,0,0,240.143,273.07Z" transform="translate(-212.6 -236.26)"/>
      </g>
    </g>
  </g>
</svg>
